<?xml version="1.0" encoding="utf-8"?>
<!-- Generator: Adobe Illustrator 27.8.0, SVG Export Plug-In . SVG Version: 6.00 Build 0)  -->
<svg version="1.1" id="Capa_2_00000151509178710155509860000000737893724769706128_"
	 xmlns="http://www.w3.org/2000/svg" xmlns:xlink="http://www.w3.org/1999/xlink" x="0px" y="0px" viewBox="0 0 916.3 840"
	 style="enable-background:new 0 0 916.3 840;" xml:space="preserve">
<style type="text/css">
	.st0{fill:#EAF5F8;}
	.st1{fill:#CCE7F8;}
	.st2{fill:#547AC7;}
	.st3{fill:#FFFFFF;}
	.st4{fill:#9DD0F7;}
	.st5{fill:#D1DFE8;}
	.st6{fill:#4F06E1;}
	.st7{fill:#D30A4A;}
	.st8{fill:#3A68FD;}
	.st9{fill:#002CAD;}
	.st10{fill:#FD5A18;}
	.st11{fill:#FFB900;}
	.st12{fill:#547AC5;}
	.st13{fill:#3055E9;}
	.st14{fill:#9BCEF5;}
	.st15{fill-rule:evenodd;clip-rule:evenodd;fill:#EAF5F8;}
	.st16{fill-rule:evenodd;clip-rule:evenodd;fill:#FFFFFF;}
</style>
<g id="Capa_1-2">
	<g>
		<g>
			<path class="st0" d="M27.9,435c-40.6,77.4-10.8,150.7,5.8,191.8C68,711.3,183,819.7,458.6,838.6
				C813.5,863,867.3,554.5,857.3,421.6c-10-132.9-25.4-307.3-316.7-404.2S363.6,257.1,139.5,355.9C99.7,373.4,48.2,396.2,27.9,435
				L27.9,435z"/>
			<path class="st0" d="M49,294.7c3.4,8,10.8,13.4,19.2,14.2c33.3,3.3,81.3-10.8,131-73.3c55.5-69.8,116.4-141.8,56.8-136.2
				C196.3,105,97.9,161.6,62.2,220.8C40.2,257.1,43.3,281.4,49,294.7z"/>
		</g>
		<g>
			<g>
				<g>
					<path class="st1" d="M678.6,344.4c-78.3,116.5-109.2,258.7-86.4,397.7c56.8,14,113.6,28,170.5,42c-14.5-93-5.3-187.5,25.7-275
						C788.1,504.4,786.5,359.7,678.6,344.4L678.6,344.4z"/>
					<path class="st2" d="M763.6,785.1l-30.8-7.6c-46.9-11.6-93.9-23.1-140.8-34.7l-0.5-0.1l-0.1-0.5
						c-22.9-139.6,7.8-281.1,86.5-398.3l0.3-0.4l0.5,0.1C779.4,357.9,788.3,483.4,789,508.4l0,0.8l-0.1,0.1
						c-31.1,87.8-40,182.8-25.6,274.6L763.6,785.1L763.6,785.1z M592.8,741.4c46.8,11.5,93.5,23,140.3,34.6l28.5,7
						c-14.1-91.7-5.2-186.5,25.8-274.1l0-0.5c-0.8-24.8-9.5-148.8-108.6-163.3C600.7,461.8,570.2,602.5,592.8,741.4L592.8,741.4z"/>
				</g>
				<path class="st3" d="M748.6,433.5L748.6,433.5c-17.2-35-35.9-64.1-69.1-71.3c-72.1,110.8-98.5,241-79,372.1
					c48.3,11.9,99.1,21.6,147.4,33.5c-10.8-87.5-1.2-189.9,28-273.3C775.4,481.9,757.4,474.5,748.6,433.5L748.6,433.5z M741.2,759.4
					c-23.3-5.7-47-11.3-70.3-17.1c-20.8-5.1-41.3-10.3-62.1-15.4c-17.9-126.6,7.1-252.7,75.6-359.9c28.7,7.6,41.3,40.4,62.6,64.6
					l0,0c7.5,39.5,23.7,48.1,24.7,59.7C742.3,576,732.7,676.3,741.2,759.4L741.2,759.4z"/>
				<g>
					<g>
						<path class="st3" d="M687.1,606c30.4,2,56.3-14.1,61.7-38.2c3-13.4-0.7-27.4-10.3-39.5c-9.7-12.2-24.3-20.9-41-24.7
							c-4-0.9-8-1.5-12-1.7c-30.4-2-56.3,14.1-61.7,38.2c-3,13.4,0.7,27.4,10.3,39.5c9.7,12.2,24.3,20.9,41,24.7
							C679.1,605.1,683.1,605.7,687.1,606L687.1,606z"/>
						<path class="st4" d="M685.6,500.4l-0.2,3c3.9,0.3,7.9,0.8,11.7,1.7c16.4,3.6,30.7,12.2,40.2,24.1c9.3,11.7,12.9,25.3,10,38.3
							c-5.2,23.4-30.5,39-60.1,37c-3.9-0.3-7.9-0.8-11.7-1.7c-16.4-3.6-30.7-12.2-40.2-24.1c-9.3-11.7-12.9-25.3-10-38.3
							c5.2-23.4,30.5-39,60.1-37L685.6,500.4L685.6,500.4L685.6,500.4z M685.6,500.4c-30.6-2-57.6,14.1-63.2,39.4
							c-6.4,28.6,17.1,58.2,52.5,66c4.1,0.9,8.2,1.5,12.2,1.8c30.6,2,57.6-14.1,63.2-39.4c6.3-28.6-17.2-58.1-52.5-66
							C693.7,501.2,689.6,500.6,685.6,500.4L685.6,500.4L685.6,500.4z"/>
					</g>
					<g>
						<path class="st1" d="M716.1,542l-7,0.9c1.6,4,2.3,9.4,1.1,14.9c-1.5,6.9-6.5,10.6-12,9.4c-5.3-1.2-7.8-5.7-9.1-13.5
							c-1.7-10.7-4.8-17.8-13.2-19.7c-8-1.8-15.4,2.6-18.8,11.2l-9.8-2.2l-1.3,6l9.4,2.1c-1.1,5.9-0.4,10.2,0.6,13.3l6.9-1
							c-0.7-2.3-2-6.7-0.6-12.9c1.7-7.5,6.7-9.3,10.6-8.4c5,1.1,6.8,5.2,8.4,14.4c1.9,10.9,5.8,17,14.4,18.9c7.6,1.7,16-2,19.8-11.6
							l10.1,2.2l1.4-6.1l-9.8-2.2C718.2,552.1,717.7,545.9,716.1,542L716.1,542z"/>
						<path class="st2" d="M699.1,576.6c-1.3,0-2.5-0.1-3.7-0.4c-8.5-1.9-13-7.7-15-19.6c-1.7-9.6-3.5-12.9-7.8-13.8
							c-3.5-0.8-8.1,0.8-9.7,7.8c-1.4,6.2,0,10.6,0.6,12.5l0.3,0.9l-8.5,1.2l-0.2-0.6c-1.3-4-1.5-8.3-0.8-13l-9.4-2.1l1.7-7.5
							l9.9,2.2c3.7-8.5,11.2-12.8,19.5-11c9.7,2.1,12.4,11,13.8,20.3c1.4,8.1,3.8,11.8,8.5,12.8c2.5,0.6,4.9,0,6.9-1.5
							c2.1-1.6,3.5-4.1,4.2-7.3c1.1-4.7,0.7-10-1-14.4l-0.4-0.9l8.6-1.1l0.2,0.5c1.7,4,2.1,10,1.2,15.5l9.8,2.2l-1.7,7.6l-10.2-2.3
							C712.2,573.1,705.4,576.5,699.1,576.6L699.1,576.6z M671,541c0.7,0,1.3,0.1,2,0.2c5.6,1.2,7.4,5.8,9,15.1
							c1.9,11.3,5.9,16.6,13.8,18.3c6.6,1.5,15-1.4,19-11.2l0.3-0.6l10,2.2l1-4.6l-9.8-2.2l0.2-0.8c1-5.1,0.7-10.9-0.7-14.7
							l-5.4,0.7c1.5,4.5,1.8,9.7,0.8,14.4c-0.8,3.5-2.4,6.4-4.8,8.2c-2.4,1.8-5.2,2.5-8.2,1.8c-5.3-1.2-8.2-5.4-9.7-14.1
							c-1.6-10.1-4.3-17.2-12.6-19.1c-7.6-1.7-14.7,2.5-17.9,10.7l-0.3,0.6l-9.7-2.1l-1,4.5l9.4,2.1l-0.1,0.7
							c-0.8,4.5-0.7,8.5,0.4,12.3l5.4-0.8c-0.7-2.3-1.6-6.7-0.3-12.4C662.9,543.7,667,541,671,541L671,541z"/>
					</g>
				</g>
				<g>
					<path class="st3" d="M722.8,433.8c-10.2-2.3-20.2,4.2-22.5,14.3c-2.3,10.2,4.1,20.2,14.3,22.5c10.2,2.3,20.2-4.2,22.5-14.3
						C739.3,446.1,732.9,436,722.8,433.8L722.8,433.8z"/>
					<path class="st2" d="M718.7,471.8c-1.4,0-2.8-0.2-4.2-0.5c-10.6-2.3-17.2-12.8-14.9-23.4c1.1-5.1,4.2-9.5,8.6-12.3
						c4.4-2.8,9.7-3.7,14.8-2.6c10.6,2.3,17.2,12.8,14.9,23.4C735.8,465.5,727.7,471.8,718.7,471.8L718.7,471.8z M718.7,434.1
						c-3.4,0-6.7,1-9.7,2.8c-4.1,2.6-6.9,6.6-7.9,11.3c-2.2,9.7,4,19.4,13.7,21.5c9.7,2.2,19.4-4,21.5-13.7
						c2.2-9.7-4-19.4-13.7-21.5l0,0C721.3,434.2,720,434.1,718.7,434.1L718.7,434.1z"/>
				</g>
				<path class="st3" d="M677.2,639.2c-10.2-2.3-20.2,4.1-22.5,14.3c-2.2,10.1,4.2,20.2,14.3,22.5s20.2-4.1,22.5-14.3
					C693.8,651.5,687.4,641.5,677.2,639.2L677.2,639.2z"/>
				<path class="st3" d="M625.3,698.5c-10.1-2.3-20.2,4.1-22.5,14.3c-2.2,10.2,4.2,20.2,14.3,22.5c10.2,2.2,20.2-4.2,22.5-14.3
					C641.9,710.8,635.5,700.7,625.3,698.5z"/>
				<path class="st3" d="M699.3,363.6c-10.2-2.3-20.2,4.2-22.5,14.3c-2.2,10.1,4.2,20.2,14.3,22.5c10.2,2.3,20.2-4.1,22.5-14.3
					C715.9,375.9,709.5,365.9,699.3,363.6L699.3,363.6z"/>
				<path class="st3" d="M731.7,720.7c-12-2.7-23.9,4.9-26.6,16.9c-2.7,12,7,20.9,19,23.5s20.7,1.7,18.6-10.7
					C740.7,738.3,743.7,723.4,731.7,720.7z"/>
				<g>
					<path class="st1" d="M689.9,346.6c0,0,51.2,76.5,31.4,111.7c0,0,61.4-3.3,66.9,50.8C789.5,488.1,777.9,363,689.9,346.6z"/>
					<path class="st2" d="M787.5,509.1c-5.4-52.7-65.5-50.1-66.1-50.1l-1.4,0.1l0.7-1.2c19.3-34.3-30.9-110.1-31.4-110.9l-1-1.5
						l1.8,0.3c46.8,8.7,71.1,48.3,83.2,80c13.4,35,16.5,71.8,15.8,83.2L787.5,509.1L787.5,509.1z M723,457.5c9.5,0,54.2,2.2,64.3,42
						c-1.9-36-19.8-136.1-95.8-151.8c7.3,11.2,47.9,76.6,31.1,109.8C722.8,457.5,722.9,457.5,723,457.5z"/>
				</g>
				<g>
					<path class="st4" d="M709.1,352.3c0.9,1.4,33.9,53.9,29.5,93.3c19.5,0.8,37.8,11.3,46.9,30
						C779.1,435.4,759.8,373.6,709.1,352.3L709.1,352.3z"/>
					<path class="st2" d="M787.1,480.7l-2.3-4.7c-8.6-17.7-25.9-28.7-46.2-29.6l-0.8,0l0.1-0.8c4.4-39.1-29.1-92.2-29.4-92.7
						l-1.5-2.2l2.4,1c55.2,23.2,72.2,94.3,76.9,123.9L787.1,480.7L787.1,480.7z M739.5,444.9c18.9,1.1,35.2,10.7,44.4,26.2
						c-5.6-31-22.8-94.4-72.9-117C717.3,364.3,743,409.3,739.5,444.9z"/>
				</g>
			</g>
			<g>
				<g>
					<path class="st1" d="M610.9,610.1c-3.5,3.1-115.5,94.8-60,188.6c139.9-11.8,270.2-76.5,364.5-181.1
						c-24.6-53.1-49.2-106.2-73.8-159.3C778.1,527.7,698.6,579.6,610.9,610.1z"/>
					<path class="st2" d="M550.5,799.5l-0.3-0.4c-51.8-87.5,40.6-172.9,59.7-189.2l0.7-0.6c88-30.6,167.6-83,230.4-151.6l0.8-0.9
						l0.5,1.1c24.6,53.1,49.2,106.2,73.8,159.3l0.2,0.5l-0.3,0.4c-94.7,105.2-224.3,169.6-365,181.4L550.5,799.5L550.5,799.5z
						 M611.3,610.8l-0.4,0.3c-18.8,16.1-110.2,100.5-59.6,186.8c139.9-11.9,268.8-75.9,363.1-180.5c-24.4-52.6-48.7-105.2-73-157.8
						C778.6,528,699.1,580.2,611.3,610.8L611.3,610.8z"/>
				</g>
				<path class="st3" d="M607.2,628.9c-9.5,8.2-4,26.9-30.5,59.4l0,0c-16.6,35.3-27.6,68.1-12.5,98.5
					c131.6-13,249.7-73.7,339.8-170.9c-20.9-45.1-45.1-90.9-66-136C776.4,543,690.5,599.6,607.2,628.9L607.2,628.9z M866.4,555.9
					c9,19.4,17.8,38.7,26.8,58.1C805.5,707,691.5,766.4,565,779.9c-12-27.2,5.7-57.5,11.3-89.3l0,0c26.2-30.6,22.7-48.6,31.2-56.6
					c84.4-29.9,168.7-85.1,228.2-143.7C845.8,512.1,856.3,534.1,866.4,555.9L866.4,555.9z"/>
				<g>
					<g>
						<path class="st3" d="M703.6,721c12.1,3.9,23.9,3.2,34.3-1.9c12.3-6.1,21-17.7,24.4-32.8c3.5-15.2,1.2-32-6.4-47.4
							c-8.8-17.9-23.4-31.2-40.2-36.6c-12.1-3.9-23.9-3.2-34.3,1.9c-12.3,6-21,17.7-24.4,32.8c-3.5,15.2-1.2,32,6.4,47.4
							C672.2,702.3,686.8,715.6,703.6,721z"/>
						<path class="st4" d="M716.2,600.9l-0.9,2.9c16.4,5.3,30.7,18.3,39.3,35.8c7.4,15.1,9.6,31.6,6.3,46.4
							c-3.3,14.6-11.7,25.9-23.6,31.7c-10,4.9-21.5,5.5-33.1,1.8c-16.4-5.3-30.7-18.3-39.3-35.8c-7.4-15.1-9.6-31.6-6.3-46.4
							c3.3-14.6,11.7-25.9,23.6-31.7c10-4.9,21.5-5.6,33.2-1.8L716.2,600.9L716.2,600.9z M716.2,600.9c-11.9-3.8-24.4-3.5-35.4,2
							c-26.3,12.9-34.7,49.7-18.7,82.2c9.3,18.8,24.7,32.1,41.1,37.3c11.9,3.8,24.3,3.5,35.4-2c26.3-12.9,34.7-49.7,18.7-82.2
							C748,619.4,732.6,606.2,716.2,600.9L716.2,600.9L716.2,600.9z"/>
					</g>
					<g>
						<path class="st1" d="M731.7,674.1c-1.3,2-4,5.7-9.7,8.5c-6.9,3.4-11.5,0.5-13.2-3c-2.3-4.6-0.1-8.6,6-15.6
							c7.3-8.2,9.7-15.1,5.8-23.1c-3.5-7-11.6-11.2-21.5-8.2l-4.6-9.2l-5.6,2.8l4.4,9c-5.1,2.6-9.7,6.8-11.7,10.6l5.1,4.9
							c2.2-3.7,6-7.7,10.9-10.1c6.3-3.1,12.4-1.6,14.9,3.5c2.4,4.9,0.4,9.6-4.9,15.5c-7.3,8-10.9,14.9-7.1,22.6
							c3.6,7.4,11.6,10.4,20.5,7.7l4.4,9l5.5-2.7l-4.2-8.6c5.3-2.8,8.2-6,10-8.8L731.7,674.1L731.7,674.1z"/>
						<path class="st2" d="M725.1,700.1l-4.5-9.1c-8.9,2.5-17.1-0.8-20.8-8.3c-4.4-8.9,0.9-16.5,7.2-23.5c5.5-6.1,6.8-10.4,4.7-14.7
							c-2.3-4.7-8-6-13.8-3.2c-4.4,2.1-8.2,5.7-10.6,9.8l-0.5,0.9l-6.2-6l0.3-0.5c2.1-3.8,6.5-7.9,11.3-10.6l-4.4-9l7-3.4l4.6,9.4
							c10.6-2.9,18.6,2.3,21.8,8.8c3.8,7.8,2.1,15-5.9,23.9c-6.5,7.4-7.9,10.8-5.9,14.7c1.6,3.2,5.7,5.8,12.2,2.7
							c5.7-2.8,8.3-6.6,9.4-8.3l0.5-0.8l6.3,5.9l-0.4,0.6c-2.3,3.5-5.5,6.4-9.6,8.7l4.3,8.7L725.1,700.1L725.1,700.1z M721.5,689.1
							l4.4,8.9l4.1-2l-4.2-8.6l0.7-0.4c4.1-2.2,7.1-4.8,9.4-8l-4-3.7c-1.4,2-4.2,5.4-9.5,8c-7,3.4-12.2,0.8-14.2-3.4
							c-2.5-5.1,0-9.4,6.2-16.4c7.6-8.5,9.2-15,5.7-22.2c-3.6-7.4-11.7-10.5-20.6-7.8l-0.6,0.2l-4.5-9.1l-4.2,2.1l4.4,9l-0.7,0.4
							c-4.7,2.4-8.9,6.2-11.1,9.8l3.9,3.8c2.6-4,6.4-7.5,10.8-9.6c6.6-3.3,13.2-1.7,15.9,3.9c2.4,4.9,0.9,9.8-5,16.4
							c-6.9,7.6-10.7,14.2-7,21.7c3.4,7,11.1,9.9,19.5,7.3L721.5,689.1L721.5,689.1z"/>
					</g>
				</g>
				<path class="st3" d="M601.7,683.1c-9.3,4.6-13.2,15.9-8.6,25.2c4.6,9.3,15.9,13.2,25.2,8.6c9.3-4.6,13.2-15.9,8.6-25.2
					C622.3,682.3,611,678.5,601.7,683.1z"/>
				<g>
					<path class="st3" d="M790.5,590.2c-9.3,4.6-13.2,15.9-8.6,25.2c4.6,9.3,15.9,13.2,25.2,8.6c9.3-4.6,13.2-15.9,8.6-25.2
						C811.1,589.4,799.9,585.6,790.5,590.2L790.5,590.2z"/>
					<path class="st2" d="M798.9,626.7c-2.1,0-4.3-0.4-6.4-1.1c-5-1.7-9-5.2-11.3-9.9c-2.3-4.7-2.7-10-1-15c1.7-5,5.2-9,9.9-11.3
						c4.7-2.3,10-2.7,15-1c5,1.7,9,5.2,11.3,9.9c4.8,9.7,0.8,21.5-8.9,26.3C804.7,626.1,801.8,626.7,798.9,626.7L798.9,626.7z
						 M798.8,589c-2.7,0-5.4,0.6-7.9,1.9l0,0c-4.3,2.1-7.6,5.8-9.1,10.4c-1.6,4.6-1.2,9.5,0.9,13.8c2.1,4.3,5.8,7.6,10.4,9.1
						c4.6,1.6,9.5,1.2,13.8-0.9c8.9-4.4,12.6-15.2,8.2-24.2c-2.1-4.3-5.8-7.6-10.4-9.1C802.7,589.4,800.8,589,798.8,589L798.8,589z"
						/>
				</g>
				<path class="st3" d="M869.2,593.7c-9.3,4.6-13.2,15.9-8.6,25.2c4.6,9.3,15.9,13.2,25.2,8.6c9.3-4.6,13.2-15.9,8.6-25.2
					C889.8,593,878.5,589.1,869.2,593.7L869.2,593.7z"/>
				<path class="st3" d="M561.5,745.2c-9.3,4.6-13.2,15.9-8.6,25.2c4.6,9.3,15.9,13.2,25.2,8.6c9.3-4.6,13.2-15.9,8.6-25.2
					C582.2,744.5,570.9,740.6,561.5,745.2z"/>
				<path class="st3" d="M827.8,494.8c-8.2,9.2-21.7,16.2-16.3,27.2c5.4,11,18.8,15.6,29.8,10.2c11-5.4,11.9-18.5,6.5-29.5
					C842.4,491.6,836.2,485.4,827.8,494.8L827.8,494.8z"/>
				<path class="st3" d="M610.9,610.1c-17.1,12.2-107.5,99.4-65.3,178.4c0,0,27.8-87.8,67.5-94.4
					C613.1,694.1,572.1,648.2,610.9,610.1L610.9,610.1z"/>
				<path class="st5" d="M586.5,633.1C559.2,663.3,523,717,538,769.9c0.5-1.6,20.9-60.2,54.3-81.4
					C580.9,672.8,577.6,652,586.5,633.1L586.5,633.1z"/>
			</g>
		</g>
		<g>
			<polygon class="st6" points="191.5,184.6 172.7,126.8 188.5,49.6 19.4,28.7 5.1,34.8 66.7,110.4 			"/>
			<polygon class="st7" points="155.9,166.3 176.3,58.6 5.1,34.8 0,156.1 			"/>
			<polygon class="st7" points="157.9,122.4 191.5,184.6 139.6,158.1 			"/>
			<path class="st3" d="M101.9,71.9c2.2,0.7,4.3,1.4,6.5,2.1c0.5-0.5,1.3-0.7,2-0.5c1,0.2,5.8,2.3,6,0.4c0.1-1.5,1.6-2.5,3.1-1.8
				c0.1,0.1,11.2,6.7,11.1,3.1c-0.1-2.2,2.7-2.5,3.8-1c1.9,0.7,3.7,1.3,5.6,1.9c0.5-1.4,2.3-2.1,3.4-0.9c2.1,3.2,5.3,3.8,9.5,1.9
				c1.1-2.4,4.6-0.3,3.5,2.1c-3.1,6.9-9.5,4.4-14,0.7c-2.3,2.7-5.8,1.7-8.6-0.6c-2.5,3.3-9.5,0.1-13.7-2.2c-0.4,1-1,1.9-2.4,2.6
				c-3.7,1.8-3.2-0.8-6.4-1c-5.7-0.5-7.9,2.2-12.8-4.6C96.8,71.8,100.4,69.8,101.9,71.9L101.9,71.9z"/>
			<path class="st3" d="M22.4,64.6c4.1,2.1,11.9,7.9,16.6,4c0.5-0.4,1.3-0.8,2-0.5c1.1,0.4,4.8,2.4,5.6,1.3c0.6-0.8,1.8-1.4,2.8-0.7
				c2.5,2.4,5.5,2.8,9.3,1c0.6-0.8,2.2-0.8,2.9,0c2.4-0.1,4.7-0.1,7.1-0.2c0.9-2.5,4.8-1.4,3.9,1.1c-2.2,6.2-8,7.4-12.4,3.5
				c-3.5,2.9-7.7,1.6-11.5-0.9c-2.8,2.4-4.6-0.2-8.4-0.2c-2.1-0.1-3.5,1.8-6.1,1.6c-4.7-0.5-9.7-4.2-13.8-6.3
				C18,66.9,20.1,63.4,22.4,64.6L22.4,64.6z"/>
			<path class="st3" d="M86.2,89.8c0.7,1.1,13.1,1.4,13.2,1.2c0.5-1,1.9-1.2,2.8-0.7c3,1.7,4.7,2.5,8.6,2.5c1.1,0,0.3-1.2,2.5-0.8
				c1.2,0.2,5.8,1,5.9,2.1c-0.2-1.6,1.9-2.5,3.1-1.8c0.7,0.5,1.5,0.9,2.2,1.3c0.1-0.1,0.1-0.2,0.2-0.3c0.5-1,1.9-1.3,2.8-0.7
				c2.2,1.3,4.4,2.7,6.5,4.3c0.8-2.5,4.7-1.4,3.9,1.1c-1.7,5.3-7.1,1.8-10.6-0.6c0,0.1-0.1,0.1-0.1,0.2c-0.5,1-1.9,1.2-2.8,0.7
				c-0.6-0.3-1.2-0.7-1.8-1.1c-1.3,1.2-3.8,0.9-5.9,0.6c-1.9-0.3-2.3-0.7-4.3-0.8c-0.4,0-2.3,0.9-2.6,0.9c-2.7,0-5.5-1.7-8-3.1
				c-1.7,1.8-3.9,1.4-6.8,1c-4.6-0.7-9.5,0.4-12.3-3.9C81.2,89.6,84.7,87.6,86.2,89.8L86.2,89.8z"/>
			<path class="st3" d="M39.3,88.6c0.8,1.2,4.8-0.7,5.9-0.7c0.9,0,1.7,0.1,2.6,0.4c0.9,0.4,1.6,0.6,1.1,1.5c1.1-2.4,4.6-0.3,3.5,2.1
				c-0.5,1.1-1.7,1.8-2.9,1.8c-0.8,0-1.5-0.4-2.2-0.8c-1.4-0.8-1.8-1.1-3.3-0.7c-3.1,0.8-6.2,1.4-8.3-1.6
				C34.3,88.5,37.8,86.5,39.3,88.6L39.3,88.6z"/>
			<path class="st3" d="M94.7,115.1c1.3,0.3,10.9,3,11.6,1.9c0.8-1.2,2.2-1.2,3.2-0.4c0.9,0.1,1.7,0.2,2.6,0.3
				c0.6-0.8,1.3-1.2,2.3-0.9c1.8,0.4,16.1,3.4,16.8,2.5c0.8-1,2.2-1.4,3.2-0.4c1.9,2.6,4.7,3.4,8.3,2.5c1.9-1.8,4.8,1.1,2.9,2.9
				c-4.4,4-8.7,2.4-12.6-1.1c-1.3,1.2-2.8,1.9-4.9,1.9c-3.1-0.1-3.8-2.3-6.4-2.6c-1.4-0.2-2.9,0.7-4.3,0.5c-1-0.1-2-1.3-2.8-1.4
				c0,0.2-1.3,0.7-1.5,0.7c-2.1-0.1-3.2,0.1-4.8-0.7c-3.9,2.6-11-0.7-14.8-1.6C91.1,118.5,92.2,114.6,94.7,115.1L94.7,115.1z"/>
			<path class="st3" d="M25.5,109.6c0.8,0.1,20.5-2.1,19.8-1.3c0.7-0.9,2.1-0.6,2.9,0c3.2,3.6,7.2,4.7,12.2,3.4
				c0.9-0.5,2.3-0.3,2.8,0.7c2.2,0.3,4.4,0.6,6.7,0.9c0.5-0.6,1.8-0.8,2.5-0.3c3.3,0.1,6.6,0.1,9.9,0.2c2.2-1.5,4.2,2,2.1,3.5
				c-5.1,3.5-9.2,1.3-14.2,1.9c-4.3,0.5-7.1,1-9.4-2.5c-1.9,0.8-3.7,1-6.2,0.5c-2.7-0.6-5-3.5-7.4-3.9c-1-0.2-4.1,1-5.5,1.1
				c-4,0.1-5-1.1-10.5-0.7c-2.3,0.2-3.1,0.7-5.6,0.6C22.9,113.5,22.9,109.4,25.5,109.6L25.5,109.6z"/>
			<path class="st3" d="M78.6,135.7c1.7,0.7,3-0.5,4.6-0.3c1.6,0.2,3.2,1.1,4.9,1.3c2.4,0.4,13.6,0.9,13.6,0.8
				c0.5-0.9,1.4-1.1,2.3-0.9c0.2,0,16,4.5,16.6,3.8c1.5-2.1,5.1-0.1,3.5,2.1c-2.6,3.6-4.4,2.9-8.2,1.8c-2.5-0.7-4.5-0.4-7-0.9
				c-1.2-0.3-2.3-1.4-3.5-1.6c-0.7-0.1-0.8-0.2-0.8-0.3c-0.1,0.1-0.4,0.1-0.8,0.2c-1.1,0.3-2.2,1.8-3.9,2c-3.3,0.4-6.5-1.9-9.8-2.2
				c-1.3-0.1-2.7,0-4-0.3c-2.9-0.6-6-0.3-8.6-1.4C75.1,138.7,76.1,134.7,78.6,135.7L78.6,135.7z"/>
			<path class="st3" d="M22.9,133.2c1.4-0.6,1.5-2.3,3.2-2.6c2-0.3,3.6,1.6,5.4,2.1c2.4,0.7,4.8-0.3,7.2,0.2c3.6,0.8,5.8,3.8,9.6,1
				c2.1-1.6,4.2,2,2.1,3.5c-5.3,3.9-9.6-0.5-15.1-0.5c-2.6,0-4.3,0-6.8-1c-2.8-1.1-2,0.2-4.6,1.2C21.5,138.2,20.5,134.2,22.9,133.2
				L22.9,133.2z"/>
		</g>
		<g>
			<g>
				<g>
					
						<rect x="293.5" y="166.4" transform="matrix(1 -2.094389e-03 2.094389e-03 1 -1.0137 0.9895)" class="st0" width="356.9" height="636.1"/>
					<path class="st2" d="M293.2,803.8L292,166.1l358.5-0.7l1.2,637.7L293.2,803.8z M293.6,167.6l1.2,634.5l355.3-0.7l-1.2-634.5
						L293.6,167.6L293.6,167.6z"/>
				</g>
				<path class="st8" d="M305.1,142.5l206.3,1.2l0.1,26.8L407,170.7l-74.5,0.4c-25.1,0.1-45.4,20.4-45.3,45.5l1,518.2
					c0.1,25.1,20.4,45.4,45.5,45.4l179,0.4l0.1,56.3l-206.3,1.9c-25.1,0.1-45.5-20.2-45.5-45.3l-1.1-605.4
					C259.7,163,280,142.6,305.1,142.5L305.1,142.5z"/>
				<path class="st9" d="M278.3,187.7l0.1,605.3c0,24.1,18.7,43.8,42.4,45.4c1,0.1,2.1,0.1,3.1,0.1l317.3-0.1
					c16.2,0,29.4-13.2,29.4-29.4l-0.1-637.4c0-16.3-13.2-29.5-29.5-29.5l-317.3,0.1c-1.1,0-2.1,0-3.1,0.1
					C297,144,278.3,163.6,278.3,187.7L278.3,187.7z M305.7,200.3c0-16.3,13.2-29.4,29.4-29.4l278.6-0.1c16.2,0,29.4,13.2,29.4,29.4
					l0.1,550.2c0,16.3-13.2,29.4-29.4,29.4L335.2,780c-16.3,0-29.5-13.2-29.5-29.5L305.7,200.3L305.7,200.3z"/>
				<path class="st8" d="M437.3,822.9l75.6-0.2c7.6,0,13.7-6.2,13.7-13.8l0,0c0-7.6-6.2-13.7-13.8-13.7l-75.6,0.2
					c-7.6,0-13.7,6.2-13.7,13.8l0,0C423.6,816.8,429.7,822.9,437.3,822.9L437.3,822.9z"/>
			</g>
			<g>
				<g>
					<path class="st1" d="M643.1,210.6H305.5v-28.6c0-6.5,5.2-11.7,11.7-11.7h314.2c6.5,0,11.7,5.2,11.7,11.7V210.6z"/>
					<path class="st2" d="M643.9,211.4H304.7v-29.4c0-3.3,1.3-6.5,3.7-8.8c2.4-2.4,5.5-3.7,8.8-3.7h314.2c6.9,0,12.5,5.6,12.5,12.5
						L643.9,211.4L643.9,211.4z M306.3,209.8h336v-27.8c0-6-4.9-10.9-10.9-10.9H317.2c-2.9,0-5.7,1.1-7.7,3.2
						c-2.1,2.1-3.2,4.8-3.2,7.7L306.3,209.8L306.3,209.8z"/>
				</g>
				<g>
					<path class="st3" d="M370,190.4c0-3.4,2.8-6.2,6.2-6.2s6.2,2.8,6.2,6.2s-2.8,6.2-6.2,6.2S370,193.8,370,190.4z"/>
					<path class="st3" d="M346.2,190.4c0-3.4,2.8-6.2,6.2-6.2s6.2,2.8,6.2,6.2s-2.8,6.2-6.2,6.2S346.2,193.8,346.2,190.4z"/>
					<path class="st3" d="M322.4,190.4c0-3.4,2.8-6.2,6.2-6.2s6.2,2.8,6.2,6.2s-2.8,6.2-6.2,6.2S322.4,193.8,322.4,190.4z"/>
				</g>
				<polygon class="st3" points="613.6,185.9 616.6,182.8 621,187.2 625.4,182.8 628.5,185.9 624.1,190.3 628.5,194.6 625.4,197.7 
					621,193.3 616.6,197.7 613.6,194.6 618,190.3 				"/>
			</g>
			<path class="st7" d="M486.6,340.9c0,39.9-32.3,72.2-72.2,72.2s-72.2-32.3-72.2-72.2c0-31.8,20.5-58.7,49-68.4
				c6.4,18.7,23.2,68.4,23.2,68.4H486.6z"/>
			<path class="st8" d="M493.6,330.9h-72.2c0,0-16.8-49.6-23.2-68.4c7.3-2.5,15.1-3.8,23.2-3.8C461.2,258.7,493.6,291,493.6,330.9z"
				/>
			<g>
				<rect x="406.7" y="651.3" class="st6" width="56.7" height="88.7"/>
				<rect x="325.2" y="713.5" class="st9" width="56.7" height="26.4"/>
				<rect x="484.3" y="618.3" class="st8" width="56.7" height="121.7"/>
				<rect x="561.9" y="585.9" class="st7" width="56.7" height="154"/>
			</g>
			<g>
				<path class="st10" d="M325,615.2c-0.9,0-1.8-0.3-2.5-0.9c-1.6-1.3-1.8-3.6-0.4-5.1l41.8-45.1c1.2-1.3,3.1-1.6,4.7-0.8l43.1,21.1
					l39.9-53.6c0.6-0.9,1.6-1.4,2.7-1.5c1.1-0.1,2.2,0.2,3,0.9l41.6,35.4l31-55.7c0.5-0.9,1.4-1.5,2.4-1.8c1-0.3,2.1-0.1,3,0.4
					l39.6,22.4l42.3-54c1.3-1.6,3.7-2,5.4-0.8c1.7,1.2,2.1,3.4,0.8,5l-44.4,56.7c-1.2,1.5-3.4,1.9-5.1,1l-39.2-22.1L503.5,573
					c-0.6,1-1.6,1.7-2.7,1.9c-1.2,0.2-2.4-0.1-3.3-0.9l-42-35.8l-39.3,52.9c-1.1,1.5-3.2,2-4.9,1.1L367.8,571l-39.8,43
					C327.2,614.8,326.1,615.2,325,615.2L325,615.2z"/>
				<path class="st10" d="M628.6,499.4c-1.9,0-3.5-1.3-3.8-3.1l-3.2-19.3l-23.7,5.3c-2.1,0.5-4.1-0.7-4.6-2.7
					c-0.5-1.9,0.8-3.9,2.8-4.3l27.8-6.3c1-0.2,2.2-0.1,3,0.5c0.9,0.6,1.5,1.4,1.7,2.4l3.8,23.2c0.3,2-1.1,3.8-3.2,4.1
					C629,499.4,628.8,499.4,628.6,499.4L628.6,499.4z"/>
			</g>
			<rect x="527.5" y="277.8" class="st7" width="26.8" height="26.8"/>
			<rect x="527.5" y="353.7" class="st8" width="26.8" height="26.8"/>
			<g>
				<g>
					<path class="st4" d="M601,283.4h-22.1c-1.1,0-2-0.9-2-2l0,0c0-1.1,0.9-2,2-2H601c1.1,0,2,0.9,2,2l0,0
						C603,282.5,602.1,283.4,601,283.4z"/>
					<path class="st4" d="M571.7,283.4h-0.8c-1.1,0-2-0.9-2-2l0,0c0-1.1,0.9-2,2-2h0.8c1.1,0,2,0.9,2,2l0,0
						C573.7,282.5,572.8,283.4,571.7,283.4z"/>
					<path class="st4" d="M621.1,289.8H599c-1.1,0-2-0.9-2-2l0,0c0-1.1,0.9-2,2-2h22.1c1.1,0,2,0.9,2,2l0,0
						C623.1,288.9,622.2,289.8,621.1,289.8z"/>
					<path class="st4" d="M591.7,289.8H591c-1.1,0-2-0.9-2-2l0,0c0-1.1,0.9-2,2-2h0.8c1.1,0,2,0.9,2,2l0,0
						C593.7,288.9,592.8,289.8,591.7,289.8z"/>
					<path class="st4" d="M621.1,283.4h-12.4c-1.1,0-2-0.9-2-2l0,0c0-1.1,0.9-2,2-2h12.4c1.1,0,2,0.9,2,2l0,0
						C623.1,282.5,622.2,283.4,621.1,283.4z"/>
					<path class="st4" d="M583.3,289.8h-12.4c-1.1,0-2-0.9-2-2l0,0c0-1.1,0.9-2,2-2h12.4c1.1,0,2,0.9,2,2l0,0
						C585.3,288.9,584.4,289.8,583.3,289.8z"/>
				</g>
				<g>
					<path class="st4" d="M601,296.8h-22.1c-1.1,0-2-0.9-2-2l0,0c0-1.1,0.9-2,2-2H601c1.1,0,2,0.9,2,2l0,0
						C603,295.9,602.1,296.8,601,296.8z"/>
					<path class="st4" d="M571.7,296.8h-0.8c-1.1,0-2-0.9-2-2l0,0c0-1.1,0.9-2,2-2h0.8c1.1,0,2,0.9,2,2l0,0
						C573.7,295.9,572.8,296.8,571.7,296.8z"/>
					<path class="st4" d="M621.1,303.2H599c-1.1,0-2-0.9-2-2l0,0c0-1.1,0.9-2,2-2h22.1c1.1,0,2,0.9,2,2l0,0
						C623.1,302.4,622.2,303.2,621.1,303.2z"/>
					<path class="st4" d="M591.7,303.2H591c-1.1,0-2-0.9-2-2l0,0c0-1.1,0.9-2,2-2h0.8c1.1,0,2,0.9,2,2l0,0
						C593.7,302.4,592.8,303.2,591.7,303.2z"/>
					<path class="st4" d="M621.1,296.8h-12.4c-1.1,0-2-0.9-2-2l0,0c0-1.1,0.9-2,2-2h12.4c1.1,0,2,0.9,2,2l0,0
						C623.1,295.9,622.2,296.8,621.1,296.8z"/>
					<path class="st4" d="M583.3,303.2h-12.4c-1.1,0-2-0.9-2-2l0,0c0-1.1,0.9-2,2-2h12.4c1.1,0,2,0.9,2,2l0,0
						C585.3,302.4,584.4,303.2,583.3,303.2z"/>
				</g>
			</g>
			<g>
				<g>
					<path class="st4" d="M600,359.1h-22.1c-1.1,0-2-0.9-2-2l0,0c0-1.1,0.9-2,2-2H600c1.1,0,2,0.9,2,2l0,0
						C601.9,358.2,601,359.1,600,359.1z"/>
					<path class="st4" d="M570.6,359.1h-0.8c-1.1,0-2-0.9-2-2l0,0c0-1.1,0.9-2,2-2h0.8c1.1,0,2,0.9,2,2l0,0
						C572.6,358.2,571.7,359.1,570.6,359.1z"/>
					<path class="st4" d="M620,365.5h-22.1c-1.1,0-2-0.9-2-2l0,0c0-1.1,0.9-2,2-2H620c1.1,0,2,0.9,2,2l0,0
						C622,364.7,621.1,365.5,620,365.5z"/>
					<path class="st4" d="M590.7,365.5h-0.8c-1.1,0-2-0.9-2-2l0,0c0-1.1,0.9-2,2-2h0.8c1.1,0,2,0.9,2,2l0,0
						C592.6,364.7,591.7,365.5,590.7,365.5z"/>
					<path class="st4" d="M620,359.1h-12.4c-1.1,0-2-0.9-2-2l0,0c0-1.1,0.9-2,2-2H620c1.1,0,2,0.9,2,2l0,0
						C622,358.2,621.1,359.1,620,359.1z"/>
					<path class="st4" d="M582.3,365.5h-12.4c-1.1,0-2-0.9-2-2l0,0c0-1.1,0.9-2,2-2h12.4c1.1,0,2,0.9,2,2l0,0
						C584.2,364.7,583.3,365.5,582.3,365.5z"/>
				</g>
				<g>
					<path class="st4" d="M600,372.6h-22.1c-1.1,0-2-0.9-2-2l0,0c0-1.1,0.9-2,2-2H600c1.1,0,2,0.9,2,2l0,0
						C601.9,371.7,601,372.6,600,372.6z"/>
					<path class="st4" d="M570.6,372.6h-0.8c-1.1,0-2-0.9-2-2l0,0c0-1.1,0.9-2,2-2h0.8c1.1,0,2,0.9,2,2l0,0
						C572.6,371.7,571.7,372.6,570.6,372.6z"/>
					<path class="st4" d="M620,379h-22.1c-1.1,0-2-0.9-2-2l0,0c0-1.1,0.9-2,2-2H620c1.1,0,2,0.9,2,2l0,0
						C622,378.1,621.1,379,620,379z"/>
					<path class="st4" d="M590.7,379h-0.8c-1.1,0-2-0.9-2-2l0,0c0-1.1,0.9-2,2-2h0.8c1.1,0,2,0.9,2,2l0,0
						C592.6,378.1,591.7,379,590.7,379z"/>
					<path class="st4" d="M620,372.6h-12.4c-1.1,0-2-0.9-2-2l0,0c0-1.1,0.9-2,2-2H620c1.1,0,2,0.9,2,2l0,0
						C622,371.7,621.1,372.6,620,372.6z"/>
					<path class="st4" d="M582.3,379h-12.4c-1.1,0-2-0.9-2-2l0,0c0-1.1,0.9-2,2-2h12.4c1.1,0,2,0.9,2,2l0,0
						C584.2,378.1,583.3,379,582.3,379z"/>
				</g>
			</g>
		</g>
		<g>
			<g>
				<g>
					<path class="st11" d="M670.7,838l-112.1,0.3c-1.5,0-2.8-1.2-2.8-2.8l0-10c0-1.5,1.2-2.8,2.8-2.8l112.1-0.3
						c1.5,0,2.8,1.2,2.8,2.8l0,10C673.5,836.8,672.3,838,670.7,838z"/>
					<path class="st7" d="M558.6,839.2c-2,0-3.5-1.6-3.6-3.5l0-10c0-1,0.4-1.8,1-2.5s1.6-1,2.5-1.1l112.1-0.3h0c2,0,3.5,1.6,3.6,3.5
						l0,10c0,2-1.6,3.6-3.5,3.6L558.6,839.2L558.6,839.2L558.6,839.2z M670.7,823.2L670.7,823.2l-112.1,0.3c-0.5,0-1,0.2-1.4,0.6
						c-0.4,0.4-0.6,0.9-0.6,1.4l0,10c0,1.1,0.9,2,2,2l0,0l112.1-0.3c1.1,0,2-0.9,2-2l0-10C672.7,824.2,671.8,823.3,670.7,823.2
						L670.7,823.2z"/>
				</g>
				<g>
					<path class="st11" d="M681.3,822.6L569.2,823c-1.5,0-2.8-1.2-2.8-2.8l0-10c0-1.5,1.2-2.8,2.8-2.8l112.1-0.3
						c1.5,0,2.8,1.2,2.8,2.8l0,10C684.1,821.4,682.9,822.6,681.3,822.6z"/>
					<path class="st7" d="M569.2,823.8c-2,0-3.5-1.6-3.6-3.5l0-10c0-2,1.6-3.6,3.5-3.6l112.1-0.3h0c2,0,3.5,1.6,3.6,3.5l0,10
						c0,2-1.6,3.6-3.5,3.6L569.2,823.8L569.2,823.8z M681.3,807.8L681.3,807.8l-112.1,0.3c-0.5,0-1,0.2-1.4,0.6
						c-0.4,0.4-0.6,0.9-0.6,1.4l0,10c0,1.1,0.9,2,2,2l0,0l112.1-0.3c1.1,0,2-0.9,2-2l0-10C683.3,808.7,682.4,807.9,681.3,807.8
						L681.3,807.8z"/>
				</g>
				<g>
					<path class="st11" d="M673.9,807.1l-112.1,0.3c-1.5,0-2.8-1.2-2.8-2.8l0-10c0-1.5,1.2-2.8,2.8-2.8l112.1-0.3
						c1.5,0,2.8,1.2,2.8,2.8l0,10C676.7,805.8,675.4,807,673.9,807.1z"/>
					<path class="st7" d="M561.8,808.2c-2,0-3.5-1.6-3.6-3.5l0-10c0-1,0.4-1.8,1-2.5c0.7-0.7,1.6-1,2.5-1.1l112.1-0.3h0
						c0.9,0,1.8,0.4,2.5,1c0.7,0.7,1,1.6,1.1,2.5l0,10c0,2-1.6,3.6-3.5,3.6L561.8,808.2L561.8,808.2L561.8,808.2z M673.9,792.3
						L673.9,792.3l-112.1,0.3c-0.5,0-1,0.2-1.4,0.6c-0.4,0.4-0.6,0.9-0.6,1.4l0,10c0,1.1,0.9,2,2,2l0,0l112.1-0.3
						c0.5,0,1-0.2,1.4-0.6c0.4-0.4,0.6-0.9,0.6-1.4l0-10c0-0.5-0.2-1-0.6-1.4C674.9,792.5,674.4,792.3,673.9,792.3L673.9,792.3z"/>
				</g>
				<g>
					<path class="st11" d="M665.7,791.6L553.6,792c-1.5,0-2.8-1.2-2.8-2.8l0-10c0-1.5,1.2-2.8,2.8-2.8l112.1-0.3
						c1.5,0,2.8,1.2,2.8,2.8l0,10C668.4,790.4,667.2,791.6,665.7,791.6z"/>
					<path class="st7" d="M553.6,792.8c-2,0-3.5-1.6-3.6-3.5l0-10c0-1,0.4-1.8,1-2.5c0.7-0.7,1.6-1,2.5-1l112.1-0.3h0
						c2,0,3.5,1.6,3.6,3.5l0,10c0,1-0.4,1.8-1,2.5c-0.7,0.7-1.6,1-2.5,1.1L553.6,792.8L553.6,792.8L553.6,792.8z M665.6,776.9
						L665.6,776.9l-112.1,0.3c-0.5,0-1,0.2-1.4,0.6c-0.4,0.4-0.6,0.9-0.6,1.4l0,10c0,1.1,0.9,2,2,2l0,0l112.1-0.3
						c0.5,0,1-0.2,1.4-0.6c0.4-0.4,0.6-0.9,0.6-1.4l0-10C667.6,777.7,666.7,776.8,665.6,776.9L665.6,776.9z"/>
				</g>
				<g>
					<path class="st11" d="M681.3,776.1l-112.1,0.3c-1.5,0-2.8-1.2-2.8-2.8l0-10c0-1.5,1.2-2.8,2.8-2.8l112.1-0.3
						c1.5,0,2.8,1.2,2.8,2.8l0,10C684.1,774.8,682.9,776.1,681.3,776.1z"/>
					<path class="st7" d="M569.2,777.2c-0.9,0-1.8-0.4-2.5-1c-0.7-0.7-1-1.6-1.1-2.5l0-10c0-1,0.4-1.8,1-2.5c0.7-0.7,1.6-1,2.5-1.1
						l112.1-0.3c1.9,0,3.6,1.6,3.6,3.5l0,10c0,1-0.4,1.8-1,2.5c-0.7,0.7-1.6,1-2.5,1.1L569.2,777.2L569.2,777.2L569.2,777.2z
						 M681.3,761.3L681.3,761.3l-112.1,0.3c-0.5,0-1,0.2-1.4,0.6c-0.4,0.4-0.6,0.9-0.6,1.4l0,10c0,1.1,0.9,2,2,2l0,0l112.1-0.3
						c0.5,0,1-0.2,1.4-0.6c0.4-0.4,0.6-0.9,0.6-1.4l0-10C683.3,762.2,682.4,761.3,681.3,761.3L681.3,761.3z"/>
				</g>
				<g>
					<path class="st11" d="M678.1,729.6L566,729.9c-1.5,0-2.8-1.2-2.8-2.8l0-10c0-1.5,1.2-2.8,2.8-2.8L678,714
						c1.5,0,2.8,1.2,2.8,2.8l0,10C680.8,728.3,679.6,729.6,678.1,729.6z"/>
					<path class="st7" d="M565.9,730.7c-0.9,0-1.8-0.4-2.5-1c-0.7-0.7-1-1.6-1.1-2.5l0-10c0-1,0.4-1.8,1-2.5c0.7-0.7,1.6-1,2.5-1.1
						l112.1-0.3l0,0c2,0,3.6,1.6,3.6,3.5l0,10c0,1-0.4,1.8-1,2.5c-0.7,0.7-1.6,1-2.5,1.1L565.9,730.7L565.9,730.7L565.9,730.7z
						 M678,714.8L678,714.8l-112.1,0.3c-0.5,0-1,0.2-1.4,0.6c-0.4,0.4-0.6,0.9-0.6,1.4l0,10c0,0.5,0.2,1,0.6,1.4
						c0.4,0.4,0.9,0.6,1.4,0.6l0,0l112.1-0.3c0.5,0,1-0.2,1.4-0.6c0.4-0.4,0.6-0.9,0.6-1.4l0-10C680,715.7,679.1,714.8,678,714.8
						L678,714.8z"/>
				</g>
				<g>
					<path class="st11" d="M686.5,714l-112.1,0.3c-1.5,0-2.8-1.2-2.8-2.8l0-10c0-1.5,1.2-2.8,2.8-2.8l112.1-0.3
						c1.5,0,2.8,1.2,2.8,2.8l0,10C689.2,712.8,688,714,686.5,714z"/>
					<path class="st7" d="M574.4,715.2c-2,0-3.5-1.6-3.6-3.5l0-10c0-1,0.4-1.8,1-2.5c0.7-0.7,1.6-1,2.5-1.1l112.1-0.3h0
						c2,0,3.5,1.6,3.6,3.5l0,10c0,2-1.6,3.6-3.5,3.6L574.4,715.2L574.4,715.2L574.4,715.2z M686.4,699.2L686.4,699.2l-112.1,0.3
						c-0.5,0-1,0.2-1.4,0.6c-0.4,0.4-0.6,0.9-0.6,1.4l0,10c0,1.1,0.9,1.9,2,2l112.1-0.3c1.1,0,2-0.9,2-2l0-10
						C688.4,700.1,687.5,699.2,686.4,699.2L686.4,699.2z"/>
				</g>
				<g>
					<path class="st11" d="M681.3,760.7L569.2,761c-1.5,0-2.8-1.2-2.8-2.8l0-10c0-1.5,1.2-2.8,2.8-2.8l112.1-0.3
						c1.5,0,2.8,1.2,2.8,2.8l0,10C684.1,759.4,682.9,760.7,681.3,760.7z"/>
					<path class="st7" d="M569.2,761.8c-2,0-3.5-1.6-3.6-3.5l0-10c0-2,1.6-3.6,3.5-3.6l112.1-0.3h0c0.9,0,1.8,0.4,2.5,1
						c0.7,0.7,1,1.6,1.1,2.5l0,10c0,2-1.6,3.6-3.5,3.6L569.2,761.8L569.2,761.8L569.2,761.8z M681.3,745.9L681.3,745.9l-112.1,0.3
						c-1.1,0-2,0.9-2,2l0,10c0,1.1,0.9,2,2,2l0,0l112.1-0.3c0.5,0,1-0.2,1.4-0.6c0.4-0.4,0.6-0.9,0.6-1.4l0-10c0-0.5-0.2-1-0.6-1.4
						C682.3,746.1,681.8,745.9,681.3,745.9L681.3,745.9z"/>
				</g>
				<g>
					<path class="st11" d="M693.7,745.1l-112.1,0.3c-1.5,0-2.8-1.2-2.8-2.8l0-10c0-1.5,1.2-2.8,2.8-2.8l112.1-0.3
						c1.5,0,2.8,1.2,2.8,2.8l0,10C696.4,743.9,695.2,745.1,693.7,745.1z"/>
					<path class="st7" d="M581.6,746.2c-2,0-3.5-1.6-3.6-3.5l0-10c0-1,0.4-1.8,1-2.5c0.7-0.7,1.6-1,2.5-1.1l112.1-0.3h0
						c2,0,3.5,1.6,3.6,3.5l0,10c0,1-0.4,1.8-1,2.5s-1.6,1-2.5,1.1L581.6,746.2L581.6,746.2z M693.6,730.3L693.6,730.3l-112.1,0.3
						c-0.5,0-1,0.2-1.4,0.6c-0.4,0.4-0.6,0.9-0.6,1.4l0,10c0,1.1,0.9,2,2,2l0,0l112.1-0.3c0.5,0,1-0.2,1.4-0.6
						c0.4-0.4,0.6-0.9,0.6-1.4l0-10C695.6,731.2,694.7,730.3,693.6,730.3z"/>
				</g>
				<g>
					<path class="st11" d="M560.1,698.8l112.1,0.3c1.5,0,2.8-1.2,2.8-2.8l0-10c0-1.5-1.2-2.8-2.8-2.8l-112.1-0.3
						c-1.5,0-2.8,1.2-2.8,2.8l0,10C557.4,697.5,558.6,698.8,560.1,698.8z"/>
					<path class="st7" d="M672.3,699.9L672.3,699.9l-112.1-0.3c-1,0-1.8-0.4-2.5-1.1c-0.7-0.7-1-1.6-1-2.5l0-10c0-2,1.6-3.5,3.6-3.5
						l0,0l112.1,0.3c1,0,1.8,0.4,2.5,1.1c0.7,0.7,1,1.6,1,2.5l0,10c0,1-0.4,1.8-1.1,2.5C674.1,699.5,673.2,699.9,672.3,699.9
						L672.3,699.9z M560.2,684c-1.1,0-2,0.9-2,2l0,10c0,0.5,0.2,1,0.6,1.4c0.4,0.4,0.9,0.6,1.4,0.6l112.1,0.3l0,0
						c0.5,0,1-0.2,1.4-0.6c0.4-0.4,0.6-0.9,0.6-1.4l0-10c0-0.5-0.2-1-0.6-1.4c-0.4-0.4-0.9-0.6-1.4-0.6L560.2,684L560.2,684
						L560.2,684z"/>
				</g>
				<g>
					<path class="st11" d="M572.1,652.3l112.1,0.3c1.5,0,2.8-1.2,2.8-2.8l0-10c0-1.5-1.2-2.8-2.8-2.8l-112.1-0.3
						c-1.5,0-2.8,1.2-2.8,2.8l0,10C569.3,651,570.5,652.3,572.1,652.3z"/>
					<path class="st7" d="M684.2,653.4L684.2,653.4l-112.1-0.3c-1,0-1.8-0.4-2.5-1.1c-0.7-0.7-1-1.6-1-2.5l0-10c0-2,1.6-3.5,3.6-3.5
						l0,0l112.1,0.3c2,0,3.5,1.6,3.5,3.6l0,10c0,1-0.4,1.8-1.1,2.5C686,653,685.1,653.4,684.2,653.4L684.2,653.4z M572.1,637.5
						c-1.1,0-2,0.9-2,2l0,10c0,0.5,0.2,1,0.6,1.4c0.4,0.4,0.9,0.6,1.4,0.6l112.1,0.3l0,0c0.5,0,1-0.2,1.4-0.6
						c0.4-0.4,0.6-0.9,0.6-1.4l0-10c0-1.1-0.9-2-2-2L572.1,637.5L572.1,637.5L572.1,637.5z"/>
				</g>
				<g>
					<path class="st11" d="M560.1,683.4l112.1,0.3c1.5,0,2.8-1.2,2.8-2.8l0-10c0-1.5-1.2-2.8-2.8-2.8l-112.1-0.3
						c-1.5,0-2.8,1.2-2.8,2.8l0,10C557.4,682.1,558.6,683.4,560.1,683.4z"/>
					<path class="st7" d="M672.3,684.5L672.3,684.5l-112.1-0.3c-2,0-3.5-1.6-3.5-3.6l0-10c0-1,0.4-1.8,1.1-2.5c0.7-0.7,1.6-1,2.5-1
						h0l112.1,0.3c2,0,3.5,1.6,3.5,3.6l0,10C675.8,682.9,674.2,684.5,672.3,684.5L672.3,684.5z M560.2,668.6c-0.5,0-1,0.2-1.4,0.6
						c-0.4,0.4-0.6,0.9-0.6,1.4l0,10c0,0.5,0.2,1,0.6,1.4c0.4,0.4,0.9,0.6,1.4,0.6l112.1,0.3l0,0c1.1,0,2-0.9,2-2l0-10
						c0-1.1-0.9-2-2-2L560.2,668.6L560.2,668.6L560.2,668.6z"/>
				</g>
				<g>
					<path class="st11" d="M567.1,667.8l112.1,0.3c1.5,0,2.8-1.2,2.8-2.8l0-10c0-1.5-1.2-2.8-2.8-2.8l-112.1-0.3
						c-1.5,0-2.8,1.2-2.8,2.8l0,10C564.4,666.5,565.6,667.8,567.1,667.8L567.1,667.8z"/>
					<path class="st7" d="M679.3,668.9L679.3,668.9l-112.1-0.3c-2,0-3.5-1.6-3.5-3.6l0-10c0-2,1.6-3.5,3.6-3.5h0l112.1,0.3
						c1,0,1.8,0.4,2.5,1.1c0.7,0.7,1,1.6,1,2.5l0,10C682.8,667.3,681.2,668.9,679.3,668.9L679.3,668.9z M567.2,667l112.1,0.3l0,0
						c1.1,0,2-0.9,2-2l0-10c0-0.5-0.2-1-0.6-1.4c-0.4-0.4-0.9-0.6-1.4-0.6L567.2,653l0,0c-1.1,0-2,0.9-2,2l0,10
						C565.2,666.1,566.1,667,567.2,667L567.2,667L567.2,667z"/>
				</g>
			</g>
			<g>
				<g>
					<path class="st11" d="M701.8,760.2c19.1-10.5,29.5-36.4,23.9-63.5c-5.5-26.9-25.1-46.5-46.6-48.9l-0.4-1.9l-12,2.5
						c-26,5.3-41.7,35.6-35.1,67.6c6.6,32,33,53.6,58.9,48.3l11.6-2.1L701.8,760.2L701.8,760.2z"/>
					<path class="st7" d="M682.7,765.9c-23.6,0-45.8-20.6-51.8-49.7c-3.2-15.6-1.3-31.4,5.4-44.3c6.7-13,17.5-21.6,30.3-24.2
						l12.7-2.6l0.4,2.1c22.1,2.7,41.3,23,46.7,49.4c5.5,26.7-4.3,52.9-23.8,64l0.5,2.3l-12.4,2.2C688.1,765.7,685.4,766,682.7,765.9
						L682.7,765.9z M678.2,646.9l-11.2,2.3c-12.3,2.5-22.7,10.8-29.2,23.4c-6.6,12.6-8.4,28-5.3,43.3c6.5,31.5,32.5,52.9,58,47.7
						l10.8-1.9l-0.4-1.8l0.5-0.3c19.3-10.6,28.9-36.4,23.6-62.6c-5.3-26-24.2-45.8-45.9-48.2l-0.6-0.1L678.2,646.9L678.2,646.9z"/>
				</g>
				<g>
					<path class="st3" d="M737.7,694.3c6.6,32-9.5,62.7-35.5,68c-26,5.3-52-16.7-58.6-48.7c-6.6-32,9.2-62.3,35.1-67.6
						C704.8,640.6,731.2,662.3,737.7,694.3L737.7,694.3z"/>
					<path class="st2" d="M694.5,764c-23.5,0-45.7-20.9-51.8-50.2c-6.7-32.5,9.4-63.3,35.9-68.7c12.8-2.6,26.2,1,37.5,10.3
						c11.3,9.3,19.3,23,22.5,38.7c6.7,32.6-9.5,63.6-36.2,69.1C699.8,763.7,697.1,764,694.5,764L694.5,764z M686.8,646.1
						c-2.6,0-5.2,0.3-7.8,0.8c-25.4,5.2-40.9,35.1-34.4,66.5c6.5,31.6,32.3,53.1,57.5,47.9c25.7-5.3,41.3-35.3,34.8-66.9l0,0
						c-3.1-15.3-10.9-28.6-21.9-37.6C706.3,649.8,696.5,646.1,686.8,646.1L686.8,646.1z"/>
				</g>
				<g>
					<path class="st11" d="M729.3,696c5.4,26.3-7.8,51.5-29.2,55.8c-21.3,4.4-42.7-13.7-48.1-40c-5.4-26.3,7.5-51.1,28.9-55.5
						C702.2,652,723.9,669.7,729.3,696z"/>
					<path class="st7" d="M693.7,753.3c-8.4,0-16.7-3.2-24.1-9.3c-9.2-7.7-15.7-19-18.3-31.9c-5.5-26.7,7.7-52,29.5-56.5
						c10.5-2.2,21.5,0.9,30.8,8.5c9.3,7.6,15.8,18.9,18.5,31.8c2.6,12.9,1,25.9-4.6,36.7c-5.7,10.8-14.6,17.9-25.1,20.1
						C698.1,753.1,695.9,753.3,693.7,753.3L693.7,753.3z M687.5,656.5c-2.1,0-4.3,0.2-6.4,0.7c-20.9,4.3-33.6,28.8-28.2,54.6
						c2.6,12.6,8.9,23.6,17.8,31c8.9,7.4,19.3,10.4,29.4,8.3c10.1-2.1,18.6-8.9,24.1-19.3c5.5-10.4,7.1-23.1,4.5-35.6
						c-2.6-12.5-9-23.5-18-30.9C703.5,659.5,695.5,656.5,687.5,656.5z"/>
				</g>
				<g>
					<path class="st3" d="M689,679.7c1.5-0.1,2.9-0.1,4.4,0.2c1.4,0.2,2.8,0.7,4,1.4c1.3,0.7,2.4,1.6,3.5,2.7c1,1.2,1.9,2.6,2.6,4.3
						l-5.2,1.2c-1-1.6-2.2-2.8-3.5-3.6c-1.3-0.8-2.9-1.1-4.6-1l3.3,14.5c1.2,0.2,2.3,0.4,3.4,0.7c1.1,0.2,2.2,0.5,3.3,0.8
						c1.1,0.3,2.1,0.7,3,1.2c1,0.5,1.8,1,2.6,1.7s1.4,1.4,2,2.3c0.6,0.9,1,1.9,1.2,3.1c0.5,2,0.5,3.8,0.1,5.4
						c-0.4,1.6-1.1,3.1-2.1,4.3c-1,1.3-2.2,2.4-3.5,3.3c-1.4,0.9-2.8,1.6-4.3,2.2l1.7,7.3l-5.3,1.2l-1.7-7.4c-1.6,0-3.2-0.2-4.8-0.8
						c-1.6-0.5-3-1.3-4.4-2.3c-1.4-1-2.6-2.2-3.7-3.6c-1.1-1.4-2-3-2.7-4.8l5.5-1.3c0.4,1,1,2,1.6,2.9c0.6,0.9,1.3,1.6,2.1,2.3
						c0.8,0.7,1.6,1.2,2.4,1.6c0.9,0.4,1.8,0.6,2.7,0.7l-3.6-15.8c-1.6-0.3-3.2-0.7-4.7-1.1c-1.5-0.4-2.9-1-4.2-1.7
						c-1.3-0.7-2.4-1.6-3.3-2.7c-0.9-1.1-1.6-2.5-1.9-4.1c-0.3-1.5-0.4-2.9-0.1-4.3c0.3-1.4,0.9-2.7,1.7-3.9c0.8-1.2,1.8-2.3,3-3.2
						c1.2-0.9,2.6-1.7,4.1-2.3l-1.1-4.7l5.3-1.2L689,679.7L689,679.7z M680.4,693.2c0.2,0.8,0.5,1.4,0.9,2c0.4,0.6,1,1.1,1.6,1.5
						c0.6,0.4,1.4,0.8,2.2,1.1c0.8,0.3,1.7,0.6,2.7,0.8l-2.9-12.4c-1.8,0.8-3.1,1.8-3.9,3.1C680.3,690.4,680.1,691.8,680.4,693.2
						L680.4,693.2z M703.7,710.4c-0.2-0.8-0.5-1.4-1.1-2c-0.5-0.6-1.2-1.1-2-1.5c-0.8-0.4-1.7-0.8-2.7-1.1s-2-0.6-3-0.8l3.2,14
						c1.1-0.4,2-0.9,2.8-1.6c0.8-0.6,1.4-1.3,1.9-2.1c0.5-0.8,0.8-1.6,1-2.4C703.9,712.1,703.9,711.3,703.7,710.4L703.7,710.4z"/>
					<path class="st2" d="M694.9,733.8l-1.7-7.6c-1.5-0.1-2.9-0.3-4.3-0.8c-1.6-0.6-3.2-1.4-4.6-2.4c-1.4-1-2.7-2.3-3.9-3.8
						c-1.1-1.5-2.1-3.2-2.8-5l-0.4-1l7.4-1.7l0.3,0.7c0.4,1,0.9,1.9,1.5,2.7c0.6,0.8,1.2,1.5,1.9,2.1c0.7,0.6,1.4,1.1,2.2,1.4
						c0.4,0.2,0.7,0.3,1.1,0.4l-3.2-13.8c-1.5-0.3-2.8-0.6-4.1-1c-1.6-0.4-3.1-1-4.4-1.7c-1.4-0.8-2.6-1.7-3.6-2.9
						c-1-1.2-1.7-2.7-2.1-4.5c-0.4-1.6-0.4-3.2-0.1-4.7c0.3-1.5,1-2.9,1.8-4.2c0.9-1.3,2-2.4,3.3-3.4c1.1-0.8,2.3-1.6,3.6-2.1
						l-1.1-4.8l7.1-1.6l1.1,4.8c1.3-0.1,2.5,0,3.8,0.2c1.5,0.3,3,0.7,4.3,1.5c1.4,0.7,2.6,1.7,3.7,2.9c1.1,1.2,2.1,2.8,2.8,4.5
						l0.4,1l-7,1.6l-0.4-0.6c-1-1.5-2-2.6-3.2-3.3c-0.9-0.5-1.9-0.8-3-0.9l2.9,12.8c1,0.2,1.9,0.4,2.8,0.5c1.1,0.2,2.3,0.5,3.4,0.8
						c1.1,0.3,2.2,0.7,3.2,1.2c1,0.5,2,1.1,2.8,1.8c0.9,0.7,1.6,1.6,2.2,2.5c0.6,1,1.1,2.1,1.4,3.4c0.5,2.1,0.5,4.1,0.1,5.8
						c-0.4,1.7-1.2,3.3-2.2,4.7c-1,1.4-2.3,2.5-3.8,3.5c-1.2,0.8-2.5,1.4-3.8,2l1.7,7.4L694.9,733.8L694.9,733.8z M694.7,724.3
						l1.7,7.2l3.4-0.8l-1.6-7.2l0.8-0.3c1.4-0.5,2.8-1.2,4.1-2.1c1.3-0.8,2.4-1.9,3.3-3.1c0.9-1.2,1.5-2.5,1.9-4
						c0.4-1.5,0.3-3.1-0.1-4.9c-0.3-1.1-0.6-2-1.1-2.8c-0.5-0.8-1.1-1.5-1.8-2.1c-0.7-0.6-1.5-1.1-2.4-1.5c-0.9-0.4-1.9-0.8-2.9-1.1
						c-1-0.3-2.1-0.6-3.2-0.8c-1.1-0.2-2.3-0.4-3.4-0.7l-0.6-0.1l-3.7-16.2l1.1-0.1c1.9-0.1,3.7,0.3,5.1,1.2
						c1.3,0.7,2.4,1.9,3.5,3.4l3.4-0.8c-0.6-1.1-1.2-2.1-2-3c-1-1.1-2-1.9-3.2-2.5c-1.2-0.6-2.4-1-3.8-1.3c-1.4-0.2-2.7-0.3-4.1-0.1
						l-0.8,0.1l-1.1-4.5l-3.4,0.8l1,4.5l-0.8,0.3c-1.4,0.6-2.7,1.3-3.8,2.2c-1.1,0.9-2.1,1.9-2.8,3c-0.7,1.1-1.3,2.3-1.5,3.6
						c-0.3,1.2-0.3,2.5,0.1,3.9c0.4,1.5,0.9,2.8,1.7,3.7c0.8,1,1.8,1.8,3,2.4c1.2,0.7,2.5,1.2,4,1.6c1.4,0.4,3,0.7,4.6,1.1l0.6,0.1
						l4.1,17.6l-1.3-0.1c-1-0.1-2.1-0.4-3-0.8c-1-0.4-1.9-1-2.7-1.7c-0.8-0.7-1.5-1.5-2.2-2.5c-0.5-0.7-1-1.5-1.4-2.3l-3.7,0.8
						c0.6,1.3,1.3,2.5,2.1,3.5c1,1.3,2.2,2.5,3.5,3.4c1.3,0.9,2.7,1.7,4.1,2.2c1.4,0.5,2.9,0.7,4.5,0.7L694.7,724.3L694.7,724.3z
						 M697.4,720.4l-3.8-16.5l1.4,0.3c1,0.2,2.1,0.5,3.1,0.8c1,0.3,2,0.7,2.9,1.1c0.9,0.5,1.6,1,2.3,1.7c0.7,0.7,1.1,1.5,1.3,2.4
						l0,0c0.2,1,0.3,2,0.1,3c-0.2,1-0.5,1.9-1.1,2.8c-0.6,0.9-1.3,1.6-2.1,2.3c-0.9,0.7-1.9,1.3-3.1,1.7L697.4,720.4L697.4,720.4z
						 M696.1,706.3l2.6,11.4c0.6-0.3,1.1-0.6,1.6-1c0.7-0.6,1.3-1.2,1.7-1.9c0.4-0.7,0.7-1.4,0.8-2.1c0.1-0.7,0.1-1.5-0.1-2.2
						c-0.1-0.6-0.4-1.1-0.8-1.6c-0.5-0.5-1.1-0.9-1.8-1.3c-0.8-0.4-1.6-0.7-2.5-1C697.1,706.6,696.6,706.5,696.1,706.3L696.1,706.3z
						 M689,699.8l-1.5-0.3c-1-0.2-1.9-0.5-2.8-0.8c-0.9-0.3-1.7-0.7-2.4-1.2c-0.7-0.5-1.3-1-1.8-1.7c-0.5-0.7-0.9-1.5-1.1-2.4
						c-0.4-1.7-0.1-3.2,0.8-4.7c0.9-1.5,2.3-2.6,4.3-3.5l1-0.4L689,699.8L689,699.8z M684.3,687.4c-1.1,0.6-1.9,1.3-2.4,2.2
						c-0.6,1.1-0.8,2.2-0.6,3.4l0,0c0.1,0.6,0.4,1.2,0.7,1.6c0.4,0.5,0.8,0.9,1.4,1.3c0.6,0.4,1.2,0.7,2,1c0.3,0.1,0.7,0.2,1.1,0.4
						L684.3,687.4L684.3,687.4z"/>
				</g>
			</g>
			<g>
				<g>
					<path class="st11" d="M776.9,838.1l-112.1,0.3c-1.5,0-2.8-1.2-2.8-2.8l0-10c0-1.5,1.2-2.8,2.8-2.8l112.1-0.3
						c1.5,0,2.8,1.2,2.8,2.8l0,10C779.6,836.8,778.4,838.1,776.9,838.1z"/>
					<path class="st7" d="M664.8,839.2c-2,0-3.5-1.6-3.6-3.5l0-10c0-2,1.6-3.6,3.5-3.6l112.1-0.3h0c2,0,3.5,1.6,3.6,3.5l0,10
						c0,2-1.6,3.6-3.5,3.6L664.8,839.2L664.8,839.2z M776.8,823.3L776.8,823.3l-112.1,0.3c-0.5,0-1,0.2-1.4,0.6
						c-0.4,0.4-0.6,0.9-0.6,1.4l0,10c0,1.1,0.9,2,2,2l0,0l112.1-0.3c1.1,0,2-0.9,2-2l0-10C778.8,824.2,777.9,823.3,776.8,823.3
						L776.8,823.3z"/>
				</g>
				<g>
					<path class="st11" d="M754.3,791.6l-112.1,0.3c-1.5,0-2.8-1.2-2.8-2.8l0-10c0-1.5,1.2-2.8,2.8-2.8l112.1-0.3
						c1.5,0,2.8,1.2,2.8,2.8l0,10C757,790.3,755.8,791.6,754.3,791.6z"/>
					<path class="st7" d="M642.1,792.7c-2,0-3.5-1.6-3.6-3.5l0-10c0-2,1.6-3.6,3.5-3.6l112.1-0.3h0c0.9,0,1.8,0.4,2.5,1
						c0.7,0.7,1,1.6,1.1,2.5l0,10c0,2-1.6,3.6-3.5,3.6L642.1,792.7L642.1,792.7L642.1,792.7z M754.2,776.8L754.2,776.8l-112.1,0.3
						c-1.1,0-2,0.9-2,2l0,10c0,1.1,0.9,2,2,2l0,0l112.1-0.3c0.5,0,1-0.2,1.4-0.6c0.4-0.4,0.6-0.9,0.6-1.4l0-10c0-0.5-0.2-1-0.6-1.4
						S754.8,776.8,754.2,776.8L754.2,776.8z"/>
				</g>
				<g>
					<path class="st11" d="M762.7,776l-112.1,0.3c-1.5,0-2.8-1.2-2.8-2.8l0-10c0-1.5,1.2-2.8,2.8-2.8l112.1-0.3
						c1.5,0,2.8,1.2,2.8,2.8l0,10C765.4,774.8,764.2,776,762.7,776z"/>
					<path class="st7" d="M650.6,777.2c-2,0-3.5-1.6-3.6-3.5l0-10c0-1,0.4-1.8,1-2.5c0.7-0.7,1.6-1,2.5-1.1l112.1-0.3h0
						c2,0,3.5,1.6,3.6,3.5l0,10c0,2-1.6,3.6-3.5,3.6L650.6,777.2L650.6,777.2L650.6,777.2z M762.6,761.2L762.6,761.2l-112.1,0.3
						c-0.5,0-1,0.2-1.4,0.6c-0.4,0.4-0.6,0.9-0.6,1.4l0,10c0,1.1,0.9,2,2,2l0,0l112.1-0.3c1.1,0,2-0.9,2-2l0-10
						C764.6,762.1,763.7,761.2,762.6,761.2L762.6,761.2z"/>
				</g>
				<g>
					<path class="st11" d="M776.9,822.7L664.8,823c-1.5,0-2.8-1.2-2.8-2.8l0-10c0-1.5,1.2-2.8,2.8-2.8l112.1-0.3
						c1.5,0,2.8,1.2,2.8,2.8l0,10C779.6,821.4,778.4,822.7,776.9,822.7z"/>
					<path class="st7" d="M664.8,823.8c-2,0-3.5-1.6-3.6-3.5l0-10c0-1,0.4-1.8,1-2.5c0.7-0.7,1.6-1,2.5-1.1l112.1-0.3h0
						c2,0,3.5,1.6,3.6,3.5l0,10c0,1-0.4,1.8-1,2.5c-0.7,0.7-1.6,1-2.5,1.1L664.8,823.8L664.8,823.8z M776.8,807.9L776.8,807.9
						l-112.1,0.3c-0.5,0-1,0.2-1.4,0.6c-0.4,0.4-0.6,0.9-0.6,1.4l0,10c0,1.1,0.9,2,2,2l0,0l112.1-0.3c0.5,0,1-0.2,1.4-0.6
						c0.4-0.4,0.6-0.9,0.6-1.4l0-10C778.8,808.8,777.9,807.9,776.8,807.9z"/>
				</g>
				<g>
					<path class="st11" d="M769.9,807.1l-112.1,0.3c-1.5,0-2.8-1.2-2.8-2.8l0-10c0-1.5,1.2-2.8,2.8-2.8l112.1-0.3
						c1.5,0,2.8,1.2,2.8,2.8l0,10C772.6,805.8,771.4,807.1,769.9,807.1L769.9,807.1z"/>
					<path class="st7" d="M657.7,808.2c-2,0-3.5-1.6-3.6-3.5l0-10c0-2,1.6-3.6,3.5-3.6l112.1-0.3h0c0.9,0,1.8,0.4,2.5,1
						c0.7,0.7,1,1.6,1.1,2.5l0,10c0,2-1.6,3.6-3.5,3.6L657.7,808.2L657.7,808.2L657.7,808.2z M769.8,792.3L769.8,792.3l-112.1,0.3
						c-1.1,0-2,0.9-2,2l0,10c0,1.1,0.9,2,2,2l0,0l112.1-0.3c1.1,0,2-0.9,2-2l0-10c0-0.5-0.2-1-0.6-1.4
						C770.9,792.5,770.4,792.3,769.8,792.3L769.8,792.3z"/>
				</g>
			</g>
		</g>
		<g>
			<g>
				<path class="st3" d="M265.6,794.7c-2-2.5-23.4-0.4-23.6,0.9c-0.7,3.9-1.7,19.1,0.4,21.1c2,1.9,20.5,6.2,20.9,2.3
					C263.6,815.7,267.5,797.1,265.6,794.7L265.6,794.7z"/>
				<path class="st12" d="M259.1,821.3c-5.9,0-15.7-2.5-17.4-4.1c-2.6-2.5-1-19.2-0.6-21.8c0.1-0.6,0.8-0.9,1.8-1.2
					c3.8-1,21-2.8,23.2,0l0,0c1.4,1.8,0.5,8.9-1.5,20.5c-0.3,2-0.6,3.6-0.7,4.3c-0.1,0.6-0.4,1.4-1.7,1.8
					C261.5,821.2,260.4,821.3,259.1,821.3L259.1,821.3z M242.7,796c-0.8,5.1-1.4,18.6,0.2,20.1c1.4,1.4,15,4.7,18.9,3.3
					c0.3-0.1,0.6-0.3,0.7-0.5c0.1-0.8,0.4-2.4,0.7-4.4c0.9-5.3,3.1-17.7,1.8-19.3l0,0C263.6,793.5,245.3,794.7,242.7,796L242.7,796z
					"/>
			</g>
			<path class="st7" d="M240.8,812.1c0,0-9.9,14.2-2.8,25.3c0,0,51.6,2.4,67.2,0c0,0,0.4-19-13-20.6c-13.4-1.6-28.4-1.4-28.4-1.4
				S250.5,822.6,240.8,812.1z"/>
			<g>
				<path class="st3" d="M148.4,794.8c-2-2.5-20.4-0.5-20.6,0.8c-0.7,3.9-1.7,19.1,0.4,21.1c2,1.9,18.1,8.2,18.5,4.4
					C147,817.8,150.3,797.2,148.4,794.8L148.4,794.8z"/>
				<path class="st12" d="M144.4,823.1c-5,0-15.1-4.2-16.8-5.8c-2.6-2.5-1-19.2-0.6-21.8c0.1-0.7,0.9-1,2-1.3
					c3.4-0.9,17.7-2.6,19.9,0.2c1.5,1.9,0.6,10.9-1.1,24c-0.2,1.3-0.3,2.3-0.4,2.9c-0.1,0.8-0.6,1.4-1.4,1.7
					C145.6,823,145,823.1,144.4,823.1L144.4,823.1z M128.5,796c-0.8,5.1-1.4,18.6,0.2,20.1c1.8,1.7,13.8,6.3,16.8,5.2
					c0.4-0.1,0.4-0.3,0.4-0.4c0.1-0.6,0.2-1.6,0.4-2.9c1.9-14,2.4-21.6,1.5-22.8l0,0C146.4,793.6,130.9,794.6,128.5,796L128.5,796z"
					/>
			</g>
			<path class="st13" d="M241.4,611.3c2.4,30.4,0.2,91.6-2.2,121.9c-0.2,2-0.2,72.6-0.2,72.6l28.5,2.7
				c15.5-46.3,45.2-150.3,45.2-196.4c0-46.1-4-123-20.9-159.5c-16.1-34.7-79.7,13.2-87.2,21.7c-3.4,3.9,3.1,39,12.1,62.3
				C227.2,563.5,240.1,594.9,241.4,611.3L241.4,611.3z"/>
			<path class="st6" d="M239,805.7l17.6,1.7c-1.6-11.1,0-35.8,0.6-47c1.2-19.6,6-38.8,10.6-57.8c7.2-30.2,14-62.2,5.5-92.9
				c-4.4-15.8-14.1-26.8-22-40.7c-5.2-9.4-7.9-20-7.1-30.8c0.4-5.9,4.1-13.3,2.1-19.2c-2.5-7.4-24.7-32.6-30.4-28.8
				c-6.9,4.6-3.4,22.5-6.2,30.8c10.5,27,30.3,74,31.6,90.3c2.4,30.4-2.6,91.3-4.2,121.7C235.5,763.2,239,805.7,239,805.7L239,805.7z
				"/>
			<path class="st13" d="M125.6,805.7l25.3,2.7c13.2-43.7,48.6-118.4,53.8-164.3c8.1-71.2,17.8-147.5,18.2-166.2
				c0.1-3,0.1-4.6,0.1-4.6c-17.4-21.2-47-29.9-60.2-31.4c-5.2-0.6-9,0.4-10.6,3.1c-5.3,8.9-9.5,17.2-12.8,25
				c-21.2,50.4-3.3,80.9-3.7,146.4c0,3.8-0.1,7.7-0.2,11.5c-0.7,27.1,6.6,60.5-1.2,88.8C119.1,772.3,125.6,805.7,125.6,805.7
				L125.6,805.7z"/>
			<path class="st6" d="M125.6,805.7l5.8,0.6c-0.2-14.9,0.2-35.9,1.8-50.7c2.5-23.3,9-45.2,17.1-67.1
				c12.9-35.4,21.6-70.3,19.1-108.3c-1.4-20.7-7.9-39.9-10.8-60.2c-1.8-13.1,0.9-25.7,3-38.4c1.1-7.2,2.1-14.5,1.9-22
				c-0.2-6.1-24-1.2-24,8.9c-21.2,50.4-3.4,82.5-3.7,148c0,3.8-0.1,7.7-0.2,11.5c-0.6,27.1-1.6,57.9-6,87
				C119,784.8,125.6,805.7,125.6,805.7L125.6,805.7z"/>
			<path class="st7" d="M126.6,812.1c0,0-9.9,14.2-2.8,25.3c0,0,51.6,2.4,67.2,0c0,0,0.4-19-13-20.6c-13.4-1.6-30.5-2.3-30.5-2.3
				S136.4,822.6,126.6,812.1L126.6,812.1z"/>
			<g>
				<path class="st3" d="M406.9,292.1c-0.5-1.6-1.5-2.2-2.9-2.6c1.3-1.9,2.2-3.8,1.8-5.7c-0.6-2.7-2.4-3-4.8-2.9
					c-0.4,0-0.8,0.1-1.3,0.2c0-0.2,0-0.3-0.1-0.5c-0.2-0.7-0.9-1.2-1.6-1.3c-3.8-0.6-7.7,1.2-11,2.8c-9.8,4.9-15.2,4.6-19,3.4
					c2.5-2.8,2.9-3.6,5.3-4.1c1.2-0.2,2.6-1.1,3-2.6c0.4-1.8-0.7-2.5-1.9-3c-2.1-0.8-6.4-0.2-8.8,0c-1.7,0.2-3,1-4.1,2.5
					c-10.3,13.6-8.2,28.7-5.6,34.8c1.1,2.6,2,4.3,4.9,4.5c3.4,0.2,8.5,0.2,11.7-1c0.7-0.2,1.2-0.8,1.3-1.6c0.3-1.8,0.2-5.3-0.4-8.2
					c10.4,1.5,21.8,0.6,22.4-5C402.5,300.5,408.6,297.5,406.9,292.1L406.9,292.1z"/>
				<path class="st12" d="M364.4,318.6c-1.4,0-2.7-0.1-3.5-0.1c-3.5-0.2-4.5-2.5-5.6-5c-2.7-6.2-4.9-21.7,5.7-35.6
					c1.3-1.7,2.8-2.6,4.7-2.8c0.4,0,0.8-0.1,1.2-0.1c2.5-0.3,5.9-0.6,7.9,0.2c2,0.8,2.9,2.1,2.4,3.9c-0.5,1.8-2.1,2.9-3.6,3.1
					c-1.9,0.3-2.3,0.8-4,2.8l-0.1,0.1c3.2,0.8,8.3,0.8,17.2-3.7c3.7-1.8,7.6-3.5,11.5-2.9c0.9,0.2,1.8,0.8,2.1,1.7
					c0.2,0,0.4-0.1,0.6-0.1c2.3-0.2,4.8,0.1,5.6,3.5c0.4,1.6-0.1,3.4-1.3,5.4c1.2,0.5,2,1.4,2.4,2.7l0,0c0.6,1.8,0.4,3.4-0.4,4.9
					c-1.5,2.6-5,4.6-10.6,6c-0.3,1.1-0.9,2.1-2,2.9c-4,3.1-12.8,3.2-20.1,2.3c0.4,2.7,0.4,5.7,0.2,7.3c-0.1,1-0.9,1.8-1.8,2.2
					C370.4,318.4,367,318.6,364.4,318.6L364.4,318.6z M371.5,276.3c-1.5,0-3.1,0.2-4.4,0.3c-0.5,0.1-0.9,0.1-1.3,0.1
					c-1.4,0.1-2.5,0.8-3.6,2.2c-10.1,13.4-8,28.1-5.5,34c1.1,2.5,1.8,3.9,4.2,4c1.7,0.1,7.7,0.4,11.4-0.9c0.4-0.2,0.7-0.5,0.8-0.9
					c0.3-1.8,0.2-5.2-0.4-7.9l-0.2-1.1l1.1,0.2c9,1.3,16.9,0.5,20-1.9c0.9-0.7,1.4-1.5,1.5-2.4l0.1-0.6l0.5-0.1
					c5.3-1.3,8.8-3.1,10.1-5.4c0.6-1.1,0.7-2.3,0.3-3.6l0,0c-0.4-1.1-1.1-1.7-2.3-2l-1.1-0.3l0.7-1c1.4-2,2-3.7,1.6-5
					c-0.5-1.9-1.4-2.5-4-2.3c-0.3,0-0.7,0.1-1.2,0.2l-0.8,0.2l-0.2-0.8c0-0.1,0-0.2,0-0.3c-0.1-0.5-0.5-0.8-1-0.9
					c-3.5-0.6-7.1,1-10.6,2.7c-10.6,5.3-16.3,4.5-19.6,3.4l-1.1-0.4l1.6-1.9c1.8-2.1,2.5-2.9,4.9-3.4c1-0.2,2.1-0.9,2.4-2
					c0.3-1-0.1-1.6-1.5-2.1C373.5,276.3,372.5,276.3,371.5,276.3L371.5,276.3z"/>
			</g>
			<g>
				<path class="st3" d="M259,344.7c0,0-0.6,6.3,0.7,15.3c3.1,21.2,16.7,57.3,73.8,60.8c62.6,3.7,57.1-61.4,51.2-91.5
					c-1.7-9-3.5-15-3.5-15c-0.9-5.8-25.5-5.2-25.5-5.2c-7.3,1.5-13.3,57.8-20.4,53.9c-7.1-3.9-49.4-76.2-75.9-88.4
					C243.3,267.1,259,344.7,259,344.7L259,344.7z"/>
				<path class="st12" d="M338.4,421.7c-1.6,0-3.3-0.1-5-0.2c-57.7-3.5-71.5-40-74.6-61.4c-1.2-8.5-0.8-14.5-0.7-15.4
					c-0.8-3.9-12.5-63.2-3.2-70.6c0.9-0.7,2.5-1.3,4.8-0.3c17.9,8.3,42.9,43.6,59.4,67c7.7,10.9,14.3,20.2,16.5,21.4
					c0.2,0.1,0.4,0.1,0.6,0c2.9-1.3,6-14.4,8.8-26c4-16.9,6.8-27.2,10.5-28c4.4-0.1,25.5-0.3,26.4,5.9l0,0c0,0,1.8,6,3.5,14.9
					c4,20.3,7.9,57.4-10,78C367,416.8,354.6,421.7,338.4,421.7L338.4,421.7z M257.5,274.9c-0.6,0-1,0.2-1.5,0.5
					c-7.2,5.7,0.3,51.8,3.8,69.1l0,0.1v0.1c0,0.1-0.6,6.3,0.7,15.2c3,21,16.6,56.7,73.1,60.1c18,1.1,31.8-3.6,40.8-13.9
					c17.5-20,13.6-56.6,9.7-76.7c-1.7-8.9-3.5-14.8-3.5-14.9c-0.6-3.9-15.5-4.9-24.7-4.7c-2.9,0.6-6.3,15.1-9.1,26.8
					c-3.8,15.9-6.3,25.6-9.7,27.1c-0.7,0.3-1.4,0.3-2-0.1c-2.5-1.4-8.6-10-17-21.9c-16.5-23.2-41.3-58.4-58.8-66.5
					C258.5,275,257.9,274.9,257.5,274.9L257.5,274.9z"/>
			</g>
			<path class="st14" d="M384.7,329.3c-1.8,23.3-4.1,52.7-22.6,69.2c-21,18.7-50.2,8-67.5-10.1c-3.4-3.6-6.6-7.2-9.8-10.6
				c-14.4-28.3-2.7-49.9-15.8-79.3c-1.3-2.8-5.9-15.6-4.7-12.7c3.7,8.3,0.1,16.4,1,25.4c-0.8,0.4,4,2,4,3.1c0.1,6.5,0,13.2,0,20
				c-0.6,10.1-1.5,20.7-0.1,30.2c-2.9-1.7-6.1-3.3-9.7-4.4c3.1,21.2,16.7,57.3,73.8,60.8C396.1,424.5,390.6,359.4,384.7,329.3
				L384.7,329.3z"/>
			<g>
				<path class="st3" d="M298.5,460.9c-0.7,2.3-60.5,16.1-78.8,18.9c-19.7,3.1-42.9,4.1-59.8,3.3c-13-0.6-22.4-2.3-23.7-4.9
					c-2.6-5.5,2.7-54.2,1.6-90.1c-0.2-5.8-0.3-11.6-0.3-17.4c-0.3-37.3,2.1-73.1,10.5-79.6c1.9-1.5,4-3,6.4-4.6
					c3.5-2.4,7.7-5,12.3-7.4c7.3-3.8,15.8-7.4,25.4-9.8c14.7-3.8,31.9-5.1,50.7-0.8c0,0,0,0.1,0.1,0.1c4.6,1,9.2,2.4,14,4.2
					c1.1,0.4,2.2,0.8,3.4,1.3c15.9,6.4,13.6,41.1,11.1,70.2c-1.2,13.5-2.4,25.8-1.9,33.5c0.2,2.6,0.5,5.1,1,7.7
					C273.9,406.9,295.8,445.4,298.5,460.9L298.5,460.9z"/>
				<path class="st12" d="M171.6,484.2c-4.1,0-8-0.1-11.8-0.3c-14.8-0.7-23-2.5-24.3-5.3c-1.3-2.8-0.8-14.2,0.2-34.1
					c0.8-17.1,1.9-38.4,1.4-56.3c-0.2-5.2-0.3-10.7-0.3-17.4c-0.3-32.6,1.3-72.9,10.8-80.2c1.7-1.3,3.7-2.8,6.4-4.6
					c3.9-2.7,8.1-5.2,12.4-7.4c8.2-4.3,16.8-7.7,25.6-9.9c16.9-4.4,34.1-4.7,51.1-0.8l0.6,0.2c4.6,1.1,9.1,2.4,13.5,4.1
					c0.8,0.3,1.6,0.6,2.4,0.9l1,0.4c15.9,6.4,14.4,38.6,11.6,71l-0.4,4.3c-1.1,12-2,22.3-1.5,29.1c0.2,2.9,0.5,5.3,1,7.6
					c1.9,11.5,9.3,28.4,15.9,43.2c5.7,12.8,11,25,12.2,32.2l0,0.2l-0.1,0.2c-1,3.2-66.4,17.4-79.4,19.4
					C205.1,482.9,187.5,484.2,171.6,484.2L171.6,484.2z M219,266.8c-8.9,0-17.9,1.2-26.7,3.5c-8.6,2.2-17.1,5.5-25.2,9.7
					c-4.3,2.2-8.4,4.7-12.3,7.3c-2.7,1.8-4.7,3.2-6.3,4.5c-6.9,5.3-10.6,34.1-10.2,78.9c0.1,6.7,0.2,12.2,0.3,17.4
					c0.5,18-0.5,39.3-1.4,56.4c-0.8,16.5-1.5,30.7-0.3,33.3c0.8,1.6,7.3,3.7,23,4.5c18.4,0.8,41.2-0.4,59.7-3.3
					c18-2.8,73.4-15.6,78.1-18.4c-1.3-7.1-6.5-18.9-12-31.4c-6.6-15-14-31.9-16-43.6c-0.4-2.3-0.8-4.7-1-7.7
					c-0.4-6.9,0.5-17.3,1.5-29.3l0.4-4.3c2.8-31.8,4.3-63.4-10.6-69.4l-1-0.4c-0.8-0.3-1.6-0.6-2.4-0.9c-4.5-1.7-9.1-3.1-13.8-4.1
					h-0.7v-0.2C234.4,267.6,226.7,266.7,219,266.8L219,266.8z"/>
			</g>
			<g>
				<path class="st3" d="M228.8,250.8v15.6c0,0,3.7,6.8,0,7.5c-8.1,1.6-19.8-7.5-19.8-7.5v-23.8L228.8,250.8L228.8,250.8z"/>
				<path class="st12" d="M226.7,274.9c-8,0-17.8-7.5-18.2-7.8l-0.3-0.2v-25.3l21.3,8.8v15.9c0.5,1,2.4,4.8,1.3,7
					c-0.4,0.8-1,1.3-2,1.5C228.2,274.8,227.5,274.9,226.7,274.9L226.7,274.9z M209.8,266c1.9,1.4,11.9,8.5,18.8,7.1
					c0.6-0.1,0.7-0.4,0.8-0.6c0.6-1.3-0.5-4.2-1.4-5.8l-0.1-0.2v-15.3l-18.2-7.5V266L209.8,266z"/>
			</g>
			<path class="st14" d="M209,256.9v-13.1c0,0,6.8,11.5,16.5,12.1C225.5,255.9,217.1,262.3,209,256.9z"/>
			<g>
				<path class="st3" d="M244,222c0,0,1.4,16.4-1.9,29.9c-2.4,9.6-23.7,15.1-32.3-3.1c-8.6-18.1,2.9-36.2,2.9-36.2L244,222L244,222z
					"/>
				<path class="st12" d="M227.3,261.6c-7.8,0-14.5-4.5-18.2-12.4c-8.6-18.3,2.8-36.8,2.9-37l0.3-0.5l32.4,9.7l0.1,0.5
					c0,0.2,1.4,16.7-1.9,30.1c-1.2,4.8-6.7,8.7-13.4,9.4C228.7,261.6,228,261.6,227.3,261.6L227.3,261.6z M213.1,213.5
					c-1.7,3-10,19.1-2.5,35c3.7,7.9,10.8,12.2,18.7,11.4c6-0.6,11.1-4,12.1-8.2c2.9-11.9,2.1-26.2,1.9-29.1L213.1,213.5L213.1,213.5
					z"/>
			</g>
			<path class="st14" d="M160.7,303.9c-10.2,13.1-11.9,47.1-20.4,61.4c-1.1,1.8-2,3.6-2.9,5.4c0.1,5.8,0.1,11.6,0.3,17.4
				c1.1,35.8-8.7,89.4-6.1,95c1.3,2.6,15.1-0.6,28.2,0c2.3-4.2,1.4-8.9,1-13.5c-0.7-8.8-1.6-17.7-2.3-26.5
				c-1.7-19-3.5-37.4,0.4-56.3c4-19.4,5.5-22,9.5-41.4c4.9-23.5-4.6-34.6-4.9-35C164.9,308,162.6,301.6,160.7,303.9L160.7,303.9z"/>
			<path class="st7" d="M244.5,204.2c-2.8-0.2-4.8,0.7-7.5,1.3c-4.4,1.1-8,0.6-12.4,0c-5.4-0.6-10.6-0.9-15.3,2.4
				c-7.3,5.2-11.4,19.6-8.6,28.9c-0.1,1.7,0.2,3.3,2,4.7c2.7,2.1,6.4,1.4,8.4-1.2c3.1-3.9,2.5-10.2,3.3-14.9
				c0.2-1.1,0.6-2.4,0.7-3.7c12.1,3.9,28.5,8.3,38,0.6C263,214.3,254.9,204.9,244.5,204.2L244.5,204.2z"/>
			<g>
				<g>
					<path class="st15" d="M224.1,413.4c0,0-67,68.3-151.5,110.8c0,0,5.6,26.1,24.8,36.6c0,0,97.7-94.5,160.7-108.5
						C258,452.4,251.7,408.7,224.1,413.4z"/>
					<path class="st2" d="M97.5,561.8l-0.5-0.3c-19.4-10.5-25.1-36.9-25.2-37.2l-0.1-0.6l0.5-0.3c83.4-42,150.6-110,151.3-110.7
						l0.2-0.2l0.3,0c6.3-1.1,12,0.2,17,3.9c14,10.1,17.7,34.8,17.9,35.8l0.1,0.7l-0.7,0.2c-62,13.7-159.3,107.3-160.3,108.3
						L97.5,561.8L97.5,561.8z M73.5,524.6c1,3.9,7,25.8,23.8,35.3c7-6.7,99.5-94.2,159.9-108.1c-0.7-4.1-5-25.2-17.1-34.1
						c-4.6-3.3-9.8-4.6-15.6-3.6C220.5,418.1,154.7,483.6,73.5,524.6L73.5,524.6z"/>
				</g>
				<path class="st4" d="M251.8,449.6c-1-5.3-2.4-10.5-4.8-15c-2.2-4.6-5.5-8.4-9.5-10.8c-2-1.2-4.2-1.9-6.4-2.4
					c-1.1-0.4-2.3-0.4-3-0.4c-0.4,0-0.6,0.1-0.4,0.1c0.2,0,0.7-0.6,0.7-0.8c0.1-0.4,0.1,0.7,0.5,1.6c0.4,1,0.9,2,1.5,3
					c1.2,2.1,2.7,4.2,4.3,6.2c3.1,4.1,6.6,8,10.2,11.6c0.9,0.9,1.8,1.7,2.7,2.4c0.4,0.3,0.9,0.6,0.8,0.6c-0.1,0-0.3-0.1-1-0.1
					c-0.2,0-0.6,0.1-0.8,0.2c-0.3,0.1-0.6,0.3-0.9,0.5c-0.3,0.2-0.6,0.6-0.7,0.9c-0.1,0.2-0.2,0.4-0.3,0.7c-0.2,0.8-0.1,1-0.1,0.7
					l0-0.3c-0.3-2.1-1-4.7-1.7-7.1c-0.8-2.5-1.7-4.9-2.7-7.2c-1-2.3-2.2-4.8-3.5-6.3c-0.3-0.4-0.7-0.6-0.5-0.6
					c0.1,0,0.2-0.2,0.1-0.1c0-0.1-0.2,0.2-0.4,0.3c-0.6,0.6-0.7,1.5-0.4,2.7c0.6,2.3,2.3,4.5,4.1,6.6c-2.3-1.4-4.6-3.1-6.1-5.7
					c-0.8-1.3-1.2-3.3-0.2-5.1c0.3-0.4,0.4-0.8,0.9-1.2c0.4-0.5,1.2-0.8,1.9-0.9c1.5-0.1,2.4,0.6,3.1,1.1c2.7,2.1,4.1,4.5,5.7,6.8
					c1.5,2.4,2.7,4.9,3.9,7.4c1.2,2.6,2.2,5.1,2.8,8.3l0.1,0.7c0,0.1,0.2,0.7-0.1,1.7c-0.1,0.3-0.2,0.6-0.4,0.9
					c-0.2,0.3-0.5,0.8-0.9,1.1c-0.4,0.3-0.7,0.5-1.1,0.7c-0.3,0.1-0.8,0.3-1.1,0.3c-1.1,0.1-1.6-0.1-2-0.3c-1.4-0.5-2-1-2.7-1.4
					c-1.3-0.9-2.4-1.8-3.5-2.8c-4.2-3.8-7.9-7.9-11.4-12.3c-1.7-2.3-3.3-4.6-4.7-7.1c-0.7-1.3-1.4-2.6-2-4.2
					c-0.3-0.8-0.5-1.6-0.7-2.6c-0.2-1-0.3-2.2,0.2-3.7c0.4-1.5,1.8-3.2,3.2-3.8c1.4-0.6,2.5-0.7,3.5-0.7c1.9,0.1,3.5,0.4,4.9,0.9
					c2.9,0.8,5.8,2.2,8.2,4.1c5,3.7,8.1,9.1,9.6,14.5C252.1,438.6,252.6,444.2,251.8,449.6L251.8,449.6z"/>
			</g>
			<g>
				<g>
					<path class="st16" d="M223.3,452c0,0-80.3,52-172,75.1c0,0-0.3,26.7,16.2,41.2c0,0,116-70.9,180.5-70.8
						C247.9,497.5,251.3,453.5,223.3,452L223.3,452z"/>
					<path class="st12" d="M67.4,569.3l-0.4-0.4c-16.6-14.5-16.5-41.5-16.5-41.8v-0.6l0.6-0.2c90.5-22.8,171-74.5,171.8-75l0.2-0.1
						h0.3c6.4,0.3,11.7,2.9,15.8,7.5c11.4,13,9.7,37.8,9.6,38.8l-0.1,0.7h-0.7c-0.1,0-0.1,0-0.2,0c-63.6,0-178.7,70-179.9,70.7
						L67.4,569.3L67.4,569.3z M52.1,527.8c0.1,4,1.2,26.7,15.5,39.6c8.3-5,117.7-70.2,179.6-70.6c0.2-4.2,0.7-25.7-9.3-37
						c-3.7-4.3-8.6-6.6-14.4-7C218.8,455.9,140.3,505.4,52.1,527.8L52.1,527.8z"/>
				</g>
				<path class="st4" d="M242.4,493.4c0.2-5.4-0.1-10.8-1.4-15.7c-1.2-5-3.5-9.4-6.9-12.6c-1.7-1.6-3.7-2.8-5.7-3.8
					c-1-0.6-2.1-0.9-2.9-1c-0.3-0.1-0.6,0-0.4,0c0.2,0,0.8-0.4,0.9-0.6c0.2-0.4-0.1,0.7,0.2,1.6c0.2,1,0.5,2.2,0.8,3.3
					c0.7,2.3,1.8,4.6,2.9,7c2.2,4.6,4.7,9.3,7.4,13.5c0.7,1.1,1.4,2.1,2.1,2.9c0.3,0.4,0.8,0.8,0.6,0.7c-0.1,0-0.3-0.2-1-0.3
					c-0.2,0-0.6-0.1-0.9,0c-0.3,0.1-0.6,0.2-1,0.3c-0.3,0.2-0.7,0.5-0.9,0.7c-0.2,0.2-0.3,0.4-0.4,0.6c-0.3,0.7-0.3,0.9-0.3,0.7
					l0.1-0.3c0.2-2.1,0.1-4.8-0.1-7.3c-0.2-2.6-0.6-5.1-1.1-7.6c-0.5-2.5-1.1-5.1-2.1-6.9c-0.2-0.4-0.5-0.7-0.4-0.7
					c0.1,0,0.2-0.1,0.1-0.1c0-0.1-0.3,0.2-0.4,0.2c-0.7,0.4-1,1.3-1,2.5c0.1,2.4,1.3,4.9,2.5,7.3c-2-1.9-3.8-4-4.7-6.9
					c-0.5-1.4-0.4-3.5,0.9-5c0.4-0.4,0.5-0.7,1.1-1c0.5-0.4,1.3-0.6,2.1-0.4c1.5,0.3,2.2,1.1,2.8,1.7c2.1,2.6,3,5.2,4,7.9
					c1,2.7,1.6,5.4,2.2,8.1c0.6,2.8,1.1,5.5,0.9,8.7l-0.1,0.7c0,0.1,0,0.7-0.5,1.7c-0.2,0.3-0.3,0.6-0.6,0.8
					c-0.2,0.3-0.7,0.6-1.1,0.8c-0.5,0.3-0.8,0.4-1.2,0.4c-0.4,0.1-0.9,0.1-1.1,0c-1.1-0.2-1.5-0.5-1.9-0.7c-1.3-0.8-1.7-1.4-2.3-2
					c-1.1-1.2-2-2.3-2.8-3.5c-3.3-4.6-6-9.4-8.4-14.5c-1.2-2.6-2.2-5.2-3.1-8c-0.4-1.4-0.8-2.9-1-4.5c-0.1-0.8-0.2-1.7-0.1-2.7
					c0.1-1,0.2-2.2,1-3.5c0.7-1.4,2.5-2.7,4-3c1.5-0.3,2.6-0.1,3.6,0.1c1.9,0.5,3.3,1.1,4.6,1.9c2.7,1.5,5.2,3.4,7.1,5.8
					c4,4.7,5.9,10.6,6.2,16.2C245.2,482.8,244.4,488.4,242.4,493.4L242.4,493.4z"/>
			</g>
			<g>
				<path class="st3" d="M156,524.8c2,4.8,1.3,10.3-4,12.5c-1.4,0.6-2.9,0.9-4.4,1.1c-4.6,1.4-9.6,1-13.7-1.9
					c-3.9-2.8-7.9-8.4-4.4-13C135.8,515.3,151.7,514.5,156,524.8L156,524.8z"/>
				<path class="st12" d="M142.5,539.9c-3.3,0-6.4-1-9.1-2.8c-2.5-1.8-5.5-5-6-8.6c-0.3-2,0.2-3.8,1.4-5.5
					c3.5-4.7,10.2-7.2,16.7-6.4c5.3,0.7,9.3,3.6,11.2,7.9c1.3,3.1,1.5,6.3,0.4,8.8c-0.9,2.1-2.5,3.7-4.8,4.7c-1.4,0.6-2.9,1-4.6,1.1
					C146,539.6,144.2,539.9,142.5,539.9L142.5,539.9z M143.2,518c-5.2,0-10.2,2.3-13,6c-1,1.3-1.4,2.7-1.1,4.3
					c0.5,3.1,3.1,5.9,5.3,7.5c3.6,2.6,8.3,3.2,13,1.8l0.2,0c1.5-0.1,2.9-0.5,4.2-1c1.9-0.8,3.3-2.1,4-3.8c0.9-2.1,0.7-4.9-0.4-7.6
					l0,0c-2.2-5.3-7.2-6.6-9.9-7C144.6,518,143.9,518,143.2,518L143.2,518z"/>
			</g>
			<g>
				<path class="st3" d="M141.1,515.1c3.7,1.1,11.8,4.8,15.6,5.4c2.6,0.4,6.5,2.2,4.5,5.4c-1.5,2.5-5.9,2.6-8.5,2.4
					c-3.4-0.3-11.3-5.8-14.3-7.5C136.7,519.7,139.7,514.7,141.1,515.1L141.1,515.1z"/>
				<path class="st12" d="M154.4,529.2c-0.6,0-1.2,0-1.8-0.1c-2.9-0.2-8.3-3.6-12.2-6.1c-1-0.6-1.8-1.1-2.4-1.5
					c-1.1-0.6-1.2-2.1-0.4-3.9c0.7-1.5,2.2-3.6,3.7-3.2l0,0c1.4,0.4,3.4,1.2,5.5,2c3.6,1.4,7.7,3,10,3.3c1.9,0.3,4.5,1.3,5.4,3.2
					c0.4,0.7,0.6,1.9-0.3,3.4C160.5,528.7,157.1,529.2,154.4,529.2L154.4,529.2z M140.9,515.9c-0.5,0.1-1.8,1.6-2.1,3.2
					c-0.1,0.5-0.1,0.9,0.1,1c0.6,0.4,1.5,0.9,2.5,1.5c3.4,2.1,9,5.7,11.5,5.9c1.5,0.1,6.3,0.3,7.7-2c0.4-0.7,0.5-1.4,0.3-2
					c-0.6-1.2-2.5-2-4.2-2.3c-2.5-0.4-6.6-2-10.3-3.4C144.2,517.1,142.2,516.3,140.9,515.9L140.9,515.9z M140.9,515.9L140.9,515.9
					L140.9,515.9L140.9,515.9z"/>
			</g>
			<g>
				<path class="st3" d="M67.5,474.3c22.5,36,54.3,59.6,54.3,59.6l6.8-5.6l19.6-16c-1.5-0.3-13.5-20.4-22.5-42.9
					c-5.7-14.1-10.2-29-10.4-40.7c-0.1-5.1,7.4-15.3,17-28.3c14.5-19.7,34.1-45.8,39.8-70.1c2.9-12.3,0.4-22.9-2.6-31.1
					c-4.2-11.4-15.3-13.5-24.7-5.8c-17.2,14-48.6,40-67,68.9c-1.1,1.6-2,3.3-3,4.9C48.7,410.9,48,443.2,67.5,474.3L67.5,474.3z"/>
				<path class="st12" d="M121.8,534.8l-0.5-0.4c-0.3-0.2-32.2-24-54.5-59.8c-20.2-32.3-18-65.7,7.3-108.1l0.5-0.8
					c0.8-1.4,1.7-2.8,2.6-4.1c18.9-29.9,51.5-56.4,67.1-69.1c5-4.1,10.7-5.6,15.6-4.2c4.6,1.3,8.3,5,10.3,10.4
					c2.6,7.2,5.8,18.2,2.6,31.6c-5.7,24-24.9,50.1-39,69.2l-0.9,1.2c-8.7,11.8-16.9,22.8-16.9,27.8c0.2,10.2,3.7,23.8,10.4,40.4
					c9,22.4,20.4,41.5,22.1,42.5l1.6,0.4l-1.4,1L121.8,534.8L121.8,534.8z M156.2,289.4c-3.6,0-7.5,1.5-11,4.4
					c-15.6,12.7-48,39.1-66.8,68.7c-0.9,1.4-1.7,2.7-2.5,4.1l-0.5,0.8c-25.2,42.4-27.4,74.3-7.3,106.5l0,0
					c20.6,33.1,49.5,55.8,53.6,59l25.2-20.7c-3.7-4.2-14.5-23.9-22-42.6c-6.8-16.9-10.3-30.6-10.5-41c-0.1-5.5,7.9-16.3,17.2-28.7
					l0.9-1.2c14-18.9,33.2-44.9,38.7-68.6c3.1-12.9,0-23.7-2.6-30.7c-1.8-4.9-5.1-8.3-9.2-9.4C158.4,289.6,157.3,289.4,156.2,289.4
					L156.2,289.4z"/>
			</g>
			<path class="st3" d="M261.9,276c0,0,11.2,7.9,13.2,11.2c2.1,3.3-1.3,25.8-1.3,25.8s-0.8-1.6-1.6,0c-0.8,1.6-10.4-1.7-10.4-1.7
				l-2.9-24.1c0,0-0.7-2.9,0-4.9C259.7,280.5,261.9,276,261.9,276L261.9,276z"/>
			<path class="st3" d="M163.9,281.7c0,0-22,12-27.6,19.4c-5.6,7.4,5.1,26.2,5.1,26.2s4.8,9.1,8.5,12c3.6,2.9,14.9,2.3,14.9,2.3
				l2.7,0c0,0,1.8-0.9,1.5,0.7c-0.3,1.7,11.3,4.3,11.4,3.8s2.7-9.6,3.4-16.2c0.7-6.5,2.9-18.5,2.5-24.6c-0.4-6.1,2.2-6.1-3.5-13.3
				c-5.7-7.2-13-6.9-13-6.9L163.9,281.7L163.9,281.7z"/>
		</g>
	</g>
</g>
</svg>
