<?xml version="1.0" encoding="UTF-8"?>
<svg id="Capa_2" data-name="Capa 2" xmlns="http://www.w3.org/2000/svg" viewBox="0 0 1054.24 840">
  <defs>
    <style>
      .cls-1 {
        fill: #262246;
      }

      .cls-1, .cls-2, .cls-3, .cls-4, .cls-5, .cls-6, .cls-7 {
        stroke-width: 0px;
      }

      .cls-2 {
        fill: #fff;
      }

      .cls-3 {
        fill: #fdc500;
      }

      .cls-4 {
        fill: #2b0000;
        isolation: isolate;
        opacity: .14;
      }

      .cls-5 {
        fill: #68003c;
      }

      .cls-6 {
        fill: #2351fb;
      }

      .cls-7 {
        fill: #e67925;
      }
    </style>
  </defs>
  <g id="Capa_1-2" data-name="Capa 1">
    <g>
      <path class="cls-4" d="m1049.55,391.58v448.42h-394.85c-14.36-14.17-27.29-29.79-38.56-46.62-18.22,17.58-38.32,33.23-59.96,46.62H182.25C80.96,777.32,13.48,665.19,13.48,537.31c0-196.46,159.66-355.95,356.13-355.73,39.01.04,76.55,6.36,111.67,18.01,71.17,23.6,149.41,9.08,206.77-39.23,35.53-29.92,81.41-47.95,131.5-47.95,112.84,0,204.31,91.47,204.31,204.3v.58c-.08,27.17,9.1,53.29,25.69,74.29Z"/>
      <path class="cls-4" d="m1049.55,322.3v517.7h-399.99c-14.55-16.36-27.65-34.39-39.06-53.82-18.46,20.3-38.81,38.36-60.74,53.82H170.97C68.36,767.63,0,638.19,0,490.55,0,263.73,161.74,79.61,360.76,79.85c39.52.04,77.55,7.34,113.12,20.79,72.1,27.25,151.35,10.48,209.46-45.29C719.33,20.81,765.81,0,816.56,0c114.31,0,206.97,105.6,206.97,235.87v.66c-.08,31.37,9.21,61.52,26.02,85.76Z"/>
      <g>
        <path class="cls-5" d="m206.01,195.18s-.15,33.39-13.31,47.66c0,0,29.47,22.89,71.27,12l1.5-57.29-59.46-2.37Z"/>
        <path class="cls-7" d="m237.26,174.66c14.52,1.06,25.4,13.74,24.34,28.26-.39,5.47-2.52,10.64-6,14.9l-3.92,11.08c-3.19,9-11.08,14.52-18.92,13.93l-.77-.05c-8.03-.58-15.24-7.35-17.13-17.08l-2.13-11.03c-7.55-12.48-3.53-28.69,8.95-36.19,4.64-2.9,10.11-4.21,15.58-3.82Z"/>
        <rect class="cls-7" x="213.84" y="237.42" width="35.8" height="22.69" transform="translate(-33.58 461.34) rotate(-85.73)"/>
        <path class="cls-1" d="m235.38,225.47h-.19l-3.15-.29c-.53-.05-.92-.53-.87-1.06.05-.53.53-.92,1.06-.87l3.15.29.15-.15-1.26-8.85c-.1-.53.29-1.02.82-1.11.53-.1,1.02.29,1.11.82l1.26,8.85c.15,1.16-.63,2.18-1.79,2.37-.1,0-.19,0-.29,0h0Z"/>
        <path class="cls-1" d="m243.51,211.63c1.26.1,2.18,1.16,2.08,2.42-.1,1.26-1.16,2.18-2.42,2.08-1.21-.1-2.13-1.16-2.08-2.42.1-1.26,1.16-2.18,2.42-2.08-.05,0,0,0,0,0Z"/>
        <path class="cls-1" d="m226.52,210.37c1.21.1,2.13,1.16,2.03,2.42-.1,1.21-1.16,2.13-2.42,2.03-1.21-.1-2.13-1.16-2.03-2.42.1-1.21,1.16-2.13,2.42-2.03-.05,0,0,0,0,0Z"/>
        <path class="cls-1" d="m242.93,205.14c.68-.1,4.6-.77,6.97,1.84.77.87,1.4,2.13,1.11,2.37-.44.44-2.37-2.27-5.37-2.32-2.08,0-3.48,1.26-4.69.34-.05-.05-.68-.48-.58-.97.05-.82,2.13-1.21,2.56-1.26Z"/>
        <path class="cls-1" d="m221.06,204.85c2.76-2.23,6.53-.97,7.16-.77.44.15,2.42.82,2.37,1.69,0,.48-.68.82-.73.87-1.35.68-2.56-.77-4.6-1.06-3-.44-5.27,1.98-5.66,1.5-.24-.39.53-1.5,1.45-2.23Z"/>
        <path class="cls-5" d="m233.54,243.8c-.73,0-1.5-.05-2.23-.15-3.97-.53-7.69-2.32-10.55-5.13-.39-.34-.44-.97-.1-1.35s.97-.44,1.35-.1l.05.05c2.56,2.52,5.85,4.16,9.44,4.6,4.06.48,8.18-.53,11.52-2.9.44-.29,1.02-.19,1.35.24.34.44.19,1.02-.24,1.35-3.1,2.18-6.82,3.34-10.6,3.39Z"/>
        <path class="cls-5" d="m165.46,764.13l-32.9,75.87h92.9c-11.23-23.37-22.5-46.79-33.72-70.16l-26.27-5.71Z"/>
        <path class="cls-5" d="m267.75,764.13l-30.92,75.87h87.29c-10.55-23.37-21.14-46.79-31.69-70.16l-24.68-5.71Z"/>
        <path class="cls-6" d="m163.19,425.78c-8.37,20.32-2.95,34.45-11.32,54.77-2.85,6.92-7.21,184.78-1.21,299.55l55.88,2.52c-5.08-66.38,1.84-95.9-3.19-162.28,3.29-40.79,7.16-50.17,10.4-90.91l6.14-96.67-56.71-6.97Z"/>
        <path class="cls-6" d="m256.23,415.81c5.18,29.42,10.35,58.88,15.53,88.3.24,1.45.44,2.9.48,4.35,2.08,48.87,3.58,66.38,5.66,115.3,12.73,65.32,13.45,93.77,26.18,159.14l-59.56,2.32c-11.66-66.67-11.32-96.43-22.93-163.11-.19-1.21-.39-2.37-.48-3.58l-18.14-181.54,53.27-21.19Z"/>
        <path class="cls-7" d="m236.49,256.33l-51.67.24c-11.18.05-21,7.55-23.95,18.34l-38.9,140.9,35.47,10.69,43.16-137.51,35.9-32.66Z"/>
        <path class="cls-7" d="m227.54,256.14l48,9.24c9.68,1.89,17.03,9.87,18,19.69l15.1,148.64-42.77,5.71-13.89-150.96-24.43-32.32Z"/>
        <path class="cls-3" d="m231.55,256.33l-62.56,11.52c1.02,57.05,2.03,114.04,3,171.04l84.82,7.69c9.19-57.58,18.34-115.16,27.53-172.73l-52.79-17.52Z"/>
        <path class="cls-7" d="m349.47,307.96l-84.24,124.01c-.19,13.89,5.37,19.26,17.42,21.29,9.39,1.6,19.21-2.81,25.26-11.08l61.59-118.49-20.03-15.73Z"/>
        <path class="cls-3" d="m231.55,256.33l-40.59-.82c-15.1-.29-28.84,8.56-34.79,22.45-9.97,23.27-19.93,46.59-29.9,69.87l50.51,24.72,54.77-116.22Z"/>
        <path class="cls-3" d="m231.55,256.33l42.53,7.55c11.76,2.08,20.71,11.71,21.97,23.61l9.58,82.98-55.26,8.27-3.05-91.35-15.77-31.06Z"/>
        <path class="cls-7" d="m219.8,256.09c3.58,6.92,8.23,13.26,13.79,18.77l8.81-16.64s-7.11-12.34-22.6-2.13Z"/>
        <path class="cls-3" d="m220.81,242.79l-1.35.53c-2.56.97-4.6,2.85-5.76,5.32l-3.39,7.26,8.81,28.16,14.52-9.14-13.79-18.77.97-13.35Z"/>
        <path class="cls-3" d="m243.36,245.45l-.97,12.82-8.81,16.6,10.45,10.64,7.55-25.64-.87-5.52c-.58-3.58-2.81-6.63-6.05-8.32l-1.31-.58Z"/>
        <path class="cls-6" d="m260.83,448.13l12.73-106.69-6.39-78.77-9.48-1.69-1.31,42.97c-19.79,11.23-44.51,8.27-61.11-7.26l5.52-41.03h-9.82l-16.21,61.26c-3.87,44.32-7.74,88.64-11.56,133.01l97.64-1.79Z"/>
        <path class="cls-7" d="m206.83,524.68l-46.26-117.96c-.87-1.79-5.52-11.08-14.18-12.58-11.37-1.94-21.97,10.84-24.48,21.68-2.47,10.74,2.81,20.37,5.37,24.87,21.77,38.27,54,87.82,58.69,94.98l20.85-10.98Z"/>
        <path class="cls-5" d="m221.44,287.54h-.19c-.34-.1-.58-.29-.68-.63l-11.18-30.68c-.19-.48.1-1.06.58-1.26s1.06.1,1.26.58l10.69,29.27,11.08-10.69c.39-.39.97-.39,1.35,0l9.29,9.48,7.06-24.1c.15-.53.68-.82,1.21-.68.53.15.82.68.68,1.21l-7.55,25.64c-.1.34-.34.58-.68.68-.34.1-.68,0-.92-.24l-9.87-9.87-11.47,11.03c-.19.15-.44.24-.68.24Z"/>
        <path class="cls-5" d="m212.1,213.8s8.42-1.79,9.29-16.55c.87-14.76,15.05-15.63,15.05-15.63,0,0,1.06,21.77,19.55,21.87l.82,14.66,4.79,1.5s19.69-48.63-21.39-47.08c0,0-19.5-6-29.71,3.19-10.21,9.19-3.92,40.35-3.92,40.35l5.52-2.32Z"/>
        <path class="cls-7" d="m252.7,215.45c2.03-3.24,5.9-4.45,8.66-2.76,2.76,1.69,3.39,5.76,1.35,9-2.03,3.24-5.9,4.5-8.66,2.76s-3.39-5.76-1.35-9Z"/>
        <path class="cls-1" d="m256.04,223.19c-.53,0-.97-.44-.97-.97,0-.44.29-.82.73-.92.92-.19,1.5-1.16,1.31-2.08-.15-.58-.53-1.02-1.06-1.21-.44-.19-.68-.68-.58-1.11.1-.48.53-.77,1.02-.73l4.4.34c.53.05.92.48.87,1.02-.05.53-.48.92-1.02.92h0l-1.98-.15c.24.58.34,1.21.24,1.84-.19,1.5-1.31,2.71-2.76,3.05-.05,0-.15,0-.19,0Z"/>
        <path class="cls-7" d="m207.85,208.72c3-1.31,6.68.48,8.18,4.02,1.5,3.53.29,7.4-2.66,8.71-2.95,1.31-6.68-.48-8.18-4.02-1.5-3.53-.34-7.4,2.66-8.71Z"/>
        <path class="cls-1" d="m211.72,219.9c-.15,0-.24-.05-.39-.1-1.89-.77-2.76-2.9-1.98-4.74.05-.15.15-.34.24-.48l-1.98-.15c-.53-.05-.92-.48-.92-1.02h0c.05-.53.48-.92,1.02-.92h0l4.4.34c.53.05.92.48.87,1.02-.05.44-.34.77-.73.87-.92.19-1.5,1.16-1.31,2.08.15.58.53,1.02,1.06,1.21.48.19.73.77.53,1.26-.05.39-.44.63-.82.63h0Z"/>
        <path class="cls-6" d="m204.85,199.19c2.13-1.74,16.16-12.63,35.18-9.24,14.66,2.66,23.27,12.19,25.64,15.05.63-2.03,5.37-17.95-4.35-31.06-3.19-4.26-7.45-7.64-12.34-9.77-9.44-4.11-23.22-4.5-33.72,4.35-8.76,7.4-12.77,19.21-10.4,30.68Z"/>
        <path class="cls-3" d="m209.93,195.71c.87-3.53,3.68-13.26,11.56-16.45,1.94-.77,3.58-.92,15.24.39,17.61,1.98,19.55,2.9,21.19,4.55,1.16,1.16,5.27,5.71,3.73,16.69-15.48-9.73-34.64-11.61-51.72-5.18h0Z"/>
        <path class="cls-5" d="m213.22,539.48h-.1c-.53-.05-.92-.53-.87-1.06l5.18-60.14c.05-.53.53-.92,1.06-.87h0c.53.05.92.53.87,1.06h0l-5.18,60.14c-.05.48-.48.87-.97.87Z"/>
        <path class="cls-3" d="m252.55,650.77l-71.9-8.71c-6.92-.48-7.31-5.23-6.68-10.35l6.19-50.03,49.45-38.71,35.32,4.35c5.13.63,8.76,5.32,8.13,10.45l-10.5,84.87c-.63,5.13-1.94,9.19-10.02,8.13Z"/>
        <path class="cls-3" d="m186.85,586.61l-7.26-.87,4.16-33.97c.97-7.84,8.13-13.4,15.97-12.43l34.45,4.26-.87,7.26-34.45-4.26c-3.82-.48-7.35,2.27-7.79,6.1l-4.21,33.92Z"/>
        <rect class="cls-3" x="239.69" y="535.8" width="30.53" height="22.4" transform="translate(-319.14 733.09) rotate(-82.97)"/>
        <path class="cls-2" d="m248.2,525.84l18.48,2.27c2.47.29,4.21,2.56,3.92,5.03l-.73,5.9c-.29,2.47-2.56,4.21-5.03,3.92l-18.48-2.27c-2.47-.29-4.21-2.56-3.92-5.03l.73-5.9c.29-2.47,2.56-4.21,5.03-3.92Z"/>
        <path class="cls-2" d="m224.78,551.97l-37.11,28.98c-1.31,1.02-2.13,2.47-2.32,4.11l-5.42,43.84c-.44,3.39,1.98,6.44,5.32,6.87h0l65.46,8.08c3.34.44,6.44-1.98,6.87-5.32l9.48-76.88c.44-3.39-1.98-6.44-5.32-6.87h0l-32.42-4.02c-1.65-.24-3.24.19-4.55,1.21Z"/>
        <path class="cls-3" d="m215.49,597.54c2.56-12.82,17.9-21.58,20.66-18.58,0,0-2.32,8.27.82,16.16,3.15,7.89,1.35,17.52-7.89,18.68-4.4.39-8.76-1.26-11.81-4.45-3.34-4.06-2.13-9.97-1.79-11.81Z"/>
        <path class="cls-7" d="m174.75,514.71l-1.79,18.77c-.24.92-.29,1.89-.24,2.85.1,1.94.77,3.82,1.89,5.42l11.76,20.47c1.84,3.44,5.42,4.5,7.45,3.34,1.84-1.06,1.98-3.73,2.03-4.02,1.21,1.21,3.05,1.55,4.64.92,1.89-.82,2.9-2.9,2.47-4.94,1.74,1.69,4.55,1.6,6.24-.15,1.35-1.45,1.6-3.63.53-5.32,2.13,1.65,4.98,1.45,6.53-.15,1.69-1.69,1.11-4.26,1.06-4.45-.77-2.56-1.6-5.08-2.37-7.64l8.42,1.02c-1.55-5.37-3.15-10.74-4.69-16.06-.29-1.35-.92-2.61-1.89-3.58-.44-.48-.97-.87-1.5-1.16l-15.24-7.98-25.31,2.66Z"/>
        <path class="cls-5" d="m215.01,540.74c-.39,0-.77-.24-.92-.58l-5.42-13.5c-.19-.48,0-1.06.48-1.26s1.06,0,1.26.48v.05l5.42,13.5c.19.48-.05,1.06-.53,1.26h0s-.19.05-.29.05Z"/>
        <path class="cls-5" d="m209.73,552.98c-.39,0-.73-.24-.87-.58l-4.21-9.82c-.19-.48,0-1.06.53-1.26.48-.19,1.06,0,1.26.53h0l4.21,9.82c.19.48,0,1.06-.53,1.26-.15,0-.24.05-.39.05h0Z"/>
        <path class="cls-5" d="m202.96,558.45c-.44,0-.77-.24-.92-.68l-4.16-12.34c-.19-.48.1-1.06.63-1.21.48-.19,1.06.1,1.21.63h0l4.16,12.34c.19.48-.1,1.06-.58,1.21-.15.05-.24.05-.34.05Z"/>
        <path class="cls-5" d="m195.85,562.46c-.39,0-.77-.24-.92-.63l-4.79-12.1c-.15-.53.19-1.06.68-1.16.44-.1.92.1,1.11.48l4.79,12.1c.19.48-.05,1.06-.53,1.26-.1,0-.24.05-.34.05Z"/>
        <path class="cls-5" d="m162.27,411.99c-.1,0-.19,0-.29-.05l-20.76-7.06c-.48-.19-.77-.73-.58-1.21.19-.48.73-.77,1.21-.58h0l20.76,7.06c.48.19.77.73.58,1.21-.15.39-.48.63-.92.63h0Z"/>
        <path class="cls-6" d="m354.65,261.8h0c2.76,0,5.03,2.23,5.03,5.03v69.48c0,2.76-2.23,5.03-5.03,5.03h0c-2.76,0-5.03-2.23-5.03-5.03v-69.48c0-2.76,2.27-5.03,5.03-5.03Z"/>
        <path class="cls-7" d="m358.03,289.67l10.84-4.69c2.47-1.16,5.27,0,6.1,2.13.68,1.94-.05,4.06-1.74,5.18,1.94-.44,3.92.82,4.35,2.76.34,1.6-.44,3.24-1.89,4.02,2.32,0,4.21,1.89,4.21,4.21,0,1.6-.92,3.05-2.32,3.73.29.1,2.52.82,3.19,2.9.73,2.13-.53,4.84-3.19,6.05l-10.26,10.74-4.64-6.58-2.32.34c-2.42-.15-4.26-2.13-4.21-4.21.1-1.79,1.26-3.29,2.95-3.82-2.37-.87-3.58-3.53-2.66-5.9.44-1.21,1.4-2.18,2.61-2.66-1.98,0-3.58-1.6-3.58-3.58,0-1.69,1.16-3.1,2.81-3.48-1.4-.34-2.47-1.4-2.81-2.81-.34-1.84.77-3.68,2.56-4.31Z"/>
        <path class="cls-5" d="m356.15,296.45c-.1,0-.19,0-.29-.05-.53-.15-.77-.73-.63-1.21l1.84-5.85c.15-.53.73-.77,1.21-.63.53.15.77.73.63,1.21l-1.89,5.81c-.05.44-.44.73-.87.73Z"/>
        <path class="cls-6" d="m359.68,254.83v9.24c0,2.76-2.23,5.03-5.03,5.03s-5.03-2.23-5.03-5.03v-9.24c-6.39,2.76-9.29,10.16-6.53,16.55,2.76,6.39,10.16,9.29,16.55,6.53,6.39-2.76,9.29-10.16,6.53-16.55-1.26-2.95-3.58-5.27-6.48-6.53Z"/>
        <path class="cls-7" d="m344.1,319.82l.87-22.5c.05-1.45.53-2.81,1.31-4.02l6.19-9c1.4-1.26,3.44-1.4,4.98-.34,1.21.87,1.79,2.37,1.6,3.82l-5.61,13.79-3.77,21.87-5.56-3.63Z"/>
        <path class="cls-5" d="m358.27,297.17c-.53,0-.97-.44-.97-.97,0-.44.29-.82.68-.97l14.95-4.55c.53-.15,1.06.15,1.21.63.15.53-.15,1.06-.63,1.21h0l-14.95,4.6c-.1.05-.19.05-.29.05Z"/>
        <path class="cls-5" d="m359.05,304.24c-.53,0-.97-.44-.97-.97,0-.44.29-.82.68-.92l16.64-4.84c.53-.15,1.06.15,1.21.68.15.53-.15,1.06-.68,1.21h0l-16.64,4.84h-.24Z"/>
        <path class="cls-5" d="m359.1,312.75c-.53,0-.97-.44-.97-.97,0-.44.29-.82.68-.92l18.48-5.42c.53-.15,1.06.15,1.21.68.15.53-.15,1.06-.68,1.21l-18.43,5.42h-.29Z"/>
        <path class="cls-5" d="m360.36,320.78c-.53,0-.97-.44-.97-.97,0-.44.29-.82.73-.92l12.14-3.05c.53-.15,1.06.19,1.16.68s-.19,1.06-.68,1.16l-12.14,3.05c-.1.05-.15.05-.24.05Z"/>
        <path class="cls-5" d="m275.29,418.08c-.53,0-.97-.44-.97-.97,0-.19.05-.39.15-.53l27.53-40.4c.29-.44.87-.58,1.35-.29.44.29.58.87.29,1.35l-.05.05-27.53,40.4c-.15.24-.48.39-.77.39Z"/>
        <path class="cls-1" d="m228.6,226.67l11.71,1.55c-1.4,3.1-5.03,4.5-8.18,3.1-1.89-.87-3.24-2.61-3.53-4.64h0Z"/>
        <path class="cls-5" d="m192.7,319.57c19.89,5.08,40.55,6.73,61.01,4.79-6.1,3.15-12.73,5.13-19.55,5.95-20.56,2.32-36.29-7.26-41.47-10.74Z"/>
        <path class="cls-3" d="m1049.55,748.17h-535.76c-15.92,0-28.84-12.92-28.84-28.89v-123.14c0-21.97,13.06-41.8,33.24-50.47l242.84-104.46,171.96-214.05c9.34-11.61,23.47-18.39,38.37-18.39h78.19v539.39Z"/>
        <circle class="cls-5" cx="920.51" cy="706.26" r="133.74"/>
        <path class="cls-2" d="m921.57,808.65c-56.46.58-102.87-44.85-103.45-101.27-.58-56.42,44.85-102.87,101.27-103.45s102.87,44.85,103.45,101.27c.58,56.42-44.85,102.82-101.27,103.45Zm-1.98-190.15c-48.43.48-87.38,40.3-86.9,88.74.48,48.43,40.3,87.38,88.74,86.9,48.43-.48,87.38-40.3,86.9-88.74-.48-48.43-40.35-87.43-88.74-86.9h0Z"/>
        <rect class="cls-2" x="911.66" y="609.66" width="14.56" height="190.19" transform="translate(-7.33 9.66) rotate(-.6)"/>
        <rect class="cls-2" x="823.9" y="697.48" width="190.19" height="14.56" transform="translate(-7.33 9.66) rotate(-.6)"/>
        <rect class="cls-2" x="823.94" y="697.5" width="190.21" height="14.56" transform="translate(-227.53 868.29) rotate(-45.6)"/>
        <rect class="cls-2" x="911.75" y="609.68" width="14.56" height="190.21" transform="translate(-227.53 868.29) rotate(-45.6)"/>
        <circle class="cls-2" cx="920.51" cy="706.26" r="29.71"/>
        <path class="cls-5" d="m521.91,563.43l276.95-.19,228.38-104.08h-266.26l-239.07,104.27Z"/>
        <path class="cls-6" d="m1049.55,441.99v-212.8l-92.51-1.79c-7.11-.15-13.79,3.24-17.95,9l-146.56,204.81,257.02.77Z"/>
        <path class="cls-5" d="m761.03,459.12h266.26l-112.45-183.18c-12.82-20.9-35.61-33.63-60.14-33.63h-169.01c-25.55,0-41.22,28.06-27.77,49.79l103.11,167.02Z"/>
        <path class="cls-2" d="m709.69,592.27l40.11-11.95c.73-.19,1.45-.34,2.18-.34h43.11c4.21,0,7.64,3.44,7.64,7.64,0,1.26-.29,2.52-.92,3.63l-16.26,30.19c-1.35,2.47-3.97,4.02-6.77,4.02l-78.33-.29c-4.21,0-7.64-3.44-7.6-7.69,0-1.45.44-2.85,1.16-4.06l11.32-17.9c1.06-1.6,2.56-2.76,4.35-3.24Z"/>
        <path class="cls-2" d="m566.38,613.41l-11.32-17.9c-.97-1.55-2.52-2.71-4.26-3.24l-40.11-11.95c-.73-.19-1.45-.34-2.18-.34h-21.1c-1.6,5.23-2.42,10.69-2.42,16.16v29.27l75.04-.29c4.21-.05,7.64-3.48,7.6-7.69-.05-1.4-.48-2.81-1.26-4.02Z"/>
        <path class="cls-5" d="m515.43,647.33v5.32c0,2.76,2.23,4.98,4.98,4.98h7.74l10.6,16.89c3.1,4.98,8.56,7.98,14.42,7.98h142.83c3.1,0,6-1.6,7.64-4.26l12.97-20.66h8.81c2.18,0,3.92-1.74,3.92-3.92h0v-6.34c0-2.32-1.89-4.21-4.21-4.21h-205.49c-2.32.05-4.21,1.89-4.21,4.21Z"/>
        <path class="cls-3" d="m700.02,654.73h-157.69c-.73,0-1.35-.44-1.6-1.11l-.15-.39c-.34-.87.1-1.89.97-2.23.19-.1.39-.1.63-.1h158.02c.97,0,1.74.77,1.74,1.74,0,.19-.05.44-.1.63l-.15.39c-.34.63-.97,1.06-1.69,1.06Z"/>
        <path class="cls-3" d="m695.95,665.23h-149.56c-.73,0-1.35-.44-1.6-1.11h0c-.34-.87.1-1.89.97-2.23.19-.1.39-.1.63-.1h149.56c.97,0,1.74.77,1.74,1.74,0,.19-.05.44-.1.63h0c-.29.63-.92,1.06-1.65,1.06Z"/>
        <path class="cls-3" d="m692.27,674.72h-142.2c-.73,0-1.35-.44-1.6-1.11l-.77-2.03h146.99l-.77,2.03c-.29.68-.92,1.11-1.65,1.11Z"/>
        <circle class="cls-2" cx="515.96" cy="708.93" r="24.48"/>
        <circle class="cls-2" cx="747.82" cy="708.93" r="24.48"/>
        <path class="cls-2" d="m1027.29,460.08h-266.26c-.53,0-.97-.44-.97-.97s.44-.97.97-.97h266.26c.53,0,.97.44.97.97s-.44.97-.97.97Z"/>
        <path class="cls-5" d="m723.39,709.89h-182.99c-.53,0-.97-.44-.97-.97s.44-.97.97-.97h182.94c.53,0,.97.44.97.97s-.39.97-.92.97Z"/>
        <path class="cls-5" d="m761.03,689.23c-.1,0-.19,0-.29-.05-.53-.15-.82-.68-.63-1.21h0c25.06-83.03,97.79-139.11,172.98-133.3,65.66,5.08,106.3,56.03,117.24,71.51.29.44.15,1.06-.29,1.35-.44.29-1.02.19-1.31-.24-10.79-15.34-51-65.71-115.78-70.69-74.27-5.76-146.22,49.74-170.99,131.9-.15.48-.48.73-.92.73Z"/>
        <path class="cls-7" d="m516.44,265.67l35.18,18.05c10.6,5.42,17.13,16.5,16.79,28.45l-4.26,140.51-38.9,10.74-.68-150.48c-2.71-15.77-5.42-31.5-8.13-47.27Z"/>
        <circle class="cls-5" cx="507.3" cy="254.93" r="16.98"/>
        <rect class="cls-7" x="500.21" y="246.46" width="43.93" height="23.13" transform="translate(147.34 703.82) rotate(-76.24)"/>
        <path class="cls-7" d="m559.51,226.19c2.52-14.42-7.16-28.16-21.58-30.63-14.42-2.52-28.16,7.16-30.63,21.58-1.21,7.11.48,14.42,4.74,20.22.39,1.4.73,2.66,1.11,3.73,2.18,6.29,6,17.56,15.63,20.81.48.15.97.29,1.45.39.92.24,1.84.44,2.81.53,6.82.58,13.93-3.92,16.74-10.93l7.69-19.16c.97-2.08,1.65-4.26,2.03-6.53Z"/>
        <path class="cls-1" d="m538.12,247.38c-.15,0-.24,0-.39-.05l-3.15-.58c-.53-.1-.87-.58-.77-1.11.1-.53.58-.87,1.11-.77h.05l3.15.58.19-.15-.39-8.95c0-.53.39-.97.92-1.02.53,0,.97.39,1.02.92l.39,8.95c.05,1.16-.87,2.13-1.98,2.18h-.15Z"/>
        <path class="cls-1" d="m547.36,234.32c-1.21-.19-2.37.63-2.61,1.84-.19,1.21.63,2.37,1.84,2.61,1.21.19,2.37-.63,2.61-1.84h0c.19-1.26-.63-2.42-1.84-2.61Z"/>
        <path class="cls-1" d="m530.48,231.42c-1.21-.19-2.37.63-2.61,1.84-.19,1.21.63,2.37,1.84,2.61,1.21.19,2.37-.63,2.61-1.84h0c.24-1.26-.58-2.42-1.84-2.61h0Z"/>
        <path class="cls-1" d="m533.23,224.59c-.63-.29-4.31-1.89-7.26.1-1.02.68-1.89,1.74-1.65,2.03.29.48,2.52-1.55,5.37-1.06,2.47.39,3.73,2.37,5.08,1.69,0,0,.63-.34.68-.87.05-.87-1.69-1.65-2.23-1.89Z"/>
        <path class="cls-1" d="m554.09,229.38c-2.18-2.81-6.14-2.47-6.82-2.42-.58.05-2.47.24-2.71,1.06-.05.39.1.77.39,1.02,1.06,1.06,2.9-.39,5.37.05,2.81.48,4.26,3.15,4.74,2.76.24-.24-.24-1.55-.97-2.47Z"/>
        <path class="cls-5" d="m532.41,263.93h-.15c-5.76-.82-10.79-4.45-13.31-9.68-.24-.48-.05-1.06.44-1.31.48-.24,1.06-.05,1.31.44h0c2.27,4.69,6.73,7.94,11.85,8.61.53.05.92.48.92,1.02s-.53,1.02-1.06.92h0Z"/>
        <path class="cls-3" d="m489.25,263.69l27.19,1.98,44.08,28.4c-16.74,51.29-33.53,102.58-50.27,153.82l-77.61-27.63c8.18-43.98,16.4-87.92,24.58-131.9,2.85-15.19,16.64-25.84,32.03-24.68Z"/>
        <path class="cls-6" d="m440.63,384.51l-19.89,35.85c-15.19,27.39-21.14,58.93-16.98,89.95l19.45,93.19c-6.34,12.73-15.19,57.67-20.81,72.38-23.81,62.32-17.81,69-18.24,115.45l27.43,4.5c22.6-67.88,35.18-115.45,57.77-183.28l3.77-166.3,11.9-45.48-44.42-16.26Z"/>
        <path class="cls-6" d="m510.25,390.99c3.87,23.81,7.74,47.66,11.61,71.46l13.69,173.27c-7.69,72.67-2.56,93.82-10.31,166.54h-27.43c-4.79-40.74-20.18-36.05-17.85-87.82,1.26-28.31,3.82-54.87,7.21-79.4l-47.66-218.02,70.74-26.03Z"/>
        <path class="cls-7" d="m662.66,450.5l-120.24-5.76c-11.71,1.98-19.31,13.55-16.74,24.68,2.61,11.32,14.76,18.39,26.27,14.81l110.75-15.87v-17.85h-.05Z"/>
        <path class="cls-5" d="m495.64,778.89l-16.64,61.11h141.09c.53-1.84,2.23-8.52-.82-15.48-3.19-7.21-10.21-12-18.1-12.29-18.87-.87-27.58-5.81-36.97-8.13s-22.35-8.13-36.58-23.9l-31.98-1.31Z"/>
        <path class="cls-5" d="m384.5,770.18l-25.35,69.77h92.51l-36.58-72.67-30.58,2.9Z"/>
        <path class="cls-3" d="m516.44,265.67l33.92,16.21c12.92,6.19,21.19,19.26,21.19,33.58v84.09l-46.35,5.03c-.87-34.69-1.69-69.38-2.56-104.08-2.08-11.66-4.11-23.27-6.19-34.84Z"/>
        <path class="cls-7" d="m508.41,265.19c.44,2.13,3.29,15.82,11.23,18.68,1.06.44,2.23.58,3.39.34,5.95-1.26,7.6-12.97,7.6-12.97-1.16-6.05-5.95-10.5-11.47-10.93-6.24-.48-10.35,4.45-10.74,4.89Z"/>
        <polygon class="cls-6" points="424.42 423.89 447.93 339.75 461.72 333.12 481.27 380.25 469.9 436.91 424.42 423.89"/>
        <path class="cls-6" d="m479.14,503.19c-1.6,44.13-.48,57-2.08,101.12-16.6,67.25-23.13,114.24-39.77,181.49l-64.16-10.98,24.05-84.72,48-84c12.24-44.76,21.77-58.21,33.97-102.91Z"/>
        <path class="cls-6" d="m464.43,504.35c3.1,46.26,8.9,61.26,12,107.51-3.39,64.74,3.34,109.2-.05,173.94h62.76l-3.53-150.04-71.17-131.41Z"/>
        <path class="cls-5" d="m517.46,234.56l10.35-14.47s15.24,5.61,21.97-8.95c0,0,5.76,5.76,1.65,14.47l10.55,3.77s13.21-25.4-5.32-26.76c-12.14-10.21-27.87-13.26-38.76-7.45-15.43,8.23-22.31,34.98-6.58,56.8l6.14-17.42Z"/>
        <path class="cls-7" d="m520.41,231.27c-1.16-3.68-4.64-5.81-7.79-4.79-3.15,1.02-4.69,4.79-3.53,8.47,1.16,3.68,4.64,5.81,7.79,4.79,3.15-1.02,4.74-4.79,3.53-8.47Z"/>
        <path class="cls-1" d="m515.53,238.05c-.15,0-.34-.05-.48-.1-1.31-.73-2.08-2.18-1.94-3.63.05-.63.29-1.26.68-1.74l-1.98-.34c-.53-.1-.87-.63-.77-1.16.1-.48.58-.82,1.06-.77l4.4.77c.53.1.87.58.77,1.11-.05.39-.39.73-.77.77-.97.15-1.65,1.02-1.5,1.94.1.58.44,1.06.92,1.31.48.24.63.82.39,1.31-.1.34-.44.53-.77.53h0Z"/>
        <path class="cls-6" d="m503.33,216.47h31.89s21-5.95,30.77,1.89c.29-1.31,4.11-19.06-6.73-28.45-4.74-4.11-10.16-4.74-15.48-5.37-4.98-.58-23.56-2.76-34.06,10.31-6.48,7.98-6.63,17.52-6.39,21.63Z"/>
        <path class="cls-3" d="m563.43,226.24c9.97-3.39,11.52-6.53,11.61-8.32.34-5.76-12.97-13.16-25.21-12.19-11.13.87-18.43,8.37-20.76,10.93,12.14-.1,24.05,3.24,34.35,9.58Z"/>
        <path class="cls-2" d="m529.9,247.29l8.03,3.73c-1.06,2.18-3.73,3.1-5.95,2.03-2.08-1.06-3.05-3.58-2.08-5.76h0Z"/>
        <path class="cls-7" d="m467.48,298.62l-3.19,134.27c-.34,13.74,10.55,25.11,24.29,25.45h1.11l125.61-2.71v-21.68l-111.53-16.79,8.52-121.83-44.8,3.29Z"/>
        <polygon class="cls-3" points="464.29 293.49 458.24 387.94 509.24 389.49 516.93 290.01 464.29 293.49"/>
        <path class="cls-6" d="m496.17,264.17l9.24,49.01-1.45,100.59,2.71,3.87,14.47,2.18,22.84-91.59-1.6-50.13-8.52-4.06,1.21,40.69c-.39.39-4.64,4.5-10.79,3.48-5.95-1.02-8.61-6-8.85-6.53l-10.4-46.84-8.85-.68Z"/>
        <path class="cls-2" d="m391.61,815.13c-.53.05-.97-.39-1.02-.92-.05-.53.39-.97.92-1.02l26.76-2.56-24.24-5.23c-.87-.19-1.4-1.02-1.21-1.89.15-.68.68-1.16,1.35-1.26l21.29-2.71-20.85-3.92c-.87-.15-1.45-.97-1.31-1.84.1-.68.68-1.21,1.35-1.31l19.26-2.56-25.84-3.15c-.53-.05-.92-.53-.87-1.06s.53-.92,1.06-.87l28.6,3.48c.87.1,1.5.92,1.35,1.79-.1.73-.63,1.26-1.35,1.35l-19.84,2.61,20.9,3.92c.87.15,1.45.92,1.35,1.79-.1.73-.68,1.26-1.4,1.35l-21.48,2.76,24.43,5.27c.87.19,1.4,1.02,1.21,1.89-.15.68-.73,1.21-1.4,1.26l-29.03,2.81h0Z"/>
        <path class="cls-2" d="m555.35,819.73c-.24,0-.44-.1-.58-.19-.44-.34-.48-.92-.15-1.35h0l6.77-8.56-18.29,6.39c-.77.29-1.65-.15-1.89-.92-.19-.53-.05-1.16.39-1.55l8.76-8.42-21.24,3.48c-.82.15-1.6-.44-1.69-1.26-.1-.53.15-1.11.58-1.4l10.5-7.89-18.87.58c-.77,0-1.4-.53-1.5-1.26-.1-.73.34-1.45,1.06-1.65l15.34-4.26c.53-.1,1.02.19,1.16.73.1.48-.15.97-.63,1.11l-11.76,3.24,16.6-.48c.63,0,1.21.39,1.45,1.02.19.63,0,1.31-.53,1.69l-10.16,7.64,20.85-3.44c.82-.15,1.6.44,1.69,1.21.1.48-.1.97-.44,1.31l-8.32,7.98,17.81-6.24c.77-.29,1.65.15,1.89.92.15.48.1,1.02-.24,1.4l-7.74,9.77c-.24.24-.53.39-.82.39Z"/>
        <path class="cls-5" d="m510.54,331.91c.34-.87,5.08,1.31,14.85,2.32,5.13.53,10.26.82,15.43.87-2.71,1.74-8.13,4.64-15.05,4.16-8.66-.58-15.68-6.24-15.24-7.35Z"/>
        <path class="cls-7" d="m703.74,449.68s17.22-1.06,21.68,8.81c4.45,9.87-8.81,15.77,5.23,24.14,14.03,8.37,13.89,28.93,0,32.08-13.89,3.19-9.24-8.71-11.56-21.19-2.32-12.48-7.79-16.89-4.94-28.55,2.85-11.66-10.4-10.45-10.4-10.45v-4.84h0Z"/>
        <path class="cls-6" d="m608.23,403.62l-.29,48.92c-.05,4.79,3.82,8.66,8.61,8.71h0l70.98.44c4.79.05,8.66-3.82,8.71-8.61,0-.48-.05-1.02-.15-1.5l-8.37-48.97c-.73-4.11-4.26-7.16-8.47-7.21l-62.27-.39c-4.84,0-8.71,3.82-8.76,8.61Z"/>
        <rect class="cls-6" x="676.62" y="429.55" width="20.9" height="43.35" transform="translate(231.54 1135.44) rotate(-89.64)"/>
        <path class="cls-2" d="m618.29,406.28l-.29,45.05c0,1.6,1.26,2.85,2.81,2.85h0l62.22.39c1.6,0,2.85-1.26,2.85-2.85v-.29l-4.55-45.05c-.15-1.45-1.35-2.56-2.81-2.56l-57.38-.39c-1.55,0-2.85,1.26-2.85,2.85Z"/>
        <path class="cls-3" d="m650.33,416c11.27.82,20.42,13.11,18.14,15.77,0,0-7.35-1.11-13.79,2.42-6.44,3.53-14.9,3-16.89-4.79-.77-3.73.15-7.64,2.56-10.6,3.14-3.29,8.32-2.9,9.97-2.81Z"/>
        <path class="cls-7" d="m608.13,433.47l26.47-7.55c.34-.1.73-.15,1.06-.15l14.27.39c1.5-.63,3.19.1,3.77,1.55.63,1.5-.1,3.19-1.55,3.77-.24.1-.48.15-.73.19l-12,.34,16.5,2.32c1.4.19,2.42,1.4,2.37,2.81-.1,1.11-.82,2.08-1.89,2.42h-15.05l15.05,2.32c1.31.34,2.13,1.6,1.89,2.95-.29.87-1.02,1.55-1.89,1.69l-14.85-.68,13.98,3.19c1.16.29,1.98,1.26,2.03,2.47-.05,1.35-1.55,2.66-3.34,2.37l-14.61-2.52c-2.32.87-5.81,2.13-10.02,3.77-6.44,2.47-7.21,2.81-8.61,3.15-3.58.87-9.19.87-17.27-3.73l4.4-21.1Z"/>
        <path class="cls-7" d="m645.92,461.44c4.11-2.52,8.52-4.4,13.16-5.66,2.08-.58,4.21-1.02,6.39-1.31l6.48-10.69c.97-2.52,3.48-3.48,5.13-2.76,1.06.48,1.74,1.79,1.84,3.19-1.5,4.06-3,8.08-4.5,12.14l13.45-9.97c1.94-.77,3.97.19,4.5,1.74.34,1.31-.1,2.66-1.16,3.48l-9.39,9.24,17.08.82c1.21.53,2.08,1.74,2.18,3.1,0,1.84-1.35,3.44-3.19,3.77l-55.59,2.81,3.63-9.92Z"/>
        <path class="cls-5" d="m564.93,427.13h-.15l-39.77-6.34c-.53-.1-.87-.58-.82-1.11.1-.53.58-.87,1.11-.82l39.77,6.29c.53.05.92.53.87,1.06,0,.58-.48.97-1.02.92Z"/>
        <path class="cls-5" d="m503.72,418.18h-.15l-20.76-3.05c-.53-.1-.87-.58-.82-1.11h0c.1-.53.58-.87,1.11-.82h0l20.76,3.05c.53.05.92.48.92,1.02-.05.53-.53.97-1.06.92h0Z"/>
        <path class="cls-5" d="m526.65,458.49c-.53,0-.97-.44-.97-.97s.44-.97.97-.97l81.29-1.5h0c.53,0,.97.44.97.97s-.44.97-.97.97l-81.29,1.5h0Z"/>
        <path class="cls-5" d="m676.89,467.44c-.53,0-.97-.44-.97-.97,0-.24.1-.44.24-.63l4.94-5.66c.34-.44.92-.53,1.35-.19.44.34.53.92.19,1.35t-.1.1l-4.94,5.66c-.19.19-.48.34-.73.34Z"/>
        <path class="cls-5" d="m477.11,605.29h0c-.58,0-.97-.48-.97-1.02h0c.77-25.84.87-44.18.92-61.93.05-17.76.15-36.1.92-61.98,0-.29.15-.53.34-.73l20.61-16.79c.39-.34,1.02-.34,1.35.1.34.39.34,1.02-.1,1.35,0,0-.05.05-.1.05l-20.27,16.5c-.77,25.6-.82,43.84-.92,61.5-.1,17.76-.15,36.1-.92,61.98.05.53-.34.97-.87.97Z"/>
        <path class="cls-5" d="m461.72,334.09c-.53,0-.97-.44-.97-.97v-21.63c0-.53.44-.97.97-.97s.97.44.97.97v21.63c0,.48-.39.92-.97.97.05,0,0,0,0,0Z"/>
      </g>
    </g>
  </g>
</svg>