<?xml version="1.0" encoding="UTF-8"?>
<svg id="Capa_2" data-name="Capa 2" xmlns="http://www.w3.org/2000/svg" viewBox="0 0 1284.41 840">
  <defs>
    <style>
      .cls-1 {
        fill: #262246;
      }

      .cls-1, .cls-2, .cls-3, .cls-4, .cls-5, .cls-6, .cls-7 {
        stroke-width: 0px;
      }

      .cls-2 {
        fill: #e87700;
      }

      .cls-3 {
        fill: #fff;
      }

      .cls-4 {
        fill: #fdc500;
      }

      .cls-5 {
        fill: #2b0000;
        isolation: isolate;
        opacity: .14;
      }

      .cls-6 {
        fill: #68003c;
      }

      .cls-7 {
        fill: #2351fb;
      }
    </style>
  </defs>
  <g id="Capa_1-2" data-name="Capa 1">
    <g>
      <path class="cls-5" d="m1054.43,571.53c0,40.74-7.46,79.75-21.09,115.71-.63,1.66-1.27,3.32-1.93,4.97h0c-9.52,23.94-21.8,46.48-36.43,67.24-2.5,3.55-5.06,7.04-7.7,10.48-13.2,17.24-28.1,33.13-44.42,47.42-1.68,1.48-3.38,2.93-5.09,4.35-6.94,5.84-14.14,11.39-21.56,16.64-.17.12-.34.24-.51.36-.1.07-.2.15-.3.22-.05.03-.11.07-.17.11-.21.15-.43.3-.65.45-.24.18-.5.35-.75.52h-371.98c-14.46-10.03-28.07-21.21-40.7-33.38-4.52,6.75-9.33,13.29-14.42,19.6-3.81,4.73-7.77,9.33-11.89,13.79H72.28C27.52,791.42.15,726.56,0,655.23c-.17-80.95,34.83-153.74,90.56-203.94,23.18-20.88,36.38-50.55,36.29-81.75v-.53c0-43.42,14.75-83.39,39.52-115.18,5.94-7.63,12.47-14.8,19.51-21.42,3.62-3.42,7.39-6.68,11.27-9.8,2.73-2.18,5.51-4.3,8.36-6.33,2.8-1.99,5.65-3.92,8.56-5.76.44-.28.89-.56,1.34-.83h0c6.55-4.08,13.38-7.78,20.44-11.03h0c.56-.26,1.12-.52,1.69-.77,7.88-3.55,16.05-6.57,24.48-9.01h0c.77-.23,1.54-.44,2.31-.65h0c10.33-2.86,20.99-4.85,31.95-5.9,1.03-.1,2.06-.19,3.08-.27.26-.02.52-.04.77-.06,4-.3,8.03-.48,12.09-.52.72,0,1.44-.01,2.16-.01,14.03,0,27.71,1.54,40.86,4.47,1.11.24,2.2.5,3.3.76.72.17,1.45.35,2.17.54h0c2.4.61,4.79,1.27,7.15,1.97,1.71.5,3.4,1.03,5.08,1.59,3.68,1.2,7.3,2.52,10.87,3.95,1.98.79,3.94,1.61,5.88,2.46,1.03.45,2.05.91,3.06,1.38,0,0,0,0,0,0,1.3.59,2.59,1.2,3.87,1.83,1.6.78,3.19,1.59,4.77,2.42.54.28,1.08.57,1.61.86.6.32,1.18.64,1.77.97h0c4.86,2.67,9.58,5.56,14.16,8.64,1.64,1.11,3.26,2.24,4.86,3.39,2.58,1.86,5.1,3.77,7.59,5.76h0c.63.5,1.25,1.01,1.87,1.52.61.5,1.22,1,1.82,1.51,8.96,7.55,18.47,14.19,28.41,19.92h0c1.07.62,2.14,1.22,3.22,1.81h0c27.46,15.16,58.02,23.41,89.12,24.37h0c17.18.54,34.5-1.16,51.57-5.15,5.87-1.36,11.71-3.01,17.49-4.93,5.55-1.84,11.17-3.54,16.85-5.08,1.69-.46,3.38-.91,5.07-1.34.87-.23,1.75-.44,2.63-.66,14.01-3.45,28.37-5.99,43.01-7.56,1.52-.17,3.05-.32,4.59-.46.44-.04.88-.08,1.32-.12.21-.02.42-.04.62-.05,3.9-.34,7.81-.62,11.75-.81.11,0,.21-.01.32-.01,5.42-.28,10.87-.42,16.36-.42h1.15c4.54.01,9.05.11,13.54.31h0c.75.03,1.5.07,2.25.11,1.44.07,2.89.15,4.32.24,8.01.5,15.94,1.3,23.79,2.38.46.06.92.12,1.38.19,9.05,1.28,17.99,2.94,26.79,4.94,16.14,3.69,31.84,8.57,46.97,14.55,13.11,5.18,25.81,11.19,38.02,17.96,1.6.88,3.19,1.78,4.77,2.69.55.32,1.1.64,1.64.96.28.16.56.32.83.48.56.32,1.11.65,1.66.99h0c4.31,2.56,8.55,5.22,12.73,7.98.15.1.3.2.46.3,5.87,3.89,11.61,7.96,17.2,12.2,10.88,8.25,21.23,17.18,30.98,26.71,6.72,6.56,13.15,13.4,19.27,20.52.68.77,1.34,1.54,1.99,2.32.35.41.7.82,1.04,1.24,1.05,1.25,2.09,2.51,3.12,3.77,6.52,8.02,12.66,16.35,18.4,24.97,6.67,10,12.8,20.39,18.34,31.13,2.2,4.24,4.3,8.53,6.31,12.88h0c19.25,41.62,29.98,87.94,29.98,136.76Z"/>
      <path class="cls-5" d="m1269.06,603.15c-11.38,51.06-33.07,97.15-62.39,136.58-3.63,4.88-7.38,9.67-11.24,14.34-8.54,10.34-17.63,20.17-27.22,29.45-.05.05-.11.11-.16.15-4.57,4.42-9.25,8.71-14.03,12.87-15.71,13.66-32.55,25.94-50.33,36.69-3.28,1.98-6.59,3.91-9.93,5.79l-1.75.97h-170.46l-4.37-.97-.79-.18-.69-.15-.44-.1-1.14-.26-30.03-6.69-8.73-1.95-52.69-11.75-54.91-12.24-24.16-5.38-13.8-3.08-.44-.1-1.86-.42-.85-.19-13.11-2.93-10.15-2.26-9.47-2.11-28.51-6.35c-5.02-4.9-9.89-9.95-14.6-15.13-3.3-3.6-6.5-7.26-9.62-10.99-.64-.75-1.26-1.5-1.88-2.24-.13-.16-.25-.31-.38-.46-8.05-9.78-15.58-19.97-22.56-30.52-6.4,6.1-13.05,11.91-19.94,17.42-2.91,2.32-5.84,4.59-8.83,6.79-4.2,3.12-8.49,6.13-12.85,9.02-2.25,1.49-4.51,2.95-6.8,4.39l-18.02-4.02-.15-.03-1.51-.34-61.54-13.72-26.21-5.84-9.17-2.05-30.06-6.7-10.33-2.3-80.22-17.88-176.62-39.38-.38-.09c-5.77-8.94-11.05-18.17-15.84-27.67-8.9-17.61-16.09-36.13-21.41-55.3-.06-.22-.13-.44-.19-.67-.06-.22-.12-.44-.18-.67-.6-2.2-1.18-4.4-1.73-6.61-1.09-4.4-2.09-8.83-2.98-13.28-8.04-39.96-8.06-82.21,1.3-124.59,14.91-67.5,51.29-124.69,100.39-165.95,4.31-3.63,8.72-7.14,13.22-10.51,10.51-7.89,21.52-15.08,32.97-21.54,3.4-1.92,6.69-3.99,9.86-6.21,1.12-.77,2.22-1.58,3.31-2.39,1.09-.81,2.16-1.65,3.22-2.5,2.24-1.79,4.41-3.67,6.51-5.61.32-.3.65-.61.97-.91,4.35-4.12,8.37-8.56,12.05-13.26.25-.32.5-.65.75-.97,3.08-4.01,5.9-8.22,8.45-12.6.2-.34.39-.67.58-1.01,2.08-3.65,3.98-7.41,5.67-11.27.15-.34.3-.69.44-1.03.4-.92.78-1.84,1.15-2.77.64-1.6,1.24-3.22,1.82-4.86.05-.16.11-.32.17-.48,0,0,0-.02.01-.03.4-1.16.78-2.34,1.15-3.52.07-.22.14-.45.21-.68.1-.34.21-.69.3-1.04.8-2.71,1.51-5.45,2.12-8.23l.13-.57s.02-.09.03-.13C343.13,50.38,453.76-19.87,565.35,5.01c42.51,9.48,79.03,31.4,106.57,61.08,2.61,2.81,5.14,5.69,7.58,8.64,1.69,2.03,3.34,4.09,4.94,6.18.15.18.28.36.42.55.69.91,1.39,1.81,2.1,2.7,1.22,1.55,2.46,3.08,3.71,4.59.96,1.15,1.93,2.29,2.91,3.42.3.36.62.71.93,1.07.41.47.83.94,1.26,1.41.5.57,1.01,1.13,1.53,1.69.29.32.6.66.91.98.7.77,1.42,1.54,2.16,2.3,1.02,1.08,2.06,2.14,3.11,3.2,3.3,3.34,6.71,6.55,10.21,9.63.52.46,1.03.92,1.56,1.36,4.14,3.59,8.41,7.02,12.8,10.27,2.43,1.8,4.9,3.55,7.4,5.25,26.88,18.25,57.6,30.27,89.87,35.17.9.14,1.8.27,2.7.39.43.07.86.13,1.3.18.28.04.57.08.85.11,1.8.23,3.6.44,5.41.63.69.08,1.4.15,2.1.21,2.21.22,4.43.39,6.65.53,3.79.24,7.58.39,11.4.44,1.18.02,2.36.03,3.55.01,7.13-.02,14.3-.39,21.48-1.12,3.46-.35,6.92-.66,10.39-.9.66-.05,1.31-.09,1.97-.14.72-.05,1.44-.09,2.17-.14,3.77-.23,7.55-.4,11.33-.5,5.33-.15,10.68-.19,16.04-.1,5.04.09,10.08.27,15.14.57,4.68.28,9.37.64,14.06,1.11,1.16.11,2.33.23,3.49.36.73.08,1.46.16,2.2.24,5.36.61,10.73,1.34,16.11,2.2,3.46.56,6.92,1.16,10.38,1.82.38.07.75.14,1.12.21,1.19.23,2.38.46,3.57.7,2.16.44,4.31.9,6.47,1.38,3.22.71,6.43,1.47,9.6,2.27,8.54,2.13,16.94,4.56,25.19,7.27,9.46,3.11,18.72,6.59,27.77,10.42,2.39,1,4.77,2.04,7.13,3.1,152.95,68.57,242.05,237.47,204.16,407.41Z"/>
      <g>
        <path class="cls-2" d="m365.5,257.21l-171.02-43.75c-6.69,14.74-13.37,29.49-20.06,44.23,48.49,20.52,96.98,41.04,145.47,61.55,15.2-20.68,30.41-41.36,45.61-62.04Z"/>
        <path class="cls-6" d="m373.06,259.88l-130.78-38.91c-7.07,18.86-14.13,37.72-21.2,56.58,28.88,12.49,57.76,24.99,86.65,37.48l65.33-55.15Z"/>
        <path class="cls-2" d="m310.38,173.42c-37.62,29.54-75.24,59.07-112.86,88.61-30.49,1.1-56.22-21.17-42.52-50.03,39.79-19.54,79.58-39.08,119.37-58.62,15.17-3.29,30.67,4.94,36.01,20.04Z"/>
        <path class="cls-4" d="m124.78,209.36c67.77,12.41,135.54,24.82,203.31,37.23,71.52,21.84,145.85,38.42,222.93,49.1,5.01-24.73,10.02-49.45,15.03-74.18l-426.23-86.34-15.03,74.18Z"/>
        <path class="cls-2" d="m562.9,237.16c.7.11.89-.94.2-1.09l-425.97-87.62c-.31-.09-.59.13-.65.43s.13.59.43.65c211.64,43.53,425.89,87.61,426,87.63Z"/>
        <path class="cls-2" d="m560.3,249.98c.7.11.9-.94.2-1.09l-426.04-87.29c-.29-.08-.59.13-.65.43-.06.3.13.59.43.65,211.67,43.37,425.96,87.28,426.07,87.29Z"/>
        <path class="cls-2" d="m557.02,266.17c.7.11.89-.94.2-1.08l-424.4-89.23c-.29-.09-.59.13-.65.43-.06.3.13.59.43.65,210.38,44.23,424.32,89.22,424.43,89.24Z"/>
        <path class="cls-2" d="m554.17,284.32c.7.11.9-.93.2-1.08l-425.83-92.41c-.3-.08-.59.12-.66.42-.06.3.12.59.42.66,429.39,93.18,425.75,92.4,425.86,92.42Z"/>
        <path class="cls-2" d="m267.38,156.87l12.38-6.89c2.18-1.21,4.89-.87,6.69.85l6.19,5.9c1.17,1.52,1.22,3.58.19,4.98-1.24,1.68-3.84,2.12-5.78.75-1.93-1.8-3.85-3.6-5.78-5.4l-4.9,3.03-8.99-3.22Z"/>
        <path class="cls-2" d="m281.48,153.05l6.44-3.08c2.55-1.22,5.61-.36,7.15,2.02l10.76,16.61c-.04.33-.39,3.03-2.61,4.29-2.26,1.28-5.55.56-7.56-2.02-2.7-4.18-5.41-8.35-8.11-12.53l-6.08-5.28Z"/>
        <path class="cls-2" d="m292.32,153.49l8.33.2c3.17.08,6.05,1.88,7.5,4.71,2.49,4.88,4.99,9.76,7.48,14.63-1.6,7.73-10.51,5.28-12.36-2.26-2.08-4.07-4.06-7.92-6.14-11.99l-4.81-5.3Z"/>
        <path class="cls-2" d="m305.92,158.82l9.94,2.13c2.48.53,4.48,2.37,5.21,4.79l2.9,9.56c-.07,2.23-1.57,4.14-3.64,4.68-2.29.6-4.77-.61-5.76-2.89-1.53-4.6-3.07-9.19-4.6-13.79l-4.06-4.48Z"/>
        <rect class="cls-2" x="359.67" y="218.58" width="30.71" height="57.47" transform="translate(707.14 549.82) rotate(-171.07)"/>
        <path class="cls-2" d="m404.63,158.24c18.24,7.68,26.8,28.7,19.12,46.95-3.94,9.35-11.38,16.14-20.15,19.52-1.44,1.34-2.79,2.48-3.99,3.44-10.2,8.12-22.18,16.16-34.93,11.67-11.06-3.36-16.71-15.33-14.66-26.13l5.21-27.45c3.32-23.29,27.78-37.1,49.4-27.99Z"/>
        <circle class="cls-1" cx="364.4" cy="198.28" r="3.05"/>
        <circle class="cls-1" cx="385.73" cy="207.27" r="3.05"/>
        <path class="cls-1" d="m371.47,218.26c.64.1.9-.81.29-1.06l-4-1.62c-.57-.23-.78-.94-.42-1.44l6.98-9.92c.18-.25.12-.59-.13-.77-.25-.18-.59-.12-.77.13l-6.98,9.92c-.76,1.08-.32,2.6.91,3.1,4.33,1.75,4.01,1.64,4.12,1.65Z"/>
        <path class="cls-6" d="m383.1,238.75c.28-.13.39-.46.26-.73-.13-.27-.46-.4-.73-.26-6.6,3.1-13.94,3.13-20.57.34-.28-.11-.6.01-.72.29-.12.28.01.6.29.72,6.79,2.86,14.48,2.92,21.47-.36Z"/>
        <path class="cls-1" d="m396.16,198.97c-2.07-4.34-7.46-5.01-8.36-5.12-.6-.07-3.42-.39-3.89.68-.26.6.33,1.39.4,1.49,1.24,1.62,3.56.53,6.26,1.38,3.93,1.23,5.33,5.53,6.1,5.12.49-.26.17-2.11-.51-3.54Z"/>
        <path class="cls-1" d="m361.26,185.1c4.56-1.54,8.79,1.87,9.49,2.43.47.38,2.66,2.18,2.22,3.26-.25.61-1.23.74-1.35.75-2.03.24-2.87-2.19-5.34-3.53-3.62-1.97-7.68.02-7.92-.82-.15-.53,1.39-1.59,2.9-2.1Z"/>
        <path class="cls-2" d="m362.35,258.82c22.03,2.93,44.06,5.86,66.09,8.78,13.59,1.81,26,8.64,34.79,19.16,29.13,34.87,58.26,69.74,87.39,104.6l-38.02,41.32-116.62-112.9-33.62-60.97Z"/>
        <path class="cls-6" d="m417.35,271.31l-88.18-22.76c-16.79-4.34-33.37,7.74-34.39,25.05l-11.68,196.92,114.27,17.95,42-180.84c3.73-16.07-6.04-32.19-22.02-36.32Z"/>
        <path class="cls-6" d="m370.3,258.46l66.72,7.44c7.7.86,14.84,4.41,20.17,10.03l71.92,75.84-51.8,48.44-55.98-52.14-51.02-89.61Z"/>
        <path class="cls-2" d="m388.5,260.49c-1.94,9.39-11.34,14.89-19.49,12.56-7.07-2.02-11.99-9.58-10.79-17.71,0,0,17.67-13.31,30.28,5.14Z"/>
        <path class="cls-7" d="m396.8,470.57c12.88,46.1,16.27,95.1,8.79,144.74-66.29-10.41-132.59-20.83-198.88-31.24,30.18-39.9,56.41-84.04,77.47-131.88,37.54,6.13,75.08,12.25,112.62,18.38Z"/>
        <path class="cls-7" d="m415.66,263.52s-14,66.39,6.56,117.92l-20.8,107.66-125.14-19.66,14.41-127.05s27.52-48.93,37.58-95.84c5.46,1.63,10.92,3.26,16.38,4.9-6.02,20.36-12.03,40.72-18.05,61.08l64.99,10.21,7.68-61.05,16.38,1.83Z"/>
        <path class="cls-6" d="m407.72,191.52c-4.05,4.95-5.59,11.48-4.17,17.73-3.89,8.22-7.78,16.44-11.66,24.67,4.23-.23,10.15-1.13,16.33-4.23,18.55-9.29,30.44-33.8,23.51-44.86-1.09-1.74-2.5-2.91-3.65-3.67-7.3-22.35-28.96-33.54-50.24-29.57-5.53,1.03-12.7,2.37-17.7,8.76-6.63,8.47-4.31,19.24-3.89,21.07,0,0,11.7-12.25,20.08-10.93,8.38,1.32,12.59,18.68,20.53,17.11,7.94-1.57,10.86,3.92,10.86,3.92Z"/>
        <ellipse class="cls-2" cx="403.58" cy="217.85" rx="9.41" ry="8.04" transform="translate(-46.35 306.72) rotate(-39.53)"/>
        <path class="cls-1" d="m399.74,222.33c1.38.22,3.32-.58,4.18-2.33.54-1.08.56-2.32.13-3.42l3.83,1.61c.28.12.6-.01.72-.29.12-.28-.01-.6-.29-.72l-5.55-2.34c-.57-.24-1.04.51-.58.92,2.27,2.04.73,5.69-2.3,5.48-.7-.05-.82.99-.12,1.1Z"/>
        <path class="cls-7" d="m425.17,214.96c-7.03-8.12-14.06-16.24-21.08-24.35-11.99-11.64-23.99-23.28-35.98-34.93,9.75-12.39,25.26-17.16,38.89-13.41,16.76,4.62,30.16,22.85,30.3,41.98.12,16.01-9.03,27.23-12.12,30.7Z"/>
        <path class="cls-7" d="m408.33,187.62c-16.61,3.79-24.41.73-28.44-3.06-4.1-3.86-5.91-9.96-13.97-15.57-3.16-2.19-8.37-5.3-9.34-1.61-.34,2.1-.69,4.21-1.03,6.31-1.32-1.16-3.58-3.46-5.01-7.05-.97-2.44-2.54-6.36-.96-9.46,2.18-4.27,9.21-4.8,18.22-5.49,2.43-.19,4.46-.21,5.85-.21,11.56,12.04,23.13,24.09,34.69,36.13Z"/>
        <path class="cls-6" d="m405,188.84c.19.03.38-.04.51-.19,16.57-20.17,10.99-34.82,10.74-35.44-.11-.28-.43-.42-.72-.31-.28.11-.42.43-.31.72.01.04,1.43,3.68.83,9.7-.55,5.57-2.97,14.36-11.4,24.62-.27.33-.08.83.34.9Z"/>
        <path class="cls-6" d="m403.23,184.74c-.1-.25-10.74-24.91-31.35-33.26-.68-.27-1.09.75-.41,1.02,20.18,8.18,30.64,32.42,30.75,32.67.28.66,1.3.25,1.02-.43Z"/>
        <path class="cls-6" d="m194.78,260.37c.33.05-2.67,1.94,43.52-28.59.25-.17.32-.51.16-.76-.17-.26-.51-.33-.76-.16l-43.13,28.5c-.42.28-.27.93.22,1.01Z"/>
        <path class="cls-6" d="m289.33,163.18c3.38.53,5.42-2.94,4.23-6.02-.07-.18.18.11-6.72-6.72-.22-.22-.57-.21-.78,0s-.21.57,0,.78l6.51,6.44c.58,1.65,0,3.47-1.34,4.18-1.43.75-3.07-.2-3.09-.21l-6.54-5.01c-.18-.14-.43-.15-.63-.03l-3.85,2.38c-.26.16-.34.5-.18.76.16.26.5.34.76.18l3.52-2.18,6.3,4.81c.08.05.82.48,1.8.63Z"/>
        <path class="cls-6" d="m304.1,172.95c.64-.48,1.17-1.15,1.58-2.02.61-1.28.5-2.82-.29-4.04l-8.83-13.62c-.17-.26-.51-.33-.76-.16-.26.16-.33.51-.16.76l8.83,13.62c.58.9.66,2.03.22,2.96-.33.7-.75,1.24-1.25,1.61-.58.44.08,1.32.66.88Z"/>
        <path class="cls-6" d="m314.16,176.63c.21.03.42-.05.54-.24.26-.38.49-.79.7-1.21.6-1.21.58-2.67-.05-3.9l-6.28-12.29c-.14-.27-.47-.38-.74-.24-.27.14-.38.47-.24.74l6.28,12.29c.77,1.5.25,2.74-.59,4-.22.34-.02.79.37.85Z"/>
        <path class="cls-3" d="m293.12,310.74l5.19-46.42c.08-.74-1.02-.84-1.1-.12l-5.19,46.42c-.08.73,1.02.84,1.1.12Z"/>
        <path class="cls-3" d="m428.56,353.76c.28.04.56-.14.62-.42l12.25-51.85c.17-.71-.91-.96-1.07-.25l-12.25,51.85c-.07.31.13.62.45.67Z"/>
        <path class="cls-6" d="m351.31,351.48c18.7,2.94,30.27.56,30.44.52.3-.06.49-.36.42-.66-.06-.3-.36-.49-.66-.42-.06.01-6.5,1.37-17.42.82-10.08-.5-26.14-2.77-45.43-10.72-.68-.28-1.09.74-.42,1.02,12.46,5.14,23.67,7.96,33.07,9.43Z"/>
        <path class="cls-6" d="m306.06,600.24c.3.05.58-.16.63-.46l5.78-36.82c.03-.22.55,1.35-8.3-23.52-.1-.29-.42-.44-.7-.34-.29.1-.44.42-.33.7l8.22,23.12-5.76,36.68c-.05.3.16.58.46.63Z"/>
        <path class="cls-6" d="m396.37,583.53c-21.93-16.67-24.26-49.28-24.28-49.61-.02-.31-.28-.53-.59-.52-.3.02-.54.28-.52.59.02.33,2.37,33.44,24.71,50.42.6.45,1.24-.45.67-.88Z"/>
        <path class="cls-3" d="m376.24,223.3c-4.15-1.06-8.3-2.12-12.45-3.18-.39,3.17,1.52,6.15,4.42,7.08,3.16,1.01,6.72-.66,8.02-3.9Z"/>
        <g>
          <path class="cls-4" d="m454.85,406.28l8.99-3.36c4.32-1.61,6.45-6.48,4.7-10.75l-52.22-127.34-15.97,5.96,44.07,130.52c1.45,4.3,6.17,6.55,10.42,4.96Z"/>
          <rect class="cls-3" x="395.09" y="258.13" width="29.2" height="26.63" transform="translate(888.45 382.41) rotate(159.52)"/>
          <rect class="cls-3" x="376.08" y="267.91" width="13.28" height="18.16" rx="1.9" ry="1.9" transform="translate(838.16 402.6) rotate(159.52)"/>
          <rect class="cls-3" x="385.33" y="267.08" width="15.39" height="12.14" transform="translate(856.76 391.55) rotate(159.52)"/>
          <path class="cls-3" d="m408.87,257.57l16.71-6.24c4.51-1.68,9.5-1.51,13.87.49l14.52,6.62c1.52.69,2.19,2.49,1.5,4.01-.86,1.87-2.97,2.82-4.94,2.22l-14.03-4.31c-1.54-.47-3.19-.38-4.66.27l-12.96,5.7-10-8.77Z"/>
        </g>
        <path class="cls-2" d="m454.74,336.15l95.87,55.22c17.16,15.88,15.42,41.21,1.98,51.91-10.41,8.29-27.97,7.92-41.26-2.54-26.55-26.88-53.1-53.75-79.66-80.63,7.69-7.99,15.38-15.97,23.07-23.96Z"/>
        <path class="cls-2" d="m458.72,339.72l-20.17-43.64c-1.07-1.89-3.19-2.81-5.01-2.32-2.27.61-3.79,3.33-2.91,6,1.3,5.31,2.6,10.62,3.9,15.93-6.72-1.03-13.44-2.05-20.16-3.08-2.57.12-4.77,1.68-5.48,3.83-.93,2.81.78,6.3,4.17,7.45-1.94.54-3.34,2.15-3.53,4-.22,2.26,1.41,4.5,3.89,5.04-4.46,2.06-3.83,7.6.38,9.44-4.28,2.18-3.52,7.3.39,9.61,7.43,3.41,14.86,6.82,22.29,10.23l22.23-22.49Z"/>
        <path class="cls-6" d="m543.25,387.73c.6.09.89-.72.36-1.02l-32.24-18.57c-.26-.15-.6-.06-.75.2-.15.26-.06.6.2.75,34.56,19.91,32.27,18.61,32.43,18.64Z"/>
      </g>
      <g>
        <rect class="cls-2" x="370.44" y="559.39" width="95.65" height="44.47" transform="translate(836.53 1163.25) rotate(-180)"/>
        <rect class="cls-4" x="274.79" y="565.36" width="95.65" height="44.47" transform="translate(645.23 1175.18) rotate(-180)"/>
        <rect class="cls-2" x="179.13" y="565.16" width="95.65" height="44.47" transform="translate(453.92 1174.78) rotate(-180)"/>
        <rect class="cls-2" x="274.79" y="532.07" width="95.65" height="33.28" transform="translate(645.23 1097.43) rotate(-180)"/>
        <rect class="cls-4" x="276.07" y="498.79" width="95.65" height="33.28" transform="translate(647.8 1030.86) rotate(-180)"/>
        <rect class="cls-4" x="179.13" y="532.07" width="95.65" height="33.28" transform="translate(453.92 1097.43) rotate(-180)"/>
        <rect class="cls-4" x="370.44" y="527.61" width="83.37" height="33.28" transform="translate(824.25 1088.5) rotate(-180)"/>
        <path class="cls-6" d="m217.77,765.36c.38,0-.68,0,123.9-.55,33.68-.15,65.65-16.48,85.5-43.69l90.86-124.51c15.36-21.05,41.65-30.7,66.98-24.57l45.93,11.11c2.45.59,4.93-.92,5.52-3.37.59-2.45-.91-4.92-3.37-5.52l-45.93-11.11c-28.93-7-58.97,4.02-76.52,28.06l-90.86,124.51c-18.15,24.87-47.37,39.8-78.16,39.94-117.59.52-123.56.55-123.86.55-16.9,0-31.95-10.08-38.37-25.74l-35.62-86.82c-.96-2.34-3.63-3.45-5.97-2.5-2.34.96-3.45,3.63-2.5,5.97l35.62,86.82c7.84,19.1,26.2,31.41,46.83,31.41Z"/>
        <path class="cls-6" d="m461.56,823.97l-1.79-149.07c-.03-2.51-2.07-4.52-4.57-4.52s-4.6,2.09-4.57,4.63l1.79,149.07c.07,5.55-6.69,8.33-10.55,4.34l-72.08-74.56c-1.76-1.82-4.65-1.86-6.46-.11-1.82,1.76-1.86,4.65-.11,6.47l72.08,74.56c9.58,9.91,26.43,3,26.26-10.8Z"/>
        <path class="cls-7" d="m205.98,708.26l183.29.02c27.97,0,53.13-17.03,63.5-43.01,8.65-21.66,17.3-43.32,25.94-64.97-130.87-8.05-261.73-16.09-392.6-24.14,21.99,34.22,43.98,68.45,65.97,102.67,11.79,18.34,32.09,29.43,53.89,29.43Z"/>
        <g>
          <path class="cls-6" d="m247.13,765.24c-.6-3.14-1.45-6.19-2.51-9.13-8.65-24.01-31.66-41.23-58.62-41.23-4.28,0-8.45.43-12.49,1.26-3.04.62-6,1.46-8.86,2.5-23.87,8.73-40.95,31.67-40.95,58.52,0,34.35,27.94,62.29,62.29,62.29s62.29-27.94,62.29-62.29c0-4.08-.4-8.07-1.15-11.93Zm-27.63,44.3c-.91.94-1.85,1.85-2.84,2.71-7.75,6.78-17.75,11.05-28.71,11.5-.65.03-1.3.04-1.96.04s-1.31-.01-1.96-.04c-10.97-.46-20.97-4.72-28.72-11.5-.99-.86-1.93-1.77-2.84-2.71-7.33-7.59-12.11-17.64-12.97-28.78-.09-1.18-.14-2.38-.14-3.59,0-.11,0-.22,0-.32.07-11.6,4.41-22.22,11.54-30.35.86-.99,1.77-1.93,2.71-2.84,4.79-4.63,10.57-8.25,16.98-10.49,2.88-1.01,5.89-1.75,9-2.18,1.46-.2,2.93-.33,4.43-.4.65-.03,1.3-.04,1.96-.04s1.31.01,1.96.04c11.78.49,22.45,5.38,30.41,13.07.94.91,1.85,1.85,2.71,2.84,2.57,2.93,4.77,6.18,6.54,9.69,1.47,2.88,2.63,5.94,3.47,9.12.97,3.69,1.5,7.55,1.52,11.54,0,.11,0,.22,0,.32,0,1.21-.05,2.41-.14,3.59-.85,11.14-5.63,21.19-12.97,28.78Z"/>
          <circle class="cls-6" cx="185.99" cy="777.17" r="12.51"/>
          <path class="cls-6" d="m129.91,780.76h112.17c1.08,0,1.96-.88,1.96-1.96,0-1.08-.88-1.96-1.96-1.96h-112.17c-1.08,0-1.96.88-1.96,1.96,0,1.08.88,1.96,1.96,1.96Z"/>
          <path class="cls-6" d="m185.99,836.84c1.08,0,1.96-.88,1.96-1.96v-112.17c0-1.08-.88-1.96-1.96-1.96-1.08,0-1.96.88-1.96,1.96v112.17c0,1.08.88,1.96,1.96,1.96Z"/>
          <path class="cls-6" d="m225.65,820.41c1.73,0,2.63-2.1,1.39-3.34l-79.31-79.32c-.77-.77-2.01-.77-2.77,0s-.77,2.01,0,2.77l79.31,79.32c.38.38.88.57,1.39.57Z"/>
          <path class="cls-6" d="m146.34,820.41c.5,0,1-.19,1.39-.57l79.31-79.32c.77-.77.77-2.01,0-2.77s-2.01-.77-2.77,0l-79.31,79.32c-1.24,1.24-.34,3.34,1.39,3.34Z"/>
        </g>
        <path class="cls-7" d="m85.54,583.08l392.38,26.76c5.52.38,10.3-3.79,10.67-9.31.4-5.9-3.96-10.46-9.3-10.83l-392.38-26.76c-5.52-.38-10.3,3.79-10.67,9.31-.4,5.9,3.96,10.46,9.3,10.83Z"/>
        <path class="cls-6" d="m477.84,610.48c.83,0,.88-1.25.04-1.31l-387.05-26.39c-.87-.06-.95,1.25-.09,1.3,245.85,16.76,386.97,26.39,387.1,26.39Z"/>
        <rect class="cls-7" x="583.21" y="567.45" width="75.69" height="23.63" rx="3.39" ry="3.39" transform="translate(1027.85 1324.75) rotate(-161.63)"/>
        <rect class="cls-4" x="562.88" y="798.39" width="100.88" height="41.61"/>
        <rect class="cls-2" x="469.72" y="798.39" width="100.87" height="41.61"/>
        <rect class="cls-4" x="385.85" y="798.39" width="100.88" height="41.61"/>
        <rect class="cls-2" x="549.93" y="756.78" width="100.88" height="41.61"/>
        <rect class="cls-4" x="448.9" y="756.78" width="100.88" height="41.61"/>
        <rect class="cls-2" x="486.73" y="715.17" width="100.88" height="41.61"/>
      </g>
      <g>
        <path class="cls-6" d="m667.13,85.21s-12.74,16.01-9.18,39.45c3.56,23.44-22.46,25.24-33.96,41.87-11.5,16.63,2.19,39.64,2.19,39.64l110.61-17.56s11-22.99,3.88-39.83c-7.12-16.83-5.75-18.33-3.01-34.97,2.74-16.65-11-31.78-11-31.78l-59.52,3.19h0Z"/>
        <rect class="cls-4" x="1181.42" y="796.55" width="102.98" height="42.48"/>
        <rect class="cls-2" x="1086.32" y="796.55" width="102.98" height="42.48"/>
        <rect class="cls-4" x="1000.7" y="796.55" width="102.98" height="42.48"/>
        <rect class="cls-2" x="1168.2" y="754.07" width="102.98" height="42.48"/>
        <rect class="cls-4" x="1065.07" y="754.07" width="102.98" height="42.48"/>
        <rect class="cls-2" x="1103.68" y="711.59" width="102.98" height="42.48"/>
        <rect class="cls-2" x="579.16" y="796.55" width="102.98" height="42.48" transform="translate(1261.29 1635.57) rotate(-180)"/>
        <rect class="cls-4" x="664.77" y="796.55" width="102.98" height="42.48" transform="translate(1432.53 1635.57) rotate(-180)"/>
        <rect class="cls-4" x="600.41" y="754.07" width="102.98" height="42.48" transform="translate(1303.8 1550.62) rotate(-180)"/>
        <path class="cls-2" d="m965.93,153.74l-44.72-6.48c-13.69-1.98-26.08,8.36-26.56,22.19-2.03,57.81-4.06,115.61-6.08,173.42l36.13,5.25,1.22-147.45,40.02-46.92Z"/>
        <path class="cls-2" d="m865.35,203.94c-17.48,4.37-10.47,2.62-27.95,6.99,30.2,166.52,28.18,157.56,29.67,159.74,6.43,9.44,17.19,14.24,26.54,12.17,13.19-2.92,23.08-19.41,17.57-36.34-15.28-47.52-30.55-95.04-45.83-142.56Z"/>
        <path class="cls-4" d="m957.56,152.53l-37.72-5.66c-13.6-2.04-26.1,7.82-27.29,21.52l-8.29,95.5c8.09,7.04,18.43,10.57,28.85,10.2,11.17-35.51,22.34-71.02,33.51-106.53.4-.05,7.71-1.05,10.42-7.33,1.44-3.34.84-6.47.53-7.7Z"/>
        <path class="cls-2" d="m866.55,213.91c1.97-19.06,2.11-18.49,1.53-20.6l-6.77-24.42c-.93-1.74-2.92-2.64-4.81-2.19-1.97.47-3.36,2.31-3.28,4.37.87,5.39,1.75,10.78,2.62,16.17-3.11-4.55-6.21-9.1-9.32-13.65-1.65-5.32-3.3-10.64-4.94-15.96-.73-2.07-2.85-3.12-4.54-2.62-1.93.57-3.19,3.15-2.08,5.46-.92-1.27-2.35-1.99-3.61-1.75-1.83.35-3.34,2.75-2.57,5.38-4.2-1.45-5.89,2.98-4.1,6.75-3.4-1.4-5.39,2-4.48,5.35,4.54,19.86,4.2,18.84,4.8,19.84l13.95,23.49s14.47,10.32,27.59-5.63Z"/>
        <path class="cls-6" d="m840.22,178.28c-.41,0-.8-.27-.93-.68l-5.53-17.64c-.16-.51.12-1.06.64-1.22.51-.16,1.06.12,1.22.64l5.53,17.64c.2.63-.27,1.26-.93,1.26Z"/>
        <path class="cls-6" d="m834.68,182.87c-.41,0-.79-.26-.92-.67l-5.89-17.79c-.17-.51.11-1.06.62-1.23.51-.17,1.06.11,1.23.62l5.89,17.79c.21.63-.26,1.28-.92,1.28Z"/>
        <path class="cls-6" d="m829.84,188.66c-.42,0-.8-.27-.93-.69l-5.14-16.83c-.16-.51.13-1.06.65-1.21.52-.16,1.06.13,1.21.65l5.14,16.83c.19.62-.28,1.26-.93,1.26Z"/>
        <path class="cls-6" d="m851.25,207.56c-.48,0-.9-.36-.96-.85-.77-5.85-.05-11.8,2.11-17.31-4.9,2.01-9.39,4.89-13.27,8.49-.39.36-1.01.34-1.37-.05-.37-.39-.34-1.01.05-1.37,4.57-4.25,10.02-7.58,16.07-9.71.81-.29,1.57.55,1.2,1.33-2.65,5.63-3.7,11.99-2.87,18.37.08.58-.37,1.1-.96,1.1Z"/>
        <path class="cls-7" d="m688.51,170.34h-36.44c-14.65,0-27.27,10.33-30.17,24.69l-27.25,134.9h37.95l22.36-99.82,33.56-59.77Z"/>
        <path class="cls-7" d="m695.19,170.34l28.7-4.7c17.44-2.85,34.01,8.63,37.45,25.97l31.07,156.43-41.08,5.75-27.94-133.93-28.21-49.52Z"/>
        <rect class="cls-2" x="957.56" y="125.67" width="26.5" height="49.58" transform="translate(1941.62 300.92) rotate(-180)"/>
        <path class="cls-2" d="m940.14,98.99c1.23-15.98,15.18-27.95,31.17-26.72,15.98,1.23,27.95,15.18,26.72,31.17-.63,8.19-4.6,15.32-10.47,20.16-.77,1.4-1.51,2.63-2.18,3.66-5.75,8.86-12.89,18.1-23.85,17.92-9.36.26-16.77-7.49-17.96-16.31-3.64-26.87-3.71-26.13-3.42-29.87Z"/>
        <circle class="cls-1" cx="950.66" cy="113.34" r="2.47"/>
        <circle class="cls-1" cx="969.35" cy="114.78" r="2.47"/>
        <path class="cls-1" d="m961.14,127.41c-.05,0-3.5-.22-3.55-.22-1.41-.09-2.37-1.47-1.97-2.82l2.82-9.41c.15-.51.69-.81,1.21-.65.51.15.81.7.65,1.21l-2.82,9.41c-.05.15.06.31.23.32l3.49.22c1.24.08,1.18,1.94-.06,1.94Z"/>
        <path class="cls-1" d="m975.24,105.73c-3.39-3.52-10.42-1.69-10.54-.27-.05.53.61.99.69,1.04,1.37.93,2.88-.5,5.16-.55,3.33-.06,5.51,2.88,6,2.37.31-.32-.41-1.66-1.3-2.59Z"/>
        <path class="cls-1" d="m944.87,104.02c3.9-2.94,10.55-.04,10.46,1.38-.03.53-.75.88-.84.92-1.5.7-2.76-.95-5.01-1.34-3.28-.58-5.89,1.98-6.29,1.4-.25-.37.66-1.58,1.69-2.36Z"/>
        <path class="cls-4" d="m906.54,153.74c42.25.51,84.51,1.01,126.76,1.52-8.45,69.14-16.9,138.28-25.35,207.42-33.22-2.04-66.44-4.08-99.66-6.12-.58-67.61-1.17-135.21-1.75-202.82Z"/>
        <path class="cls-7" d="m908.07,331.88s-36.93,195.73-38.09,240.03c-1.17,44.29,19.05,236.31,19.05,236.31,10.94-.09,21.88-.18,32.82-.27,14.47-74.42,15.44-148.47,2.91-220.89,13.89-52.26,27.78-104.52,41.67-156.78,5.15-29.68,10.3-59.37,15.44-89.05l-73.81-9.35Z"/>
        <path class="cls-7" d="m1010.11,344.96c6.92,20.6,15.01,52.22,14.31,91.15-.49,27.53-5.39,42.22-18.65,159.69,23.19,67.31,35.89,137.84,37.88,210.86h-33.55s-56.21-169.48-58.54-216.11c-2.33-46.63-8.16-219.77-8.16-219.77l66.7-25.83Z"/>
        <path class="cls-6" d="m925.91,785.32l17.51,53.71h-144.54c-4.17-8.09-1.14-17.57,8.1-19.42,29.21-1.56,57.74-11.38,82.16-29.14,12.26-1.71,24.51-3.43,36.77-5.14Z"/>
        <path class="cls-6" d="m1042.47,785.32l17.51,53.71h-144.54c-3.52-7.56-.13-16.55,8.1-19.42,29.21-1.56,57.73-11.38,82.16-29.14,12.26-1.71,24.51-3.43,36.77-5.14Z"/>
        <path class="cls-2" d="m971.61,154.47c18.69-1.48,37.37-2.95,56.06-4.43,9.38-.74,18.03,5.06,20.91,14.01,16.99,52.8,33.97,105.61,50.96,158.41-13.99,5.44-27.98,10.88-41.96,16.32l-46.63-137.54c-13.11-15.59-26.23-31.18-39.34-46.77Z"/>
        <path class="cls-2" d="m1054.44,328.87c-24.18,27.39-48.37,54.78-72.55,82.18,3.79,10.37,11.55,18.42,21.2,22.73,15.28-11.93,32.57-25.84,51.36-41.67,30.61-25.8,45.5-40.12,46.04-59.74.12-4.21-.46-7.67-.94-9.91-15.03,2.14-30.07,4.27-45.1,6.41Z"/>
        <path class="cls-4" d="m885.15,770.15l1.49,22.09s10.95-3.2,17.4,2.26c6.45,5.46,24.3-1.76,24.3-1.76l1.93-25.34-45.11,2.74Z"/>
        <path class="cls-4" d="m996.16,763.36l7.51,28.55s9.39-1.08,15.22,4.63c5.83,5.72,24.78-6.52,24.78-6.52l-3.21-39.49-44.29,12.82Z"/>
        <path class="cls-7" d="m955.65,475.74l-19.82,111.85c.29,61.36.58,122.72.87,184.07-21.85,4.82-44.48,3.94-66-2.62.15-60.47.29-120.93.44-181.4,18.26-37.3,36.51-74.6,54.77-111.9h29.74Z"/>
        <path class="cls-7" d="m946.76,467.11s-3.06,114.41,0,140.64c3.06,26.23,35.12,161.73,35.12,161.73,0,0,37.44,4.81,67.6-11.36l-37.15-163.04,8.43-119.33-74-8.63Z"/>
        <path class="cls-4" d="m977.51,153.74l46.16-4.46c13.83-1.34,26.81,6.85,31.56,19.9l32.43,89.02s-19.66,22.58-52.09,27.25l-21.35-62.31-42.62-57.36,5.9-12.05Z"/>
        <path class="cls-2" d="m957.56,152.53c-.05,6.74,3.53,12.54,8.36,14.18,6.62,2.24,16.27-3.11,18.1-13.55-5.89-9.51-19.75-9.61-26.46-.63Z"/>
        <rect class="cls-2" x="683.23" y="135.73" width="26.5" height="49.58"/>
        <path class="cls-2" d="m729.85,105.81c-1.31-17.03-16.17-29.77-33.2-28.46-17.03,1.31-29.77,16.17-28.46,33.2.67,8.72,4.9,16.32,11.16,21.48.82,1.49,1.61,2.8,2.33,3.9,6.13,9.43,13.74,19.28,25.4,19.09,9.97.27,17.86-7.98,19.13-17.38,3.9-28.8,3.95-27.87,3.64-31.82Z"/>
        <circle class="cls-1" cx="718.64" cy="121.1" r="2.63"/>
        <circle class="cls-1" cx="698.73" cy="122.63" r="2.63"/>
        <path class="cls-1" d="m707.47,136.02c-1.25,0-1.3-1.86-.06-1.94,3.96-.25,3.83-.18,3.97-.38.14-.2.24.35-2.96-10.31-.15-.51.14-1.06.65-1.21.52-.15,1.06.14,1.21.65l3,10.02c.42,1.4-.57,2.83-2.04,2.92-.05,0-3.72.24-3.77.24Z"/>
        <path class="cls-6" d="m691.95,149.48c-.39-.37-.4-.99-.03-1.37.37-.39.99-.4,1.37-.03,4.44,4.23,10.31,6.22,16.36,5.76.53-.05,1,.36,1.04.89.04.54-.36,1-.89,1.04-6.55.5-12.98-1.65-17.85-6.29Z"/>
        <path class="cls-1" d="m692.46,113c3.61-3.75,11.1-1.8,11.23-.29.05.57-.65,1.05-.73,1.11-1.46.99-3.06-.54-5.5-.58-3.55-.07-5.87,3.07-6.39,2.52-.33-.34.43-1.77,1.39-2.76Z"/>
        <path class="cls-1" d="m724.81,111.17c-4.15-3.14-11.24-.04-11.14,1.47.04.57.8.94.9.98,1.6.75,2.94-1.01,5.34-1.43,3.5-.62,6.28,2.11,6.71,1.49.27-.39-.71-1.68-1.8-2.51Z"/>
        <path class="cls-7" d="m662.72,172.93c20.85-2.1,41.69-4.2,62.54-6.3,12.92-1.3,23.9,9.33,23.02,22.29-3.44,50.52-6.88,101.04-10.32,151.56-27.38.25-54.76.5-82.14.75-4.9-47.27-9.79-94.53-14.69-141.8-1.38-13.29,8.3-25.17,21.59-26.5Z"/>
        <path class="cls-6" d="m746.99,305.3c4.49,45.32,8.91,95.21,12.95,149.51,2.47,33.17,4.75,67.41,1.49,112.72-3.86,53.7-25.19,187.58-33.87,240.69-10.58-.09-21.15-.18-31.73-.27-9.06-78.6-4.71-153.17,11.06-223.47-11.54-67.84-23.08-135.67-34.62-203.51,4.98-26.98,9.96-53.95,14.94-80.93,19.92,1.75,39.85,3.5,59.77,5.26Z"/>
        <path class="cls-6" d="m670.53,317.91c-15.27,14.4-35.23,37.59-44.62,70.39-13.79,48.16,7.54,80.59-4.19,204.98-4.54,15.69-8.96,33.08-11.95,46.25-3.75,16.52-13.03,80.01-18.43,167.14,11.78-.52,23.57-1.04,35.35-1.56,13.71-52.69,18.6-77.68,26.66-107.99,9.84-37,17.36-59.67,22.17-75.46,0,0,18.76-61.58,41.93-293.76-15.64-3.33-31.27-6.66-46.91-9.98Z"/>
        <path class="cls-7" d="m694.82,795.95c-5.38,14.28-10.75,28.55-16.13,42.83,44.6.08,89.21.17,133.81.25,2.5-9.27-2.91-18.88-12.74-20.96-27.21,2.19-53.01-8.66-68.49-31.87-1.96-.66-4.86-1.29-8.01-.51-8.27,2.04-9.66,11.68-16.95,13.45-2.46.6-6.17.44-11.5-3.18Z"/>
        <path class="cls-7" d="m592.42,788.04c-13.06,13.89-22.9,31.24-27.87,50.86h88.58c-9-16.62-16.3-34.1-21.79-52.19-12.1-6.36-26.78-6.18-38.93,1.34Z"/>
        <path class="cls-2" d="m779.27,223.15c-9.31,43.55-18.62,87.1-27.94,130.64,1.37,11.63,10.84,20.62,22.18,21.36,10.67.7,20.71-6.04,24.24-16.43,1.23-44.1,2.46-88.19,3.7-132.29-7.39-1.1-14.79-2.19-22.18-3.29Z"/>
        <path class="cls-2" d="m683.23,170.34c-.26,9.05,6.69,15.83,13.34,15.84,7.27,0,14.73-8.09,13.04-17.97-.42-.33-9.97-7.65-19.47-3.57-3.51,1.51-5.71,4.02-6.92,5.7Z"/>
        <path class="cls-4" d="m652.07,170.34c-5.99,50.26-11.98,100.52-17.96,150.78-8.26,28.72-16.36,56.88-24.62,85.6-2.85,6.78.63,14.35,7.35,16.71,44.08,15.52,90.74,16.29,135.3,3.47,5.15-1.48,8.55-6.35,8.18-11.7-14.33-209.4-11.13-157.38-15.41-245.87-10.16-5.54-21.91-6.13-32.59-1.92.97,14.3-4.39,28.64-15.84,38.76-11.77-8.82-18.81-21.73-20.45-35.83h-23.96Z"/>
        <path class="cls-3" d="m694.66,513.55c-.59,0-1.05-.53-.96-1.11l9.53-65.02c.08-.53.57-.9,1.1-.82.53.08.9.57.82,1.1l-9.53,65.02c-.07.48-.49.83-.96.83Z"/>
        <path class="cls-7" d="m683.22,158.1c-5.68,1.54-9.81,6.25-10.58,12.15l8.83,39.95,15.1-24.03-13.35-16.84c0-3.74,0-7.49,0-11.23Z"/>
        <path class="cls-7" d="m709.65,158.17c-.01,3.34-.02,6.69-.03,10.03l-13.04,17.97,13.28,20.4,10.56-41.56c-.69-.57-1.74-1.5-2.89-2.77-1.48-1.64-1.78-2.35-2.74-3.05-.91-.65-2.45-1.31-5.14-1.03Z"/>
        <path class="cls-3" d="m638.09,287.64s72.7,9.19,113.24-1.77l1,12.76s-56.33,16.29-115.89,2.86l1.65-13.85Z"/>
        <path class="cls-3" d="m629.19,331.88s67.2,24.49,125.76,4.98l.93,13.61s-44.53,20.16-129.98-5.31l3.29-13.28Z"/>
        <path class="cls-6" d="m688.51,199.76c-.77,0-1.25-.87-.8-1.52l7.96-11.66c.35-.51,1.16-.62,1.59-.02l7.19,9.93c.31.43.22,1.04-.22,1.36-.44.31-1.04.22-1.36-.22l-6.37-8.81-7.18,10.52c-.19.28-.49.42-.8.42Z"/>
        <path class="cls-6" d="m705.69,436.21c-.52,0-.95-.41-.97-.93l-9.22-229.07c-.05-1.25,1.89-1.42,1.94-.08l9.22,229.07c0,.22-.15,1.01-.97,1.01Z"/>
        <path class="cls-7" d="m719.62,175.93c-8.98,70.85-17.97,141.69-26.95,212.54,38.93-1.64,77.86-3.29,116.79-4.93,24.47-11.69,48.93-23.37,73.4-35.06,3.1-68.65,6.21-137.31,9.31-205.96-26.48,9.49-52.95,18.99-79.43,28.48-31.04,1.64-62.08,3.29-93.12,4.93Z"/>
        <path class="cls-6" d="m703.66,92.5s-8.44.21-9,12.94c-.56,12.74-11.43,15.66-11.43,15.66v33.77s-13-2.96-15.13-20.65c-2.13-17.69-8.5-20.56-6.04-36.79,2.46-16.23,21.58-32.25,41.6-22.18,0,0,11.79-4.31,22.99,6.78,11.2,11.09,2.51,33.8,2.51,33.8-1.23-7.56-4.02-10.65-6.5-12.02-4.38-2.42-8.56.08-13.19-2.71-3.38-2.04-4.98-5.69-5.81-8.59Z"/>
        <ellipse class="cls-2" cx="681.23" cy="126.42" rx="6.93" ry="8.12" transform="translate(36.6 380.4) rotate(-32.02)"/>
        <path class="cls-1" d="m682.98,131.61c-2.58-.66-3.87-3.44-2.75-5.78l-2.58.2c-.53.04-1-.36-1.04-.89-.04-.54.36-1,.89-1.04l5.18-.4c1.08-.08,1.46,1.42.46,1.86-1.98.86-1.77,3.63.32,4.18,1.24.32.76,2.21-.49,1.88Z"/>
        <path class="cls-6" d="m631.29,814.31c-.2,0-.53-.06-25.87-3-2.1-.24-2.22-3.25-.15-3.66l15.8-3.16-15.96-1.54c-1.98-.21-2.28-2.99-.38-3.61l17.26-5.65-20.95-1.52c-1.25-.1-1.16-2,.16-1.94l20.97,1.69c2.02.16,2.35,2.99.43,3.61l-17.26,5.65,15.95,1.54c2.11.23,2.25,3.25.17,3.67l-15.81,3.16,25.75,2.82c1.21.14,1.1,1.94-.11,1.94Z"/>
        <path class="cls-6" d="m641.85,832.08h-68.41c-.54,0-.97-.43-.97-.97s.43-.97.97-.97h68.41c.54,0,.97.43.97.97s-.43.97-.97.97Z"/>
        <path class="cls-6" d="m805.11,832.08h-117.36c-.54,0-.97-.43-.97-.97s.43-.97.97-.97h117.36c.54,0,.97.43.97.97s-.43.97-.97.97Z"/>
        <path class="cls-6" d="m764.95,824.43c-1.37,0-2.41-1.34-1.98-2.71l1.36-4.3-.47-1.09.3.92-10.35,3.41c-1.64.55-3.2-1.05-2.6-2.69l1.91-5.18-.47-1.09.3.92-9.75,3.19c-1.91.63-3.51-1.56-2.33-3.19l2.94-4.06-.38-1.15.24.94-9.7,2.51c-1.99.52-3.43-1.87-2.07-3.4l5.64-6.28-.29-1.18.17.96-10.98,1.89c-2.03.36-3.28-2.16-1.76-3.57l7.03-6.51c.39-.36,1.01-.34,1.37.05.36.39.34,1.01-.05,1.37l-7.03,6.5.28,1.18-.17-.96,10.98-1.89c1.94-.33,3.21,1.97,1.9,3.43l-5.64,6.28.37,1.16-.24-.94,9.7-2.51c1.88-.49,3.34,1.65,2.2,3.23l-2.94,4.06.45,1.13-.3-.92,9.75-3.19c1.64-.54,3.19,1.06,2.59,2.69l-1.91,5.18.47,1.09-.3-.92,10.35-3.41c1.61-.53,3.14.99,2.63,2.6l-1.36,4.3c.28.23-.79.71,9.06-4.87.47-.26,1.06-.1,1.32.37.26.47.1,1.06-.37,1.32-9.62,5.45-9.14,5.3-9.9,5.3Z"/>
        <path class="cls-3" d="m722.93,591.67c-.28,0,.94.43-16.39-6.29-.5-.19-.75-.76-.56-1.26.2-.5.76-.75,1.26-.56l16.04,6.22c1,.39.72,1.88-.35,1.88Z"/>
        <ellipse class="cls-1" cx="707.47" cy="142.52" rx="4.38" ry="2.55"/>
        <path class="cls-2" d="m707.63,234.02c-37.66,31.97-75.32,63.94-112.99,95.91-6.6,14.58-1.8,30.69,9.36,37.43,11.94,7.21,25.8.44,26.7-.02,29.14-33.07,58.28-66.15,87.42-99.22-3.5-11.36-6.99-22.73-10.49-34.09Z"/>
        <path class="cls-4" d="m658.64,104.53l76.36-9c-.04-2.5-.59-20.01-14.84-30.96-8.94-6.87-18.44-7.44-21.27-7.58-17.63-.82-29.1,10.83-30.31,12.09-13.88,14.58-10.31,33.68-9.95,35.44Z"/>
        <rect class="cls-4" x="653.07" y="97.38" width="89.72" height="6.14" rx=".88" ry=".88" transform="translate(-7.15 93.04) rotate(-7.59)"/>
        <path class="cls-4" d="m679.66,57.72c5,12.36,10,24.72,15,37.08,5.1-.75,10.2-1.51,15.31-2.26v-37.45c-9.95-4.64-21.18-3.57-30.31,2.62Z"/>
        <path class="cls-6" d="m657.84,101.71l36-4.8-13.92-35.96c-.19-.5.06-1.06.56-1.26.5-.19,1.06.05,1.26.56,15.36,39.69,14.65,37.36,14.29,37.96-.37.63,1.99.11-37.93,5.43-1.29.17-1.52-1.76-.26-1.93Z"/>
        <path class="cls-6" d="m711.85,95.77c-.52,0-.94-.41-.97-.92l-2-35.75c-.03-.54.38-.99.92-1.02.51-.02.99.38,1.02.92l1.94,34.73,21.95-2.26c.53-.05,1.01.33,1.07.87.06.53-.33,1.01-.87,1.07-26.28,2.71-22.83,2.37-23.06,2.37Z"/>
        <path class="cls-6" d="m945.4,534.56c-.53,0-.96-.42-.97-.95l-1.99-82.32-5.83-62.73c-.05-.53.34-1.01.88-1.06.53-.05,1.01.34,1.06.88l5.83,62.8,1.99,82.39c0,.24-.18,1-.97,1Z"/>
        <path class="cls-6" d="m1007.28,436.79c-19.9-4.98-30.38-28.29-30.81-29.28-.22-.49,0-1.06.5-1.28.49-.21,1.07,0,1.28.5.1.23,10.54,23.43,29.51,28.18,1.23.31.79,2.2-.47,1.88Z"/>
        <path class="cls-6" d="m996.16,610.47c-.88,0-1.32-1.1-.65-1.7l16.17-14.43c.4-.36,1.01-.32,1.37.08.36.4.32,1.02-.08,1.37-17.48,15.59-16.28,14.67-16.82,14.67Z"/>
        <path class="cls-6" d="m918.79,596.04c-1.05,0-1.35-1.44-.39-1.86l17.05-7.48c.5-.21,1.07,0,1.28.5.22.49,0,1.06-.5,1.28-18.25,8.01-17.14,7.56-17.44,7.56Z"/>
        <path class="cls-7" d="m926.33,147.91c-5.86,25.94-11.73,51.87-17.59,77.81-.73,38.13-1.46,76.25-2.19,114.38l53.27,31.62,54.03-14.79,5.99-91.42c-3.3-3.72-7.67-9.51-11-17.49-4.38-10.5-4.68-19.58-4.81-25.35-.64-29.71,1.64-64.61,2.11-71.61-4.86.41-9.71.83-14.57,1.24-2.74,18.46-5.49,36.91-8.23,55.37-18.31-.53-36.62-1.07-54.93-1.6,4.23-18.63,8.47-37.27,12.7-55.9-4.93-.74-9.85-1.49-14.78-2.23Z"/>
        <path class="cls-6" d="m953.54,229.77c-16.36,0-26.63-5.69-26.78-5.78-.47-.27-.63-.86-.36-1.32.27-.47.86-.63,1.32-.36.22.13,22.5,12.42,53.8-.06.49-.2,1.06.04,1.26.54.2.5-.04,1.06-.54,1.26-10.76,4.29-20.49,5.72-28.7,5.72Z"/>
        <path class="cls-6" d="m1022.59,248.53c-.45,0-.86-.32-.95-.78l-10.26-50.69c-.11-.53.23-1.04.76-1.15.53-.11,1.04.23,1.15.76l10.26,50.69c.12.6-.33,1.16-.95,1.16Z"/>
        <path class="cls-6" d="m904.53,326.8c-.41,0-.8-.27-.93-.68l-13.28-42.56c-.16-.51.13-1.06.64-1.22.51-.16,1.06.13,1.22.64l13.28,42.56c.2.63-.28,1.26-.93,1.26Z"/>
        <path class="cls-6" d="m1054.44,329.84c-1.2,0-1.33-1.76-.14-1.93l21.38-3.04c.53-.09,1.02.29,1.1.83.07.53-.29,1.02-.83,1.1-21.82,3.1-21.32,3.05-21.52,3.05Z"/>
        <path class="cls-6" d="m954.64,84.31c.71,14.42,14.34,21.66,27.77,16.99,1.85,15.84,1.47,7.29,1.47,38.98,3.03-2.39,16.68-13.7,18.36-32.62.48-5.36,1.85-20.85-9.68-30.84-8.75-7.58-21.77-9.25-33.73-4.64-9.68-3.15-20.16,1.4-24.29,10.24-3.82,8.17-1.39,18.23,5.99,24.01-.05-10.3,3.89-23.23,14.11-22.13Z"/>
        <ellipse class="cls-2" cx="985.78" cy="118.33" rx="7.62" ry="6.51" transform="translate(362.81 891.43) rotate(-57.98)"/>
        <path class="cls-1" d="m983.66,121.38c1.91-.49,2.1-3.02.29-3.81-.99-.43-.64-1.93.46-1.86l4.87.37c.54.04.94.51.89,1.04-.04.53-.51.93-1.04.89l-2.32-.18c1,2.25-.27,4.8-2.66,5.42-1.25.33-1.73-1.56-.49-1.88Z"/>
        <path class="cls-6" d="m946.93,137.45s1.55-7.97,4.97-9.47c3.42-1.5,15.49-2.94,17.18-1.54,1.69,1.4,8.05,9.64,6.31,13.18-1.74,3.54-9.91,7.5-16.56,6.55-6.65-.96-12.74-5.57-11.9-8.72Z"/>
        <path class="cls-3" d="m957.2,131.21l9.23-2.21c.18,2.6-1.65,4.87-4.05,5.23-2.13.32-4.3-.91-5.18-3.03Z"/>
        <path class="cls-4" d="m1003.98,95.14l-72.03-4.71c-.09-2.34-.42-18.79,12.39-29.75,8.04-6.88,16.93-7.88,19.57-8.14,16.49-1.63,27.81,8.73,29,9.86,13.72,12.99,11.31,31.07,11.06,32.74Z"/>
        <path class="cls-4" d="m927.53,92.95l78.39,6.31c1.53.12,2.88-1.02,3-2.55.14-1.78-1-3.07-2.54-3.19l-78.39-6.31c-1.53-.12-2.88,1.02-3,2.55-.14,1.78,1,3.07,2.54,3.19Z"/>
        <path class="cls-4" d="m981.99,52.29c-4.08,11.83-8.17,23.66-12.25,35.49-4.82-.46-9.64-.91-14.46-1.37-.61-11.7-1.22-23.4-1.83-35.1,9.1-4.83,19.69-4.39,28.54.98Z"/>
        <path class="cls-6" d="m1004.44,94.34l-35.14-2.83c-.63-.05-1.04-.68-.85-1.27l11.65-35.49c.17-.51.72-.79,1.23-.62.51.17.79.72.62,1.23l-11.27,34.32,33.91,2.73c1.27.1,1.14,2.03-.16,1.94Z"/>
        <path class="cls-6" d="m953.62,89.59c-1.82,0,6.31.32-21.69-1.1-1.26-.06-1.22-1.97.1-1.94l20.62,1.04.12-32.59c0-1.3,1.95-1.26,1.94,0l-.13,33.61c0,.53-.44.97-.97.97Z"/>
        <path class="cls-3" d="m915.44,840c-.37,0-.73-.21-.89-.58-3.93-8.79-.77-18.62,8.78-20.77l11.88-1.1c.53-.06,1.01.35,1.06.88.05.53-.34,1.01-.88,1.06l-11.76,1.08c-8.22,1.89-10.71,10.46-7.31,18.06.29.64-.19,1.37-.89,1.37Z"/>
        <path class="cls-3" d="m906.11,831.65h-97.04c-.54,0-.97-.43-.97-.97s.43-.97.97-.97h97.04c.54,0,.97.43.97.97s-.43.97-.97.97Z"/>
        <path class="cls-3" d="m1050.65,834.27h-122.97c-.54,0-.97-.43-.97-.97s.43-.97.97-.97h122.97c.54,0,.97.43.97.97s-.43.97-.97.97Z"/>
        <path class="cls-2" d="m697.8,243.85l10.26-22.69c1.16-2.57,3.16-4.67,5.67-5.95l25.16-12.88c1.78-.34,3.54.15,4.37,1.31,1.21,1.7.51,4.97-2.4,6.56-5.76,3.86-11.51,7.72-17.27,11.58l19.47-1.53c1.99.21,3.54,1.8,3.69,3.72.14,1.76-.92,3.45-2.61,4.12,4.23,1.1,4.42,6.69.43,8.23,1.72.15,3.17,1.16,3.61,2.51.61,1.91-.81,4.49-3.53,5.1-4.96,2.69-9.92,5.37-14.89,8.06-.92,5.35-2.36,9.8-3.76,13.29-2.62,6.48-4.14,10.1-7.87,12-4.19,2.13-8.86.91-11.36,0l-8.97-33.42Z"/>
        <path class="cls-6" d="m723.06,231.2c-1.22,0-1.31-1.82-.1-1.94l21.08-2.14c1.32-.1,1.44,1.81.2,1.93-24.14,2.45-20.97,2.15-21.18,2.15Z"/>
        <path class="cls-6" d="m726.87,241.31c-1.15,0-1.34-1.66-.21-1.92l17.7-4.02c.52-.12,1.04.21,1.16.73.12.52-.21,1.04-.73,1.16-18.85,4.28-17.72,4.05-17.92,4.05Z"/>
      </g>
    </g>
  </g>
</svg>