<?xml version="1.0" encoding="utf-8"?>
<!-- Generator: Adobe Illustrator 27.8.0, SVG Export Plug-In . SVG Version: 6.00 Build 0)  -->
<svg version="1.1" id="Capa_2_00000183931608309230412300000003302234384018909851_"
	 xmlns="http://www.w3.org/2000/svg" xmlns:xlink="http://www.w3.org/1999/xlink" x="0px" y="0px" viewBox="0 0 957.6 840"
	 style="enable-background:new 0 0 957.6 840;" xml:space="preserve">
<style type="text/css">
	.st0{opacity:0.14;fill:#2B0000;enable-background:new    ;}
	.st1{fill:#FDC500;}
	.st2{fill:#E67925;}
	.st3{fill:#68003C;}
	.st4{fill:#2351FB;}
</style>
<g id="Capa_1-2">
	<g>
		<path class="st0" d="M957.6,587.6c0,106.6-56.2,200.1-140.7,252.4H505.1c-18-11.2-34.8-24.2-50-38.9c-9.4,14-20.2,27.1-32.2,38.9
			h-349C28.4,795.1,0.1,732.7,0,663.7C-0.2,590.1,31.6,524,82.3,478.4c21.1-19,33-45.9,33-74.2v-0.5c0-94.1,76.3-170.3,170.3-170.3
			c41.8,0,80,15,109.6,40c47.8,40.3,113.1,52.4,172.4,32.7c29.3-9.7,60.6-15,93.1-15C824.4,290.9,957.6,423.9,957.6,587.6z"/>
		<path class="st0" d="M281.5,464.3c-6.5,0-12.8,1.1-18.7,3c-11.9,3.9-25,1.5-34.5-6.5c-5.9-5-13.6-8-22-8
			c-18.9,0-34.1,15.3-34.1,34.1v0.1c0,5.7-2.4,11.1-6.6,14.9c-10.1,9.1-16.5,22.4-16.5,37.1c0.1,27.5,22.3,49.7,49.8,49.7
			c17.3,0,32.5-8.8,41.4-22.1c10.7,10.3,25.2,16.7,41.3,16.7c32.8,0,59.4-26.6,59.4-59.4C341,491,314.3,464.3,281.5,464.3
			L281.5,464.3z"/>
		<path class="st0" d="M425.7,506.2c-5-4.2-10.5-7.5-16.2-9.8c-11.6-4.7-20-15-22.1-27.3c-1.3-7.7-5.2-14.9-11.6-20.3
			c-14.4-12.2-35.9-10.4-48.1,4c0,0,0,0.1-0.1,0.1c-3.7,4.4-9,6.9-14.7,7.1c-13.6,0.4-27.1,6.4-36.6,17.7
			c-17.7,21-15.1,52.3,5.8,70.1c13.2,11.2,30.5,14.3,45.9,9.9c1.5,14.8,8.5,29,20.7,39.4c25,21.2,62.5,18.1,83.8-6.9
			C453.8,565,450.7,527.5,425.7,506.2L425.7,506.2z"/>
		<g>
			<g>
				<rect x="288.7" y="811.4" class="st1" width="209.1" height="28.3"/>
				<rect x="288.7" y="783.9" class="st1" width="209.1" height="28.3"/>
				<rect x="288.7" y="757" class="st1" width="209.1" height="28.3"/>
				<rect x="392.7" y="811.4" class="st2" width="219.9" height="28.3"/>
				<rect x="407" y="783.9" class="st2" width="209.1" height="28.3"/>
				<rect x="387.6" y="757" class="st2" width="209.1" height="28.3"/>
				<path class="st3" d="M596.7,786.2h-308c-0.5,0-0.9-0.4-0.9-0.9s0.4-0.9,0.9-0.9h308c0.5,0,0.9,0.4,0.9,0.9
					C597.6,785.8,597.2,786.2,596.7,786.2z"/>
				<path class="st3" d="M596.7,813.1h-308c-0.5,0-0.9-0.4-0.9-0.9s0.4-0.9,0.9-0.9h308c0.5,0,0.9,0.4,0.9,0.9
					C597.6,812.7,597.2,813.1,596.7,813.1z"/>
			</g>
			<rect x="679.3" y="292.2" class="st4" width="200.3" height="546.6"/>
			<rect x="480.3" y="561.2" class="st4" width="200.3" height="278.8"/>
			<rect x="679.3" y="249.1" class="st4" width="26.3" height="99.5"/>
			<rect x="737.3" y="249.1" class="st4" width="26.3" height="99.5"/>
			<rect x="795.3" y="249.1" class="st4" width="26.3" height="99.5"/>
			<rect x="853.3" y="249.1" class="st4" width="26.3" height="99.5"/>
			<g>
				<rect x="58.3" y="208.6" class="st2" width="80.1" height="52.4"/>
				<path class="st4" d="M260.5,833.1h-66.4c-2,0-3.5-1.6-3.5-3.5c0-708.7-0.1-677.4,0.2-678.2L226,50.8c1.2-3.3,5.8-3.1,6.8,0.1
					L264,151.4c0.2,0.8,0.2-30.5,0.2,678.1C264.1,831.5,262.5,833.1,260.5,833.1L260.5,833.1z M197.7,826H257V153l-27.9-89.7
					l-31.4,89.8L197.7,826L197.7,826z"/>
				<path class="st4" d="M671.1,212.2H286.5c-2.7,0-4.5-3-3.1-5.3l32.3-56.2c0.6-1.1,1.8-1.8,3.1-1.8h320.1c1.3,0,2.4,0.7,3.1,1.8
					l32.3,56.2C675.6,209.2,673.9,212.2,671.1,212.2L671.1,212.2z M292.6,205.1H665l-28.2-49h-316
					C320.8,156,292.6,205.1,292.6,205.1z"/>
				<path class="st4" d="M182.8,212.2H61.3c-2,0-3.5-1.6-3.5-3.5v-46c0-2,1.6-3.5,3.5-3.5h121.6c2,0,3.5,1.6,3.5,3.5v46
					C186.4,210.6,184.8,212.2,182.8,212.2z M64.8,205.1h114.4v-39H64.8V205.1z"/>
				<path class="st4" d="M286.5,211.3H182.9c-1.5,0-2.7-1.2-2.7-2.7s1.2-2.7,2.7-2.7h103.6c1.5,0,2.7,1.2,2.7,2.7
					S287.9,211.3,286.5,211.3z"/>
				<polygon class="st2" points="321.1,840 130.3,840 147.3,803.2 304,803.2 				"/>
				<path class="st4" d="M260.5,800.4c-1.1,0,3.1,2.3-65.2-38.3c-2.3-1.4-1.3-5,1.4-5h54.8L195.2,721c-2.2-1.4-1.2-4.9,1.4-4.9h54.7
					L192.6,679c-2.2-1.4-1.2-4.9,1.4-4.9h57.5L195.1,637c-2.2-1.4-1.2-4.9,1.5-4.9h54.6l-56-35.1c-2.3-1.4-1.2-4.9,1.4-4.9h55.6
					L195,550.8c-2.1-1.5-1-4.8,1.6-4.8h56.3L195,499.2c-2-1.6-0.8-4.7,1.7-4.7h56l-57.7-44c-2-1.6-0.9-4.8,1.6-4.8h55.8l-57.3-42.4
					c-2.1-1.5-1-4.8,1.6-4.8h54.9l-56.4-37.2c-2.2-1.4-1.2-4.9,1.5-4.9h55.8L195.2,314c-2.1-1.5-1-4.8,1.6-4.8h56l-60.2-46.5
					c-2-1.6-0.9-4.8,1.6-4.8H253l-60.6-49.6c-1.1-0.9-1.3-2.6-0.4-3.8c0.9-1.1,2.6-1.3,3.7-0.4l66.4,54.4c1.9,1.6,0.8,4.7-1.7,4.7
					h-58.6l60.2,46.5c2,1.6,0.9,4.8-1.6,4.8h-55.8L262,357c2.1,1.5,1,4.8-1.6,4.8h-54.9l56.4,37.2c2.2,1.4,1.2,4.9-1.5,4.9h-55.8
					l57.3,42.4c2.1,1.5,1,4.8-1.6,4.8h-56l57.6,43.9c2,1.6,0.9,4.8-1.6,4.8H204l57.9,46.5c2,1.6,0.8,4.7-1.7,4.7h-55.6l57.2,41.3
					c2.1,1.5,1,4.8-1.6,4.8h-54.6l56,35.1c2.3,1.4,1.2,4.9-1.4,4.9h-54.9l56.4,37.1c2.2,1.4,1.2,4.9-1.5,4.9H203l58.7,37.1
					c2.2,1.4,1.2,4.9-1.4,4.9h-54.8l56.2,36.1c2.2,1.4,1.2,4.9-1.4,4.9h-54.1l55.5,33C264.2,796.8,263.2,800.4,260.5,800.4
					L260.5,800.4z"/>
				<path class="st4" d="M194.1,800.4c-2.7,0-3.7-3.6-1.4-5l55.5-33h-54.1c-2.7,0-3.7-3.5-1.4-4.9l56.2-36.1h-54.8
					c-2.7,0-3.7-3.5-1.4-4.9l58.7-37.1h-57.2c-2.6,0-3.7-3.4-1.5-4.9l56.4-37.1h-54.9c-2.7,0-3.7-3.5-1.4-4.9l56-35.1h-54.6
					c-2.6,0-3.7-3.3-1.6-4.8l57.2-41.3h-55.6c-2.5,0-3.6-3.2-1.7-4.7l57.9-46.5h-56.3c-2.6,0-3.6-3.2-1.6-4.8l57.6-43.9h-56
					c-2.6,0-3.7-3.3-1.6-4.8l57.3-42.4H194c-2.6,0-3.7-3.4-1.5-4.9l56.4-37.2H194c-2.6,0-3.7-3.3-1.6-4.8l57.3-42.4h-55.8
					c-2.6,0-3.6-3.2-1.6-4.8l60.2-46.5h-58.6c-2.5,0-3.6-3.1-1.7-4.7l63.2-51.7L193,176.4c-2.2-1.1-1.9-4.2,0.3-4.9l60.3-19.5
					L203,126.1c-1.9-0.9-2-3.6-0.1-4.7L241,98.8c1.3-0.7,2.9-0.3,3.7,0.9s0.3,2.9-0.9,3.7l-34,20.1l52.1,26.5
					c2.1,1.1,1.9,4.2-0.4,4.9l-60.1,19.5l60.5,29.4c1.7,0.9,2,3.2,0.5,4.5L201.7,258h58.9c2.6,0,3.6,3.2,1.6,4.8L202,309.2h56
					c2.6,0,3.7,3.3,1.6,4.8l-57.3,42.4H258c2.6,0,3.7,3.4,1.5,4.9l-56.4,37.2H258c2.6,0,3.7,3.3,1.6,4.8l-57.3,42.4H258
					c2.6,0,3.6,3.2,1.6,4.8L202,494.4h56c2.5,0,3.6,3.2,1.7,4.7l-57.9,46.5H258c2.6,0,3.7,3.3,1.6,4.8l-57.2,41.3H258
					c2.7,0,3.7,3.5,1.4,4.9l-56,35.1H258c2.6,0,3.7,3.4,1.5,4.9L203,673.9h57.5c2.7,0,3.7,3.5,1.4,4.9L203.3,716H258
					c2.7,0,3.7,3.5,1.4,4.9L203.2,757H258c2.7,0,3.7,3.6,1.4,5C191.1,802.6,195.2,800.4,194.1,800.4L194.1,800.4z"/>
				<path class="st4" d="M476.5,209.9l-29-52l-28.4,49.8c-1,1.8-3.7,1.8-4.7-0.1l-25.7-49.9L353.3,208c-1.1,1.6-3.5,1.5-4.5-0.2
					l-32.3-53.9c-0.7-1.3-0.4-2.9,0.9-3.7s2.9-0.4,3.7,0.9l30.2,50.3l35.6-50.5c1.2-1.7,3.7-1.4,4.5,0.3l25.4,49.5l28.3-49.6
					c1-1.8,3.6-1.8,4.7,0l28.9,52l28.9-52c1-1.9,3.7-1.8,4.7,0.1l27.4,51.8l28.4-51.8c0.9-1.7,3.4-2,4.6-0.1l31.6,50.3l32.1-50.3
					c0.8-1.2,2.4-1.6,3.7-0.8c1.2,0.8,1.6,2.4,0.8,3.7l-34.4,53.9c-1,1.6-3.5,1.7-4.5,0l-31.4-50L542,210.1c-1,1.9-3.7,1.8-4.7,0
					L510,158l-28.9,51.9C480.1,211.7,477.5,211.7,476.5,209.9L476.5,209.9z"/>
				<rect x="161.3" y="140.2" class="st2" width="85.7" height="85.7"/>
				<path class="st4" d="M229.3,54.6c-1.5,0-2.7-1.2-2.7-2.7V2.7c0-1.5,1.2-2.7,2.7-2.7s2.7,1.2,2.7,2.7V52
					C232,53.4,230.8,54.6,229.3,54.6L229.3,54.6z"/>
				<path class="st4" d="M139,209.9L117.2,168l-24.4,39c-1.1,1.7-3.4,1.6-4.5,0.1l-29.2-43c-0.8-1.2-0.5-2.9,0.7-3.7
					s2.9-0.5,3.7,0.7l26.9,39.6l24.7-39.5c1.1-1.7,3.7-1.7,4.6,0.2l21.4,41.1l17.7-40.9c0.6-1.4,2.2-2,3.5-1.4
					c1.4,0.6,2,2.2,1.4,3.5l-19.9,46C143,211.8,140.1,211.9,139,209.9L139,209.9z"/>
				<path class="st4" d="M527.6,360.8c-1.4,0-2.5-1-2.7-2.4l-16.8-149.6c-0.2-1.5,0.9-2.8,2.4-2.9c1.5-0.2,2.8,0.9,2.9,2.4
					l14.1,125.5l13.6-125.5c0.2-1.5,1.4-2.5,2.9-2.4c1.5,0.2,2.5,1.5,2.4,2.9l-16.2,149.6C530.1,359.8,529,360.9,527.6,360.8
					L527.6,360.8L527.6,360.8z"/>
				<rect x="421.5" y="452.5" class="st1" width="217.3" height="25.1"/>
				<rect x="421.5" y="427.4" class="st1" width="217.3" height="25.1"/>
				<path class="st4" d="M642.6,482.1H412.1c-2.5,0-4.4-2-4.4-4.4s2-4.4,4.4-4.4h230.5c2.5,0,4.4,2,4.4,4.4
					C647.1,480.1,645.1,482.1,642.6,482.1z"/>
				<path class="st4" d="M530.2,430.1c-1.5,0-2.7-1.2-2.7-2.7v-64.5c0-1.5,1.2-2.7,2.7-2.7s2.7,1.2,2.7,2.7v64.5
					C532.8,428.9,531.6,430.1,530.2,430.1z"/>
				<path class="st3" d="M633.5,453.4h-212c-0.5,0-0.9-0.4-0.9-0.9s0.4-0.9,0.9-0.9h212c0.5,0,0.9,0.4,0.9,0.9
					S634,453.4,633.5,453.4z"/>
				<path class="st4" d="M638.8,480.3c-0.7,0-1.4-0.3-1.9-0.8L530.1,366.7L418.5,479.5c-1,1.1-2.7,1.1-3.8,0c-1.1-1-1.1-2.7,0-3.8
					L528.3,361c1-1,2.8-1.1,3.8,0.1l108.6,114.7C642.4,477.5,641.1,480.3,638.8,480.3L638.8,480.3z"/>
				<circle class="st2" cx="529.1" cy="359.9" r="18.3"/>
			</g>
			<path class="st1" d="M913.4,840c0,0-69.9-109.5-104.6-116.3c-34.6-6.8-40.8,39.6-78.8,29c-38-10.7-73.3-93.8-108.6-91.5
				C586.1,663.4,497.8,840,497.8,840H913.4L913.4,840z"/>
			<rect x="700.6" y="321" class="st3" width="161.6" height="27.6"/>
			<rect x="700.6" y="425.2" class="st3" width="42.5" height="42.5"/>
			<rect x="760.2" y="425.2" class="st3" width="42.5" height="42.5"/>
			<rect x="819.8" y="425.2" class="st3" width="42.5" height="42.5"/>
			<rect x="700.6" y="490.4" class="st3" width="42.5" height="42.5"/>
			<rect x="760.2" y="490.4" class="st3" width="42.5" height="42.5"/>
			<rect x="819.8" y="490.4" class="st3" width="42.5" height="42.5"/>
			<rect x="700.6" y="551.2" class="st3" width="42.5" height="42.5"/>
			<rect x="760.2" y="551.2" class="st3" width="42.5" height="42.5"/>
			<rect x="819.8" y="551.2" class="st3" width="42.5" height="42.5"/>
			<g>
				<rect x="700.6" y="612" class="st3" width="42.5" height="42.5"/>
				<rect x="760.2" y="612" class="st3" width="42.5" height="42.5"/>
				<rect x="819.8" y="612" class="st3" width="42.5" height="42.5"/>
			</g>
			<g>
				<rect x="700.6" y="365.6" class="st3" width="42.5" height="42.5"/>
				<rect x="760.2" y="365.6" class="st3" width="42.5" height="42.5"/>
				<rect x="819.8" y="365.6" class="st3" width="42.5" height="42.5"/>
			</g>
			<g>
				<rect x="511.1" y="579.1" class="st3" width="42.5" height="42.5"/>
				<rect x="570.6" y="579.1" class="st3" width="42.5" height="42.5"/>
				<rect x="630.2" y="579.1" class="st3" width="42.5" height="42.5"/>
			</g>
		</g>
		<g>
			<path class="st3" d="M106.4,686.6c-7.9-3.9-15.8-7.8-23.8-11.8L185,468.5l35.6,17.7C182.6,553,144.5,619.8,106.4,686.6
				L106.4,686.6z"/>
			<g>
				<polygon class="st3" points="305.6,599.8 261.2,634.3 185.9,507.9 218.2,482.7 				"/>
				<polygon class="st2" points="314,593.1 275.6,623 196.4,499.7 224.4,477.9 				"/>
			</g>
			<path class="st2" d="M113,694.8c-7.7-3.8-15.3-7.6-23-11.4l102.4-206.3l34.5,17.1C189,561.1,151,627.9,113,694.8z"/>
			<circle class="st1" cx="200.9" cy="490.1" r="30.6"/>
			<rect x="238.6" y="745.2" class="st3" width="232.2" height="30.7"/>
			<g>
				<path class="st3" d="M373.3,840H209.7c-21.6,0-39.1-17.5-39.1-39.1c0-21.5,17.5-39.1,39.1-39.1h163.6
					c21.6,0,39.1,17.5,39.1,39.1C412.4,822.4,395,840,373.3,840z"/>
				<g>
					<path class="st2" d="M257,775.9h-66c-1.5,0-2.7-1.2-2.7-2.7s1.2-2.7,2.7-2.7h66c1.5,0,2.7,1.2,2.7,2.7S258.5,775.9,257,775.9z"
						/>
					<path class="st2" d="M248,787.9h-66c-1.5,0-2.7-1.2-2.7-2.7s1.2-2.7,2.7-2.7h66c1.5,0,2.7,1.2,2.7,2.7S249.5,787.9,248,787.9z"
						/>
					<path class="st2" d="M242.2,800.9h-66c-1.5,0-2.7-1.2-2.7-2.7s1.2-2.7,2.7-2.7h66c1.5,0,2.7,1.2,2.7,2.7
						S243.6,800.9,242.2,800.9z"/>
					<path class="st2" d="M245.6,813.9h-66c-1.5,0-2.7-1.2-2.7-2.7s1.2-2.7,2.7-2.7h66c1.5,0,2.7,1.2,2.7,2.7
						S247.1,813.9,245.6,813.9z"/>
					<path class="st2" d="M252.5,825.8h-66c-1.5,0-2.7-1.2-2.7-2.7s1.2-2.7,2.7-2.7h66c1.5,0,2.7,1.2,2.7,2.7S254,825.8,252.5,825.8
						z"/>
					<path class="st2" d="M271.6,837.7h-66c-1.5,0-2.7-1.2-2.7-2.7s1.2-2.7,2.7-2.7h66c1.5,0,2.7,1.2,2.7,2.7
						S273.1,837.7,271.6,837.7z"/>
					<path class="st2" d="M277.8,767h-66c-1.5,0-2.7-1.2-2.7-2.7s1.2-2.7,2.7-2.7h66c1.5,0,2.7,1.2,2.7,2.7S279.3,767,277.8,767z"/>
				</g>
				<path class="st2" d="M407.3,840H243.6c-21.6,0-39.1-17.5-39.1-39.1c0-21.5,17.5-39.1,39.1-39.1h163.6
					c21.6,0,39.1,17.5,39.1,39.1C446.4,822.4,428.9,840,407.3,840z"/>
				<path class="st3" d="M243.6,828.4c-15.2,0-27.6-12.4-27.6-27.6s12.4-27.6,27.6-27.6h163.6c15.2,0,27.6,12.4,27.6,27.6
					s-12.4,27.6-27.6,27.6C407.3,828.4,243.6,828.4,243.6,828.4z"/>
				<circle class="st2" cx="257.8" cy="800.9" r="10.9"/>
				<circle class="st2" cx="302.4" cy="800.9" r="10.9"/>
				<circle class="st2" cx="346.9" cy="800.9" r="10.9"/>
				<circle class="st2" cx="391.5" cy="800.9" r="10.9"/>
			</g>
			<g>
				<path class="st3" d="M444.1,840H280.5c-21.6,0-39.1-17.5-39.1-39.1c0-21.5,17.5-39.1,39.1-39.1h163.6
					c21.6,0,39.1,17.5,39.1,39.1C483.3,822.5,465.8,840,444.1,840z"/>
				<g>
					<path class="st2" d="M327.9,775.9h-66c-1.5,0-2.7-1.2-2.7-2.7s1.2-2.7,2.7-2.7h66c1.5,0,2.7,1.2,2.7,2.7
						C330.5,774.7,329.3,775.9,327.9,775.9z"/>
					<path class="st2" d="M318.8,787.9h-66c-1.5,0-2.7-1.2-2.7-2.7s1.2-2.7,2.7-2.7h66c1.5,0,2.7,1.2,2.7,2.7
						S320.3,787.9,318.8,787.9z"/>
					<path class="st2" d="M313,800.9h-66c-1.5,0-2.7-1.2-2.7-2.7s1.2-2.7,2.7-2.7h66c1.5,0,2.7,1.2,2.7,2.7S314.5,800.9,313,800.9z"
						/>
					<path class="st2" d="M316.4,813.9h-66c-1.5,0-2.7-1.2-2.7-2.7s1.2-2.7,2.7-2.7h66c1.5,0,2.7,1.2,2.7,2.7
						S317.9,813.9,316.4,813.9z"/>
					<path class="st2" d="M323.3,825.8h-66c-1.5,0-2.7-1.2-2.7-2.7s1.2-2.7,2.7-2.7h66c1.5,0,2.7,1.2,2.7,2.7
						S324.8,825.8,323.3,825.8z"/>
					<path class="st2" d="M342.4,837.7h-66c-1.5,0-2.7-1.2-2.7-2.7s1.2-2.7,2.7-2.7h66c1.5,0,2.7,1.2,2.7,2.7
						S343.9,837.7,342.4,837.7z"/>
					<path class="st2" d="M348.7,767h-66c-1.5,0-2.7-1.2-2.7-2.7s1.2-2.7,2.7-2.7h66c1.5,0,2.7,1.2,2.7,2.7S350.1,767,348.7,767z"/>
				</g>
				<path class="st2" d="M478.1,840H314.5c-21.6,0-39.1-17.5-39.1-39.1c0-21.5,17.5-39.1,39.1-39.1h163.6
					c21.6,0,39.1,17.5,39.1,39.1C517.2,822.4,499.8,840,478.1,840z"/>
				<path class="st3" d="M314.5,828.4c-15.2,0-27.6-12.4-27.6-27.6s12.4-27.6,27.6-27.6h163.6c15.2,0,27.6,12.4,27.6,27.6
					s-12.4,27.6-27.6,27.6H314.5z"/>
				<circle class="st2" cx="328.6" cy="800.9" r="10.9"/>
				<circle class="st2" cx="373.2" cy="800.9" r="10.9"/>
				<circle class="st2" cx="417.8" cy="800.9" r="10.9"/>
				<circle class="st2" cx="462.3" cy="800.9" r="10.9"/>
			</g>
			<path class="st1" d="M227.8,752.3h265.3V629.9c0-6.2-5-11.2-11.2-11.2h-59.4l-127.7,73.4h-67
				C227.8,692.1,227.8,752.3,227.8,752.3z"/>
			<path class="st2" d="M216.2,692.1L216.2,692.1c13.8,0,25,11.2,25,25v35.2H191v-34.9C190.9,703.4,202.2,692.1,216.2,692.1
				L216.2,692.1z"/>
			<path class="st1" d="M422.5,618.7v-51.4c0-9.6-7.8-17.3-17.3-17.3h-61.5c-18.5,0-35.9,8.7-47,23.5
				c-14.6,19.5-29.2,38.9-43.8,58.4c-1.7,2.3-2.7,5.2-2.7,8.1v60.9h101.2L422.5,618.7L422.5,618.7z"/>
			<path class="st4" d="M300.5,685.5l111.3-68.9v-48.1c0-5.3-4.3-9.5-9.5-9.5h-63c-12.4,0-24,5.7-31.6,15.5l-44.2,57
				c-2.5,3.2-3.8,7.1-3.8,11.1v43L300.5,685.5L300.5,685.5z"/>
			<g>
				<path class="st3" d="M302.1,691.1H254v-48.7c0-5.2,1.8-10.4,5-14.6l44.2-57c8.7-11.2,21.8-17.7,36.1-17.7h63
					c8.4,0,15.2,6.8,15.2,15.2v51.2L302.1,691.1L302.1,691.1z M260,685.1h40.4l111.1-68.8v-47.9c0-5.1-4.1-9.2-9.2-9.2h-63
					c-12.3,0-23.8,5.6-31.3,15.3l-44.2,57c-2.4,3.1-3.7,7-3.7,10.9L260,685.1L260,685.1z"/>
				<path class="st3" d="M304.3,688.1h-6V642c0-4.4,1.3-8.6,3.8-12.3l50.8-75.2l5,3.4L307,633.1c-1.8,2.7-2.7,5.8-2.7,9V688.1
					L304.3,688.1z"/>
				<polygon class="st3" points="257,645.4 257,639.5 301,639.1 413.8,615.1 415.1,620.9 301.6,645 				"/>
			</g>
			<path class="st3" d="M493.1,643.9h-43.6c-1.7,0-3.1-1.4-3.1-3.1c0-1.7,1.3-3,3-3h43.7V643.9z"/>
			<path class="st3" d="M493.1,662.6h-43.6c-1.7,0-3.1-1.4-3.1-3.1s1.3-3,3-3h43.7V662.6z"/>
			<path class="st3" d="M493.1,681.4h-43.6c-1.7,0-3.1-1.4-3.1-3.1c0-1.7,1.3-3,3-3h43.7V681.4z"/>
			
				<rect x="143.1" y="748.2" transform="matrix(0.9233 -0.384 0.384 0.9233 -278.1863 119.4852)" class="st2" width="34" height="16.3"/>
			<path class="st3" d="M95.6,656.5l21.4-8.9l48,115.5l-24.1,10c-31.1,12.9-66.9-1.8-79.8-32.9l0,0C47.5,707.5,63,670,95.6,656.5
				L95.6,656.5z"/>
			<path class="st2" d="M171.1,760.6c-28.2,11.8-60.8-1.6-72.6-30l-5.4-12.9c-11.8-28.3,1.6-60.9,30-72.6
				C123.2,645.1,121.9,642.4,171.1,760.6z"/>
			
				<ellipse transform="matrix(0.9985 -5.529864e-02 5.529864e-02 0.9985 -36.1807 7.2881)" class="st1" cx="113.6" cy="657.4" rx="27.8" ry="27.8"/>
			<circle class="st3" cx="200.9" cy="490.1" r="16.7"/>
			<circle class="st3" cx="113.6" cy="657.4" r="13.8"/>
			<path class="st3" d="M199.8,707.6h28.4c1.1,0,1.9,0.9,1.9,1.9c0,0.7-0.6,1.9-1.9,1.9h-28.4c-1.1,0-1.9-0.9-1.9-1.9
				C197.9,708.8,198.4,707.6,199.8,707.6z"/>
			<path class="st3" d="M199.8,716.6h28.4c1.1,0,1.9,0.9,1.9,1.9c0,0.7-0.6,1.9-1.9,1.9h-28.4c-1.1,0-1.9-0.9-1.9-1.9
				C197.9,717.8,198.4,716.6,199.8,716.6z"/>
			<path class="st3" d="M199.8,725.5h28.4c1.1,0,1.9,0.9,1.9,1.9c0,0.7-0.6,1.9-1.9,1.9h-28.4c-1.1,0-1.9-0.9-1.9-1.9
				C197.9,726.7,198.4,725.5,199.8,725.5z"/>
			<path class="st3" d="M199.8,734.4h28.4c1.1,0,1.9,0.9,1.9,1.9c0,0.7-0.6,1.9-1.9,1.9h-28.4c-1.1,0-1.9-0.9-1.9-1.9
				C197.9,735.6,198.4,734.4,199.8,734.4z"/>
			<path class="st3" d="M417.5,738.8H302.7c-0.3,0-0.5-0.2-0.5-0.5v-48.1c0-0.3,0.2-0.5,0.5-0.5s0.5,0.2,0.5,0.5v47.5H417v-119
				c0-0.3,0.2-0.5,0.5-0.5s0.5,0.2,0.5,0.5v119.6C417.9,738.5,417.7,738.8,417.5,738.8L417.5,738.8z"/>
			<path class="st3" d="M404.8,663.1h-27.9c-0.3,0-0.5-0.2-0.5-0.5v-6.1c0-0.3,0.2-0.5,0.5-0.5h27.9c0.3,0,0.5,0.2,0.5,0.5v6.1
				C405.3,662.9,405.1,663.1,404.8,663.1z M377.4,662.1h26.9V657h-26.9V662.1z"/>
		</g>
	</g>
</g>
</svg>
