<?xml version="1.0" encoding="UTF-8"?>
<svg id="Capa_2" data-name="Capa 2" xmlns="http://www.w3.org/2000/svg" viewBox="0 0 1299.84 840">
  <defs>
    <style>
      .cls-1 {
        fill: #4f06e1;
      }

      .cls-1, .cls-2, .cls-3, .cls-4, .cls-5, .cls-6 {
        stroke-width: 0px;
      }

      .cls-2 {
        fill: #e77700;
      }

      .cls-3 {
        fill: #68003c;
      }

      .cls-4 {
        fill: #f9f9f9;
      }

      .cls-5 {
        fill: #2b0000;
        isolation: isolate;
        opacity: .14;
      }

      .cls-6 {
        fill: #f8d591;
      }
    </style>
  </defs>
  <g id="Capa_1-2" data-name="Capa 1">
    <g>
      <path class="cls-5" d="m1166.79,575.07c0,87.64-31.4,167.2-82.47,225.76-1.19,1.37-2.4,2.73-3.62,4.08-.25.27-.49.54-.74.81H251.51c-24.79-42.41-39.21-92.9-39.31-147.13-.15-80.77,31.53-153.39,81.98-203.48,20.99-20.83,32.93-50.44,32.85-81.56v-.52c0-14.97,1.59-29.52,4.61-43.47,4.08-18.92,10.77-36.73,19.63-52.94,6.21-11.37,13.49-21.95,21.68-31.57,5.01-5.89,10.36-11.43,16.03-16.57,9.79-8.88,20.5-16.58,31.95-22.89,7.76-4.29,15.87-7.94,24.26-10.88,8.25-2.9,16.77-5.13,25.51-6.62,2.22-.38,4.45-.71,6.7-.99,1.51-.19,3.03-.36,4.54-.5.56-.05,1.12-.1,1.69-.15,4.08-.35,8.19-.53,12.35-.55.29,0,.57,0,.86,0,1.23,0,2.46.01,3.68.04,1.24.03,2.47.07,3.7.13,4.57.22,9.08.63,13.55,1.23.04,0,.07,0,.11.01,4.31.59,8.57,1.36,12.78,2.29,8.43,1.88,16.64,4.44,24.57,7.65,1.9.76,3.77,1.56,5.64,2.4,13.62,6.12,26.36,14.13,37.95,23.74,2.49,2.06,4.93,4.2,7.31,6.41,5.83,5.41,11.92,10.36,18.24,14.84,20.05,14.24,42.3,23.72,65.38,28.22,2.79.55,5.59,1.02,8.4,1.42,12.47,1.77,25.14,2.09,37.78.93,2.09-.19,4.18-.42,6.27-.7,4.66-.61,9.31-1.42,13.94-2.43.46-.09.91-.2,1.37-.31,4.01-.91,8.01-1.97,11.98-3.19,2.84-.87,5.67-1.82,8.49-2.85,5.35-1.96,10.77-3.75,16.26-5.37,5.44-1.61,10.94-3.05,16.49-4.32.67-.15,1.34-.31,2.01-.45.67-.15,1.33-.29,2-.43,4.57-.98,9.19-1.83,13.84-2.57,7.09-1.13,14.26-1.98,21.51-2.54,1.84-.14,3.68-.27,5.53-.37,5.02-.29,10.08-.43,15.17-.44,163.28-.19,295.99,145.89,295.99,325.84Z"/>
      <path class="cls-5" d="m1299.84,476.49c.06,34.24-14.74,65.03-38.31,86.27-9.81,8.83-15.39,21.37-15.35,34.58v.22c0,6.33-.75,12.51-2.16,18.43-1.91,8.02-5.03,15.56-9.17,22.43-2.91,4.83-6.31,9.3-10.14,13.39-2.34,2.49-4.84,4.84-7.48,7.02-4.58,3.77-9.59,7.03-14.94,9.7-3.63,1.82-7.41,3.37-11.34,4.61-3.85,1.23-7.83,2.18-11.91,2.81-1.05.16-2.08.3-3.14.42-.7.07-1.41.15-2.12.21-.26.02-.52.04-.79.06-1.91.15-3.83.22-5.77.24h-.4c-.57,0-1.15,0-1.72-.01-.57-.01-1.16-.04-1.73-.06-2.13-.09-4.24-.26-6.32-.52h-.05c-2.02-.25-4.02-.57-5.97-.97-3.94-.8-7.78-1.88-11.48-3.24-.89-.32-1.76-.66-2.63-1.02-6.37-2.59-12.32-5.99-17.73-10.06-1.16-.87-2.31-1.78-3.42-2.72-2.73-2.29-5.57-4.4-8.52-6.3-9.38-6.04-19.77-10.05-30.55-11.96-1.31-.24-2.62-.44-3.93-.6-5.82-.75-11.75-.89-17.66-.4-.97.07-1.95.17-2.93.3-2.17.25-4.34.6-6.51,1.02-.21.05-.42.09-.64.14-1.88.39-3.75.84-5.6,1.35-1.33.37-2.66.77-3.97,1.21-2.51.84-5.04,1.6-7.59,2.28-2.54.69-5.11,1.3-7.72,1.83l-.94.19-.94.19c-2.13.41-4.29.77-6.46,1.08-3.32.49-6.67.85-10.05,1.09-.86.05-1.72.11-2.58.15-2.36.12-4.71.19-7.1.19-76.29.09-138.29-61.85-138.29-138.14,0-20.44,4.44-39.84,12.41-57.29h-126.66c-11.58-17.98-18.32-39.38-18.36-62.38-.07-34.24,14.73-65.03,38.3-86.27,9.81-8.84,15.39-21.39,15.35-34.58v-.22c0-6.35.75-12.52,2.16-18.43,1.91-8.03,5.04-15.58,9.18-22.45,2.89-4.83,6.3-9.3,10.13-13.38,2.34-2.51,4.84-4.85,7.49-7.03,4.56-3.77,9.58-7.02,14.93-9.7,3.63-1.82,7.41-3.37,11.34-4.61,3.85-1.23,7.83-2.17,11.92-2.81,1.04-.16,2.07-.3,3.13-.41.7-.09,1.41-.16,2.12-.22.26-.01.52-.04.79-.06,1.91-.15,3.83-.22,5.77-.22.14-.01.26-.01.4-.01.57,0,1.15.01,1.72.02.57.01,1.16.02,1.73.05,2.13.1,4.24.27,6.33.52.01,0,.02.01.05.01,2.01.25,4,.57,5.96.97,3.94.79,7.78,1.88,11.48,3.24.89.32,1.77.66,2.63,1.01,6.37,2.59,12.32,6,17.73,10.06,1.17.87,2.31,1.78,3.42,2.73,2.73,2.28,5.57,4.39,8.52,6.28,9.38,6.04,19.76,10.06,30.55,11.96,1.31.24,2.62.44,3.93.61,5.82.75,11.75.89,17.66.39.97-.07,1.96-.17,2.93-.29,2.17-.26,4.35-.6,6.51-1.04.21-.04.42-.09.65-.12,1.87-.39,3.74-.85,5.6-1.36,1.32-.37,2.64-.77,3.95-1.21,2.51-.82,5.04-1.58,7.61-2.28,2.53-.67,5.1-1.28,7.71-1.83l.94-.19.94-.19c2.13-.41,4.29-.77,6.47-1.08,3.3-.47,6.66-.84,10.04-1.07.86-.06,1.72-.11,2.59-.16,2.34-.12,4.7-.19,7.08-.19,76.29-.07,138.29,61.85,138.29,138.14,0,20.44-4.44,39.84-12.41,57.29h126.66c11.58,17.98,18.32,39.39,18.37,62.39Z"/>
      <path class="cls-5" d="m82.76,658.95c-25.8-22.52-39.2-53.94-39.64-85.66-.17-13.2-5.94-25.66-15.89-34.33l-.17-.15c-4.76-4.17-8.91-8.8-12.44-13.77-4.77-6.72-8.39-14.04-10.83-21.68-1.71-5.37-2.84-10.88-3.39-16.45-.33-3.41-.45-6.83-.35-10.25.18-5.92,1.03-11.85,2.55-17.63,1.02-3.93,2.35-7.79,4-11.57,1.61-3.71,3.52-7.33,5.74-10.81.57-.9,1.15-1.76,1.75-2.64.4-.57.82-1.16,1.24-1.73.15-.21.32-.42.47-.63,1.14-1.53,2.35-3.03,3.63-4.5l.26-.3c.38-.43.76-.86,1.14-1.29.39-.42.79-.85,1.19-1.26,1.47-1.55,2.99-3.02,4.56-4.41l.03-.04c1.52-1.36,3.08-2.64,4.67-3.85,3.2-2.44,6.54-4.61,10.01-6.5.83-.45,1.66-.89,2.5-1.31,6.15-3.08,12.62-5.32,19.25-6.71,1.42-.3,2.86-.56,4.3-.78,3.53-.54,6.98-1.29,10.35-2.26,10.72-3.08,20.58-8.24,29.13-15.1,1.04-.83,2.05-1.68,3.04-2.56,4.4-3.89,8.41-8.25,11.94-13.02.58-.78,1.15-1.58,1.71-2.4,1.24-1.8,2.41-3.66,3.52-5.57.1-.19.21-.38.32-.57.95-1.67,1.84-3.37,2.68-5.1.6-1.25,1.17-2.51,1.7-3.78,1.02-2.44,2.12-4.84,3.29-7.22,1.16-2.37,2.39-4.7,3.71-7.01l.48-.83c.16-.28.32-.55.48-.83,1.1-1.88,2.25-3.74,3.44-5.57,1.82-2.82,3.76-5.58,5.81-8.27.53-.68,1.05-1.37,1.59-2.04,1.46-1.86,2.97-3.67,4.54-5.46,50.21-57.44,137.66-63.26,195.04-12.98,15.37,13.47,27.04,29.59,34.91,47.08l83.47-95.27c21.16,3.14,41.69,12.17,59.01,27.3,25.81,22.51,39.21,53.93,39.65,85.65.18,13.21,5.95,25.67,15.89,34.33l.17.15c4.77,4.18,8.92,8.81,12.44,13.77,4.78,6.73,8.39,14.05,10.83,21.69,1.72,5.36,2.85,10.87,3.39,16.43.34,3.41.46,6.84.35,10.27-.18,5.91-1.03,11.83-2.54,17.62-1.02,3.93-2.35,7.79-4,11.57-1.61,3.71-3.53,7.32-5.75,10.82-.56.89-1.14,1.75-1.75,2.63-.39.58-.81,1.17-1.23,1.74-.16.21-.32.42-.47.63-1.14,1.53-2.35,3.03-3.64,4.49-.08.11-.16.21-.25.31-.38.43-.77.85-1.15,1.28s-.78.86-1.18,1.27c-1.48,1.54-3,3.01-4.57,4.42,0,0-.03.01-.04.03-1.51,1.35-3.07,2.63-4.66,3.84-3.19,2.45-6.54,4.61-10.01,6.5-.83.45-1.66.9-2.49,1.31-6.15,3.08-12.63,5.31-19.25,6.71-1.43.31-2.86.56-4.31.77-3.52.55-6.97,1.3-10.34,2.26-10.72,3.08-20.59,8.23-29.13,15.1-1.04.83-2.05,1.68-3.05,2.55-4.4,3.89-8.41,8.25-11.93,13.03-.58.78-1.16,1.59-1.72,2.39-1.23,1.8-2.42,3.67-3.51,5.58-.11.18-.21.38-.33.57-.94,1.66-1.83,3.37-2.67,5.11-.59,1.24-1.16,2.5-1.7,3.77-1.03,2.43-2.13,4.83-3.3,7.23-1.16,2.35-2.4,4.68-3.7,7l-.48.83c-.16.28-.32.55-.48.83-1.1,1.87-2.25,3.74-3.45,5.58-1.82,2.8-3.76,5.56-5.81,8.26-.52.69-1.05,1.37-1.59,2.06-1.45,1.85-2.96,3.66-4.53,5.45-50.22,57.43-137.66,63.26-195.04,12.98-15.37-13.47-27.04-29.59-34.91-47.08l-83.47,95.27c-21.16-3.14-41.7-12.18-59.03-27.3Z"/>
      <g id="g20519">
        <polygon class="cls-6" points="85.72 730.57 359.88 840 460.61 764.62 179.99 679.11 85.72 730.57"/>
        <polygon class="cls-3" points="179.99 679.11 460.61 764.62 460.61 539.86 179.99 497.75 179.99 679.11"/>
        <polygon class="cls-2" points="179.99 679.11 378.64 598.98 378.64 466.73 179.99 497.75 179.99 679.11"/>
        <polygon class="cls-6" points="378.64 466.73 378.64 598.98 647.05 667.8 647.05 497.42 378.64 466.73 378.64 466.73"/>
        <polygon class="cls-6" points="460.61 764.62 647.05 667.8 647.05 497.42 460.61 539.86 460.61 764.62"/>
        <polygon class="cls-2" points="179.99 497.75 460.61 539.86 647.05 497.42 378.64 466.73 179.99 497.75"/>
        <polygon class="cls-6" points="98.48 692.31 179.99 679.11 179.99 497.75 98.48 497.89 98.48 692.31"/>
        <polygon class="cls-2" points="412.07 820.09 460.61 764.62 460.61 539.86 412.07 575.03 412.07 820.09"/>
        <polygon class="cls-1" points="125.27 434.36 179.99 497.75 460.61 539.86 404.17 448.98 125.27 434.36"/>
      </g>
      <g id="g21472">
        <polygon class="cls-2" points="641.33 319.56 533.9 415.98 1054.78 415.98 947.36 319.56 641.33 319.56"/>
        <rect class="cls-6" x="533.9" y="415.98" width="520.88" height="389.74"/>
        <polygon class="cls-1" points="765.56 319.56 745.35 415.98 843.34 415.98 823.13 319.56 765.56 319.56"/>
        <polygon class="cls-3" points="746.63 512.4 842.65 512.4 843.34 415.98 745.35 415.98 746.63 512.4"/>
        <rect class="cls-4" x="858.79" y="679.04" width="157.47" height="91.91"/>
        <rect class="cls-3" x="868.98" y="701.44" width="68.01" height="7.6"/>
        <rect class="cls-3" x="868.98" y="716.36" width="137.1" height="7.6"/>
        <rect class="cls-3" x="868.98" y="730.82" width="137.1" height="7.6"/>
        <rect class="cls-3" x="868.98" y="745.28" width="137.1" height="7.6"/>
      </g>
      <g id="g16983">
        <polygon class="cls-2" points="599.59 122.94 907.07 122.94 646.2 28.52 599.59 122.94"/>
        <polygon class="cls-2" points="727.3 390.64 907.07 351.53 907.07 122.94 727.3 97.62 727.3 390.64"/>
        <polygon class="cls-6" points="599.59 351.53 727.3 390.64 727.3 97.62 599.59 122.94 599.59 351.53"/>
        <polygon class="cls-6" points="681.62 0 727.3 97.62 907.07 122.94 850.77 45.76 681.62 0"/>
        <polygon class="cls-3" points="647.05 366.07 669.05 372.8 669.05 109.17 647.05 113.53 647.05 366.07"/>
        <polygon class="cls-4" points="748.51 160.87 786.94 162.53 786.94 127.14 748.51 122.4 748.51 160.87"/>
        <polygon class="cls-3" points="681.62 0 690.9 19.84 860.6 59.25 850.76 45.76 681.62 0"/>
      </g>
    </g>
  </g>
</svg>