<?xml version="1.0" encoding="UTF-8"?>
<svg id="Capa_2" data-name="Capa 2" xmlns="http://www.w3.org/2000/svg" xmlns:xlink="http://www.w3.org/1999/xlink" viewBox="0 0 1073.37 840">
  <defs>
    <style>
      .cls-1 {
        fill: url(#_ÂÁ_Ï_ÌÌ_È_ËÂÌÚ_891);
      }

      .cls-1, .cls-2, .cls-3, .cls-4, .cls-5, .cls-6, .cls-7, .cls-8, .cls-9 {
        stroke-width: 0px;
      }

      .cls-2 {
        fill: #4f06e1;
      }

      .cls-3 {
        fill: #fcc400;
      }

      .cls-4 {
        fill: #2351fa;
      }

      .cls-5 {
        fill: #e77700;
      }

      .cls-6 {
        fill: url(#_ÂÁ_Ï_ÌÌ_È_ËÂÌÚ_880);
      }

      .cls-7 {
        fill: #68003c;
      }

      .cls-8 {
        fill: #2b0000;
        isolation: isolate;
        opacity: .14;
      }

      .cls-9 {
        fill: #f8d591;
      }
    </style>
    <linearGradient id="_ÂÁ_Ï_ÌÌ_È_ËÂÌÚ_891" data-name="¡ÂÁ˚ÏˇÌÌ˚È „‡‰ËÂÌÚ 891" x1="467.81" y1="480.43" x2="615.82" y2="480.43" gradientUnits="userSpaceOnUse">
      <stop offset="0" stop-color="#6c4bdd"/>
      <stop offset="1" stop-color="#b167fc"/>
    </linearGradient>
    <linearGradient id="_ÂÁ_Ï_ÌÌ_È_ËÂÌÚ_880" data-name="¡ÂÁ˚ÏˇÌÌ˚È „‡‰ËÂÌÚ 880" x1="-6500.99" y1="797.9" x2="-6488.84" y2="712.82" gradientTransform="translate(-5800.04) rotate(-180) scale(1 -1)" gradientUnits="userSpaceOnUse">
      <stop offset="0" stop-color="#faf6e9"/>
      <stop offset=".21" stop-color="#f2f0e7"/>
      <stop offset=".52" stop-color="#dddfe5"/>
      <stop offset=".9" stop-color="#bbc4e0"/>
      <stop offset="1" stop-color="#b2bddf"/>
    </linearGradient>
  </defs>
  <g id="Capa_1-2" data-name="Capa 1">
    <g>
      <path class="cls-8" d="m771.26,552.85c.08,45.64-19.65,86.68-51.06,114.99-13.08,11.77-20.51,28.49-20.46,46.09v.3c0,8.44-1,16.67-2.87,24.57-2.54,10.69-6.7,20.74-12.22,29.9-3.87,6.43-8.41,12.4-13.51,17.85-3.12,3.32-6.45,6.45-9.97,9.36-6.1,5.02-12.78,9.37-19.91,12.93-4.84,2.43-9.87,4.49-15.11,6.15-5.14,1.65-10.44,2.91-15.87,3.74-1.4.22-2.78.4-4.19.57-.93.1-1.88.2-2.83.28-.35.03-.7.05-1.05.08-2.54.2-5.1.3-7.7.32h-.53c-.76,0-1.53,0-2.29-.02-.76-.02-1.55-.05-2.31-.08-2.84-.12-5.65-.35-8.43-.7h-.07c-2.69-.33-5.35-.76-7.96-1.3-5.25-1.06-10.37-2.51-15.31-4.32-1.18-.43-2.34-.88-3.51-1.36-8.49-3.46-16.42-7.98-23.64-13.41-1.55-1.16-3.08-2.38-4.55-3.62-3.64-3.06-7.43-5.87-11.35-8.39-12.5-8.04-26.34-13.4-40.72-15.94-1.75-.32-3.49-.58-5.24-.8-7.76-1-15.66-1.18-23.54-.53-1.3.1-2.59.23-3.91.4-2.89.33-5.78.8-8.68,1.36-.28.07-.56.12-.85.18-2.51.52-5,1.11-7.46,1.8-1.78.5-3.54,1.03-5.29,1.61-3.34,1.11-6.72,2.13-10.12,3.04-3.39.91-6.81,1.73-10.29,2.44l-1.25.25c-.42.08-.83.17-1.25.25-2.84.55-5.72,1.03-8.61,1.45-4.42.65-8.89,1.13-13.4,1.45-1.15.07-2.29.15-3.44.2-3.14.17-6.28.25-9.46.25-101.69.12-184.33-82.44-184.33-184.13,0-27.24,5.92-53.1,16.54-76.36H24.47C9.03,499.71.05,471.19,0,440.54c-.1-45.64,19.63-86.68,51.04-114.99,13.08-11.78,20.51-28.51,20.46-46.09v-.3c0-8.46,1-16.69,2.88-24.57,2.54-10.7,6.72-20.76,12.23-29.92,3.86-6.43,8.39-12.4,13.5-17.83,3.12-3.34,6.45-6.47,9.99-9.37,6.08-5.02,12.77-9.36,19.9-12.93,4.84-2.43,9.87-4.49,15.11-6.15,5.14-1.65,10.44-2.89,15.89-3.74,1.38-.22,2.76-.4,4.17-.55.93-.12,1.88-.22,2.83-.3.35-.02.7-.05,1.05-.08,2.54-.2,5.1-.3,7.7-.3.18-.02.35-.02.53-.02.76,0,1.53.02,2.29.03.76.02,1.55.03,2.31.07,2.84.13,5.65.37,8.44.7.02,0,.03.02.07.02,2.68.33,5.34.76,7.94,1.3,5.25,1.05,10.37,2.51,15.31,4.32,1.18.43,2.36.88,3.51,1.35,8.49,3.46,16.42,7.99,23.63,13.41,1.56,1.16,3.08,2.38,4.55,3.64,3.64,3.04,7.43,5.85,11.35,8.38,12.5,8.04,26.34,13.41,40.72,15.94,1.74.32,3.49.58,5.24.81,7.76,1,15.66,1.18,23.54.52,1.3-.1,2.61-.23,3.91-.38,2.89-.35,5.8-.8,8.68-1.38.28-.05.56-.12.86-.17,2.49-.52,4.99-1.13,7.46-1.81,1.76-.5,3.52-1.03,5.27-1.61,3.34-1.1,6.72-2.11,10.14-3.04,3.37-.9,6.8-1.71,10.27-2.44l1.25-.25c.42-.08.83-.17,1.25-.25,2.84-.55,5.72-1.03,8.63-1.45,4.4-.63,8.88-1.11,13.38-1.43,1.15-.08,2.29-.15,3.46-.22,3.13-.17,6.27-.25,9.44-.25,101.69-.1,184.33,82.44,184.33,184.13,0,27.24-5.92,53.1-16.54,76.36h168.82c15.44,23.97,24.42,52.51,24.48,83.16Z"/>
      <path class="cls-8" d="m386.09,799.63c-36-28.05-56.17-68.88-59.12-111.06-1.21-17.55-9.81-33.71-23.7-44.51l-.24-.18c-6.65-5.2-12.52-11.06-17.58-17.4-6.85-8.59-12.21-18.06-16.03-28.04-2.68-7.01-4.59-14.26-5.74-21.64-.69-4.51-1.11-9.05-1.23-13.62-.2-7.9.49-15.84,2.08-23.65,1.07-5.3,2.55-10.54,4.46-15.69,1.87-5.06,4.14-10.01,6.83-14.81.69-1.23,1.4-2.43,2.14-3.65.49-.79,1-1.6,1.52-2.4.19-.3.39-.58.58-.88,1.41-2.13,2.91-4.2,4.49-6.26l.33-.42c.47-.6.94-1.2,1.43-1.8.48-.59.99-1.19,1.49-1.77,1.84-2.17,3.76-4.24,5.74-6.21l.04-.05c1.92-1.92,3.9-3.74,5.93-5.47,4.07-3.48,8.37-6.62,12.83-9.4,1.07-.66,2.14-1.3,3.23-1.92,7.96-4.56,16.4-8.02,25.13-10.35,1.87-.5,3.77-.96,5.66-1.35,4.65-.98,9.2-2.24,13.61-3.77,14.04-4.89,26.78-12.5,37.64-22.26,1.32-1.18,2.61-2.39,3.85-3.63,5.57-5.5,10.58-11.61,14.92-18.21.72-1.08,1.41-2.19,2.09-3.32,1.52-2.48,2.93-5.05,4.27-7.67.12-.26.26-.52.38-.78,1.14-2.29,2.2-4.63,3.18-6.98.7-1.71,1.37-3.42,1.99-5.16,1.18-3.32,2.46-6.6,3.84-9.85,1.37-3.23,2.84-6.43,4.41-9.61l.57-1.14c.19-.38.38-.76.57-1.14,1.32-2.58,2.71-5.14,4.16-7.67,2.21-3.88,4.59-7.7,7.11-11.44.65-.94,1.29-1.9,1.96-2.83,1.8-2.58,3.67-5.1,5.63-7.6,62.55-80.17,178.5-94.41,258.6-31.76,21.46,16.78,38.19,37.38,49.96,60.07l104-132.98c28.39,2.6,56.39,13.1,80.56,31.95,36.01,28.04,56.18,68.86,59.13,111.04,1.22,17.56,9.82,33.72,23.7,44.51l.24.18c6.66,5.21,12.53,11.07,17.58,17.4,6.87,8.6,12.22,18.08,16.03,28.07,2.69,7,4.6,14.25,5.73,21.62.71,4.52,1.12,9.06,1.23,13.64.21,7.88-.49,15.82-2.07,23.64-1.07,5.31-2.55,10.54-4.46,15.69-1.87,5.06-4.15,10-6.84,14.82-.68,1.22-1.39,2.42-2.14,3.62-.48.81-.99,1.61-1.5,2.41-.2.29-.39.58-.58.88-1.41,2.13-2.91,4.2-4.51,6.25-.1.15-.2.29-.31.43-.47.6-.96,1.19-1.44,1.79-.48.59-.98,1.2-1.48,1.78-1.86,2.16-3.77,4.23-5.75,6.22-.01.01-.03.02-.05.04-1.91,1.9-3.89,3.73-5.92,5.46-4.06,3.49-8.37,6.62-12.83,9.4-1.07.66-2.15,1.32-3.22,1.93-7.96,4.56-16.41,8.01-25.13,10.35-1.88.51-3.77.96-5.67,1.35-4.64.99-9.19,2.25-13.59,3.78-14.04,4.89-26.8,12.49-37.64,22.26-1.32,1.18-2.61,2.39-3.87,3.62-5.57,5.5-10.58,11.61-14.9,18.22-.72,1.08-1.42,2.2-2.11,3.31-1.51,2.49-2.95,5.06-4.26,7.68-.13.25-.26.52-.4.78-1.13,2.28-2.18,4.62-3.17,6.99-.69,1.7-1.36,3.41-1.98,5.14-1.19,3.31-2.47,6.59-3.85,9.86-1.37,3.21-2.84,6.41-4.4,9.6l-.57,1.14-.57,1.14c-1.32,2.58-2.71,5.14-4.18,7.69-2.22,3.86-4.59,7.68-7.12,11.42-.64.95-1.3,1.9-1.96,2.86-1.79,2.56-3.66,5.09-5.62,7.59-62.57,80.16-178.5,94.41-258.6,31.76-21.46-16.78-38.19-37.38-49.96-60.07l-104,132.98c-28.39-2.6-56.4-13.11-80.58-31.94Z"/>
      <g>
        <path class="cls-9" d="m350.77,616.39c-1-17.82-5.08-35.37-12.06-51.88l-17.39-41.05h-53.66l-8.4,4.57-19.79,10.77c-32.7,17.78-53.05,52.03-53.05,89.25v149.35l142.84.94c10.94.07,19.87-8.7,20.01-19.62l.36-27.5.42-32.24.95-71.75c.06-3.62-.03-7.24-.24-10.84Zm-106.54,26.76c0,1.84-.41,3.58-1.15,5.13-1.92,4.04-6.04,6.84-10.83,6.84-6.62,0-11.98-5.37-11.98-11.98v-58.12c0-6.62,5.36-11.98,11.98-11.98,3.31,0,6.31,1.33,8.47,3.51,2.16,2.17,3.51,5.16,3.51,8.47v58.12Z"/>
        <path class="cls-5" d="m317.89,501.67v14.63h-49.18v-14.63c0-11.19,7.47-20.64,17.7-23.62,2.19-.65,4.5-.98,6.9-.98,13.58,0,24.58,11.01,24.58,24.6Z"/>
        <path class="cls-5" d="m351,627.23l-.95,71.75-.42,32.24h-48.06c-14.26,0-25.82-11.57-25.82-25.83v-76.32c0-2.54.76-4.91,2.05-6.9,2.26-3.48,6.18-5.78,10.63-5.78h62.34c.21,3.6.29,7.22.24,10.84Z"/>
        <path class="cls-5" d="m322.07,525.28h-57.71c0-4.85,1.96-9.24,5.15-12.43,3.18-3.18,7.57-5.15,12.44-5.15h22.55c9.7,0,17.57,7.87,17.57,17.57Z"/>
        <polygon class="cls-7" points="576 36.76 372.85 65.59 370.95 52.21 367.63 28.83 446.52 17.64 570.79 0 576 36.76"/>
        <path class="cls-5" d="m862.12,286.82l-15.18,30.97-99.89,202.62c-4.82,9.85-16.56,13.99-26.41,9.51-.42-.16-.86-.37-1.3-.61-5.75-3.1-9.38-8.58-10.36-14.54-.75-4.58,36.36-82.36,38.96-86.66l92.52-152.98,21.65,11.69Z"/>
        <path class="cls-3" d="m862.66,308c-6.23,11.56-20.66,15.88-32.22,9.64-11.56-6.23-15.88-20.66-9.64-32.22,6.23-11.56,20.66-15.88,32.22-9.64,11.56,6.23,15.88,20.66,9.64,32.22Z"/>
        <polygon class="cls-7" points="964.62 289.08 947 321.76 839.72 263.9 766.4 224.36 784.03 191.69 840.22 221.99 964.62 289.08"/>
        <path class="cls-5" d="m955.41,331.43c-3.23,6-8.94,9.78-15.18,10.8-4.44.73-9.16.05-13.41-2.25l-168.21-90.71c-10.25-5.53-14.08-18.34-8.56-28.59.05-.06.09-.16.13-.22,3.26-5.86,8.89-9.57,15.04-10.58,4.44-.73,9.16-.05,13.41,2.25l151.61,81.72,16.59,8.96c10.25,5.56,14.08,18.34,8.56,28.62Z"/>
        <path class="cls-3" d="m487.66,49.3l6.17,33.93,89.23,500.65c1.96,10.79-5.02,21.09-15.61,23.33-.44.12-.91.21-1.41.28-6.47.92-12.64-1.33-16.97-5.55-3.32-3.24-5.54-7.6-6-12.61L463.29,52.75l24.37-3.45Z"/>
        <path class="cls-2" d="m757.55,387l-.45,2.23-5.53,28.26-32.65,166.13-25.29,128.8h-185.04c-7.73,0-14.28-6.02-15.47-14.23l-8.26-56.95-2.45-17-7.69-53.39-1.85-12.68-.65-4.38-1.67-11.5-4.22-29.23-13.8-95.58-4.42-30.49h309.42Z"/>
        <path class="cls-9" d="m904.09,583.74l-14.95,24.18,14.95,27.49-15.95,24.44,15.95,28.95-15.95,26.32,15.95,25.66-12.17,14.14c-5.13,5.96-11.18,11.07-17.9,15.16-5.53,3.37-12.68,7.36-20.39,10.76-6.86,3.02-14.18,5.58-21.2,6.82-2.38.42-4.74.69-7.03.77-3.62.13-6.09-4.95-7.69-13.77-9.72-54.36,14.49-251.04,14.49-251.04h71.89l-17.94,32.07,17.94,28.05Z"/>
        <path class="cls-3" d="m853.63,523.61v257.22c-6.86,3.02-14.18,5.58-21.2,6.82l-14.71-13c-9.72-54.36,14.49-251.04,14.49-251.04h21.43Z"/>
        <path class="cls-1" d="m613.58,445.75c-28.68,23.48-59.32,43.41-91.07,59.16-15.91,7.9-33.92,16.32-52.82,21.11l-1.88-12.11c17.14-4.5,33.59-12.23,49.26-20.01,30.89-15.34,60.75-34.73,88.7-57.64,2.66-2.17,6.5-1.8,8.67.82,2.13,2.62,1.76,6.5-.86,8.67Z"/>
        <path class="cls-9" d="m834.23,523.25v264.74c0,8.82-35.8,15.96-79.98,15.96-17.97,0-34.58-1.19-47.95-3.2-4.36-.63-8.37-1.37-11.98-2.2-12.5-2.79-20.07-6.51-20.07-10.56v-264.74h159.98Z"/>
        <g>
          <path class="cls-5" d="m700.36,551.42c3.33,0,6.04-2.7,6.04-6.04v-10.35c0-3.33-2.7-6.04-6.04-6.04s-6.04,2.7-6.04,6.04v10.35c0,3.33,2.7,6.04,6.04,6.04Z"/>
          <path class="cls-5" d="m694.32,567.57v22.18c0,3.35,2.71,6.04,6.04,6.04s6.04-2.69,6.04-6.04v-22.18c0-3.33-2.69-6.04-6.04-6.04s-6.04,2.71-6.04,6.04Zm0,44.38v22.18c0,3.33,2.71,6.04,6.04,6.04s6.04-2.71,6.04-6.04v-22.18c0-3.35-2.69-6.04-6.04-6.04s-6.04,2.69-6.04,6.04Zm0,44.36v22.2c0,3.33,2.71,6.04,6.04,6.04s6.04-2.71,6.04-6.04v-22.2c0-3.33-2.69-6.04-6.04-6.04s-6.04,2.71-6.04,6.04Zm0,44.38v22.18c0,3.35,2.71,6.04,6.04,6.04s6.04-2.69,6.04-6.04v-22.18c0-3.33-2.69-6.04-6.04-6.04s-6.04,2.71-6.04,6.04Zm0,44.38v22.18c0,3.33,2.71,6.04,6.04,6.04s6.04-2.71,6.04-6.04v-22.18c0-3.35-2.69-6.04-6.04-6.04s-6.04,2.69-6.04,6.04Z"/>
          <path class="cls-6" d="m694.32,789.43v9.12c3.6.83,7.62,1.57,11.99,2.21.05-.33.09-.66.09-.98v-10.35c0-3.33-2.69-6.04-6.04-6.04s-6.04,2.71-6.04,6.04Z"/>
        </g>
        <ellipse class="cls-3" cx="754.25" cy="523.25" rx="79.98" ry="15.95"/>
        <path class="cls-5" d="m795.63,523.25c0,4.56-18.53,8.25-41.37,8.25-.48,0-.95,0-1.43-.01-22.19-.14-39.94-3.77-39.94-8.23s18.53-8.25,41.37-8.25c.88,0,1.77,0,2.64.01,21.63.28,38.74,3.86,38.74,8.23Z"/>
        <path class="cls-7" d="m613.58,445.75c-28.68,23.48-59.32,43.41-91.07,59.16-15.91,7.9-33.92,16.32-52.82,21.11-6.18,1.64-12.48,2.82-18.82,3.48-2.45.29-4.99.41-7.57.41-16.08,0-34.32-5.03-44.14-17.26-4.99-6.18-9.78-16.86-4.58-32.65,3.4-10.19,10.19-18.57,15.75-24.79,13.87-15.42,26.55-29.21,41.65-41.89.08-.04.12-.12.2-.16l2.21,14.28c-12.19,10.92-23.11,22.83-34.94,36-5.03,5.65-10.56,12.48-13.21,20.46-2.82,8.55-2.05,15.46,2.45,21.07,8.14,10.06,26.76,13.83,40.91,12.36,6.14-.65,12.23-1.84,18.21-3.4,17.14-4.5,33.59-12.23,49.26-20.01,30.89-15.34,60.75-34.73,88.7-57.64,2.66-2.17,6.5-1.8,8.67.82,2.13,2.62,1.76,6.5-.86,8.67Z"/>
        <circle class="cls-3" cx="614.88" cy="440.98" r="20.97"/>
        <path class="cls-7" d="m626.79,440.98c0,6.58-5.33,11.91-11.91,11.91s-11.91-5.33-11.91-11.91,5.33-11.91,11.91-11.91,11.91,5.33,11.91,11.91Z"/>
        <path class="cls-7" d="m359.32,469.31c-.09,25.17-28.75,52-43.64,64.21-2.54,2.08-5.63,3.12-8.76,3.12-2.94,0-5.91-.95-8.39-2.85-.21-.15-.4-.34-.58-.52-2.2-2.24-2.14-5.94.31-8.02,13.35-11.27,20.88-30.19,24.93-44.65,3.15-11.36,4.16-19.93,4.16-19.93,0,0,32.12-25.36,31.97,8.64Z"/>
        <path class="cls-9" d="m505.48,707.73l-13.2,78.33c-1.22,7.23-7.47,12.52-14.79,12.52h-126.13c-4.26,0-7.72-3.4-7.78-7.66-.25-15.98-.67-54.48.12-90.86.61-28.88,13.14-52.09,22.84-65.84,7.41-10.47,11.45-22.94,11.58-35.77l.28-25.48-5.57-9.86c-5.36-9.49,1.5-21.28,12.43-21.28h65.68c12.19,0,23.24,7.26,28.08,18.43l18.8,43.33c22.97,53.07,7.66,104.11,7.66,104.11Z"/>
        <path class="cls-4" d="m498.19,714.53l-11.97,65.62c-1.1,6.06-6.77,10.5-13.41,10.5h-114.43c-3.86,0-7.01-2.85-7.04-6.43-.15-7.53-.31-21.04-.31-36.84,0-12.28.09-25.97.4-39.29.52-23.49,11.27-42.47,19.97-54.11h128.7c6.89,33.44-1.9,60.54-1.9,60.54Z"/>
        <ellipse class="cls-2" cx="435.68" cy="653.98" rx="64.31" ry="11.13"/>
        <path class="cls-4" d="m432.82,649.39h0c-2.93,0-5.13-2.73-4.44-5.58,16.67-68.55-13.34-113.98-13.76-114.61-1.44-2.08-.89-4.93,1.19-6.37,2.11-1.44,4.96-.89,6.4,1.19.45.66,32.62,49.33,15.05,121.89-.49,2.04-2.35,3.48-4.45,3.48Z"/>
        <path class="cls-5" d="m500.67,66.03c1.85,13-7.2,25.04-20.2,26.89-13,1.85-25.04-7.2-26.89-20.2-1.85-13,7.2-25.04,20.2-26.89,13-1.85,25.04,7.2,26.89,20.2Z"/>
        <path class="cls-7" d="m476.6,479.29c-9.03,6.92-22.48,20.39-22.14,39.1h-65.87s-7.07-43.57-67.31-52.58c-.83-.12-1.65-.24-2.48-.34-.67-.09-1.35-.18-2.02-.28-.28-.03-.55-.06-.86-.09-1.47-.15-2.97-.31-4.53-.4-1.72-.15-3.46-.28-5.27-.34-1.78-.09-3.61-.15-5.51-.15h-.12c-4.35-.12-7.84-3.61-7.84-7.99v-18.16c0-4.41,3.58-7.99,7.99-7.99h135.29c18.04,0,34.36,10.75,41.49,27.35l2.97,6.89c2.27,5.27.77,11.48-3.8,14.97Z"/>
        <path class="cls-2" d="m321.29,430.08v35.74c-1.47-.21-2.97-.43-4.5-.61-.28-.03-.55-.06-.86-.09-1.47-.15-2.97-.31-4.53-.4-1.72-.15-3.46-.28-5.27-.34-1.78-.09-3.61-.15-5.51-.15h-.12c-4.35-.12-7.84-3.61-7.84-7.99v-18.16c0-1.16.25-2.27.73-3.25,1.22-2.82,4.01-4.75,7.26-4.75h20.64Z"/>
        <path class="cls-2" d="m427.4,748.53l174.95-11.42c1.72-.11,3.45-.08,5.16.09l114.23,11.33-54.17,24.5-216.91-7.69-23.26-16.82Z"/>
        <path class="cls-3" d="m456.78,466.99c0,6.16-4.99,11.15-11.15,11.15s-11.15-4.99-11.15-11.15,4.99-11.15,11.15-11.15,11.15,4.99,11.15,11.15Z"/>
        <path class="cls-4" d="m407.76,518.39h-19.17s-7.07-43.57-67.31-52.58c-.83-.12-1.65-.24-2.48-.34l2.48-8.45s70.34,4.2,86.14,60.14c.12.43.24.83.34,1.22Z"/>
        <path class="cls-7" d="m466.13,528.56v3.12c0,6.49-5.27,11.73-11.73,11.73h-67c-6.49,0-11.76-5.24-11.76-11.73v-3.12c0-6.49,5.27-11.73,11.76-11.73h67c6.46,0,11.73,5.24,11.73,11.73Z"/>
        <path class="cls-3" d="m589.23,29.82c.96,6.75-1.39,13.18-5.8,17.7-3.14,3.22-7.35,5.48-12.13,6.16l-189.21,26.86c-11.53,1.64-22.22-6.4-23.86-17.93,0-.08-.02-.18-.02-.26-.86-6.65,1.47-12.98,5.82-17.45,3.14-3.22,7.35-5.48,12.13-6.15l170.52-24.24,18.67-2.64c11.55-1.62,22.22,6.4,23.88,17.95Z"/>
        <path class="cls-7" d="m714.55,772.79v55.17c0,6.65-5.4,12.05-12.05,12.05h-18.74c0-3.39-2.64-6.11-5.86-6.11s-5.9,2.72-5.9,6.11h-58.05c0-4.35-3.43-7.86-7.61-7.86s-7.57,3.51-7.57,7.86h-55.71c-6.65,0-12.05-5.4-12.05-12.05v-55.17h183.53Z"/>
        <path class="cls-2" d="m580.83,772.79v55.17c0,6.65-4.04,12.05-9.01,12.05h-14.02c0-3.39-1.97-6.11-4.38-6.11s-4.41,2.72-4.41,6.11h-43.42c0-4.35-2.57-7.86-5.69-7.86s-5.66,3.51-5.66,7.86h-41.67c-4.97,0-9.01-5.4-9.01-12.05v-55.17h137.28Z"/>
        <path class="cls-4" d="m715.18,784.12c0,5.27,3.05,9.83,7.45,12.05,1.38.71,2.22,2.09,2.22,3.64v16.81c0,1.71-1.38,3.09-3.09,3.09h-148.4c0-.92-.08-1.84-.25-2.72-.04-.08-.04-.21-.08-.33-.17-.75-.42-1.51-.71-2.22-.25-.5-.5-1.05-.79-1.55-.17-.25-.33-.54-.5-.79-.33-.54-.75-1.05-1.21-1.51-.21-.25-.46-.5-.71-.71-.25-.29-.54-.54-.84-.75-.59-.5-1.21-.92-1.88-1.25-.25-.17-.5-.29-.75-.42-.96-.46-2.05-.84-3.18-1.05-.42-.08-.88-.17-1.34-.21-.46-.04-.96-.08-1.42-.08s-.96.04-1.42.08c-.46.04-.92.13-1.34.21-.75.13-1.42.33-2.09.59-.29.13-.59.21-.84.33-.38.17-.71.34-1.05.54-.67.33-1.3.75-1.88,1.25-.29.21-.59.46-.84.75-.13.12-.25.21-.33.33-.13.08-.25.25-.33.38-.46.42-.88.96-1.25,1.51-.25.38-.5.75-.67,1.13-.25.42-.46.79-.63,1.21-.17.42-.33.84-.46,1.25-.38,1.26-.59,2.59-.59,4.02h-21.04c-1.51,0-2.76-1.26-2.76-2.76v-65.25c0-1.76,1.42-3.18,3.18-3.18h20.49c1.3,0,2.51.71,3.01,1.92.17.42.38.79.59,1.17.17.33.38.67.59.96.25.42.54.84.88,1.21.29.33.59.67.92,1,.13.08.21.21.33.29.21.21.42.38.67.59.71.59,1.51,1.09,2.34,1.51.21.17.46.25.67.33.5.25,1.05.46,1.55.59.59.21,1.13.33,1.71.42.13.04.21.04.33.04.67.13,1.34.17,2.01.17,6.36,0,11.75-4.35,13.22-10.21h3.85c-.13.5-.21,1.05-.21,1.59,0,3.35,2.72,6.11,6.15,6.11,1.59,0,3.01-.59,4.1-1.59,1.25-1.13,2.05-2.72,2.05-4.52,0-.54-.08-1.09-.25-1.59h58.47c1.46,0,2.68,1,3.01,2.38,1.09,4.06,4.77,7.03,9.12,7.03s8.03-2.97,9.12-7.03c.33-1.38,1.55-2.38,3.01-2.38h48.68c1.71,0,3.09,1.38,3.09,3.1v16.81c0,1.55-.84,2.93-2.22,3.64-4.39,2.22-7.45,6.73-7.45,12.05Z"/>
        <path class="cls-7" d="m537.84,748.52v71.19h-62.44c0-.93-.08-1.84-.25-2.72-.04-.08-.04-.21-.08-.34-.17-.74-.41-1.5-.7-2.22-.25-.5-.5-1.04-.8-1.54-.17-.25-.34-.55-.5-.8-.34-.53-.74-1.04-1.21-1.5-.21-.25-.46-.5-.72-.72-.25-.29-.55-.55-.84-.74-.57-.5-1.21-.93-1.88-1.26-.25-.17-.5-.29-.74-.42-.97-.46-2.06-.83-3.18-1.04-.42-.08-.88-.17-1.35-.21-.45-.04-.95-.08-1.42-.08s-.97.04-1.42.08c-.46.04-.93.13-1.35.21-.74.13-1.42.32-2.09.57-.29.13-.59.21-.84.34-.36.17-.7.34-1.04.55-.67.34-1.3.76-1.88,1.26-.29.2-.59.45-.84.74-.13.13-.25.21-.34.34-.13.08-.25.25-.34.38-.45.42-.87.97-1.25,1.5-.25.38-.5.76-.67,1.14-.25.42-.46.79-.63,1.21-.17.42-.32.84-.45,1.26-.38,1.25-.59,2.59-.59,4.01h-21.04c-1.51,0-2.76-1.25-2.76-2.76v-65.24c0-1.75,1.42-3.18,3.18-3.18h20.49c.21,0,.41.01.6.06,1.05.18,1.99.86,2.41,1.87.17.42.36.8.57,1.18.17.34.38.67.59.95.25.42.55.84.88,1.22.29.34.57.67.91,1,.13.08.21.21.34.29.21.21.42.38.67.59.72.59,1.5,1.09,2.34,1.51.21.15.46.24.67.32.49.25,1.04.46,1.54.59.59.21,1.14.34,1.71.42.13.04.21.04.34.04.67.13,1.35.17,2.01.17,6.37,0,11.75-4.35,13.22-10.21h3.84c-.13.5-.21,1.05-.21,1.58,0,3.35,2.72,6.11,6.16,6.11,1.58,0,3-.59,4.1-1.58,1.25-1.14,2.05-2.72,2.05-4.53,0-.53-.08-1.08-.25-1.58h45.45Z"/>
        <path class="cls-7" d="m696.91,693.51v38.2c0,7.05-5.71,12.78-12.76,12.78h-162.61c-7.05,0-12.76-5.72-12.76-12.78v-38.2h188.14Z"/>
        <ellipse class="cls-5" cx="602.84" cy="693.51" rx="94.07" ry="14.44"/>
      </g>
    </g>
  </g>
</svg>