<?xml version="1.0" encoding="UTF-8"?>
<svg id="Capa_2" data-name="Capa 2" xmlns="http://www.w3.org/2000/svg" viewBox="0 0 1315.24 840">
  <defs>
    <style>
      .cls-1 {
        fill: #262246;
      }

      .cls-1, .cls-2, .cls-3, .cls-4, .cls-5, .cls-6, .cls-7 {
        stroke-width: 0px;
      }

      .cls-2 {
        fill: #e87700;
      }

      .cls-3 {
        fill: #fff;
      }

      .cls-4 {
        fill: #fdc500;
      }

      .cls-5 {
        fill: #2b0000;
        isolation: isolate;
        opacity: .14;
      }

      .cls-6 {
        fill: #68003c;
      }

      .cls-7 {
        fill: #2351fb;
      }
    </style>
  </defs>
  <g id="Capa_1-2" data-name="Capa 1">
    <g>
      <path class="cls-5" d="m1315.24,486.57c0,146.44-77.27,274.84-193.26,346.62h-428.2c-24.78-15.33-47.79-33.25-68.66-53.38-12.9,19.27-27.71,37.15-44.15,53.38H101.5C38.98,771.5.2,685.82,0,590.98c-.21-100.98,43.44-191.77,112.96-254.39,28.92-26.05,45.37-63.06,45.27-101.97v-.66C158.22,104.75,262.97,0,392.19,0c57.36,0,109.9,20.64,150.59,54.91,65.68,55.31,155.28,71.95,236.78,44.92,40.21-13.34,83.2-20.58,127.87-20.62,224.98-.25,407.82,182.38,407.81,407.36Z"/>
      <path class="cls-5" d="m1094.82,530.89c0,95.07-50.92,178.42-127.35,225.02h-282.17c-16.33-9.95-31.49-21.59-45.25-34.66-8.5,12.51-18.26,24.12-29.1,34.66h-315.96c-41.19-40.05-66.75-95.67-66.88-157.24-.14-65.56,28.62-124.49,74.44-165.14,19.06-16.91,29.9-40.93,29.83-66.2v-.43c0-83.88,69.02-151.88,154.18-151.88,37.8,0,72.42,13.4,99.23,35.64,43.28,35.91,102.32,46.71,156.03,29.16,26.5-8.66,54.83-13.36,84.27-13.39,148.25-.16,268.74,118.4,268.74,264.45Z"/>
      <path class="cls-5" d="m485.29,250.2c0,48.85-25.78,91.68-64.47,115.62h-142.84c-8.27-5.12-15.94-11.09-22.9-17.81-4.3,6.43-9.24,12.39-14.73,17.81H80.41c-20.85-20.58-33.79-49.16-33.86-80.8-.07-33.69,14.49-63.97,37.68-84.86,9.65-8.69,15.14-21.03,15.1-34.02v-.22c0-43.1,34.94-78.04,78.05-78.04,19.14,0,36.66,6.89,50.23,18.32,21.91,18.45,51.8,24,78.98,14.98,13.41-4.45,27.75-6.86,42.66-6.88,75.05-.08,136.04,60.84,136.04,135.89Z"/>
      <path class="cls-5" d="m1310.34,361.95c0,48.85-25.78,91.68-64.47,115.62h-142.84c-8.27-5.12-15.94-11.09-22.9-17.81-4.3,6.43-9.24,12.39-14.73,17.81h-159.94c-20.85-20.58-33.79-49.16-33.86-80.8-.07-33.69,14.49-63.97,37.68-84.86,9.65-8.69,15.14-21.03,15.1-34.02v-.22c0-43.1,34.94-78.04,78.05-78.04,19.14,0,36.66,6.89,50.23,18.32,21.91,18.45,51.8,24,78.98,14.98,13.41-4.45,27.75-6.86,42.66-6.88,75.05-.08,136.04,60.84,136.04,135.89Z"/>
      <g>
        <g>
          <ellipse class="cls-7" cx="366.37" cy="206.77" rx="64.23" ry="52.84"/>
          <path class="cls-4" d="m283.25,299.9c-4.46,33.42-8.92,66.85-13.39,100.27,8.07.9,16.13,1.8,24.2,2.7l5.41-103.75c-5.41.26-10.81.51-16.22.77Z"/>
          <rect class="cls-2" x="340.29" y="230.62" width="24.51" height="45.86" transform="translate(66.39 -73.09) rotate(13.06)"/>
          <path class="cls-2" d="m394.05,211.23c2.38-15.62-8.35-30.21-23.97-32.59-15.62-2.38-30.21,8.35-32.59,23.97-1.22,8,1.01,15.73,5.57,21.68.42,1.51.87,2.86,1.28,4,3.55,9.78,8.35,20.25,18.9,22.51,8.93,2.33,17.76-3.46,20.87-11.66,9.48-25,9.38-24.25,9.93-27.92Z"/>
          <circle class="cls-1" cx="380.75" cy="222.66" r="2.43"/>
          <circle class="cls-1" cx="362.49" cy="219.88" r="2.43"/>
          <path class="cls-1" d="m371.38,234.24c-.25,0-.06.02-3.72-.59-.42-.07-.7-.46-.63-.88.07-.42.47-.7.88-.63,3.7.61,3.55.65,3.77.46.23-.21.2.53-.47-10.02-.06-1.01,1.46-1.1,1.52-.1l.61,9.66c.07,1.15-.85,2.09-1.96,2.09Z"/>
          <path class="cls-1" d="m366.68,209.89c.44.2,2.49,1.16,2.36,2.08-.07.52-.8.81-.89.85-1.52.59-2.65-1.12-4.83-1.67-3.19-.8-5.93,1.54-6.29.94-.37-.62,3.18-5.14,9.65-2.2Z"/>
          <path class="cls-1" d="m380.91,212.7c-.48.06-2.72.37-2.87,1.3-.08.52.53,1.01.6,1.07,1.28,1.01,2.86-.29,5.11-.18,3.28.17,5.22,3.22,5.73,2.75.53-.49-1.52-5.85-8.57-4.94Z"/>
          <path class="cls-6" d="m272.63,416.37c-9.97,25.21-12.52,47.53-12.46,71.92.07,28.28.45,62.2,1.62,100.9-23.2,34.43-30.62,64.71-38.49,104.11-7.64,38.22-13.62,73.27-18.36,104.56,13.14.46,26.28.92,39.43,1.38,59.26-178.91,66.07-164.19,87.03-290.81,6.41-38.75,10.11-71.98,12.36-97.31-23.71,1.75-47.41,3.5-71.12,5.26Z"/>
          <path class="cls-6" d="m349.48,392.58s111.54,124.81,113.41,153.16c1.87,28.35-56.71,177.63-56.71,177.63-9.87-4.68-19.74-9.36-29.62-14.03,4.69-28.17,7.51-50.61,9.23-66.07,2.6-23.37,4.07-48.08,25.4-76.31-45.51-45.75-91.03-91.5-136.54-137.25,24.94-12.37,49.88-24.75,74.82-37.12Z"/>
          <path class="cls-4" d="m314.65,258.2l78.27,16.31c10.11,2.11,15.89,12.8,12.12,22.42l-51.13,130.32-81.85-4.46,20.81-149.25c1.46-10.45,11.45-17.49,21.78-15.34Z"/>
          <path class="cls-4" d="m207.85,786.52c-15.53,15.51-28.38,33.48-38.03,53.2,28.43.08,56.86.16,85.3.23-2.97-15.89-5.93-31.79-8.9-47.68-12.79-1.92-25.58-3.84-38.37-5.76Z"/>
          <path class="cls-7" d="m463.45,840c-44.81-.01-89.62-.03-134.43-.04l-11.62-57.9c-1.93-9.63,4.31-19,13.94-20.93l92.59-18.58c10.35-2.08,20.43,4.6,22.55,14.93,5.66,27.51,11.31,55.01,16.97,82.52Z"/>
          <path class="cls-4" d="m334.86,263.99c-8.24-3.91-16.49-7.82-24.73-11.72-11.94-5.66-26.18-2.92-35.17,6.77-38.43,41.43-76.86,82.85-115.29,124.28,15.62,6.52,31.24,13.04,46.85,19.57,42.78-46.3,85.55-92.59,128.33-138.89Z"/>
          <path class="cls-4" d="m372.58,270.27c4.99.78,9.97,1.56,14.96,2.34,13.13,2.05,22.56,13.73,21.79,27-2.55,44.38-5.11,88.76-7.66,133.14-3.75,11.16-15.27,16.91-24.71,13.9-7.38-2.35-12.77-9.81-13.13-18.54,2.92-52.61,5.83-105.23,8.75-157.84Z"/>
          <path class="cls-4" d="m380.26,695.88c-11.08,12.93-22.16,25.85-33.23,38.78,35.64,16.4,72.87,28.7,111.17,36.73.25-.39,4.51-7.45.92-14.48-2.31-4.52-6.47-6.29-7.65-6.74-19.76-7.55-35.16-23.6-39.38-45.39-10.61-2.97-21.22-5.93-31.84-8.9Z"/>
          <polygon class="cls-4" points="201.21 793.5 216.06 706.39 273.27 715.42 245.92 802.41 201.21 793.5"/>
          <path class="cls-4" d="m411.19,710.51c10.21-24.46,20.42-48.91,30.63-73.37-17.99-3.85-35.98-7.69-53.98-11.54l-11.67,77.44,35.01,7.47Z"/>
          <path class="cls-6" d="m319.41,256.66s-11.45,81.34-18.65,105.03c-7.21,23.68-30.11,30.89-30.11,30.89,0,0-10.8,54.44-10.47,95.71l98.43-48.86,7.08-28.36,21.86-138.46-12.31-1.92-6.96,44.23c-15.8,9.56-34.14,4.99-45.57-8.44,2-15.13,4.01-30.26,6.01-45.39l-9.31-4.41Z"/>
          <path class="cls-2" d="m337.77,263.01s1.22,11.27,10.74,13.59c9.53,2.32,13.26-8.59,13.26-8.59,0,0-16.46-13.31-24-5Z"/>
          <path class="cls-2" d="m369.88,416.13c-5.64,5-6.83,12.1-7.21,14.29-2.83,16.18-12.36,54.36-25.87,106.96,5.92,6.05,11.84,12.1,17.76,18.15,8.35-15.21,49.93-91.92,46.72-124.34-.45-4.56-1.41-14.27-8.37-18.54-6.74-4.13-17.03-1.86-23.04,3.48Z"/>
          <path class="cls-7" d="m389.28,798.69c-4.55,1.07-8.48-1.7-9.41-5.65l-117.42-498.08c-.97-4.12,1.58-8.24,5.7-9.21,4.55-1.07,8.48,1.7,9.41,5.65l117.42,498.08c.97,4.12-1.58,8.24-5.7,9.21Z"/>
          <path class="cls-2" d="m273.6,314.91c-35.05,20.25-70.11,40.5-105.16,60.75-13.87,8.33-17.94,26.42-9.78,39.13,7.47,11.64,23.43,16.01,36.56,9.27,29.09-26.6,58.18-53.2,87.27-79.8-2.96-9.78-5.92-19.57-8.88-29.35Z"/>
          <path class="cls-4" d="m251.72,327.54c14.16-15.51,13.87-16.35,17.98-18.76,4.81-2.82,13.27-3.87,18.82-3.76,2.88-.26,5.48,1.62,6.08,4.25.53,2.28-.54,4.75-2.67,6.03,4.74-.37,4.63,4.67.95,6.66,4.74,1.08,4.02,6.25.08,8.46.43.08,2.29.49,3.28,2.12,1.3,2.13-.4,5-1.35,6.66-1.39,2.42-2.9,3.76-7.05,7.14-5.37,4.38-8.09,6.58-9.75,7.37-2.12,1-5.34,2.16-9.65,2.45-5.58-9.54-11.15-19.07-16.73-28.61Z"/>
          <polygon class="cls-4" points="253.03 326.11 222.73 344.29 248.75 382.92 274.3 351.74 253.03 326.11"/>
          <path class="cls-4" d="m363.44,426.5c12.67,3.5,25.35,6.99,38.02,10.49l1.46-25.87-21.32-10.04c-5.66,4.83-11.33,9.65-16.99,14.48-.39,3.65-.77,7.29-1.16,10.94Z"/>
          <path class="cls-4" d="m343.75,520.78c-3.97-.01-7.91.63-11.67,1.89.55,2.32,1.09,4.63,1.64,6.95l-5,12.6c-2.67.4-5.34.81-8.01,1.21-2.3.6-3.98,2.49-4.18,4.63-.26,2.67,1.8,5.34,4.83,5.82-2.25,1.36-3.21,4.17-2.25,6.6.97,2.47,3.64,3.88,6.24,3.28-2.15,1.79-2.79,4.65-1.77,6.63,1.3,2.54,5.31,3.63,8.4,1.42-.13.18-3.01,4.51-1.35,6.98,1.43,2.13,5.6,2.42,7.72,1.19,4.89-2.83,9.79-5.67,14.68-8.5,3.1-1.8,5.28-4.84,5.98-8.36l6.37-32.05-21.62-10.3Z"/>
          <path class="cls-4" d="m349.15,488.73c-3.25,11.49-6.5,22.98-9.75,34.46l24.42,15.66c6.91-11.39,13.82-22.77,20.72-34.16-11.8-5.32-23.6-10.64-35.4-15.96Z"/>
          <path class="cls-6" d="m222.73,344.3c-.78,0-1.05-1.04-.38-1.42l30.19-17.37,13.2-14.7c.28-.31.76-.34,1.08-.06.31.28.34.76.06,1.08-14.12,15.72-13.31,14.84-13.47,14.94-32.43,18.65-30.36,17.53-30.68,17.53Z"/>
          <path class="cls-6" d="m290.07,345.26c-.68,0-1.02-.83-.53-1.31l3.54-3.43c2.92-2.25,3.54-5.59,2.3-7.21-1.11-1.46-3.66-1.3-3.5-1.3-.8,0-1.06-1.08-.35-1.44,4.4-2.25,4.54-8.33-1.19-7.73-.89.08-1.17-1.13-.37-1.46,1.19-.5,2.12-1.44,2.55-2.59.98-2.63-1.05-4.49-3.69-4.35-.84.02-1.1-1.06-.4-1.43,3.97-2.11,4.18-7.59-1.01-7.25l-6.49.49c-.41.03-.78-.28-.82-.7-.03-.42.28-.79.7-.82l6.49-.49c5.87-.38,7.24,5.36,3.51,8.91,3.96,1.16,4.54,5.55,1.74,8.31,4.7,1.09,4.68,6.32,1.4,9.28,5.06,1.35,4.41,7.65.12,10.94-3.7,3.59-3.58,3.58-4.01,3.58Z"/>
          <path class="cls-6" d="m321.35,554.66c-.91,0-1.05-1.33-.15-1.51l11.58-2.35c.99-.2,1.29,1.29.3,1.49-12.17,2.47-11.59,2.36-11.74,2.36Z"/>
          <path class="cls-6" d="m325.34,564.53c-.87,0-1.06-1.22-.23-1.49l12.74-4.12c.4-.13.83.09.96.49.13.4-.09.83-.49.96-13.55,4.38-12.79,4.16-12.98,4.16Z"/>
          <path class="cls-6" d="m331.97,572.58c-.81,0-1.06-1.11-.32-1.45l14.74-6.89c.38-.17.84-.01,1.01.37.18.38.01.84-.37,1.01-15.72,7.35-14.8,6.96-15.06,6.96Z"/>
          <circle class="cls-3" cx="319.02" cy="315.75" r="4.43"/>
          <circle class="cls-3" cx="373.22" cy="323.01" r="4.43"/>
          <rect class="cls-2" x="323.77" y="331.08" width="43.06" height="7.53" transform="translate(62.85 -54.48) rotate(9.92)"/>
          <path class="cls-3" d="m334.02,492.63c-.53,0-.9-.53-.72-1.03l16.29-44.43c.14-.39.59-.6.98-.45.4.14.6.58.45.98l-16.29,44.43c-.11.31-.4.5-.72.5Z"/>
          <path class="cls-3" d="m270.89,605.93c-.27,0-.52-.14-.66-.38l-9.11-15.99c-.21-.37-.08-.83.29-1.04.36-.21.83-.08,1.04.29l9.11,15.99c.29.51-.08,1.14-.66,1.14Z"/>
          <path class="cls-3" d="m411.2,567.72c-.9,0-1.05-1.28-.19-1.5l20.85-5.24c.41-.11.82.15.93.55.1.41-.15.82-.55.93-22.17,5.57-20.88,5.26-21.03,5.26Z"/>
          <path class="cls-3" d="m266.68,452.91c15.99-8.25,21.71-25.73,21.76-25.9.13-.4.55-.62.96-.5.4.13.62.56.5.96-.06.18-5.95,18.25-22.52,26.8-.89.46-1.59-.89-.7-1.35Z"/>
          <path class="cls-6" d="m395.16,711.27c-.91,0-1.05-1.34-.14-1.51l17.44-3.37c.4-.08.81.19.89.6.08.41-.19.81-.6.89-18.23,3.53-17.43,3.39-17.58,3.39Z"/>
          <path class="cls-6" d="m224.43,799.99c-.15,0,1.39.37-23.4-5.75-.98-.24-.62-1.72.37-1.48l23.22,5.73c.87.21.71,1.5-.18,1.5Z"/>
          <path class="cls-6" d="m284.67,305.74c-.58,0-.96-.64-.66-1.15l14.8-25.35c.21-.36.68-.49,1.04-.27.36.21.49.68.27,1.04l-14.8,25.35c-.14.24-.4.38-.66.38Z"/>
          <path class="cls-6" d="m352.54,205.29s-1.52-8.3,9.23-5.6c10.75,2.7,15.67-9.27,21.41-5.6,5.74,3.67,5.16,19.87,15.4,18.14,10.23-1.73,11.41-15.84.97-18.85,0,0-2.93-19.02-16.36-15.08,0,0-21.33-12.07-30.64-.54,0,0-13.43-1.18-20.64,10.92-7.21,12.1,0,23.55,0,23.55,0,0-5.5,22.17,11.02,28.53,5.71-24,3.49-15.98,9.61-35.47Z"/>
          <path class="cls-6" d="m349.77,211.47s8.36,2.79,8.83,13.62c.47,10.83,5.83,6.3,11.06,8.89,5.24,2.59,6.41,10.08,14.96,3.82,0,0-1.14,9.13-6.59,13.54-5.45,4.41-14.45,2.36-22.89-4.6-8.44-6.95-3.96-21.19-3.62-25.98.34-4.79-3.41-7.82-3.41-7.82l1.65-1.47Z"/>
          <ellipse class="cls-2" cx="345.93" cy="219.64" rx="6.41" ry="7.51" transform="translate(-52.6 124.32) rotate(-18.96)"/>
          <path class="cls-1" d="m346.84,224.64c-.79,0-2.56-1.55-2.37-3.71.07-.81.42-1.55.95-2.13l-2.61-.4c-.42-.06-.7-.45-.64-.87.06-.42.47-.7.87-.64l4.75.72c.85.13.86,1.35.02,1.5-2.09.38-2.51,3.1-.63,4.08.7.37.44,1.44-.35,1.44Z"/>
          <path class="cls-3" d="m364.31,235.66l6.85,3.86c-1.02,2.03-3.43,2.83-5.26,1.98-2.02-.94-2.91-3.69-1.59-5.84Z"/>
          <path class="cls-6" d="m276.46,839.96h259.49s-22.23-29.72-41.7-26.72c-19.48,3.01-24.97-6.19-38.36-10.83-13.39-4.63-20.9,13.86-31.05,18.77-10.14,4.91-36.92-9.5-58.54-10.53-21.62-1.03-25.66,13.08-33.98,17.51-8.32,4.43-55.86,11.8-55.86,11.8Z"/>
          <path class="cls-6" d="m504.08,839.96s11.84-31.88,38.1-29.31c26.26,2.57,23.17-14.09,44.28-11.42,21.11,2.67,25.23,23.26,54.06,17.6,28.83-5.66,40.16,23.13,40.16,23.13h-176.6Z"/>
          <path class="cls-3" d="m381.44,799.44c-.14-.18.7,2.99-11.68-45.98-.25-.97,1.23-1.36,1.48-.37l11.51,45.56c4.21,5.43,12.75,3.14,13.75-3.63l-11.41-44.17c-.25-.97,1.22-1.37,1.48-.38,12.28,47.54,11.49,44.37,11.46,44.6-1.07,8.29-11.59,11.06-16.59,4.37Z"/>
        </g>
        <g>
          <circle class="cls-2" cx="740.59" cy="685.61" r="23.19"/>
          <path class="cls-7" d="m741.5,667.28c-1.09-17.21-2.17-34.43-3.26-51.64,3.35-10.3,1.77-15.47-.31-18.3-2.37-3.22-5.01-2.85-7.14-6.58-3.31-5.79.82-10.53-2.26-14.1-3.15-3.66-8.69-.07-12.22-3.57-3.99-3.97,1.09-10.58-2.07-16.73-3.65-7.1-16.89-10.84-24.02-6.13-9.09,6.01-7.44,25.21.89,33.45,6.24,6.18,14.83,4.81,16.54,10.65,1.56,5.32-4.75,9.2-3.01,14.29,1.74,5.1,9.66,5.87,14.04,7.52,8.37,3.15,17.41,14.61,20.43,51.01.79.04,1.59.08,2.38.13Z"/>
          <path class="cls-7" d="m740.59,667.28c.67-10.65,1.34-21.3,2.02-31.94-2.07-6.37-1.1-9.57.19-11.32,1.47-1.99,3.1-1.76,4.42-4.07,2.05-3.58-.5-6.52,1.4-8.72,1.95-2.26,5.38-.04,7.56-2.21,2.47-2.45-.68-6.55,1.28-10.35,2.26-4.39,10.45-6.71,14.86-3.79,5.62,3.71,4.6,15.59-.55,20.69-3.86,3.82-9.18,2.98-10.23,6.59-.96,3.29,2.94,5.69,1.86,8.84-1.08,3.15-5.97,3.63-8.68,4.65-5.18,1.95-10.77,9.04-12.64,31.56-.49.03-.98.05-1.47.08Z"/>
          <circle class="cls-2" cx="647.05" cy="707.51" r="23.19"/>
          <circle class="cls-2" cx="549.46" cy="713.79" r="23.19"/>
          <ellipse class="cls-7" cx="740.87" cy="666.86" rx="4.26" ry="2.93"/>
          <ellipse class="cls-7" cx="647.57" cy="689.04" rx="4" ry="2.47"/>
          <ellipse class="cls-7" cx="548.85" cy="695.08" rx="4.67" ry="2.98"/>
          <path class="cls-7" d="m645.42,689.81c.91-14.43,1.82-28.86,2.73-43.29-2.81-8.63-1.49-12.97.26-15.34,1.99-2.7,4.2-2.39,5.99-5.52,2.78-4.85-.68-8.83,1.89-11.82,2.64-3.07,7.29-.06,10.24-2.99,3.35-3.32-.92-8.87,1.73-14.03,3.06-5.95,14.16-9.09,20.13-5.14,7.62,5.03,6.24,21.13-.75,28.04-5.23,5.18-12.44,4.03-13.87,8.93-1.3,4.46,3.98,7.71,2.52,11.98-1.46,4.27-8.09,4.92-11.77,6.3-7.02,2.64-14.6,12.25-17.13,42.76-.67.04-1.33.07-2,.11Z"/>
          <path class="cls-7" d="m646.19,689.81c-.56-8.93-1.13-17.85-1.69-26.78,1.74-5.34.92-8.02-.16-9.49-1.23-1.67-2.6-1.48-3.7-3.41-1.72-3,.42-5.46-1.17-7.31-1.63-1.9-4.51-.04-6.34-1.85-2.07-2.06.57-5.49-1.07-8.68-1.89-3.68-8.76-5.62-12.45-3.18-4.71,3.11-3.86,13.07.46,17.35,3.24,3.2,7.69,2.49,8.58,5.52.81,2.76-2.46,4.77-1.56,7.41.9,2.64,5.01,3.04,7.28,3.9,4.34,1.63,9.03,7.58,10.59,26.45.41.02.82.04,1.23.07Z"/>
          <path class="cls-7" d="m547.99,695.08c1.09-17.21,2.17-34.43,3.26-51.64-3.35-10.3-1.77-15.47.31-18.3,2.37-3.22,5.01-2.85,7.14-6.58,3.31-5.79-.82-10.53,2.26-14.1,3.15-3.66,8.69-.07,12.22-3.57,3.99-3.97-1.09-10.58,2.07-16.73,3.65-7.1,16.89-10.84,24.02-6.13,9.09,6.01,7.44,25.21-.89,33.45-6.24,6.18-14.83,4.81-16.54,10.65-1.56,5.32,4.75,9.2,3.01,14.29-1.74,5.1-9.66,5.87-14.04,7.52-8.37,3.15-17.41,14.61-20.43,51.01-.79.04-1.59.08-2.38.13Z"/>
          <path class="cls-7" d="m548.9,695.08c-.67-10.65-1.34-21.3-2.02-31.94,2.07-6.37,1.1-9.57-.19-11.32-1.47-1.99-3.1-1.76-4.42-4.07-2.05-3.58.5-6.52-1.4-8.72-1.95-2.26-5.38-.04-7.56-2.21-2.47-2.45.68-6.55-1.28-10.35-2.26-4.39-10.45-6.71-14.86-3.79-5.62,3.71-4.6,15.59.55,20.69,3.86,3.82,9.18,2.98,10.23,6.59.96,3.29-2.94,5.69-1.86,8.84,1.08,3.15,5.97,3.63,8.68,4.65,5.18,1.95,10.77,9.04,12.64,31.56.49.03.98.05,1.47.08Z"/>
          <path class="cls-6" d="m835.45,720.87s-54.89-40.22-91.51-40.25-56.39,27.64-90.82,19.3c-34.42-8.34-46.87-9.39-76.17.83-29.3,10.22-66.65,10.22-66.65,10.22l136.23,26.02,188.92-16.11Z"/>
          <ellipse class="cls-4" cx="1090.02" cy="325.65" rx="65.93" ry="50.3"/>
          <g>
            <path class="cls-7" d="m704.55,507.77c.92,0,1.05-1.34.14-1.51-2.03-.38-4.02-.69-6.07-.94-.43-.06-.8.25-.85.66-.05.42.25.8.66.85,4.74.58,5.73.94,6.12.94Z"/>
            <path class="cls-7" d="m601.61,554.82c1.88-3.36,3.97-6.65,6.2-9.76.25-.34.72-.42,1.06-.18.34.24.42.72.18,1.06-6.12,8.57-5.72,10.01-6.77,10.01-.58,0-.95-.62-.66-1.14Zm13.44-18.78c2.59-2.88,5.37-5.61,8.24-8.12.32-.28.8-.24,1.07.07.28.32.24.8-.07,1.07-7.43,6.49-7.76,8.24-8.68,8.24-.65,0-1.01-.78-.57-1.27Zm17.41-15.18c3.18-2.15,6.53-4.13,9.96-5.88.38-.19.83-.04,1.03.33.19.38.04.83-.33,1.03-7.74,3.95-9.49,5.92-10.23,5.92s-1.05-.97-.43-1.39Zm20.57-10.5c3.61-1.31,7.34-2.42,11.09-3.29.41-.09.82.16.91.57.09.41-.16.82-.57.91-7.37,1.7-10.61,3.28-11.18,3.28-.84,0-1.06-1.19-.26-1.48Zm22.5-5.21c4.05-.44,7.73-.6,11.55-.58.42,0,.76.35.76.77,0,.42-.34.76-.76.76.15,0-.57,0-.72,0-6.28,0-10.39.58-10.74.58-.96,0-1.03-1.42-.08-1.52Z"/>
            <path class="cls-7" d="m595.02,571.98c.88,0,.47-.44,2.88-6.16.16-.39-.02-.84-.41-1-.39-.16-.83.02-1,.41-.82,1.94-1.54,3.82-2.2,5.74-.17.49.2,1.01.72,1.01Z"/>
          </g>
          <g>
            <path class="cls-7" d="m694.97,515.37s4.04-.93,6.04-1c.42-.02.75-.37.73-.79-.02-.42-.39-.74-.79-.73-.1,0-2.44.11-6.15,1.02-.87.21-.72,1.5.18,1.5Z"/>
            <path class="cls-7" d="m652.44,556.6c1.13-3.38,2.44-6.64,3.9-9.68.18-.38.64-.54,1.02-.36.38.18.54.64.36,1.02-4.07,8.51-3.37,10.03-4.55,10.03-.52,0-.89-.51-.72-1Zm9.06-18.77c1.98-2.95,4.18-5.7,6.53-8.18.29-.31.77-.32,1.08-.03s.32.77.03,1.08c-2.29,2.42-4.43,5.1-6.37,7.98-.15.22-.39.34-.63.34-.6,0-.97-.68-.63-1.19Zm14.39-15.11c2.83-2.07,5.87-3.87,9.01-5.35.38-.18.83-.02,1.01.36.18.38.02.83-.36,1.01-3.06,1.44-6.01,3.19-8.76,5.2-.14.1-.29.15-.45.15-.74,0-1.05-.94-.45-1.38Z"/>
            <path class="cls-7" d="m649.22,573.61c.36,0,.69-.26.75-.63.34-2.02.74-4.03,1.17-5.95.09-.41-.17-.82-.58-.91-.41-.09-.82.17-.91.58-.44,1.95-.84,3.98-1.18,6.03-.08.46.28.89.75.89Z"/>
          </g>
          <g>
            <path class="cls-7" d="m700.97,500.21c.86,0,1.06-1.22.23-1.49-.09-.03-2.19-.7-5.95-1.58-.41-.09-.82.16-.92.57-.1.41.16.82.57.92,4.94,1.16,5.7,1.59,6.06,1.59Z"/>
            <path class="cls-7" d="m552.57,550.66c2.17-3.25,4.47-6.41,6.82-9.4.26-.33.74-.39,1.07-.13.33.26.39.74.13,1.07-6.73,8.53-6.44,9.64-7.38,9.64-.6,0-.98-.67-.63-1.19Zm14.38-18.21c2.66-2.84,5.46-5.57,8.31-8.12.31-.28.8-.25,1.08.06.28.31.25.8-.06,1.08-7.84,6.98-7.91,8.26-8.77,8.26-.66,0-1.01-.8-.56-1.28Zm17.35-15.42c3.12-2.29,6.38-4.44,9.7-6.4.36-.21.83-.09,1.04.27.21.36.09.83-.27,1.04-7.85,4.65-9.31,6.47-10.03,6.47s-1.05-.94-.45-1.38Zm19.99-11.83c3.48-1.62,7.1-3.1,10.76-4.4.4-.14.83.07.97.46.14.4-.07.83-.46.97-8.08,2.86-10.3,4.42-10.95,4.42-.81,0-1.06-1.11-.32-1.45Zm21.88-7.77c3.71-.94,7.54-1.73,11.38-2.35.99-.17,1.24,1.34.24,1.51-7.3,1.18-11.04,2.35-11.44,2.35-.9,0-1.05-1.28-.19-1.5Zm46.02-2.23c-.42-.03-.73-.4-.7-.82.03-.42.4-.75.82-.7,3.86.29,7.74.72,11.54,1.29.93.14.82,1.52-.11,1.52-.48,0-3.85-.71-11.54-1.28Zm-23.1-1.5c3.83-.3,7.76-.45,11.61-.45.42,0,.76.34.76.76,0,.42-.34.76-.76.76-6.82,0-11.2.45-11.55.45-.97,0-1.03-1.45-.06-1.52Z"/>
            <path class="cls-7" d="m544.18,567.09c.71,0,.38-.1,3.59-5.74.21-.37.08-.83-.29-1.04-.37-.21-.83-.08-1.04.29-1,1.76-1.99,3.57-2.93,5.38-.27.51.11,1.12.67,1.12Z"/>
          </g>
          <rect class="cls-4" x="503.46" y="710.97" width="340.08" height="129.03" transform="translate(1347.01 1550.97) rotate(-180)"/>
          <rect class="cls-2" x="503.46" y="750.9" width="340.08" height="5.86" transform="translate(1347.01 1507.66) rotate(-180)"/>
          <rect class="cls-2" x="503.46" y="798.77" width="340.08" height="5.86" transform="translate(1347.01 1603.4) rotate(-180)"/>
          <path class="cls-2" d="m1075.25,389.84l-23.23-4.57c-16.57-3.26-32.99,6.25-38.41,22.23-13.99,41.23-27.98,82.45-41.97,123.68,13.67,7.08,27.34,14.16,41.01,21.24,24.78-52,45.78-106.28,62.59-162.58Z"/>
          <path class="cls-2" d="m859.59,461.61c52.24,26.53,104.49,53.06,156.73,79.59-.13,4.1-.98,12.53-6.84,19.77,0,0-6.74,8.35-20.75,11.47-19.5,4.35-73.54-26.78-137.2-79.34,2.69-10.5,5.37-21,8.06-31.49Z"/>
          <path class="cls-7" d="m866.95,465.34c-20.88-11.99-19.73-11.53-21.05-11.58l-24.69-.94c-1.99.34-3.54,1.82-3.85,3.6-.39,2.24,1.24,4.66,3.85,5.19,7.45,1.17,14.89,2.34,22.34,3.51l13.79,14.56,9.61-14.33Z"/>
          <path class="cls-7" d="m865.4,492.73c-8.06.81-16.11,1.63-24.17,2.44,2.2-5.17,4.39-10.33,6.59-15.5l19.13,3.3c-.52,3.26-1.03,6.51-1.55,9.77Z"/>
          <path class="cls-7" d="m862.1,462.56l32.17,9.85c-.94,16.3-5.08,32.14-12.14,46.72-11.02-8.25-22.03-16.5-33.05-24.75l13.01-31.82Z"/>
          <path class="cls-2" d="m1088.36,300.02c-24.75,0-38.7,28.01-24.65,47.75l3.55,12.99c2.89,10.59,11.43,17.52,20.43,17.52h.92c9.25,0,18.03-7.13,21.02-18.07l3.39-12.44c14.01-19.69.16-47.75-24.65-47.75Z"/>
          <rect class="cls-2" x="1075.25" y="364.68" width="26.04" height="41.04" transform="translate(2176.54 770.4) rotate(-180)"/>
          <circle class="cls-1" cx="1078.09" cy="344.33" r="2.57"/>
          <circle class="cls-1" cx="1097.62" cy="344.33" r="2.57"/>
          <path class="cls-1" d="m1086.37,357.91s3.62-.05,3.67-.05c.42,0,.76-.35.75-.77,0-.42-.35-.75-.76-.75-3.78,0-3.78.19-4.05-.14-.22-.28-.3.48,2.08-10.43.09-.41-.17-.82-.58-.91-.41-.09-.82.17-.91.58l-2.18,10c-.28,1.27.69,2.47,1.99,2.47Z"/>
          <path class="cls-1" d="m1079.32,334.39c.49.12,2.81.72,2.86,1.71.03.55-.68,1-.76,1.05-1.47.9-2.97-.66-5.35-.81-3.47-.22-5.87,2.74-6.35,2.19-.5-.58,2.31-5.96,9.61-4.14Z"/>
          <path class="cls-1" d="m1096.2,334.39c-.49.12-2.81.72-2.86,1.71-.03.55.68,1,.76,1.05,1.47.9,2.97-.66,5.35-.81,3.47-.22,5.87,2.74,6.35,2.19.5-.58-2.31-5.96-9.61-4.14Z"/>
          <path class="cls-1" d="m1095.8,359.67c.14-.99-1.37-1.22-1.51-.21-.49,3.53-4.36,5.21-7.2,2.96-.33-.26-.81-.21-1.07.12-.26.33-.21.81.12,1.07,3.71,2.94,9,.82,9.66-3.94Z"/>
          <path class="cls-6" d="m1101.58,374.16c.32-.27.36-.75.09-1.07-.27-.32-.75-.36-1.07-.09-7.15,6.1-17.41,6.05-24.54.15-.32-.27-.8-.22-1.07.1-.27.32-.22.8.1,1.07,7.66,6.34,18.74,6.44,26.5-.16Z"/>
          <path class="cls-6" d="m1127.54,397.83l-77.58-11.85c-15.15-2.31-28.38,10.35-26.73,25.59,5.65,52.06,11.3,104.12,16.96,156.18,32.45,4.58,64.89,9.16,97.34,13.74,4.76-50.86,9.52-101.73,14.27-152.59,1.42-15.15-9.22-28.77-24.26-31.07Z"/>
          <path class="cls-7" d="m917.5,559.84c3.08,22.39,6.16,44.79,9.24,67.18,47.87,11.2,95.74,22.39,143.61,33.59,8.26,50.53,16.52,101.06,24.77,151.59,6.7,18.87,25.19,30.12,43.02,27.4,14.17-2.16,26.15-12.88,30.88-27.4-5.82-67.4-7.56-111.12-7.4-141.66.06-10.84.43-33.89-7.34-62.84-4.75-17.69-10.93-31.58-15.42-40.57-73.79-2.43-147.57-4.86-221.36-7.3Z"/>
          <path class="cls-7" d="m996.44,801.7c-6.54-56.21-29.9-234.73-78.94-241.86-2.25-.33-5.89-.79-9.63,1.12-38.75,19.8,41.12,239.9,41.12,239.9,15.82.28,31.63.56,47.45.84Z"/>
          <path class="cls-6" d="m993.69,787.53c7.28,17.49,14.56,34.98,21.83,52.47h-160.4c1.39-10.76,10.16-18.62,20.58-19.3,26.75-2.96,50.56-14.9,68.12-34.61,16.63.48,33.25.96,49.88,1.44Z"/>
          <path class="cls-2" d="m1115.41,395.97l11.92,1.55c20.62,2.68,36.97,18.68,40.12,39.23l21.15,138.2c-17.5-.24-34.99-.49-52.49-.73-6.9-59.41-13.8-118.83-20.69-178.24Z"/>
          <path class="cls-2" d="m1048.54,521.42c42.64,10.9,85.28,21.81,127.92,32.71,11.31,7.69,15.9,22.04,11.28,34.36-5.02,13.36-19.71,21.25-34.23,17.88-38.41-20.18-76.82-40.36-115.23-60.54,3.42-8.14,6.84-16.28,10.25-24.41Z"/>
          <path class="cls-6" d="m1100.72,393.73l36.44,4.67c16.18,2.07,28.93,14.8,31.02,30.98l10.36,79.95-56.1,2.09-21.73-117.68Z"/>
          <path class="cls-6" d="m1075.25,389.84l-21.31-4.99c-17.48-4.09-35.19,5.81-40.87,22.83l-26.61,79.84,44.75,23.88,25.15-61.77,18.89-59.8Z"/>
          <path class="cls-2" d="m1101.28,393.68c-.83,1.07-6.6,8.28-15.01,7.93-1.81-.08-5.98-.25-8.79-3.6-2.71-3.24-2.33-7.26-2.22-8.17,8.99-3.42,18.57-1.76,26.03,3.83Z"/>
          <path class="cls-4" d="m795.71,636.45l82.37-7.25c10.06-.89,16.99-10.49,14.67-20.32l-22.27-94.09c-.88-3.71-4.35-6.22-8.15-5.89l-72.22,6.36c-3.74.33-6.67,3.35-6.89,7.1l-5.49,96.64c-.57,10.08,7.93,18.33,17.99,17.44Z"/>
          <polygon class="cls-4" points="704.55 515.36 812.22 572.21 823.02 538.9 708.91 501.91 704.55 515.36"/>
          <path class="cls-4" d="m791.45,517.43l-2.02-22.96c-1.59-18.07,11.82-34.07,29.89-35.67l5.69-.5c18.12-1.61,34.07,11.8,35.67,29.89l2.02,22.96c1.6,18.12-11.78,34.07-29.89,35.67-5.7.5-6.67.63-8.64.63-16.72,0-31.2-12.76-32.72-30.02Zm28.4-52.55c-14.72,1.3-25.65,14.33-24.35,29.06l2.02,22.96c1.3,14.77,14.31,25.66,29.06,24.35.42,0-1.85.16,5.69-.5,14.76-1.3,25.65-14.3,24.35-29.06l-2.02-22.96c-1.24-14.06-13.04-24.46-26.66-24.46-1.58,0-2.11.08-8.09.61Z"/>
          <polygon class="cls-4" points="721.76 506.07 698.67 490.96 690.22 523.05 716.75 521.81 721.76 506.07"/>
          <path class="cls-7" d="m1062.96,525.1l-17.17-17.68c-1.6-1.65-3.87-2.47-6.15-2.24l-8.78.91-25.26-10.44c-2.26-.81-4.52.03-5.43,1.46-.96,1.52-.48,3.97,1.34,5.86l21.58,10.46c-.19,0-2.77-.01-4,1.87-1.22,1.86-.66,4.84,1.71,6.59-1.86-.61-4.83.21-5.37,2.32-.43,1.66.65,3.66,2.67,4.35-1.8-1.56-4.3-1.07-5.04,1.65-.48,1.8.5,3.6,2.12,5.84,2.76,3.8,8.05,6.89,14.46,12.38.79.68,1.8,1.05,2.84,1.05h15.97s14.52-24.39,14.52-24.39Z"/>
          <path class="cls-6" d="m1170.68,558.07c.85,0,1.06-1.18.27-1.48l-38.22-14.43c-.39-.15-.83.05-.98.44s.05.83.44.98c41.01,15.48,38.27,14.48,38.49,14.48Z"/>
          <path class="cls-6" d="m1072.08,655.65c-2.33-45.02-2.18-42.53-2.24-42.69l-8.06-23.07c-.14-.4-.57-.6-.97-.47-.4.14-.61.57-.47.97l8.02,22.97,2.19,42.37c.05,1.02,1.57.91,1.52-.08Z"/>
          <path class="cls-6" d="m1013.76,534.15c-2.25-2.38-1.6-6.32,1.72-7.2-1.78-2.82-.15-6.15,3-6.76-1.62-2.57-.77-5.9,2.09-7.11-22.7-10.97-21.31-10.26-21.48-10.46-2.68-3.22-.94-7.92,3.33-8.27,1.02-.07,1.12,1.44.12,1.52-3.01.24-4.09,3.42-2.38,5.65l23.25,11.24c.75.36.46,1.5-.41,1.44-3.67-.34-5.17,3.9-2.38,6.13.61.49.18,1.48-.61,1.34-1.6-.29-3.19.6-3.62,2.03-.34,1.13.11,2.43,1.11,3.24.58.47.21,1.41-.54,1.35-.02,0-1.67-.12-2.52,1.04-.78,1.06-.6,2.67.47,3.8l4.53,5.59c.41.51.04,1.24-.59,1.24-.51,0-.27.11-5.09-5.83Zm-14.1-32.02h.01-.01Z"/>
          <path class="cls-6" d="m1025.3,534.51c.73,0,1.04-.93.46-1.37l-8.28-6.2c-.34-.25-.82-.18-1.07.15-.25.34-.18.82.15,1.07,8.99,6.73,8.37,6.35,8.74,6.35Z"/>
          <path class="cls-6" d="m1028.96,525.23c.83,0,1.06-1.16.28-1.47l-8.82-3.54c-.39-.16-.83.03-.99.42-.16.39.03.83.42.99,9.57,3.84,8.89,3.59,9.1,3.59Z"/>
          <path class="cls-6" d="m1032.63,516.32c.91,0,1.05-1.32.16-1.51l-9.55-2.04c-.41-.09-.82.17-.9.59-.09.41.17.82.59.9,10,2.14,9.56,2.06,9.71,2.06Z"/>
          <path class="cls-6" d="m965.88,636.94c.59,0,.96-.65.65-1.16l-19.03-30.66c-.22-.36-.69-.47-1.05-.25-.36.22-.47.69-.25,1.05l19.03,30.66c.14.23.39.36.65.36Z"/>
          <polygon class="cls-6" points="999.58 801.7 984.9 720.94 917.5 719.04 942.42 794.48 999.58 801.7"/>
          <ellipse class="cls-2" cx="829.37" cy="566.32" rx="37.12" ry="20.61" transform="translate(-37.7 59.6) rotate(-4.02)"/>
          <path class="cls-7" d="m845.53,493.49c-1.69,1.82-4.43,2.14-6.41.82-2.13-1.42-2.82-4.37-1.46-6.68-1.54,1.64-3.99,1.95-5.77.82-1.98-1.26-2.67-4.04-1.37-6.23-2.04,1.52-4.9,1.14-6.41-.73-1.39-1.73-1.3-4.33.27-6.04-2.15.72-4.49.13-5.86-1.46-1.68-1.95-1.64-5.09.27-7.23,6-4.11,12-8.22,18-12.33.3,3.4.59,6.8.89,10.2,1.7-1.81,4.54-1.81,6.13-.18,1.43,1.45,1.56,3.9.18,5.63,2.15-1.62,5.09-1.2,6.5.64,1.14,1.49,1.14,3.74-.09,5.45,3.6-1.26,7.24,1.52,6.87,5.36-3.92,3.99-7.83,7.98-11.75,11.97Z"/>
          <path class="cls-6" d="m842.13,495.14c.38,0-.36.49,12.33-9.5,5.08-3.33,3.73-11.27-2.86-10.2,1.49-4.09-1.4-8.37-5.92-7,.69-3.82-3.01-6.95-6.67-5.44.51-4.59-4.09-7.62-8.2-5.39-.37.2-.51.66-.31,1.03.2.37.66.51,1.03.31,1.51-.82,3.27-.73,4.5.23,1.57,1.22,1.93,3.64.82,5.51-.49.82.68,1.61,1.26.85,1.09-1.44,3.18-1.82,4.64-.84,1.51,1.02,1.98,3.24.81,4.87-.5.7.37,1.57,1.07,1.06,2.27-1.65,5.18-1.16,5.74,1.79.25,1.3-.09,2.69-.94,3.82-.47.63.21,1.48.93,1.15,1.82-.84,3.87-.65,4.88.46,1.31,1.43,1.05,4.74-1.69,6.54l-11.91,9.38c-.56.44-.25,1.36.47,1.36Z"/>
          <path class="cls-6" d="m837.66,488.39c.41,0-.64.82,12.89-11.11.32-.28.35-.76.07-1.08-.28-.32-.76-.35-1.08-.07l-12.39,10.91c-.53.46-.2,1.33.5,1.33Z"/>
          <path class="cls-6" d="m830.52,482.99c.42,0-.67.86,14.18-12.39.31-.28.34-.76.06-1.08-.28-.31-.76-.34-1.08-.06l-13.67,12.2c-.53.47-.19,1.33.51,1.33Z"/>
          <path class="cls-6" d="m825.15,475.53c.38,0-.62.69,12.83-9.85.33-.26.39-.74.13-1.07-.26-.33-.74-.39-1.07-.13l-12.36,9.68c-.57.45-.25,1.36.47,1.36Z"/>
          <path class="cls-6" d="m1005.16,537.32c.79,0,1.06-1.06.36-1.43l-29.85-16.18c-.37-.2-.83-.06-1.03.31-.2.37-.06.83.31,1.03,31.94,17.32,29.91,16.28,30.21,16.28Z"/>
          <path class="cls-3" d="m1129.58,507.74l-1.1-69.94c-.02-1.05-1.54-.96-1.52.02l1.1,69.94c.02,1.02,1.54.97,1.52-.02Z"/>
          <path class="cls-3" d="m1036.53,503.38c.45,0,.79-.38.76-.81l-5.22-77.27c-.03-.42-.38-.73-.81-.71-.42.03-.74.39-.71.81l5.22,77.27c.03.4.36.71.76.71Z"/>
          <path class="cls-6" d="m1113.78,343.71l-4.37-18.55s-10.13-2.08-12.69-12.57c0,0-13.06-2.08-17.46,3.17-4.39,5.25-7.66,15.87-16.4,13.79l1.02,17.36-6.96,1.6-2.74-14.48s-7.03-5.82-5.32-14.12c1.71-8.3,7.32-4.39,15.38-17.82,8.06-13.43,33.35-12.22,40.04-2.06,16.47-1.75,29.07,12.91,18.68,27.33-1.36,7.05-2.73,14.1-4.09,21.16l-5.08-4.8Z"/>
          <ellipse class="cls-2" cx="1061.22" cy="348.51" rx="6.78" ry="7.94" transform="translate(-40.62 531.81) rotate(-27.63)"/>
          <path class="cls-1" d="m1063.1,352.08c-2.17-.74-2.15-3.71,0-4.45.81-.28.61-1.48-.25-1.48h-5.08c-.42,0-.76.34-.76.76,0,.42.34.76.76.76h2.87c-1.48,2.12-.49,5.01,1.96,5.85.97.33,1.43-1.12.49-1.44Z"/>
          <ellipse class="cls-2" cx="1115.41" cy="348.51" rx="7.94" ry="6.78" transform="translate(289.43 1175.16) rotate(-62.37)"/>
          <path class="cls-1" d="m1114.02,353.52c2.47-.84,3.44-3.73,1.96-5.85h2.87c.42,0,.76-.34.76-.76s-.34-.76-.76-.76h-5.08c-.86,0-1.06,1.2-.25,1.48,2.15.74,2.18,3.71,0,4.45-.94.32-.48,1.77.49,1.44Z"/>
          <polygon class="cls-7" points="1059.38 521.42 1090.97 528.38 1075.18 565.21 1041.05 548.4 1059.38 521.42"/>
          <path class="cls-3" d="m958.54,798.72c.82,0,1.06-1.13.31-1.46l-17.5-7.66c-.38-.17-.84,0-1,.39-.17.39,0,.83.39,1,18.7,8.18,17.56,7.72,17.8,7.72Z"/>
          <path class="cls-3" d="m871.87,831.74h124.57c.42,0,.76-.34.76-.76s-.34-.76-.76-.76h-124.57c-.42,0-.76.34-.76.76s.34.76.76.76Z"/>
        </g>
      </g>
    </g>
  </g>
</svg>