<?xml version="1.0" encoding="utf-8"?>
<!-- Generator: Adobe Illustrator 27.8.0, SVG Export Plug-In . SVG Version: 6.00 Build 0)  -->
<svg version="1.1" id="Capa_2_00000045582995152061559980000012864024787748521093_"
	 xmlns="http://www.w3.org/2000/svg" xmlns:xlink="http://www.w3.org/1999/xlink" x="0px" y="0px" viewBox="0 0 944.8 840"
	 style="enable-background:new 0 0 944.8 840;" xml:space="preserve">
<style type="text/css">
	.st0{fill:#EAF5F8;}
	.st1{clip-path:url(#SVGID_00000092449177308531732420000015200929374256046247_);}
	.st2{fill:#9BCEF5;}
	.st3{fill:#CAE5F6;}
	.st4{fill:#CCE7F8;}
	.st5{opacity:0.14;fill:#FFFFFF;enable-background:new    ;}
	.st6{fill:#FFFFFF;}
	.st7{opacity:0.5;fill:#FFFFFF;enable-background:new    ;}
	.st8{opacity:0.6;fill:#FFFFFF;enable-background:new    ;}
	.st9{fill:#FFB900;}
	.st10{fill:#D30A4A;}
	.st11{fill:#547AC7;}
	.st12{fill:#9DD0F7;}
	.st13{fill:#3A68FD;}
	.st14{fill:#4F06E1;}
	.st15{fill:#DF000D;}
	.st16{fill:#547AC5;}
</style>
<g id="Capa_1-2">
	<g>
		<g>
			<path class="st0" d="M796.7,726.9c-159,152.5-470.5,81.1-629.7,0S125,451.1,82.9,285.6C47.1,145.1,186.7,20.9,321.3,26.4
				c2.4,0.1,4.8,0.2,7.1,0.4c21.5,1.6,42.8,6.6,63.1,15.4c149.7,64.9,161.7,105.6,301.3,100.6C1053,129.8,955.6,574.4,796.7,726.9
				L796.7,726.9z"/>
			<path class="st0" d="M684.9,82.8c0.9,6.9-3.6,13.4-10.4,15c-27.4,6.3-107.3,16.7-174.1-53.7C422.5-38.2,675.1,6.4,684.9,82.8z"/>
			<g>
				<defs>
					<path id="SVGID_1_" d="M796.7,726.9c-159,152.5-470.5,81.1-629.7,0S125,451.1,82.9,285.6C47.1,145.1,186.7,20.9,321.3,26.4
						c2.4,0.1,4.8,0.2,7.1,0.4c21.5,1.6,42.8,6.6,63.1,15.4c149.7,64.9,161.7,105.6,301.3,100.6C1053,129.8,955.6,574.4,796.7,726.9
						L796.7,726.9z"/>
				</defs>
				<clipPath id="SVGID_00000183244075598605454790000003338261973357928833_">
					<use xlink:href="#SVGID_1_"  style="overflow:visible;"/>
				</clipPath>
				<g style="clip-path:url(#SVGID_00000183244075598605454790000003338261973357928833_);">
					<g>
						<g>
							<g>
								<polygon class="st0" points="44.9,186.2 44.9,154.3 97.7,154.3 97.7,2.1 112.3,2.1 112.3,154.3 169.2,154.3 169.2,186.2 
									199.7,186.2 199.7,824.3 -20.1,824.3 -20.1,186.2 								"/>
								<rect x="-20.1" y="186.2" class="st2" width="30.5" height="574"/>
							</g>
							<g>
								<rect x="89.8" y="338.2" class="st0" width="219.8" height="486.1"/>
								<rect x="89.8" y="338.2" class="st2" width="30.5" height="486.1"/>
								<rect x="247.3" y="358.9" class="st3" width="31.5" height="13.1"/>
								<rect x="194.2" y="358.9" class="st3" width="31.5" height="13.1"/>
								<rect x="247.3" y="406.5" class="st3" width="31.5" height="13.1"/>
								<rect x="194.2" y="406.5" class="st3" width="31.5" height="13.1"/>
								<rect x="141.1" y="406.5" class="st3" width="31.5" height="13.1"/>
								<rect x="247.3" y="454.2" class="st3" width="31.5" height="13.1"/>
								<rect x="141.1" y="454.2" class="st3" width="31.5" height="13.1"/>
								<rect x="194.2" y="478" class="st3" width="31.5" height="13.1"/>
								<rect x="247.3" y="501.8" class="st3" width="31.5" height="13.1"/>
								<rect x="194.2" y="525.7" class="st3" width="31.5" height="13.1"/>
								<rect x="247.3" y="549.5" class="st3" width="31.5" height="13.1"/>
								<rect x="141.1" y="549.5" class="st3" width="31.5" height="13.1"/>
								<rect x="247.3" y="593.5" class="st3" width="31.5" height="13.1"/>
								<rect x="194.2" y="593.5" class="st3" width="31.5" height="13.1"/>
								<rect x="247.3" y="641.2" class="st3" width="31.5" height="13.1"/>
								<rect x="194.2" y="641.2" class="st3" width="31.5" height="13.1"/>
								<rect x="141.1" y="641.2" class="st3" width="31.5" height="13.1"/>
								<rect x="247.3" y="688.9" class="st3" width="31.5" height="13.1"/>
								<rect x="141.1" y="688.9" class="st3" width="31.5" height="13.1"/>
								<rect x="194.2" y="712.7" class="st3" width="31.5" height="13.1"/>
								<rect x="141.1" y="712.7" class="st3" width="31.5" height="13.1"/>
								<rect x="247.3" y="736.5" class="st3" width="31.5" height="13.1"/>
								<rect x="194.2" y="760.3" class="st3" width="31.5" height="13.1"/>
								<rect x="247.3" y="784.2" class="st3" width="31.5" height="13.1"/>
								<rect x="141.1" y="784.2" class="st3" width="31.5" height="13.1"/>
							</g>
							<g>
								<rect x="615.6" y="338.2" class="st4" width="219.8" height="486.1"/>
								<rect x="615.6" y="338.2" class="st2" width="30.5" height="486.1"/>
							</g>
							<g>
								<rect x="303.4" y="106.9" class="st4" width="294.9" height="717.3"/>
								<rect x="303.4" y="106.9" class="st2" width="30.5" height="717.3"/>
								<rect x="521.2" y="141.3" class="st0" width="46" height="19.1"/>
								<rect x="443.6" y="141.3" class="st0" width="46" height="19.1"/>
								<rect x="521.2" y="210.9" class="st0" width="46" height="19.1"/>
								<rect x="443.6" y="210.9" class="st0" width="46" height="19.1"/>
								<rect x="366.1" y="210.9" class="st0" width="46" height="19.1"/>
								<rect x="521.2" y="280.5" class="st0" width="46" height="19.1"/>
								<rect x="366.1" y="280.5" class="st0" width="46" height="19.1"/>
								<rect x="443.6" y="315.3" class="st0" width="46" height="19.1"/>
								<rect x="521.2" y="350.1" class="st0" width="46" height="19.1"/>
								<rect x="443.6" y="384.9" class="st0" width="46" height="19.1"/>
								<rect x="521.2" y="419.7" class="st0" width="46" height="19.1"/>
								<rect x="366.1" y="419.7" class="st0" width="46" height="19.1"/>
								<rect x="521.2" y="484" class="st0" width="46" height="19.1"/>
								<rect x="443.6" y="484" class="st0" width="46" height="19.1"/>
								<rect x="521.2" y="553.6" class="st0" width="46" height="19.1"/>
								<rect x="443.6" y="553.6" class="st0" width="46" height="19.1"/>
								<rect x="366.1" y="553.6" class="st0" width="46" height="19.1"/>
								<rect x="521.2" y="623.2" class="st0" width="46" height="19.1"/>
								<rect x="366.1" y="623.2" class="st0" width="46" height="19.1"/>
								<rect x="443.6" y="658" class="st0" width="46" height="19.1"/>
								<rect x="366.1" y="658" class="st0" width="46" height="19.1"/>
								<rect x="521.2" y="692.8" class="st0" width="46" height="19.1"/>
								<rect x="443.6" y="727.5" class="st0" width="46" height="19.1"/>
								<rect x="521.2" y="762.3" class="st0" width="46" height="19.1"/>
								<rect x="366.1" y="762.3" class="st0" width="46" height="19.1"/>
							</g>
							<g>
								<rect x="767" y="160.4" class="st0" width="289" height="663.9"/>
								<rect x="767" y="160.4" class="st2" width="29.9" height="663.9"/>
								<rect x="980.4" y="192.2" class="st3" width="45.1" height="17.7"/>
								<rect x="904.4" y="192.2" class="st3" width="45.1" height="17.7"/>
								<rect x="980.4" y="256.6" class="st3" width="45.1" height="17.7"/>
								<rect x="904.4" y="256.6" class="st3" width="45.1" height="17.7"/>
								<rect x="828.5" y="256.6" class="st3" width="45.1" height="17.7"/>
								<rect x="980.4" y="321" class="st3" width="45.1" height="17.7"/>
								<rect x="828.5" y="321" class="st3" width="45.1" height="17.7"/>
								<rect x="904.4" y="353.2" class="st3" width="45.1" height="17.7"/>
								<rect x="980.4" y="385.4" class="st3" width="45.1" height="17.7"/>
								<rect x="904.4" y="417.6" class="st3" width="45.1" height="17.7"/>
								<rect x="980.4" y="449.8" class="st3" width="45.1" height="17.7"/>
								<rect x="828.5" y="449.8" class="st3" width="45.1" height="17.7"/>
								<rect x="980.4" y="509.3" class="st3" width="45.1" height="17.7"/>
								<rect x="904.4" y="509.3" class="st3" width="45.1" height="17.7"/>
								<rect x="980.4" y="573.7" class="st3" width="45.1" height="17.7"/>
								<rect x="904.4" y="573.7" class="st3" width="45.1" height="17.7"/>
								<rect x="828.5" y="573.7" class="st3" width="45.1" height="17.7"/>
								<rect x="980.4" y="638.2" class="st3" width="45.1" height="17.7"/>
								<rect x="828.5" y="638.2" class="st3" width="45.1" height="17.7"/>
								<rect x="904.4" y="670.4" class="st3" width="45.1" height="17.7"/>
								<rect x="828.5" y="670.4" class="st3" width="45.1" height="17.7"/>
								<rect x="980.4" y="702.6" class="st3" width="45.1" height="17.7"/>
								<rect x="904.4" y="734.8" class="st3" width="45.1" height="17.7"/>
								<rect x="980.4" y="767" class="st3" width="45.1" height="17.7"/>
								<rect x="828.5" y="767" class="st3" width="45.1" height="17.7"/>
							</g>
							<g>
								<rect x="-166.9" y="371.5" class="st0" width="186.1" height="452.8"/>
								<rect x="-166.9" y="371.5" class="st2" width="19.2" height="452.8"/>
								<rect x="-29.5" y="393.2" class="st3" width="29.1" height="12.1"/>
								<rect x="-78.4" y="393.2" class="st3" width="29.1" height="12.1"/>
								<rect x="-29.5" y="437.1" class="st3" width="29.1" height="12.1"/>
								<rect x="-78.4" y="437.1" class="st3" width="29.1" height="12.1"/>
								<rect x="-127.4" y="437.1" class="st3" width="29.1" height="12.1"/>
								<rect x="-29.5" y="481" class="st3" width="29.1" height="12.1"/>
								<rect x="-127.4" y="481" class="st3" width="29.1" height="12.1"/>
								<rect x="-78.4" y="503" class="st3" width="29.1" height="12.1"/>
								<rect x="-29.5" y="525" class="st3" width="29.1" height="12.1"/>
								<rect x="-78.4" y="546.9" class="st3" width="29.1" height="12.1"/>
								<rect x="-29.5" y="568.9" class="st3" width="29.1" height="12.1"/>
								<rect x="-127.4" y="568.9" class="st3" width="29.1" height="12.1"/>
								<rect x="-29.5" y="609.5" class="st3" width="29.1" height="12.1"/>
								<rect x="-78.4" y="609.5" class="st3" width="29.1" height="12.1"/>
								<rect x="-29.5" y="653.4" class="st3" width="29.1" height="12.1"/>
								<rect x="-78.4" y="653.4" class="st3" width="29.1" height="12.1"/>
								<rect x="-127.4" y="653.4" class="st3" width="29.1" height="12.1"/>
								<rect x="-29.5" y="697.3" class="st3" width="29.1" height="12.1"/>
								<rect x="-127.4" y="697.3" class="st3" width="29.1" height="12.1"/>
								<rect x="-78.4" y="719.3" class="st3" width="29.1" height="12.1"/>
								<rect x="-127.4" y="719.3" class="st3" width="29.1" height="12.1"/>
								<rect x="-29.5" y="741.3" class="st3" width="29.1" height="12.1"/>
								<rect x="-78.4" y="763.2" class="st3" width="29.1" height="12.1"/>
								<rect x="-29.5" y="785.2" class="st3" width="29.1" height="12.1"/>
								<rect x="-127.4" y="785.2" class="st3" width="29.1" height="12.1"/>
							</g>
						</g>
						<g>
							<g>
								<rect x="-283.6" y="-67.6" class="st5" width="788.8" height="899.4"/>
								<rect x="496.6" y="-77.9" class="st6" width="17.3" height="921.3"/>
								<polygon class="st7" points="-12,815.5 -73.2,815.5 254.9,-57.3 316.2,-57.3 								"/>
								<polygon class="st7" points="-120.1,815.5 -150.7,815.5 177.5,-57.3 208.1,-57.3 								"/>
								<polygon class="st7" points="245.4,815.5 214.8,815.5 496.1,36.4 496.1,99.2 								"/>
								<rect x="-292.2" y="821.5" class="st6" width="806.1" height="23.8"/>
								<rect x="233.7" y="-73.2" class="st6" width="17.3" height="912"/>
								<rect x="-274.9" y="815.5" class="st6" width="771.4" height="7.3"/>
								<rect x="-292.2" y="-77.9" class="st6" width="806.1" height="20.6"/>
								<rect x="-275" y="-57.3" class="st6" width="771.7" height="7.3"/>
							</g>
							<g>
								<rect x="509.4" y="-85.4" class="st5" width="788.8" height="899.4"/>
								<rect x="496.7" y="-77.9" class="st6" width="17.3" height="921.3"/>
								<polygon class="st7" points="639.8,815.5 578.6,815.5 906.8,-57.3 968,-57.3 								"/>
								<polygon class="st7" points="531.7,815.5 501.1,815.5 829.3,-57.3 859.9,-57.3 								"/>
								<polygon class="st8" points="1034.3,815.5 1003.7,815.5 1285,36.4 1285,99.2 								"/>
								<rect x="759.6" y="-73.2" class="st6" width="17.3" height="912"/>
								<rect x="496.7" y="821.5" class="st6" width="806.1" height="23.8"/>
								<rect x="1022.5" y="-73.2" class="st6" width="17.3" height="912"/>
								<rect x="514" y="815.5" class="st6" width="771.4" height="7.3"/>
								<rect x="496.7" y="-77.9" class="st6" width="806.1" height="20.6"/>
								<rect x="513.8" y="-57.3" class="st6" width="771.7" height="7.3"/>
							</g>
							<rect x="-292.2" y="84.3" class="st6" width="1623.3" height="10.3"/>
							<rect x="-292.2" y="358.8" class="st6" width="1623.3" height="10.3"/>
							<rect x="-292.2" y="633.2" class="st6" width="1623.3" height="10.3"/>
						</g>
					</g>
				</g>
			</g>
		</g>
		<g>
			<g>
				<path class="st9" d="M306.4,313.8c24.7,4.8,53.2-10.4,68.3-38.5c15.1-28,12.2-59.8-5.1-77.9l1.1-2l-12.4-6.7
					c-27-14.5-63.4,0.6-81.3,33.9c-17.9,33.2-10.6,72,16.4,86.5l11.8,6.8L306.4,313.8L306.4,313.8z"/>
				<path class="st10" d="M305.5,317.1l-12.5-7.2c-27.3-14.7-34.8-54-16.7-87.6c8.8-16.2,22.1-28.8,37.7-35.2
					c15.6-6.5,31.5-6.1,44.8,1l13.2,7.1l-1.2,2.2c17.6,18.8,19.6,50.9,4.8,78.4c-14.9,27.7-43.1,43.7-68.6,39L305.5,317.1
					L305.5,317.1z M336,184.1c-7,0-14.3,1.5-21.5,4.5c-15.2,6.3-28.3,18.6-36.9,34.5c-17.7,32.8-10.5,71.1,16.1,85.4l11.1,6.4l1-1.9
					l0.6,0.1c25,4.9,52.7-10.8,67.5-38.1c14.6-27,12.5-58.7-4.9-76.9l-0.4-0.4l1-1.8l-11.7-6.3C351.1,185.9,343.7,184,336,184.1
					L336,184.1z"/>
			</g>
			<g>
				<path class="st6" d="M387.1,282c-17.9,33.3-54.9,48.5-81.9,33.9c-27-14.5-33.7-53.4-15.8-86.6c17.9-33.3,54.3-48.4,81.3-33.9
					C397.7,210,405.1,248.8,387.1,282L387.1,282z"/>
				<path class="st11" d="M327.5,322.3c-8,0-15.7-1.9-22.7-5.6c-27.1-14.6-34.3-53.9-16.1-87.6c18.1-33.6,55-48.9,82.3-34.2
					c13.2,7.1,22.3,20.2,25.4,36.8c3.1,16.5,0,34.5-8.7,50.8l0,0c-8.7,16.2-22.2,28.7-37.9,35.2
					C342.4,320.7,334.8,322.3,327.5,322.3L327.5,322.3z M348.5,190.7c-22,0-45.3,14.6-58.4,39c-17.8,33-10.8,71.4,15.5,85.6
					c12.9,6.9,28.4,7.3,43.7,0.9c15.4-6.4,28.6-18.6,37.2-34.6l0,0c8.6-15.9,11.6-33.6,8.5-49.8c-3.1-16.1-11.8-28.8-24.7-35.7
					C363.5,192.5,356.1,190.7,348.5,190.7L348.5,190.7z"/>
			</g>
			<g>
				<path class="st9" d="M378.4,277.4c-14.7,27.3-45.1,39.8-67.3,27.9c-22.2-11.9-27.7-43.8-13-71.1c14.7-27.3,44.6-39.8,66.8-27.8
					C387.1,218.2,393.1,250,378.4,277.4L378.4,277.4z"/>
				<path class="st10" d="M329.5,310.6c-6.6,0-13-1.5-18.7-4.6c-10.9-5.9-18.3-16.7-20.7-30.4c-2.4-13.6,0.2-28.4,7.4-41.9
					c14.9-27.7,45.4-40.3,67.9-28.2c10.9,5.9,18.4,16.7,21,30.3c2.6,13.6,0,28.5-7.2,41.8c-7.2,13.4-18.3,23.7-31.3,29
					C341.7,309.3,335.4,310.6,329.5,310.6L329.5,310.6z M346.7,202.6c-18,0-37,11.9-47.8,31.9c-7.1,13.1-9.6,27.6-7.2,40.8
					c2.4,13.2,9.5,23.6,19.9,29.2c10.5,5.7,23.2,5.9,35.7,0.8c12.6-5.2,23.4-15.3,30.4-28.3l0.7,0.4l-0.7-0.4c7-13,9.5-27.5,7-40.8
					c-2.5-13.2-9.7-23.6-20.2-29.2C358.9,204,352.9,202.6,346.7,202.6z"/>
			</g>
			<g>
				<path class="st6" d="M354.8,233c1.4,1,2.7,2.1,3.8,3.4c1.1,1.3,2,2.7,2.6,4.2c0.6,1.5,1,3.2,1,5c0.1,1.8-0.2,3.7-0.8,5.7
					l-5.5-2.8c0.3-2.2,0.2-4.1-0.5-5.8c-0.6-1.7-1.7-3.1-3.3-4.3l-7.8,15.4c0.9,1,1.7,2.1,2.6,3.1s1.6,2.1,2.3,3.2
					c0.7,1.1,1.3,2.2,1.8,3.3c0.5,1.1,0.9,2.2,1.1,3.4s0.2,2.3,0.1,3.5c-0.2,1.2-0.6,2.4-1.2,3.7c-1.1,2.1-2.4,3.7-3.9,4.8
					s-3.2,1.9-5,2.3c-1.8,0.4-3.7,0.5-5.6,0.3s-3.7-0.7-5.5-1.3l-3.9,7.7l-5.6-2.8l4-7.8c-1.5-1.2-2.7-2.6-3.7-4.2s-1.7-3.4-2.2-5.3
					c-0.5-1.9-0.7-3.9-0.6-5.9c0.1-2.1,0.5-4.1,1.2-6.2l5.8,3c-0.4,1.2-0.6,2.5-0.7,3.8s-0.1,2.4,0.1,3.6c0.2,1.1,0.5,2.2,1,3.2
					s1.1,1.9,1.9,2.6l8.5-16.7c-1.2-1.5-2.3-3-3.4-4.4c-1-1.5-1.9-3-2.5-4.6c-0.6-1.6-0.9-3.2-0.9-4.8c0-1.6,0.4-3.3,1.3-5.1
					c0.8-1.6,1.8-2.8,3.2-3.8c1.3-1,2.8-1.7,4.4-2.2c1.6-0.5,3.3-0.7,5.1-0.6c1.8,0.1,3.6,0.4,5.3,1l2.5-4.9l5.6,2.8L354.8,233
					L354.8,233z M337.1,238.6c-0.4,0.8-0.6,1.6-0.7,2.5c0,0.8,0.1,1.7,0.3,2.5c0.3,0.8,0.6,1.7,1.2,2.6c0.5,0.9,1.1,1.8,1.8,2.6
					l6.7-13.1c-2.2-0.7-4.1-0.7-5.7-0.1C339.1,236,337.9,237.1,337.1,238.6L337.1,238.6z M345,271.1c0.4-0.8,0.6-1.7,0.5-2.6
					s-0.3-1.8-0.7-2.8c-0.4-1-0.9-2-1.6-2.9c-0.7-1-1.4-2-2.1-2.9l-7.5,14.8c1.3,0.4,2.5,0.7,3.7,0.7c1.2,0,2.3-0.1,3.3-0.4
					c1-0.3,1.9-0.8,2.7-1.5C343.9,272.8,344.5,272,345,271.1L345,271.1z"/>
				<path class="st11" d="M327.3,288.7l-6.9-3.5l4-7.9c-1.3-1.2-2.5-2.5-3.4-4c-1-1.7-1.8-3.5-2.3-5.5c-0.5-2-0.7-4-0.6-6.1
					c0.1-2.1,0.5-4.3,1.2-6.4l0.3-0.8l7.2,3.7l-0.2,0.6c-0.4,1.2-0.6,2.4-0.7,3.6c-0.1,1.2-0.1,2.3,0.1,3.4c0.2,1,0.5,2,0.9,3
					c0.3,0.6,0.6,1.1,1,1.6l7.8-15.3c-1.1-1.4-2.2-2.8-3.1-4.1c-1.1-1.5-1.9-3.1-2.6-4.7c-0.7-1.7-1-3.4-1-5.1
					c0-1.8,0.5-3.6,1.4-5.4c0.8-1.7,2-3,3.4-4.1c1.4-1,2.9-1.8,4.6-2.3c1.7-0.5,3.5-0.7,5.3-0.6c1.7,0.1,3.3,0.3,4.9,0.8l2.6-5
					l6.9,3.5l-2.5,5c1.2,0.9,2.4,2,3.4,3.1c1.1,1.3,2,2.8,2.7,4.4c0.7,1.6,1,3.4,1.1,5.3c0.1,1.9-0.2,3.9-0.9,6l-0.3,0.9l-6.8-3.4
					l0.1-0.5c0.3-2.1,0.1-3.9-0.4-5.5c-0.5-1.3-1.2-2.4-2.4-3.4l-7.2,14.1c0.8,0.9,1.5,1.8,2.2,2.8c0.8,1,1.6,2.1,2.4,3.2
					c0.7,1.1,1.4,2.2,1.9,3.4c0.5,1.2,0.9,2.4,1.1,3.6c0.2,1.2,0.2,2.5,0.1,3.8s-0.6,2.6-1.3,3.9c-1.1,2.2-2.5,3.9-4.2,5.1
					c-1.6,1.2-3.4,2-5.3,2.4c-1.9,0.4-3.8,0.5-5.8,0.3c-1.7-0.2-3.4-0.6-5-1.1L327.3,288.7L327.3,288.7z M322.4,284.5l4.2,2.1
					l3.9-7.6l0.6,0.2c1.7,0.6,3.4,1,5.3,1.3c1.8,0.2,3.6,0.1,5.3-0.2c1.7-0.4,3.3-1.1,4.8-2.2c1.5-1,2.7-2.6,3.7-4.5
					c0.6-1.2,1-2.3,1.1-3.4c0.2-1.1,0.1-2.2,0-3.3c-0.2-1.1-0.5-2.2-1-3.2c-0.5-1-1.1-2.1-1.8-3.2c-0.7-1.1-1.5-2.1-2.3-3.1
					c-0.8-1-1.7-2.1-2.5-3.1l-0.3-0.4l8.5-16.6l0.7,0.5c1.7,1.3,3,2.9,3.6,4.7c0.6,1.6,0.8,3.5,0.5,5.6l4.2,2.1
					c0.4-1.6,0.6-3.2,0.6-4.6c-0.1-1.7-0.4-3.3-1-4.7c-0.6-1.5-1.4-2.8-2.5-4c-1.1-1.2-2.3-2.3-3.6-3.2l-0.5-0.4l2.5-4.8l-4.2-2.1
					l-2.5,4.8l-0.6-0.2c-1.7-0.6-3.4-0.9-5.1-0.9c-1.7-0.1-3.3,0.1-4.8,0.6c-1.5,0.4-2.9,1.1-4.1,2.1c-1.2,0.9-2.2,2.1-2.9,3.6
					c-0.8,1.6-1.3,3.2-1.2,4.8c0,1.5,0.3,3,0.9,4.5c0.6,1.5,1.4,3,2.4,4.4c1,1.4,2.1,2.9,3.3,4.4l0.3,0.4l-9.2,18l-0.7-0.7
					c-0.8-0.8-1.5-1.8-2-2.8c-0.5-1.1-0.9-2.2-1.1-3.4c-0.2-1.2-0.2-2.4-0.1-3.7c0.1-1.1,0.3-2.2,0.6-3.3l-4.5-2.3
					c-0.5,1.7-0.8,3.5-0.8,5.2c-0.1,2,0.1,3.9,0.5,5.7c0.4,1.8,1.1,3.5,2.1,5.1c0.9,1.5,2.1,2.9,3.5,4l0.5,0.4L322.4,284.5
					L322.4,284.5z M337.5,276.1c-0.1,0-0.2,0-0.3,0c-1.2,0-2.5-0.3-3.9-0.7l-0.8-0.3l8.5-16.6l0.7,0.9c0.8,1,1.5,2,2.2,3
					c0.7,1,1.2,2,1.7,3.1c0.4,1,0.7,2,0.8,3c0.1,1-0.1,2-0.6,3l0,0c-0.5,1-1.2,1.9-2,2.6c-0.8,0.7-1.8,1.2-2.9,1.6
					C339.7,275.9,338.6,276.1,337.5,276.1L337.5,276.1z M334.7,274.2c0.9,0.2,1.8,0.4,2.6,0.4c1.1,0,2.1-0.1,3-0.4
					c0.9-0.3,1.7-0.7,2.4-1.3c0.7-0.6,1.2-1.3,1.7-2.1l0,0c0.4-0.7,0.5-1.4,0.5-2.2c-0.1-0.8-0.3-1.7-0.7-2.6
					c-0.4-0.9-0.9-1.9-1.5-2.8c-0.4-0.6-0.9-1.3-1.4-1.9L334.7,274.2L334.7,274.2z M339.9,250.2l-0.7-1c-0.7-0.9-1.3-1.8-1.8-2.7
					c-0.5-0.9-1-1.8-1.2-2.7c-0.3-0.9-0.4-1.9-0.4-2.8c0-0.9,0.3-1.9,0.8-2.8c0.8-1.7,2.2-2.8,4-3.5c1.8-0.6,3.9-0.6,6.2,0.1
					l0.8,0.3L339.9,250.2L339.9,250.2z M343.2,235.8c-0.8,0-1.5,0.1-2.2,0.4c-1.5,0.5-2.5,1.4-3.2,2.8l0,0c-0.4,0.7-0.6,1.4-0.6,2.1
					c0,0.7,0.1,1.5,0.3,2.3c0.2,0.8,0.6,1.6,1.1,2.4c0.3,0.5,0.7,1.1,1,1.6l5.7-11.2C344.6,235.9,343.8,235.8,343.2,235.8
					L343.2,235.8z"/>
			</g>
		</g>
		<g>
			<g>
				<rect x="261.4" y="513.2" class="st12" width="90.4" height="266.5"/>
				<path class="st11" d="M352.6,780.5h-92V512.4h92V780.5z M262.2,778.9H351V514h-88.9V778.9z"/>
			</g>
			<g>
				<rect x="279.9" y="513.2" class="st4" width="90.4" height="266.5"/>
				<path class="st11" d="M371.2,780.5h-92V512.4h92V780.5z M280.7,778.9h88.9V514h-88.9V778.9z"/>
			</g>
			<g>
				<path class="st4" d="M87,814.6c10.3-25.6,106.7-45.7,224.2-45.7s213.9,20.1,224.2,45.7H87L87,814.6z"/>
				<path class="st11" d="M536.6,815.4H85.9l0.4-1.1c10.6-26.3,107.3-46.2,224.9-46.2s214.3,19.8,224.9,46.2L536.6,815.4
					L536.6,815.4z M88.2,813.8h446c-12.5-24.8-109.5-44.1-223-44.1S100.8,789,88.2,813.8L88.2,813.8z"/>
			</g>
			<g>
				<g>
					<path class="st12" d="M36.1,253.4H581c19.5,0,35.3,15.8,35.3,35.3v307.6c0,19.5-15.8,35.3-35.3,35.3H36.1
						c-19.5,0-35.3-15.8-35.3-35.3V288.7C0.8,269.2,16.6,253.4,36.1,253.4L36.1,253.4z"/>
					<path class="st11" d="M581,632.4H36.1C16.2,632.4,0,616.2,0,596.3V288.7c0-19.9,16.2-36.1,36.1-36.1H581
						c19.9,0,36.1,16.2,36.1,36.1v307.6C617,616.2,600.9,632.4,581,632.4L581,632.4z M36.1,254.2c-19,0-34.5,15.5-34.5,34.5v307.6
						c0,19,15.5,34.5,34.5,34.5H581c19,0,34.5-15.5,34.5-34.5V288.7c0-19-15.5-34.5-34.5-34.5L36.1,254.2L36.1,254.2z"/>
				</g>
				<g>
					<path class="st4" d="M26.3,288.7v307.6c0,19.5,15.8,35.3,35.3,35.3h544.9c16.6,0,30.6-11.5,34.3-27c0.6-2.7,1-5.4,1-8.3V288.7
						c0-19.5-15.8-35.3-35.3-35.3H61.6C42.1,253.4,26.3,269.2,26.3,288.7L26.3,288.7z"/>
					<path class="st11" d="M606.5,632.4H61.6c-19.9,0-36.1-16.2-36.1-36.1V288.7c0-19.9,16.2-36.1,36.1-36.1h544.9
						c19.9,0,36.1,16.2,36.1,36.1v307.6c0,2.8-0.3,5.7-1,8.5C637.7,621,623.2,632.4,606.5,632.4z M61.6,254.2
						c-19,0-34.5,15.5-34.5,34.5v307.6c0,19,15.5,34.5,34.5,34.5h544.9c16,0,29.8-10.9,33.5-26.4c0.6-2.6,1-5.4,1-8.1V288.7
						c0-19-15.5-34.5-34.5-34.5H61.6z"/>
				</g>
				<g>
					<path class="st6" d="M82.5,273.3h503c17.7,0,32.1,14.4,32.1,32.1v274.1c0,17.7-14.4,32.1-32.1,32.1h-503
						c-17.7,0-32.1-14.4-32.1-32.1V305.5C50.4,287.7,64.8,273.3,82.5,273.3L82.5,273.3z"/>
					<path class="st11" d="M585.5,612.5h-503c-18.2,0-32.9-14.8-32.9-32.9V305.4c0-18.2,14.8-32.9,32.9-32.9h503
						c18.2,0,32.9,14.8,32.9,32.9v274.1C618.5,597.7,603.7,612.5,585.5,612.5z M82.5,274.1c-17.3,0-31.4,14.1-31.4,31.4v274.1
						c0,17.3,14.1,31.4,31.4,31.4h503c17.3,0,31.4-14.1,31.4-31.4V305.4c0-17.3-14.1-31.4-31.4-31.4L82.5,274.1L82.5,274.1z"/>
				</g>
			</g>
			<g>
				<g>
					<rect x="167.8" y="488.9" class="st10" width="52.4" height="82"/>
					<rect x="92.4" y="546.5" class="st13" width="52.4" height="24.4"/>
					<rect x="239.5" y="458.4" class="st13" width="52.4" height="112.5"/>
					<rect x="311.2" y="428.5" class="st10" width="52.4" height="142.4"/>
				</g>
				<g>
					<g>
						<path class="st10" d="M341.6,358.6l-2.7,2.1l-4.5,3.4l-0.9,0.7l0,0l-39.2,29.9l-11.7,9l0,0l-8.4,6.4l-0.3-0.3l-1-0.8l-8.5-6.7
							l-18.9-15l-3.8-3l-0.8-0.6l-6.4-5.1l-4.4,7.4l-25.8,43.8l-5.2,8.9l-3.5,1.1l-6.3,1.9h0l-31.1,9.3h0l-5.9,1.8l-4.1,4.2l-1,1
							l-2.6,2.7l0,0l-37.4,39l0,0l-9.3,9.7l-0.3-0.3l0,0l-8.8-9c0.5-1.5,1.3-2.9,2.4-3.9c0.3-0.3,0.7-0.6,1.1-0.9l1.8,1.9l3.7,3.8
							l0.1,0.1l5.7-6l1.2-1.3l35.4-36.8l0,0l8.6-8.9l0.3-0.3l6.7-2l5.9-1.8l25.8-7.7h0l7.7-2.3l4.1-6.9l26.7-45.3l6.9-11.7l11.5,9
							l24.1,19l5.9,4.7l5-3.9l0,0l1.9-1.5l7.7-5.9l40.9-31.2l5.4-4.1l2.7-2.1L341.6,358.6L341.6,358.6z"/>
						<polygon class="st10" points="353,390.5 380.1,325.5 310.3,334.5 						"/>
					</g>
					<path class="st13" d="M107.5,503.7c-0.4,5.3-5,9.4-10.3,9h0c-5.3-0.4-9.3-5-9-10.3c0-0.8,0.2-1.5,0.4-2.2
						c0.5-1.5,1.3-2.9,2.4-3.9c0.3-0.3,0.7-0.6,1.1-0.9c1.8-1.3,4-2.1,6.5-1.9c0.1,0,0.1,0,0.2,0h0c1.7,0.2,3.3,0.8,4.7,1.7
						c1.7,1.2,2.9,2.8,3.6,4.8C107.4,501.1,107.6,502.3,107.5,503.7L107.5,503.7z"/>
					<path class="st13" d="M158.1,452.7c-0.4,5.3-5,9.3-10.3,9s-9.3-5-9-10.3c0.4-5.3,5-9.3,10.3-9
						C154.4,442.8,158.4,447.4,158.1,452.7z"/>
					<path class="st13" d="M206.7,437c-0.4,5.3-5,9.3-10.3,9s-9.3-5-9-10.3c0.4-5.3,5-9.3,10.3-9C203.1,427.1,207.1,431.7,206.7,437
						z"/>
					<path class="st13" d="M282.9,406.9c-0.4,5.3-5,9.3-10.3,9c-5.3-0.4-9.3-5-9-10.3s5-9.3,10.3-9
						C279.2,397,283.3,401.6,282.9,406.9z"/>
					<path class="st13" d="M244.4,378.3c-0.4,5.3-5,9.3-10.3,9c-5.3-0.4-9.3-5-9-10.3c0.4-5.3,5-9.4,10.3-9
						C240.7,368.3,244.7,372.9,244.4,378.3z"/>
				</g>
			</g>
			<g>
				<path class="st10" d="M552.8,406.2c0,32.6-26.5,59.1-59.1,59.1s-59.1-26.5-59.1-59.1c0-26,16.8-48.1,40.1-56
					c5.2,15.3,19,56,19,56L552.8,406.2L552.8,406.2z"/>
				<path class="st13" d="M558.5,398h-59.1c0,0-13.7-40.7-19-56c6-2,12.3-3.1,19-3.1C532,338.9,558.5,365.3,558.5,398z"/>
			</g>
			<g>
				<g>
					<path class="st12" d="M506.3,508.7h-68.4c-3.4,0-6.1-2.7-6.1-6.1l0,0c0-3.3,2.7-6.1,6.1-6.1h68.4c3.4,0,6.1,2.7,6.1,6.1l0,0
						C512.4,506,509.7,508.7,506.3,508.7z"/>
					<path class="st12" d="M415.6,508.7h-2.4c-3.4,0-6.1-2.7-6.1-6.1l0,0c0-3.3,2.7-6.1,6.1-6.1h2.4c3.4,0,6.1,2.7,6.1,6.1l0,0
						C421.6,506,418.9,508.7,415.6,508.7z"/>
					<path class="st12" d="M568.3,528.6h-68.4c-3.4,0-6.1-2.7-6.1-6.1l0,0c0-3.4,2.7-6.1,6.1-6.1h68.4c3.4,0,6.1,2.7,6.1,6.1l0,0
						C574.4,525.8,571.7,528.6,568.3,528.6z"/>
					<path class="st12" d="M477.6,528.6h-2.4c-3.4,0-6.1-2.7-6.1-6.1l0,0c0-3.4,2.7-6.1,6.1-6.1h2.4c3.3,0,6.1,2.7,6.1,6.1l0,0
						C483.6,525.8,480.9,528.6,477.6,528.6z"/>
					<path class="st12" d="M568.3,508.7h-38.4c-3.3,0-6.1-2.7-6.1-6.1l0,0c0-3.3,2.7-6.1,6.1-6.1h38.4c3.4,0,6.1,2.7,6.1,6.1l0,0
						C574.4,506,571.7,508.7,568.3,508.7z"/>
					<path class="st12" d="M451.6,528.6h-38.4c-3.4,0-6.1-2.7-6.1-6.1l0,0c0-3.4,2.7-6.1,6.1-6.1h38.4c3.4,0,6.1,2.7,6.1,6.1l0,0
						C457.6,525.8,454.9,528.6,451.6,528.6z"/>
				</g>
				<g>
					<path class="st12" d="M506.3,550.3h-68.4c-3.3,0-6.1-2.7-6.1-6.1l0,0c0-3.4,2.7-6.1,6.1-6.1h68.4c3.4,0,6.1,2.7,6.1,6.1l0,0
						C512.4,547.6,509.7,550.3,506.3,550.3z"/>
					<path class="st12" d="M415.6,550.3h-2.4c-3.4,0-6.1-2.7-6.1-6.1l0,0c0-3.4,2.7-6.1,6.1-6.1h2.4c3.4,0,6.1,2.7,6.1,6.1l0,0
						C421.6,547.6,418.9,550.3,415.6,550.3z"/>
					<path class="st12" d="M568.3,570.2h-68.4c-3.4,0-6.1-2.7-6.1-6.1l0,0c0-3.4,2.7-6.1,6.1-6.1h68.4c3.4,0,6.1,2.7,6.1,6.1l0,0
						C574.4,567.5,571.7,570.2,568.3,570.2z"/>
					<path class="st12" d="M477.6,570.2h-2.4c-3.4,0-6.1-2.7-6.1-6.1l0,0c0-3.4,2.7-6.1,6.1-6.1h2.4c3.3,0,6.1,2.7,6.1,6.1l0,0
						C483.6,567.5,480.9,570.2,477.6,570.2z"/>
					<path class="st12" d="M568.3,550.3h-38.4c-3.3,0-6.1-2.7-6.1-6.1l0,0c0-3.4,2.7-6.1,6.1-6.1h38.4c3.4,0,6.1,2.7,6.1,6.1l0,0
						C574.4,547.6,571.7,550.3,568.3,550.3z"/>
					<path class="st12" d="M451.6,570.2h-38.4c-3.4,0-6.1-2.7-6.1-6.1l0,0c0-3.4,2.7-6.1,6.1-6.1h38.4c3.3,0,6.1,2.7,6.1,6.1l0,0
						C457.6,567.5,454.9,570.2,451.6,570.2z"/>
				</g>
			</g>
		</g>
		<g>
			<g>
				<path class="st9" d="M765.3,371.8c19,8.8,45,2.2,62.8-17.6c17.7-19.6,21.7-45.9,11.3-63.9l1.2-1.4l-8.7-7.9
					c-18.9-17.1-51.3-12-72.4,11.3c-21.1,23.3-22.8,56.1-3.9,73.2l8.2,7.8L765.3,371.8L765.3,371.8z"/>
				<path class="st10" d="M783.3,376.4c-6.2,0-12.3-1.2-17.9-3.7l-1.5,1.7l-8.8-8.4c-19.2-17.4-17.5-50.7,3.8-74.3
					c10.3-11.4,23.6-18.9,37.5-21c13.9-2.2,26.7,1.3,36.1,9.7l9.3,8.4l-1.4,1.5c10.4,18.7,5.7,45.1-11.7,64.4
					C816.1,368.7,799.2,376.5,783.3,376.4L783.3,376.4z M765.1,370.8l0.5,0.2c19.2,8.9,44.6,1.7,61.9-17.4
					c17.1-18.9,21.7-44.8,11.2-63l-0.3-0.5l1.1-1.2l-8.1-7.3c-9-8.1-21.3-11.4-34.7-9.3c-13.5,2.1-26.5,9.4-36.5,20.5
					c-20.7,22.9-22.5,55.3-3.9,72l7.6,7.2L765.1,370.8L765.1,370.8z"/>
			</g>
			<g>
				<path class="st6" d="M836.8,362.1c-21.1,23.3-54,28.3-72.9,11.2c-18.9-17.1-16.7-49.8,4.4-73.1c21.1-23.3,53.5-28.4,72.4-11.3
					C859.6,306,857.9,338.8,836.8,362.1L836.8,362.1z"/>
				<path class="st11" d="M791.8,384.1c-10.6,0-20.5-3.4-28.3-10.4c-19-17.1-17-50.3,4.3-74c21.3-23.5,54.1-28.6,73.3-11.3
					c9.3,8.4,14,20.7,13.3,34.7c-0.7,14-6.8,27.9-17.1,39.3C824.5,376.6,807.5,384.1,791.8,384.1L791.8,384.1z M813.1,279.4
					c-15.3,0-31.9,7.3-44.4,21.2c-20.9,23.2-22.9,55.6-4.4,72.2c18.8,17,51.1,12,72.1-11.2l0,0c10.1-11.2,16-24.9,16.8-38.5
					c0.7-13.6-3.8-25.6-12.9-33.8C832.8,282.6,823.2,279.4,813.1,279.4L813.1,279.4z"/>
			</g>
			<g>
				<path class="st9" d="M830.7,356.6c-17.3,19.1-44.4,23.2-59.9,9.2c-15.6-14-13.7-40.9,3.6-60.1c17.3-19.2,43.9-23.3,59.5-9.3
					C849.4,310.5,848,337.4,830.7,356.6L830.7,356.6z"/>
				<path class="st10" d="M793.6,374.9c-9,0-17.1-3-23.3-8.6c-7.7-6.9-11.5-17.2-10.8-28.8c0.7-11.5,5.8-23,14.3-32.4
					c17.6-19.5,44.8-23.6,60.6-9.3c7.7,7,11.6,17.2,11,28.8c-0.6,11.5-5.6,23.1-14.1,32.5l0,0c-8.5,9.4-19.5,15.5-31.1,17.3
					C798,374.8,795.7,374.9,793.6,374.9L793.6,374.9z M811.2,289c-12.5,0-26,6-36.2,17.3c-8.3,9.2-13.2,20.3-13.9,31.4
					c-0.7,11.1,2.9,20.9,10.3,27.5c7.3,6.6,17.5,9.4,28.6,7.6c11.2-1.7,21.9-7.7,30.1-16.8l0,0c8.2-9.1,13.1-20.3,13.7-31.5
					c0.6-11.1-3.1-20.9-10.5-27.5C827.3,291.6,819.5,289,811.2,289L811.2,289z"/>
			</g>
			<g>
				<path class="st6" d="M820.4,316c0.9,1.1,1.7,2.2,2.4,3.5c0.6,1.2,1.1,2.5,1.3,3.9c0.2,1.4,0.2,2.8-0.1,4.2
					c-0.3,1.5-0.9,3-1.8,4.5l-3.9-3.3c0.7-1.7,0.9-3.3,0.8-4.8c-0.2-1.5-0.8-2.8-1.8-4.2l-9.4,10.9c0.5,1,1,2,1.4,3
					c0.5,1,0.9,2,1.2,3c0.4,1,0.6,2,0.8,3s0.3,2,0.2,3c-0.1,1-0.3,1.9-0.7,2.9s-0.9,1.8-1.7,2.7c-1.3,1.5-2.7,2.5-4.1,3.1
					c-1.5,0.6-3,0.9-4.5,0.9c-1.5,0-3.1-0.3-4.6-0.9c-1.5-0.6-2.9-1.3-4.1-2.1l-4.7,5.4l-3.9-3.4l4.8-5.5c-0.9-1.3-1.7-2.6-2.1-4.2
					s-0.7-3.1-0.7-4.7c0-1.6,0.2-3.3,0.7-4.9c0.5-1.6,1.2-3.2,2.2-4.8l4.1,3.6c-0.6,0.9-1,1.9-1.3,2.9c-0.3,1-0.5,2-0.6,2.9
					c-0.1,1,0,1.9,0.2,2.8c0.2,0.9,0.5,1.7,1,2.5l10.2-11.8c-0.7-1.4-1.3-2.8-1.8-4.2c-0.6-1.4-0.9-2.8-1.1-4.2
					c-0.2-1.4-0.1-2.8,0.2-4.1c0.3-1.3,1-2.6,2.1-3.8c0.9-1.1,2.1-1.9,3.3-2.5s2.6-0.9,4-0.9s2.8,0.1,4.2,0.5c1.4,0.4,2.8,1,4.1,1.9
					l3-3.5l3.9,3.4L820.4,316L820.4,316z M805,317.1c-0.5,0.6-0.8,1.2-1,1.9c-0.2,0.7-0.3,1.4-0.2,2.1s0.2,1.5,0.4,2.3
					c0.2,0.8,0.6,1.6,0.9,2.5l8-9.3c-1.6-1-3.1-1.4-4.6-1.2C807.1,315.4,805.9,316,805,317.1L805,317.1z M804.9,344.9
					c0.5-0.6,0.8-1.2,0.9-2c0.1-0.7,0.1-1.5,0-2.4c-0.1-0.9-0.4-1.8-0.7-2.7s-0.7-1.9-1.1-2.8l-9,10.5c0.9,0.6,1.9,1,2.8,1.3
					c0.9,0.2,1.8,0.4,2.7,0.3c0.9-0.1,1.7-0.3,2.4-0.6C803.7,346.1,804.4,345.5,804.9,344.9L804.9,344.9z"/>
				<path class="st11" d="M787.1,355.6l-4.9-4.2l4.8-5.6c-0.8-1.2-1.5-2.5-1.9-3.9c-0.5-1.6-0.7-3.2-0.7-4.9s0.2-3.4,0.7-5.1
					c0.5-1.7,1.2-3.4,2.2-5l0.4-0.6l5.1,4.4l-0.3,0.5c-0.5,0.9-1,1.8-1.3,2.8c-0.3,0.9-0.5,1.9-0.6,2.8c-0.1,0.9,0,1.8,0.2,2.6
					c0.1,0.5,0.3,1,0.5,1.5l9.3-10.8c-0.6-1.3-1.2-2.6-1.7-3.9c-0.6-1.4-0.9-2.9-1.1-4.3c-0.2-1.5-0.1-2.9,0.2-4.3
					c0.3-1.4,1.1-2.8,2.2-4.1c1-1.2,2.2-2.1,3.5-2.7c1.3-0.6,2.7-0.9,4.2-1c1.4-0.1,2.9,0.1,4.4,0.5c1.3,0.4,2.6,0.9,3.8,1.6
					l3.1-3.6l4.9,4.2l-3.1,3.6c0.8,1,1.5,2.1,2.1,3.2c0.7,1.3,1.1,2.7,1.3,4.1c0.2,1.4,0.2,2.9-0.2,4.5c-0.3,1.5-1,3.1-1.9,4.7
					l-0.4,0.6l-4.8-4.1l0.2-0.4c0.6-1.6,0.9-3.1,0.8-4.5c-0.1-1.1-0.5-2.2-1.2-3.2l-8.6,10c0.4,0.9,0.9,1.8,1.3,2.7
					c0.5,1,0.9,2,1.3,3.1c0.4,1,0.7,2.1,0.9,3.1c0.2,1,0.3,2.1,0.2,3.1c-0.1,1-0.3,2.1-0.7,3.1c-0.4,1-1,2-1.8,2.9
					c-1.3,1.5-2.8,2.6-4.4,3.3c-1.6,0.6-3.1,1-4.8,0.9c-1.6,0-3.2-0.3-4.8-0.9c-1.3-0.5-2.6-1.1-3.8-1.9L787.1,355.6L787.1,355.6z
					 M784,351.2l3,2.6l4.6-5.4l0.5,0.3c1.2,0.8,2.6,1.5,4,2.1c1.4,0.5,2.9,0.8,4.3,0.9c1.5,0,2.9-0.3,4.3-0.8s2.7-1.6,3.9-3
					c0.7-0.8,1.2-1.7,1.6-2.5c0.3-0.9,0.6-1.8,0.6-2.7c0.1-0.9,0-1.9-0.2-2.8c-0.2-0.9-0.5-1.9-0.8-2.9c-0.3-1-0.8-2-1.2-3
					c-0.5-1-1-2-1.4-3l-0.2-0.4l10.1-11.7l0.5,0.6c1.2,1.4,1.8,2.9,2,4.5c0.2,1.4-0.1,3-0.7,4.7l3,2.6c0.7-1.2,1.1-2.4,1.4-3.6
					c0.3-1.4,0.3-2.7,0.1-4c-0.2-1.3-0.6-2.5-1.2-3.7c-0.6-1.2-1.4-2.3-2.3-3.3l-0.4-0.4l2.9-3.4l-3-2.6l-2.9,3.4l-0.5-0.3
					c-1.2-0.8-2.6-1.4-3.9-1.8c-1.4-0.4-2.7-0.6-4-0.5c-1.3,0.1-2.6,0.4-3.7,0.9c-1.2,0.5-2.2,1.3-3.1,2.3c-1,1.2-1.7,2.4-1.9,3.6
					c-0.3,1.2-0.3,2.5-0.2,3.8c0.2,1.3,0.5,2.7,1.1,4c0.5,1.4,1.1,2.8,1.8,4.2l0.2,0.4l-11,12.8l-0.4-0.7c-0.5-0.8-0.9-1.7-1.1-2.7
					c-0.2-1-0.3-2-0.2-3s0.3-2,0.7-3c0.3-0.9,0.7-1.7,1.1-2.5l-3.2-2.7c-0.7,1.3-1.3,2.6-1.7,4c-0.5,1.6-0.7,3.2-0.7,4.7
					c0,1.5,0.2,3.1,0.7,4.5c0.4,1.4,1.1,2.8,2,4l0.3,0.4L784,351.2L784,351.2z M800.1,347.7c-0.8,0-1.6-0.1-2.4-0.3
					c-1-0.3-2-0.7-3-1.4l-0.6-0.4l10.1-11.8l0.4,0.9c0.4,0.9,0.8,1.9,1.2,2.8c0.3,1,0.6,1.9,0.7,2.8c0.1,0.9,0.2,1.8,0,2.6
					c-0.1,0.9-0.5,1.6-1.1,2.3l0,0c-0.6,0.7-1.3,1.3-2.2,1.7c-0.8,0.4-1.7,0.6-2.7,0.7C800.4,347.7,800.2,347.7,800.1,347.7
					L800.1,347.7z M796,345.3c0.7,0.4,1.3,0.6,2,0.8c0.9,0.2,1.7,0.3,2.5,0.3c0.8,0,1.5-0.2,2.2-0.6c0.7-0.3,1.3-0.8,1.8-1.4
					c0.4-0.5,0.7-1,0.8-1.7c0.1-0.7,0.1-1.4,0-2.2c-0.1-0.8-0.3-1.7-0.7-2.6c-0.2-0.6-0.5-1.2-0.7-1.8L796,345.3L796,345.3z
					 M804.9,327l-0.4-0.9c-0.4-0.9-0.7-1.8-0.9-2.6c-0.3-0.9-0.4-1.7-0.4-2.5c0-0.8,0-1.6,0.2-2.3c0.2-0.7,0.6-1.4,1.2-2.1l0,0
					c1-1.2,2.3-1.9,3.9-2c1.6-0.1,3.2,0.3,5,1.3l0.6,0.4L804.9,327L804.9,327z M809.1,315.9c-0.2,0-0.3,0-0.5,0
					c-1.3,0.1-2.3,0.6-3.1,1.6l0,0c-0.4,0.5-0.7,1-0.9,1.6c-0.2,0.6-0.2,1.2-0.2,1.9c0,0.7,0.2,1.4,0.4,2.2c0.1,0.5,0.3,1,0.5,1.5
					l6.8-8C811,316.1,810,315.8,809.1,315.9L809.1,315.9z"/>
			</g>
		</g>
		<g>
			<g>
				<path class="st9" d="M594.5,157.9c26.1-12.7,41.8-46.3,36.3-82.7c-5.5-36.2-30-63.5-58.5-68.2l-0.4-2.5l-16.1,2.4
					c-34.9,5.3-57.9,44.4-51.5,87.4c6.5,43,40,73.6,75,68.3l15.6-1.9L594.5,157.9z"/>
				<path class="st10" d="M571.5,164c-32.3,0-61.9-29.5-67.9-69.6c-3.2-21,0.5-41.7,10.3-58.4c9.8-16.7,24.7-27.4,41.8-29.9
					l16.9-2.5l0.4,2.8c29.2,5.1,53.2,33.3,58.6,68.8c5.4,35.8-9.5,70-36.2,83.3l0.4,3l-16.4,2.1C576.7,163.8,574.1,164,571.5,164
					L571.5,164z M571.2,5.4l-15.3,2.3c-16.6,2.5-31.1,12.9-40.7,29.2c-9.6,16.3-13.2,36.7-10.1,57.3c6.4,42.5,39.6,72.9,74,67.7
					l14.8-1.8l-0.4-2.5l0.5-0.3c26.4-12.8,41.2-46.5,35.8-81.8c-5.3-35-29.1-62.8-57.8-67.5l-0.6-0.1L571.2,5.4L571.2,5.4z"/>
			</g>
			<g>
				<path class="st6" d="M646.8,72.8c6.5,43-17.1,82.6-52,87.9c-34.9,5.3-67.9-25.8-74.4-68.8c-6.5-43,16.5-82.1,51.5-87.4
					C606.8-0.8,640.4,29.8,646.8,72.8L646.8,72.8z"/>
				<path class="st11" d="M587.2,162c-32,0-61.4-29.7-67.5-70c-6.5-43.3,16.8-82.9,52.1-88.2c17.1-2.6,34.4,3.2,48.7,16.2
					c14.3,13,23.9,31.7,27,52.7l0,0c3.2,20.9-0.6,41.7-10.6,58.6c-10,16.8-24.9,27.6-42,30.1C592.4,161.8,589.8,162,587.2,162
					L587.2,162z M579.8,4.6c-2.6,0-5.2,0.2-7.8,0.6c-34.5,5.2-57.3,44-50.9,86.6c6,39.6,34.7,68.8,66.1,68.8c2.5,0,5-0.2,7.5-0.6
					c16.7-2.5,31.2-13,41-29.4c9.8-16.5,13.5-37,10.4-57.6l0,0c-3.1-20.6-12.6-39-26.6-51.8C607.7,10.3,593.8,4.6,579.8,4.6
					L579.8,4.6z"/>
			</g>
			<g>
				<path class="st9" d="M635.6,74.5c5.3,35.3-14,67.9-42.7,72.2c-28.7,4.3-55.8-21.2-61.1-56.5s13.6-67.5,42.3-71.8
					C602.7,14.1,630.2,39.2,635.6,74.5L635.6,74.5z"/>
				<path class="st10" d="M586.5,148c-11.9,0-23.6-4.9-33.5-14.1c-11.6-10.8-19.4-26.3-22.1-43.6c-5.4-35.7,13.9-68.3,42.9-72.7
					c14.1-2.1,28.4,2.6,40.2,13.4c11.8,10.7,19.7,26.1,22.3,43.4l0,0c2.6,17.3-0.5,34.4-8.7,48.3c-8.2,13.9-20.5,22.7-34.7,24.9
					C590.8,147.9,588.7,148,586.5,148L586.5,148z M580.5,18.7c-2.1,0-4.2,0.2-6.4,0.5c-28.2,4.2-46.8,36-41.6,70.9
					c2.6,17,10.2,32.1,21.6,42.7c11.3,10.5,25.1,15.2,38.7,13.2c13.6-2.1,25.5-10.6,33.5-24.1c8-13.5,11-30.3,8.5-47.2l0,0
					c-2.5-16.9-10.3-32-21.8-42.5C603.3,23.4,592,18.7,580.5,18.7L580.5,18.7z"/>
			</g>
			<g>
				<path class="st6" d="M583.1,50c2-0.1,3.9,0.1,5.8,0.5c1.9,0.4,3.7,1.1,5.3,2.1c1.6,1,3.1,2.3,4.4,3.9c1.3,1.6,2.4,3.6,3.2,5.9
					l-7,1.2c-1.3-2.2-2.7-3.9-4.4-5c-1.7-1.1-3.7-1.7-6.1-1.7l3.4,19.5c1.5,0.4,3,0.7,4.5,1.1c1.5,0.4,2.9,0.8,4.3,1.3
					c1.4,0.5,2.7,1.1,3.9,1.7s2.3,1.5,3.3,2.4c1,0.9,1.8,2,2.5,3.2c0.7,1.2,1.2,2.6,1.4,4.2c0.5,2.6,0.4,5-0.3,7.2
					c-0.7,2.1-1.7,4-3,5.6c-1.4,1.6-3,3-4.9,4.1c-1.9,1.1-3.9,2-5.9,2.6l1.7,9.8l-7.1,1.2l-1.7-9.9c-2.2-0.1-4.3-0.6-6.3-1.4
					c-2-0.8-3.9-1.9-5.7-3.4c-1.7-1.4-3.3-3.1-4.6-5.1c-1.3-2-2.4-4.1-3.2-6.5l7.4-1.3c0.5,1.4,1.2,2.7,1.9,4
					c0.8,1.2,1.6,2.3,2.6,3.2c1,0.9,2,1.7,3.1,2.2c1.1,0.6,2.3,0.9,3.6,1.1l-3.7-21.2c-2.1-0.5-4.2-1.1-6.2-1.8
					c-2-0.6-3.8-1.5-5.5-2.5c-1.7-1-3-2.3-4.2-3.8c-1.1-1.5-1.9-3.4-2.3-5.6c-0.3-2-0.3-3.9,0.2-5.7c0.5-1.8,1.3-3.5,2.5-5
					c1.2-1.5,2.6-2.9,4.3-4.1c1.7-1.2,3.6-2.1,5.6-2.8l-1.1-6.3l7.1-1.2L583.1,50L583.1,50z M570.7,67.4c0.2,1,0.5,1.9,1.1,2.7
					c0.5,0.8,1.2,1.5,2,2.1s1.8,1.1,2.8,1.6c1.1,0.4,2.2,0.9,3.5,1.2l-2.9-16.7c-2.5,0.9-4.2,2.1-5.3,3.8
					C570.8,63.7,570.4,65.4,570.7,67.4L570.7,67.4z M600.5,91.8c-0.2-1-0.6-2-1.3-2.7c-0.7-0.8-1.5-1.5-2.6-2.1
					c-1-0.6-2.2-1.2-3.5-1.6c-1.3-0.5-2.6-0.9-4-1.2l3.3,18.8c1.5-0.5,2.8-1.1,3.8-1.9s2-1.7,2.7-2.6c0.7-1,1.2-2.1,1.5-3.2
					C600.7,94.2,600.7,93,600.5,91.8L600.5,91.8z"/>
				<path class="st11" d="M587.5,121.8l-1.8-10.1c-2-0.2-4-0.6-5.9-1.4c-2.1-0.9-4.1-2-5.9-3.5c-1.8-1.5-3.4-3.2-4.8-5.2
					c-1.4-2-2.5-4.3-3.3-6.7l-0.3-1l9.2-1.6l0.2,0.7c0.5,1.4,1.1,2.6,1.8,3.8c0.7,1.1,1.5,2.2,2.4,3c0.9,0.9,1.8,1.6,2.9,2.1
					c0.7,0.4,1.4,0.6,2.1,0.8l-3.4-19.4c-2-0.5-3.9-1.1-5.7-1.6c-2-0.7-3.9-1.5-5.6-2.6c-1.7-1.1-3.2-2.4-4.4-4
					c-1.2-1.6-2-3.6-2.5-6c-0.4-2.1-0.3-4.2,0.3-6.1c0.5-1.9,1.4-3.7,2.6-5.3c1.2-1.6,2.7-3,4.5-4.3c1.6-1.1,3.3-2,5.1-2.6l-1.1-6.4
					l8.8-1.5l1.1,6.4c1.8,0,3.5,0.2,5.2,0.5c2,0.4,3.8,1.2,5.5,2.2c1.7,1,3.3,2.4,4.7,4.1c1.4,1.7,2.5,3.7,3.3,6.1l0.3,1l-8.6,1.5
					l-0.3-0.5c-1.2-2.1-2.6-3.7-4.1-4.7c-1.3-0.9-2.8-1.4-4.5-1.5l3.1,17.9c1.3,0.3,2.7,0.6,4,1c1.5,0.4,3,0.8,4.4,1.3
					c1.5,0.5,2.8,1.1,4.1,1.8c1.3,0.7,2.5,1.6,3.5,2.5c1,1,1.9,2.1,2.7,3.4c0.7,1.3,1.2,2.8,1.5,4.5c0.5,2.8,0.4,5.3-0.3,7.6
					c-0.7,2.2-1.8,4.2-3.2,5.9c-1.5,1.7-3.2,3.1-5.2,4.3c-1.7,1-3.5,1.8-5.4,2.4l1.7,9.9L587.5,121.8L587.5,121.8z M567.8,95.2
					c0.7,1.9,1.7,3.7,2.8,5.3c1.3,1.9,2.8,3.5,4.5,4.9c1.7,1.4,3.5,2.4,5.4,3.2c1.9,0.8,4,1.2,6,1.3l0.7,0l1.7,9.8l5.4-0.9l-1.7-9.7
					l0.7-0.2c2-0.6,3.9-1.4,5.7-2.5c1.8-1.1,3.4-2.4,4.7-3.9c1.3-1.5,2.3-3.3,2.9-5.3c0.6-2,0.7-4.2,0.3-6.7
					c-0.3-1.5-0.7-2.8-1.3-3.9c-0.6-1.1-1.4-2.2-2.3-3c-0.9-0.9-2-1.6-3.2-2.2c-1.2-0.6-2.5-1.2-3.8-1.7c-1.4-0.5-2.8-0.9-4.2-1.3
					c-1.5-0.4-3-0.7-4.5-1.1l-0.6-0.1L583.3,56h1c2.5,0,4.7,0.6,6.5,1.8c1.7,1.1,3.1,2.7,4.4,4.8l5.4-0.9c-0.7-1.8-1.6-3.3-2.7-4.6
					c-1.2-1.5-2.6-2.7-4.2-3.7c-1.5-0.9-3.2-1.6-5-2c-1.8-0.4-3.7-0.6-5.6-0.5l-0.8,0l-1.1-6.2l-5.4,0.9l1.1,6.1l-0.7,0.2
					c-1.9,0.6-3.7,1.5-5.4,2.7c-1.6,1.1-3,2.4-4.1,3.9c-1.1,1.4-1.9,3-2.4,4.8c-0.5,1.7-0.5,3.5-0.2,5.3c0.4,2.1,1.1,3.9,2.1,5.2
					c1.1,1.4,2.4,2.6,4,3.6c1.6,1,3.3,1.8,5.3,2.4c1.9,0.6,3.9,1.2,6.1,1.7l0.5,0.1l4,23l-1.2-0.2c-1.3-0.2-2.6-0.6-3.8-1.2
					c-1.2-0.6-2.3-1.4-3.3-2.4c-1-1-1.9-2.1-2.7-3.4c-0.7-1.1-1.2-2.2-1.7-3.4L567.8,95.2L567.8,95.2z M591.7,104.1L588,83l1.3,0.3
					c1.4,0.4,2.7,0.8,4,1.2c1.3,0.5,2.5,1,3.6,1.7c1.1,0.6,2,1.4,2.8,2.3c0.8,0.9,1.3,2,1.5,3.2l0,0c0.2,1.3,0.2,2.6-0.1,3.8
					c-0.3,1.2-0.8,2.4-1.6,3.5c-0.8,1.1-1.7,2-2.9,2.9c-1.2,0.8-2.5,1.5-4.1,2L591.7,104.1L591.7,104.1z M590.2,85.3l2.9,16.5
					c1-0.4,1.9-0.9,2.7-1.4c1-0.7,1.8-1.6,2.5-2.4c0.6-0.9,1.1-1.9,1.3-2.9c0.2-1,0.3-2,0.1-3.1c-0.2-0.9-0.5-1.6-1.1-2.3
					c-0.6-0.7-1.4-1.4-2.4-1.9c-1-0.6-2.1-1.1-3.3-1.6C592,85.9,591.1,85.6,590.2,85.3L590.2,85.3z M581.3,76.1l-1.3-0.4
					c-1.3-0.4-2.5-0.8-3.6-1.2c-1.2-0.5-2.1-1-3-1.7c-0.9-0.7-1.7-1.4-2.2-2.3c-0.6-0.9-1-1.9-1.2-3.1c-0.4-2.1,0.1-4.1,1.3-6
					c1.2-1.8,3.2-3.2,5.8-4.1l1-0.4L581.3,76.1L581.3,76.1z M576.6,59.4c-1.8,0.8-3.1,1.8-4,3.1c-1,1.5-1.3,3-1,4.7l0,0
					c0.2,0.9,0.5,1.7,0.9,2.4c0.5,0.7,1.1,1.3,1.8,1.9c0.8,0.6,1.6,1,2.7,1.5c0.7,0.3,1.3,0.5,2,0.8L576.6,59.4L576.6,59.4z"/>
			</g>
		</g>
		<g>
			<path class="st14" d="M661.8,772.4c0,0-5.5-9.4-20.1-4.4c-14.7,5-19.3,4.4-19.3,4.4S590.7,728,510.7,728s-110.1,21-130.3,44.5
				c0,0-5.5,0.1-10.9-2.8c-5.3-2.8-5.3,1.2-9.1,2.8c0,0-3.5,8.9,3.8,7.6c7.2-1.3,15.4-0.9,16.7,1.7s-1,41.4,134,35.1
				c83.1-3.8,99.4-16.6,109.5-28.3c0,0,13-5.2,19.1-2.5C649.6,788.8,662.2,785.8,661.8,772.4L661.8,772.4z"/>
			<g>
				<path class="st10" d="M696.4,772.4c0,0-5.5-9.4-20.1-4.4c-14.7,5-19.3,4.4-19.3,4.4S625.2,728,545.3,728S435.1,749,415,772.5
					c0,0-5.5,0.1-10.9-2.8c-5.3-2.8-5.3,1.2-9.1,2.8c0,0-3.5,8.9,3.8,7.6c7.2-1.3,15.4-0.9,16.7,1.7s-1,41.4,134,35.1
					c83.1-3.8,99.4-16.6,109.5-28.3c0,0,13-5.2,19.1-2.5C684.2,788.8,696.8,785.8,696.4,772.4L696.4,772.4z"/>
				<path class="st15" d="M522,818.4c-64.8,0-102.5-12.3-107.1-35.4c-0.1-0.3-0.1-0.7-0.2-0.8c-0.9-2-8.3-2.6-15.8-1.3
					c-2.1,0.4-3.7,0-4.6-1.2c-2-2.4-0.2-7,0-7.5l0.1-0.3l0.3-0.1c1.1-0.5,1.9-1.2,2.6-1.9c1.5-1.5,3.1-3,7.2-0.8
					c4.3,2.3,8.8,2.6,10.1,2.7c19.9-23.1,49.7-44.5,130.7-44.5c75.9,0,108.9,40.5,112,44.5c1.2,0,6.4-0.2,18.6-4.3
					c15.1-5.2,21,4.6,21.1,4.7l0.1,0.2v0.2c0.2,7.2-3.1,11-6,12.9c-4.6,3.1-10.2,2.9-13.4,1.5c-5.3-2.4-16.7,1.8-18.3,2.5
					c-10.6,12.3-28.1,24.6-110,28.4C539.9,818.2,530.7,818.4,522,818.4L522,818.4z M406.8,778.6c4.4,0,8.4,0.7,9.4,2.9
					c0.1,0.3,0.2,0.6,0.3,1.2c5,25.3,52.2,37.2,132.9,33.4c81.6-3.8,98.6-15.9,108.9-28l0.1-0.2l0.2-0.1c0.5-0.2,13.4-5.3,19.7-2.5
					c2.9,1.3,7.9,1.3,11.8-1.4c2.5-1.7,5.4-5,5.3-11.3c-0.8-1.2-6.1-8.3-19.1-3.8c-14.7,5-19.5,4.4-19.7,4.4l-0.3,0l-0.2-0.3
					c-0.3-0.4-32.4-44.1-111-44.1s-110,21.2-129.7,44.2l-0.2,0.3H415c-0.2,0-5.8,0-11.2-2.9c-3-1.6-3.9-0.8-5.3,0.6
					c-0.7,0.7-1.6,1.5-2.8,2.1c-0.5,1.4-1.2,4.3-0.1,5.6c0.5,0.7,1.6,0.9,3.1,0.6C401.1,778.9,404,778.6,406.8,778.6L406.8,778.6z"
					/>
			</g>
		</g>
		<g>
			<path class="st14" d="M909.4,772.4c0,0-5.4-9.4-20.1-4.4c-14.7,5-19.3,4.4-19.3,4.4S838.3,728,758.4,728s-110.1,21-130.3,44.5
				c0,0-5.5,0.1-10.9-2.8c-5.3-2.8-5.3,1.2-9.1,2.8c0,0-3.5,8.9,3.8,7.6c7.2-1.3,15.4-0.9,16.7,1.7s-1,41.4,134,35.1
				c83.1-3.8,99.4-16.6,109.5-28.3c0,0,13-5.2,19.1-2.5S909.8,785.8,909.4,772.4L909.4,772.4z"/>
			<g>
				<path class="st10" d="M944,772.4c0,0-5.4-9.4-20.1-4.4c-14.7,5-19.3,4.4-19.3,4.4S872.9,728,792.9,728s-110.1,21-130.3,44.5
					c0,0-5.5,0.1-10.9-2.8c-5.3-2.8-5.3,1.2-9.1,2.8c0,0-3.5,8.9,3.8,7.6c7.2-1.3,15.4-0.9,16.7,1.7s-1,41.4,134,35.1
					c83.1-3.8,99.4-16.6,109.5-28.3c0,0,13-5.2,19.1-2.5S944.4,785.8,944,772.4L944,772.4z"/>
				<path class="st15" d="M769.7,818.4c-64.8,0-102.5-12.3-107.1-35.4c-0.1-0.3-0.1-0.7-0.2-0.8c-0.9-2-8.3-2.6-15.8-1.3
					c-2.1,0.4-3.7,0-4.6-1.2c-2-2.4-0.2-7,0-7.5l0.1-0.3l0.3-0.1c1.1-0.5,1.9-1.2,2.6-1.9c1.5-1.5,3.1-3,7.2-0.8
					c4.3,2.3,8.8,2.6,10.1,2.7c19.9-23.1,49.7-44.5,130.7-44.5c75.9,0,108.9,40.5,112,44.5c1.2,0,6.4-0.2,18.6-4.3
					c15.1-5.2,21.1,4.6,21.1,4.7l0.1,0.2v0.2c0.2,7.2-3.1,11-6,12.9c-4.6,3.1-10.2,2.9-13.4,1.5c-5.3-2.4-16.7,1.8-18.3,2.5
					c-10.6,12.3-28.1,24.6-110,28.4C787.6,818.2,778.4,818.4,769.7,818.4L769.7,818.4z M654.4,778.6c4.4,0,8.4,0.7,9.4,2.9
					c0.1,0.3,0.2,0.6,0.3,1.2c5,25.3,52.2,37.2,132.9,33.4c81.6-3.8,98.6-15.9,108.9-28l0.1-0.2l0.2-0.1c0.5-0.2,13.4-5.3,19.7-2.5
					c2.9,1.3,7.9,1.3,11.8-1.4c2.5-1.7,5.4-5,5.3-11.3c-0.8-1.2-6.1-8.3-19.1-3.8c-14.7,5-19.5,4.4-19.7,4.4l-0.3,0l-0.2-0.3
					c-0.3-0.4-32.4-44.1-111-44.1s-110,21.2-129.7,44.2l-0.2,0.3h-0.4c-0.2,0-5.8,0-11.2-2.9c-3-1.6-3.9-0.8-5.3,0.6
					c-0.7,0.7-1.6,1.5-2.8,2.1c-0.5,1.4-1.2,4.3-0.1,5.6c0.5,0.7,1.6,0.9,3.1,0.6C648.7,778.9,651.6,778.6,654.4,778.6L654.4,778.6z
					"/>
			</g>
		</g>
		<g>
			<g>
				<path class="st6" d="M790.5,644c39.2-23.1,34.6-27.1,42-46c1.7-4.4-12.6-10.9-12.6-10.9c-29.6,25.3-39.2,23.1-47.9,14.1
					c-3.8-4-28.1-94.2-61.8-111.4c-11.6-5.9-9.9-0.5-14.1,11.8c-8.5,25,2.1,80,21.8,114.1C741.1,656,753.4,665.8,790.5,644z"/>
				<path class="st16" d="M759.4,656.2c-2.4,0-4.6-0.3-6.8-0.9c-12.7-3.3-22.3-16.3-35.4-39.1c-19.7-34.2-30.4-90-21.9-114.8
					c0.8-2.4,1.4-4.5,1.9-6.4c1.2-4.2,2-7.1,4.2-8c1.9-0.8,4.5-0.2,9.1,2.2c26.3,13.4,46.8,70.3,56.6,97.7c2.5,7,4.7,13.1,5.4,13.8
					c7.4,7.8,16.1,12.1,46.8-14.1l0.4-0.3l0.5,0.2c2.5,1.1,14.9,7.1,13,11.9c-1.2,3-2,5.6-2.8,7.9c-4.3,13-6.2,18.9-39.5,38.5l0,0
					C777.6,652.5,767.7,656.2,759.4,656.2L759.4,656.2z M703.2,488.2c-0.4,0-0.8,0.1-1.1,0.2c-1.5,0.7-2.2,3.2-3.3,7
					c-0.5,1.9-1.1,4-2,6.5c-8.4,24.5,2.2,79.6,21.7,113.5c12.9,22.4,22.3,35.1,34.4,38.3c9.3,2.5,20.4-0.7,37-10.4l0,0
					c32.8-19.3,34.7-25,38.8-37.6c0.8-2.3,1.7-5,2.8-8c0.9-2.5-6.1-7-11.7-9.6c-28.6,24.3-39.1,23.6-48.6,13.7
					c-0.9-1-2.4-5.1-5.8-14.4c-9.8-27.2-30-83.6-55.8-96.8C706.7,489,704.6,488.2,703.2,488.2L703.2,488.2z"/>
			</g>
			<path class="st13" d="M455.3,674.1c35.1,28.4,69.9,57.5,108.2,81.6c31.7,19.9,68.2,40.9,106.6,42.8c17.3,0.9,30-11.6,43.4-20.9
				c18.6-13,37.1-26.2,55.4-39.6c17-12.5,34.5-24.6,50-38.8c9-8.2,20-17.8,18.2-30.7c16.8-1.6,33.8-1.4,50.8,2.8
				c4.1,1.1-3.2-25.4-7.4-26.4c-33-8.2-63.5,5.4-91.5,18.1c-34.9,15.9-72.3,13.4-110.6,10.7c-24.4-1.7-48.9-4.4-73.4-6.5
				c-0.4-1-1.3-2-2.7-1.9c-12.6,1.2-24.4,1.2-35.7,0.5c-11.3-0.7-22-2.1-32.3-3.8c-31.6-5.2-59.3-12.9-88.7-9.5
				C442.6,652.6,453.3,672.3,455.3,674.1L455.3,674.1z"/>
			<g>
				<path class="st6" d="M677.4,572.3c13.8,2.1,27,1.9,39.4-1.2c2.5-0.6,5-1.3,7.5-2.2c11-3.9,21.6-10.3,31.9-19.9
					c-1.4-6.8-11.9-52.3-35.6-73.1c-5-4.4-13.3-11-22.1-15.4c-8.5-4.4-17.5-6.8-24.2-3.1c-1.1,0.6-2.1,1.3-3.1,2.3
					C650.6,480.2,665.1,533.9,677.4,572.3L677.4,572.3z"/>
				<path class="st16" d="M695,574.5c-5.7,0-11.5-0.5-17.8-1.4l-0.5-0.1l-0.2-0.5c-13.5-42.2-26.3-93.2-6-113.4c1-1,2-1.8,3.3-2.5
					c6.1-3.4,14.5-2.4,25,3c8.8,4.4,16.9,10.9,22.3,15.5c25.1,21.9,35.4,71.4,35.9,73.5l0.1,0.5l-0.3,0.3c-10.2,9.4-20.7,16-32.2,20
					c-2.7,1-5.1,1.7-7.5,2.2C710,573.7,702.8,574.5,695,574.5L695,574.5z M678,571.6c14.3,2.1,26.9,1.7,38.6-1.3
					c2.4-0.5,4.8-1.2,7.4-2.2c11.2-4,21.4-10.3,31.3-19.4c-1.2-5.4-11.5-51.4-35.2-72.2c-5.3-4.6-13.3-11-21.9-15.3
					c-6.8-3.6-16.5-7-23.4-3.1c-1.1,0.6-2.1,1.3-2.9,2.2C652.1,479.8,664.7,529.9,678,571.6L678,571.6z"/>
			</g>
			<path class="st14" d="M534.4,661.8c0.1,0.7,0.5,1.4,1.3,2c1.1,0.7,2.1,1.4,3.2,2.1c0,0.4-0.1,0.8,0,1.1
				c2.1,22.1,33,26.6,49.8,26.9c7.1,0.2,14.2,0.1,21.3-0.1c27.8,5.2,57.5,8.1,85.1,1.1c3.2-0.8,3.7-5,0.6-6.4
				c-16.5-6.9-37.2-4.5-56.1-2.8c-7.4-1.1-14.7-2.4-21.9-4.4c-14.7-4.1-28.7-10.2-43.6-13.6c-2.7-0.6-5.1-1.3-7.4-2.1
				C555.4,664.9,544.7,663.5,534.4,661.8L534.4,661.8z"/>
			<path class="st2" d="M696.4,575.1c12.1-1.8,20.4-4,27.8-6.2c-32.3-22.8-1.3-54.3-12.1-68.5c-4.6-6-7-35-13.7-39.9
				c-8.5-4.4-17.5-6.8-24.2-3.1c5.9,4.7,17,14.9,22.4,18.8c9.7,13.1,1.2,33.4,1,49.4C697.1,529,694.6,574.2,696.4,575.1L696.4,575.1
				z"/>
			<g>
				<path class="st6" d="M751.6,674.3c-99.7,43.5-210-11.2-210.5-11.4c1.9-3.6,24.1-41.2,30.2-54.9c3-6.7,4.7-14.8,5.5-23
					c1.5-13.1,0.8-26.6-0.1-35.4c-0.4-4.3-0.9-7.5-1.1-9.1c-0.1-0.2-0.1-0.4-0.1-0.5c-8-39.9-25.5-87.2,20.9-101.8
					c5.7-1.9,12.5-3.1,20.3-3.8h0.1c8.4-0.8,18.2-0.9,29.4-0.2c0,0,14,4.9,30.2,13.1c5.5,2.8,11.3,6,16.9,9.5
					c16.7,10.5,20.3,31.5,19.8,45.8c-0.4,9.9-12.3,31.1-15.5,35.4C704.6,584.9,743.9,660.6,751.6,674.3L751.6,674.3z"/>
				<path class="st16" d="M666.5,692c-64.1,0-117.5-24.4-125.6-28.3l-0.8-0.4l0.2-0.8c0.5-0.9,2.2-4,4.7-8.3
					c7.3-12.7,20.9-36.4,25.5-46.6c2.7-6.1,4.6-14,5.4-22.7c1.7-14.9,0.5-29.6-0.1-35.2c-0.3-3.8-0.7-6.7-1-8.4l-0.1-0.7
					c-0.1-0.1-0.1-0.4-0.1-0.6c-1-4.7-2.1-9.7-3.2-14.5c-8.3-36.9-16.8-75,24.6-88.1c5.7-1.9,12.4-3.1,20.5-3.9
					c8.5-0.8,18.4-0.9,29.5-0.2l0.2,0c0.1,0,14.3,5,30.3,13.1c6.4,3.2,12,6.4,17,9.5c20,12.5,20.5,38.8,20.1,46.5
					c-0.4,10.4-12.3,31.1-15.5,35.6c7.1,45.8,44.3,118.8,53.9,135.9l0.4,0.8l-0.8,0.4C723.3,687.5,693.9,692,666.5,692L666.5,692z
					 M542.2,662.5c14.2,6.7,115.2,51.5,208.2,11.4c-10.3-18.5-46.9-90.6-53.7-136l0-0.3l0.2-0.3c3.2-4.2,15-25.1,15.3-34.9
					c0.3-7.5-0.1-33-19.4-45.1c-5-3.1-10.5-6.2-16.8-9.4c-15.2-7.7-28.7-12.5-30-13c-11-0.7-20.8-0.6-29.1,0.2
					c-8,0.7-14.6,2-20.2,3.8c-40,12.6-31.6,50-23.5,86.2c1.1,4.9,2.2,9.9,3.2,14.7c0,0.2,0.1,0.3,0.1,0.4l0,0.2l0.1,0.7
					c0.2,1.8,0.6,4.7,1,8.4c0.7,7,1.7,21.1,0.1,35.6c-0.9,9.1-2.8,16.9-5.6,23.2c-4.6,10.3-18.2,34-25.6,46.7
					C544.5,658.5,543,661.1,542.2,662.5L542.2,662.5z"/>
			</g>
			<g>
				<path class="st6" d="M657.1,419.8v18.7c0,0,5,9.2,0,10.2c-11,2.2-27-15-27-15v-25.1L657.1,419.8L657.1,419.8z"/>
				<path class="st16" d="M655.1,449.7c-11.1,0-24.9-14.8-25.5-15.5l-0.2-0.2v-26.6l28.6,11.9v19c0.6,1.2,3.2,6.4,1.8,9.4
					c-0.5,1-1.3,1.6-2.5,1.9C656.6,449.6,655.9,449.7,655.1,449.7L655.1,449.7z M631,433.4c1.9,2,16.2,16.5,26,14.5
					c0.7-0.1,1.1-0.4,1.3-1c1-2-1-6.5-1.9-8.1l-0.1-0.2v-18.4L631,409.8L631,433.4L631,433.4z"/>
			</g>
			<path class="st2" d="M630.1,431v-14.3c0,0,13.7,13.1,27,13.9C657.1,430.6,641.2,438.4,630.1,431L630.1,431z"/>
			<g>
				<path class="st6" d="M682.1,376.6c0,0-3.3,27.3-10.1,45c-4.8,12.6-34.7,16.4-43.2-9.6c-8.5-26,10-48.6,10-48.6L682.1,376.6
					L682.1,376.6z"/>
				<path class="st16" d="M653.9,432.1c-0.2,0-0.5,0-0.7,0c-11.8-0.3-21.2-7.7-25.2-19.9c-8.5-26.1,10-49.1,10.2-49.4l0.3-0.4
					l44.4,13.6l-0.1,0.7c0,0.3-3.4,27.6-10.1,45.2C670.4,428,662.7,432.1,653.9,432.1L653.9,432.1z M639.2,364.3
					c-2.4,3.2-17.2,24.1-9.6,47.4c3.8,11.5,12.6,18.5,23.7,18.8c8.3,0.3,15.9-3.7,18-9.2c6.1-15.9,9.4-39.8,10-44.1L639.2,364.3
					L639.2,364.3z"/>
			</g>
			<path class="st10" d="M618.4,333c7.5-6.8,16.6-8.1,25.3-2.7c3.5,2.1,6.6,5.4,6.8,9.7c0.1,2.5-0.7,4.7-1.9,6.7
				c15.3-0.7,68.9,16.4,37.5,50.6c-1.9-19.6-24.5-27-36.7-19.2c-1.4,1.8-2.5,4.1-3.7,6.8c-3.3,7.4-6.2,13.9-13.1,18.7
				c-9.1,6.3-17.9,2.2-18.6-6.7c-0.5-6.1,1.6-16.8,5.1-26.3c-6.1,0.5-13-2.7-15.3-8.4C599.8,352.1,611.7,339,618.4,333L618.4,333z"
				/>
			<g>
				<path class="st6" d="M646.3,387.6c0,0-5.2-7.1-9.7-2.2c-4.5,4.9-1.2,11,2.1,11.5C642,397.3,646.7,390.9,646.3,387.6L646.3,387.6
					z"/>
				<path class="st16" d="M639.1,397.7c-0.2,0-0.3,0-0.5,0c-1.9-0.2-3.7-2-4.5-4.3c-1.1-2.9-0.4-6.1,1.9-8.5c1.3-1.4,2.8-2.1,4.3-2
					c3.6,0.2,6.5,4.1,6.6,4.2l0.1,0.2l0,0.2c0.3,2.5-1.8,6-3.8,8C642.3,396.6,640.7,397.7,639.1,397.7L639.1,397.7z M640.1,384.5
					c-1,0-2,0.5-2.9,1.5c-2.6,2.9-2,5.8-1.6,6.9c0.6,1.7,1.9,3,3.2,3.2c0.9,0.1,2.1-0.5,3.3-1.7c2-1.9,3.4-4.7,3.4-6.4
					c-0.6-0.7-2.8-3.3-5.3-3.4C640.2,384.5,640.2,384.5,640.1,384.5L640.1,384.5z"/>
			</g>
			<path class="st2" d="M675.3,544.2c-14.7,11.1-35.5,11.3-52.4,17.8c-14.9,5.8-30.4,19.6-46.1,23c1.5-13.1,0.8-26.6-0.1-35.4
				c0.1-0.2,0.3-0.4,0.5-0.5c-0.5-2.8-0.9-5.6-1.5-8.5c0-0.2,0-0.3-0.1-0.5c2.8-5.4,7.4-11.7,14.6-18.5
				c19.2-18.2,14.3-62.8,14.3-62.8c4.4,22.3,5.5,56.3-1.9,70c-3.4,6-9,14.7-14.9,21.9c0,0.3,0.2,0.5,0.2,0.8
				c-0.5,7.3,44.5-7.6,49.9-9c12-3.2,23.8-4.9,36.3-4.2C677.1,538.3,677.5,542.6,675.3,544.2L675.3,544.2z"/>
			<path class="st14" d="M583.9,762c25.4,8.8,52.3,15.5,79.2,17.1c21.4,1.3,35.4-16.9,50.5-29.8c22.2-18.8,43.5-38.8,69.2-52.8
				c8.2-4.5,32.1-14.5,31.7-26.4c-0.6-13.6-20.1-1.6-24.5,1.1c-9.4,5.8-17.3,13.5-26.1,20.1c-11.8,8.9-25,15.8-38.6,21.7
				c-23.9,10.2-49.1,17.6-73.7,25.8c-8.4,2.8-17.2,6.8-26,7.7c-6,0.6-11.7-1.1-17.6-1.4c-6.2-0.4-13.2-0.4-18.3,3.4
				c-1.1,0.8-1.5,2.7-0.9,3.9c0.4,0.8,0.9,1.5,1.4,2.1c-1.9,0.3-3.8,0.7-5.8,1C581.2,756.1,580.8,760.9,583.9,762L583.9,762z"/>
			<path class="st2" d="M620.8,826c1.6-0.3,5.6-3.7,6.2-4c3.3-1.7,7.3-1.9,10.9-2.6c5.3-1,10.4-2.5,15.4-4.7
				c11.6-5.1,20.8-16.7,33.5-18.7c0.8-0.1,1.2-0.6,1.5-1.2c0.8-0.2,1.4-0.7,1.5-1.7c0.7-6.3-3.1-17-9.7-19.6c-3-1.2-7,0.6-9.9,1
				c-8.6,1.3-15.8,0-24.1-1.5c-11.7-2.1-19.9,5.3-31.4,5c-6.2-0.2-10.2,0.1-11.4,7.4C601.7,794.4,606.7,828.3,620.8,826L620.8,826z"
				/>
			<path class="st13" d="M679.7,789.6L679.7,789.6c2.3,3.4,4.7,6.3,6.8,7.7c7.9,5.2,151.5-29.8,170-41.4
				c15.9-10,33.7-20.2,43.2-37.1c6.1-10.9,8.3-23.6,7-36c-0.5-4.5-1.5-9-2.9-13.3c-4.4-13.3-8.4-21.1-23.1-24.7
				c-16.6-4-37.4,2.3-52.6,8.5c-19.8,8.2-37.5,20.8-53.6,34.7c-16.9,14.5-88.5,68.3-103.3,85.3C672.3,781,674.5,782.7,679.7,789.6
				L679.7,789.6z"/>
			<path class="st2" d="M623.8,780.2c0,0,0.1,0,0.1,0c6.5,0.6,13.5,2.6,14.3,10.2c0.4,4-1.2,8.1-1.5,12.1c-0.3,5.4-0.5,10.2-2,15.5
				c-0.7,2.5-4.3,1.1-3.8-1.3c2.8-12.3-3.2-23.3-9.7-33.3C620.1,781.4,622.3,779.2,623.8,780.2L623.8,780.2z"/>
			<path class="st14" d="M679.7,789.6L679.7,789.6c2.3,3.4,4.7,6.3,6.8,7.7c7.9,5.2,151.5-29.8,170-41.4
				c15.9-10,33.7-20.2,43.2-37.1c6.1-10.9,8.3-23.6,7-36c-12.3,13.2-24.9,26.2-39.4,37.1c-19.8,14.9-43.2,24-66.6,31.8
				c-20,6.6-40.4,10.2-61.1,14c-17.7,3.3-35.6,7.5-51.2,16.7C685.4,784.2,682,786.8,679.7,789.6z"/>
			<g>
				<path class="st6" d="M712,798.6c-1.2-7.3-5.2-7.5-11.4-7.4c-11.5,0.3-19.6-7.1-31.4-5c-8.4,1.5-15.5,2.8-24.1,1.5
					c-2.8-0.4-6.9-2.2-9.9-1c-6.6,2.6-10.4,13.3-9.7,19.6c0.1,1,0.8,1.5,1.5,1.7c0.2,0.6,0.7,1.1,1.5,1.2
					c12.8,2,21.9,13.6,33.5,18.7c5,2.2,10,3.6,15.4,4.7c3.5,0.7,7.6,0.9,10.9,2.6c0.6,0.3,4.6,3.7,6.2,4
					C708.4,841.4,713.4,807.4,712,798.6L712,798.6z"/>
				<path class="st16" d="M695.7,840c-0.5,0-1,0-1.5-0.1c-1.3-0.2-3.3-1.7-5.4-3.3c-0.5-0.4-0.9-0.7-1-0.8c-2.3-1.2-5-1.6-7.7-2
					c-1-0.2-2-0.3-3-0.5c-5.8-1.1-10.9-2.7-15.5-4.7c-4.8-2.1-9.1-5.3-13.4-8.4c-6.2-4.5-12.5-9.1-19.9-10.3
					c-0.9-0.1-1.5-0.6-1.9-1.3c-1-0.3-1.7-1.2-1.8-2.3c-0.7-6.3,3-17.6,10.2-20.4c2.4-0.9,5.2-0.2,7.7,0.4c0.9,0.2,1.8,0.5,2.6,0.6
					c8.5,1.3,15.6,0,23.9-1.5c6.6-1.2,12.2,0.6,17.6,2.3c4.3,1.4,8.9,2.8,13.9,2.7c5.6-0.2,10.9-0.3,12.2,8.1
					c1.1,7-1.7,29.8-10.1,38.3C700.6,838.9,698.2,840,695.7,840L695.7,840z M637.5,787.1c-0.7,0-1.4,0.1-2,0.3
					c-6.3,2.4-9.9,12.9-9.2,18.7c0.1,0.7,0.5,0.9,0.9,1l0.5,0.1l0.2,0.4c0.1,0.4,0.4,0.6,0.8,0.7c7.8,1.2,14.3,6,20.6,10.5
					c4.2,3,8.5,6.2,13.1,8.2c4.5,2,9.5,3.5,15.2,4.6c0.9,0.2,1.9,0.3,2.9,0.5c2.8,0.4,5.7,0.9,8.2,2.2c0.2,0.1,0.5,0.4,1.3,0.9
					c1.2,0.9,3.7,2.8,4.7,3c2.5,0.4,4.9-0.5,7-2.6c7.8-7.8,10.8-29.9,9.7-36.9l0,0c-1.1-6.6-4.4-6.9-10.6-6.7
					c-5.3,0.1-9.9-1.3-14.4-2.8c-5.4-1.8-10.6-3.4-16.8-2.2c-8.4,1.5-15.6,2.8-24.4,1.5c-0.8-0.1-1.8-0.3-2.7-0.6
					C640.7,787.6,639,787.1,637.5,787.1L637.5,787.1z"/>
			</g>
			<path class="st13" d="M646.4,785.3c-14.8-17-84.4-74.2-101.3-88.8c-16.2-13.9-33.8-26.5-53.6-34.7c-15.3-6.3-36.1-12.5-52.6-8.5
				c-14.8,3.6-20.7,16.6-25.1,29.8c-1.4,4.3-2.4,8.8-2.9,13.3c-1.3,12.4,0.8,25.1,7,36c9.5,16.9,27.3,27.1,43.2,37.1
				c18.5,11.7,162.2,46.7,170,41.4c2.1-1.4,4.5-4.3,6.8-7.7c0,0,0,0,0,0C643.5,794.7,647.3,786.3,646.4,785.3z"/>
			<path class="st2" d="M691.4,793.2c0,0-0.1,0-0.1,0c-6.5,0.6-13.5,2.6-14.3,10.2c-0.4,4,1.2,8.1,1.5,12.1c0.4,5.4,0.5,10.2,2,15.5
				c0.7,2.5,4.3,1.1,3.7-1.3c-2.9-12.3,3.2-23.3,9.7-33.3C695.1,794.5,692.9,792.2,691.4,793.2L691.4,793.2z"/>
			<path class="st14" d="M629,796.2c-15.6-9.3-33.5-13.4-51.2-16.7c-20.7-3.8-41.1-7.4-61.1-14c-23.4-7.8-46.8-16.9-66.6-31.8
				c-14.5-10.8-27.1-23.8-39.4-37.1c-1.3,12.4,0.8,25.1,7,36c9.5,16.9,27.3,27.1,43.2,37.1c18.5,11.7,162.2,46.7,170,41.4
				c2.1-1.4,4.5-4.3,6.8-7.7c0,0,0,0,0,0C635.4,800.5,632,798,629,796.2L629,796.2z"/>
			<path class="st13" d="M617.5,362c11.1-4.2,20.7-10.6,29-19.1c3-3.1,7.4,1.9,4.4,4.9c-8.6,8.9-18.8,15.7-30.4,20.1
				C616.5,369.4,613.5,363.5,617.5,362L617.5,362z"/>
			<g>
				<path class="st6" d="M606.9,608.3c0,0-7.2,20.7-7.9,22.4c0,0-62.7,37-106.3,23.4c-42.5-13.3-12.5-100.2,17.2-148.1
					c0.1-0.2,0.3-0.3,0.5-0.5c31.1-30.1,57.9,27.1,51.9,31.7c-2.2,1.7-7.2,13.4-9.6,16.2c-12.9,14.5-27.6,50.1-28.5,57.9
					C523.7,614.9,605.4,607.8,606.9,608.3z"/>
				<path class="st16" d="M513.9,657.9c-7.4,0-14.7-0.9-21.4-3c-8.9-2.8-15.2-8.9-18.6-18.1c-11.2-30.2,9.8-90.1,35.3-131.2
					c0.1-0.2,0.3-0.3,0.4-0.5l0.2-0.2c8.3-8.1,17-10.7,25.9-7.8c15.2,4.9,26.3,25.4,28,35.1c0.5,2.9,0.2,4.9-0.9,5.8
					c-1,0.8-3,4.6-4.8,8c-1.8,3.5-3.5,6.7-4.8,8.1c-12.5,14.1-26.9,48.3-28.3,57.1c4.3,1.6,45-1.2,64.7-2.6c14.5-1,17-1.2,17.5-1
					l0.8,0.2l-0.3,0.8c-0.3,0.8-7.2,20.7-8,22.5l-0.1,0.3l-0.2,0.1C598.9,631.8,554,657.9,513.9,657.9L513.9,657.9z M528.8,497.6
					c-6.1,0-12.1,2.8-17.9,8.5c0,0-0.1,0.1-0.2,0.2c-25.4,40.9-46.3,100.2-35.3,129.9c3.2,8.7,9.2,14.5,17.5,17.1
					c41.4,12.9,101.1-20.7,105.4-23.2c1-2.5,6-17,7.5-21.1c-2.4,0.1-8.8,0.5-16,1c-41.5,2.9-64.3,4-66.2,2c-0.2-0.2-0.3-0.5-0.3-0.9
					c1-8.2,15.9-43.8,28.7-58.3c1.1-1.2,2.8-4.6,4.5-7.8c2.5-4.7,4-7.6,5.2-8.5c0.5-0.3,0.8-1.6,0.3-4.2
					c-1.6-9.3-12.3-29.1-26.9-33.8C533.1,498,530.9,497.6,528.8,497.6L528.8,497.6z"/>
			</g>
			<g>
				<path class="st6" d="M555.7,560.7c5.5-4.3,41.5-34.1,49.6-64.1c3.7-13.7,9.7-45-7.3-50.5c-27.2-8.8-68.8,28.1-97.7,56.2
					C509.2,529.7,525.2,549.6,555.7,560.7L555.7,560.7z"/>
				<path class="st16" d="M555.8,561.6l-0.4-0.2c-28.3-10.3-46.1-29-56-58.9l-0.2-0.5l0.4-0.3c31.8-30.8,71.7-65.1,98.5-56.4
					c18.5,6,10.7,40.9,7.9,51.5c-8.6,32-48.2,63.2-49.9,64.5L555.8,561.6L555.8,561.6z M501.1,502.5c9.7,29,27,47.2,54.4,57.2
					c4.3-3.4,40.8-33.1,48.9-63.4c2.7-10.2,10.3-44-6.8-49.5C571.7,438.5,532.5,472.1,501.1,502.5L501.1,502.5z"/>
			</g>
			<g>
				<g>
					<path class="st6" d="M603.2,608.2c8.2-4.5,22.2-7.5,31.1-1c4.3,3.1,2.5,5.8-2.2,4.7c-9-2.1-15.6-0.8-2.1,1.5
						c2.7,0.5,8.2,2.8,8,4.8c-0.5,4.3-10,1.3-14.4,0.6c-3.5,1.2,6.4,4.5,7.8,6.2c6.1,7.5-12.5,1.8-13.4,2.8c-2.4,2.9,10.7,4.8,5.5,8
						c-3.9,2.4-15.2-4.3-19.2-4.4c-3.2-0.1-5.4,2.1-8-0.7C590.3,624.4,599.7,610.1,603.2,608.2L603.2,608.2z"/>
					<path class="st16" d="M621.3,637.1c-2.9,0-6.7-1.5-10.4-2.9c-2.7-1-5.2-2-6.6-2c-1,0-1.8,0.2-2.7,0.4c-1.9,0.4-3.8,0.9-5.9-1.3
						c-1.8-1.9-2.5-4.6-2-8c1.1-6.8,6.6-14.3,9.1-15.7l0,0c7.6-4.2,22.4-8,31.9-1c3.2,2.4,2.9,4.2,2.6,4.9c-0.7,1.4-2.7,1.9-5.4,1.3
						c-2.5-0.6-4.6-0.9-6.3-1c1,0.2,2.5,0.5,4.5,0.9c2.6,0.5,9,2.8,8.6,5.7c-0.1,0.9-0.5,1.6-1.2,2.1c-2.3,1.7-7.4,0.6-11.5-0.3
						c-0.8-0.2-1.5-0.3-2.2-0.4c0.8,0.6,2.7,1.6,4,2.3c2.2,1.1,3.5,1.8,4.1,2.5c0.5,0.6,2,2.5,1.2,3.9c-1.1,2-5.2,1.5-10.9,0.5
						c-1.4-0.2-3.1-0.5-3.7-0.5c0,0,0,0,0,0.1c0.1,0.6,1.9,1.5,3,2.1c2,1.1,3.9,2.1,4,3.6c0,1.2-1.2,2-1.6,2.2
						C623.2,636.9,622.3,637.1,621.3,637.1L621.3,637.1z M604.1,630.6c0.1,0,0.1,0,0.2,0c1.6,0,4.2,1,7.1,2.1
						c4.3,1.6,9.6,3.6,11.6,2.4c0.7-0.4,0.8-0.7,0.8-0.8c0-0.6-2-1.6-3.1-2.2c-1.9-1-3.6-1.9-3.9-3.2c-0.1-0.4-0.1-1,0.4-1.6
						c0.5-0.6,1.6-0.5,5.1,0.1c2.6,0.4,8.6,1.4,9.3,0.2c0,0,0.2-0.5-1-2.1c-0.4-0.5-2.2-1.4-3.6-2.1c-3.3-1.7-5.2-2.7-5.1-4
						c0-0.4,0.3-1,1.3-1.3l0.2-0.1l0.2,0c0.8,0.1,1.7,0.3,2.7,0.5c3.4,0.7,8.5,1.8,10.2,0.5c0.3-0.2,0.5-0.5,0.5-1
						c0.1-1.1-4.1-3.3-7.3-3.9c-7.8-1.3-8.1-2.2-8.3-2.7l-0.2-0.5l0.3-0.5c1.1-1.2,7.6-0.2,10.5,0.5c2,0.5,3.3,0.2,3.5-0.4
						c0.2-0.5-0.3-1.6-2-2.9c-9-6.5-23-2.9-30.2,1.1l0,0c-2.2,1.2-7.4,8.4-8.3,14.6c-0.4,2.9,0.1,5.1,1.5,6.7
						c1.5,1.6,2.6,1.3,4.4,0.9C602,630.8,603,630.6,604.1,630.6L604.1,630.6z"/>
				</g>
				<g>
					<path class="st6" d="M600.3,611c1.7-3.2,6.1-10.9,9.5-12.5c1.9-0.9,4.7-0.9,3.9,2c-0.5,1.8-2,3.4-3.3,4.5
						c-1.2,1.1-2,2.6-3.3,3.5C605.9,609.6,600.1,611.4,600.3,611L600.3,611z"/>
					<path class="st16" d="M600.4,611.8c-0.3,0-0.5,0-0.6-0.2l-0.5-0.4l0.3-0.6l0,0c4.1-7.4,7.3-11.6,9.9-12.8
						c1.4-0.7,3.3-0.9,4.4,0c0.5,0.4,1.1,1.3,0.6,2.9c-0.4,1.5-1.5,3.1-3.5,4.9c-0.5,0.4-0.9,1-1.3,1.5c-0.6,0.7-1.2,1.5-2,2.1
						C607.1,609.7,602.2,611.8,600.4,611.8L600.4,611.8z M611.9,598.8c-0.5,0-1.2,0.2-1.8,0.4c-2,1-4.8,4.5-8.3,10.7
						c1.7-0.5,4.2-1.4,4.8-1.9c0.6-0.5,1.2-1.1,1.7-1.8c0.5-0.6,1-1.2,1.5-1.7c1.7-1.6,2.7-2.9,3-4.2c0.1-0.4,0.2-1-0.1-1.3
						C612.6,598.9,612.3,598.8,611.9,598.8z"/>
				</g>
			</g>
			<path class="st6" d="M645.4,385.4L644,388l-4.5,7.9c0,0-0.3,1.2-1.2,2.4c-1,1.2,3.9,4,5.5,2.8c1.6-1.2,7.4-6.1,7.4-6.1
				s1.3-4.3,0.6-6.4c-0.8-2.1-4.5-3.9-4.5-3.9L645.4,385.4L645.4,385.4z"/>
			<path class="st6" d="M611.9,605.4c0,0-1.8,0.6-1.8-1.2s-6.2,2.1-7.3,3.9s-2.2,1-3.8,1.3c-1.6,0.3-9.6,12.9-9.6,12.9
				s-0.8,6-0.3,6.1s4.8,3.1,4.8,3.1l1.9-0.2c0,0,0.8-0.9,2.2-0.4c1.4,0.5,3.1-0.7,3.1-0.7l9.4-15.6c0,0,2.7-4.3,2.7-4.8
				S611.9,605.4,611.9,605.4L611.9,605.4z"/>
			<path class="st6" d="M581,446.4c0,0,2.7-1.6,4.4-2.6s27.3,1,27.3,1l1.9,13.9l1.8,21.8l-7.6,5c0,0-0.5-2-1.5-0.5
				c-1,1.5-3.8,1.8-3.8,1.8l-10.1-11.6c0,0-8.7-13.2-9.2-14.2S581,446.4,581,446.4L581,446.4z"/>
			<path class="st6" d="M693.5,457.6c0,0,7.3,5.6,9.9,6.4c2.6,0.8,14.7,10.5,14.1,19.1c-0.5,8.7-3.1,22.6-3.1,22.6l-0.5-2.5
				c0,0-0.1-2.5-1.6-0.9s-4.6-0.3-4.6-0.3l-7.2-11.9l-18.5-17.6l-11.6-3.7l2-13.2L693.5,457.6L693.5,457.6z"/>
		</g>
		<g>
			<g>
				<polygon class="st12" points="636.3,675.4 548.5,680.7 632.5,704.3 				"/>
				<path class="st11" d="M633.2,705.3l-89.6-25.1l93.6-5.7L633.2,705.3L633.2,705.3z M553.3,681.2l78.5,22l3.5-27L553.3,681.2
					L553.3,681.2z"/>
			</g>
			<g>
				<polygon class="st4" points="548.5,680.7 548,689.1 632.5,714.9 632.5,704.3 				"/>
				<path class="st11" d="M633.4,716l-1-0.3l-85.1-26l0.6-10l85.6,24L633.4,716z M548.9,688.5l82.9,25.3l0-8.9l-82.5-23.1
					L548.9,688.5L548.9,688.5z"/>
			</g>
			<g>
				<polygon class="st4" points="814.2,693.3 632.5,704.3 632.5,714.9 814.2,702.8 				"/>
				<path class="st11" d="M631.7,715.8l0-12.2l183.3-11.1l-0.1,11.1L631.7,715.8L631.7,715.8z M633.3,705.1l0,9l180-12l0-7.8
					L633.3,705.1L633.3,705.1z"/>
			</g>
			<g>
				<path class="st0" d="M814.2,693.3l-181.7,11l14-98.7c0.4-3.4,3.3-6,6.7-6.2l167.1-10.1c4.5-0.3,8.2,3.6,7.6,8.1L814.2,693.3
					L814.2,693.3z"/>
				<path class="st11" d="M631.6,705.2l14.1-99.7c0.5-3.8,3.6-6.7,7.4-6.9l167.1-10.1c2.4-0.1,4.7,0.8,6.3,2.5
					c1.6,1.8,2.4,4.1,2.1,6.5L815,694.1l-0.7,0L631.6,705.2L631.6,705.2z M820.8,590c-0.1,0-0.3,0-0.4,0l-167.1,10.1
					c-3,0.2-5.5,2.5-5.9,5.5l-13.9,97.7l180.1-10.9l13.5-95.3c0.2-1.9-0.4-3.8-1.7-5.2C824.2,590.8,822.5,590,820.8,590L820.8,590z"
					/>
			</g>
		</g>
	</g>
</g>
</svg>
