<?xml version="1.0" encoding="utf-8"?>
<!-- Generator: Adobe Illustrator 27.8.0, SVG Export Plug-In . SVG Version: 6.00 Build 0)  -->
<svg version="1.1" id="Capa_2_00000093135300322281908440000011103001154511582900_"
	 xmlns="http://www.w3.org/2000/svg" xmlns:xlink="http://www.w3.org/1999/xlink" x="0px" y="0px" viewBox="0 0 1154.9 840"
	 style="enable-background:new 0 0 1154.9 840;" xml:space="preserve">
<style type="text/css">
	.st0{opacity:0.14;fill:#2B0000;enable-background:new    ;}
	.st1{fill:#E67925;}
	.st2{fill:#FDC500;}
	.st3{fill:#2351FB;}
	.st4{fill:#68003C;}
	.st5{fill:#262246;}
	.st6{fill:#FFFFFF;}
</style>
<g id="Capa_1-2">
	<g>
		<path class="st0" d="M1068.9,577.6c0,109.4-57.7,205.4-144.4,259h-320c-18.5-11.5-35.7-24.8-51.3-39.9
			c-9.6,14.4-20.7,27.8-33,39.9H161.9c-46.7-46.1-75.7-110.1-75.8-181c-0.2-75.5,32.5-143.3,84.4-190.1
			c21.6-19.5,33.9-47.1,33.8-76.2v-0.5c0-96.6,78.3-174.8,174.8-174.8c42.9,0,82.1,15.4,112.5,41c49.1,41.3,116,53.8,176.9,33.6
			c30-10,62.2-15.4,95.6-15.4C932.3,273.1,1068.9,409.5,1068.9,577.6L1068.9,577.6z"/>
		<path class="st0" d="M1154.9,586.8c0,96.2-38,183.6-99.8,247.8c-1.4,1.5-2.9,3-4.4,4.5c-0.3,0.3-0.6,0.6-0.9,0.9H47.6
			C17.6,793.4,0.1,738,0,678.5c-0.2-88.7,38.1-168.4,99.2-223.4c25.4-22.9,39.8-55.4,39.8-89.5V365c0-16.4,1.9-32.4,5.6-47.7
			c4.9-20.8,13-40.3,23.8-58.1c7.5-12.5,16.3-24.1,26.2-34.7c6.1-6.5,12.5-12.5,19.4-18.2c11.9-9.8,24.8-18.2,38.7-25.1
			c9.4-4.7,19.2-8.7,29.3-11.9c10-3.2,20.3-5.6,30.9-7.3c2.7-0.4,5.4-0.8,8.1-1.1c1.8-0.2,3.7-0.4,5.5-0.6c0.7-0.1,1.4-0.1,2-0.2
			c4.9-0.4,9.9-0.6,14.9-0.6c0.3,0,0.7,0,1,0c1.5,0,3,0,4.5,0.1c1.5,0,3,0.1,4.5,0.1c5.5,0.2,11,0.7,16.4,1.4c0,0,0.1,0,0.1,0
			c5.2,0.6,10.4,1.5,15.5,2.5c10.2,2.1,20.1,4.9,29.7,8.4c2.3,0.8,4.6,1.7,6.8,2.6c16.5,6.7,31.9,15.5,45.9,26.1c3,2.3,6,4.6,8.9,7
			c7.1,5.9,14.4,11.4,22.1,16.3c24.3,15.6,51.2,26,79.1,31c3.4,0.6,6.8,1.1,10.2,1.6c15.1,1.9,30.4,2.3,45.7,1
			c2.5-0.2,5.1-0.5,7.6-0.8c5.6-0.7,11.3-1.6,16.9-2.7c0.5-0.1,1.1-0.2,1.7-0.3c4.8-1,9.7-2.2,14.5-3.5c3.4-1,6.9-2,10.3-3.1
			c6.5-2.1,13-4.1,19.7-5.9c6.6-1.8,13.2-3.4,20-4.8c0.8-0.2,1.6-0.3,2.4-0.5c0.8-0.2,1.6-0.3,2.4-0.5c5.5-1.1,11.1-2,16.8-2.8
			c8.6-1.2,17.3-2.2,26-2.8c2.2-0.2,4.5-0.3,6.7-0.4c6.1-0.3,12.2-0.5,18.4-0.5C994.4,228.9,1155,389.2,1154.9,586.8L1154.9,586.8z"
			/>
		<path class="st0" d="M367.4,112.8c-4.5-3.8-9.4-6.7-14.5-8.8c-10.4-4.2-18-13.4-19.9-24.5c-1.2-6.9-4.7-13.4-10.4-18.2
			c-12.9-10.9-32.2-9.3-43.2,3.6c0,0,0,0-0.1,0.1c-3.3,3.9-8.1,6.2-13.2,6.4c-12.2,0.4-24.3,5.7-32.8,15.8
			c-15.9,18.8-13.6,47,5.3,62.9c11.8,10,27.4,12.8,41.2,8.9c1.3,13.3,7.6,26.1,18.6,35.4c22.5,19.1,56.2,16.3,75.2-6.2
			C392.7,165.6,389.9,131.8,367.4,112.8L367.4,112.8z"/>
		<g>
			<path class="st1" d="M706.9,192.4h-55.4c-22.7,0-43.1,13.7-51.6,34.7l-76,186.8l57.8,21.8l77.4-184L706.9,192.4L706.9,192.4z"/>
			<path class="st1" d="M495.6,273c25.7,46.9,51.4,93.8,77.2,140.7c11.3,21.1,1,46.1-17.6,52.8c-16.5,6-37.8-3.2-45.6-22.8
				c-19.3-51.7-38.6-103.5-57.9-155.2C466.3,283.4,480.9,278.2,495.6,273L495.6,273z"/>
			<path class="st2" d="M708.7,192.4h-65c-23,0-43.8,13.5-53.2,34.4l-41.5,92.5c22.1,16.6,48.2,27.8,76.2,32.4
				c9.7-22.6,19.5-45.2,29.2-67.8L708.7,192.4L708.7,192.4z"/>
			<path class="st3" d="M521.7,309.4l-20-34.5V239l-7.5-37.6c-0.8-8-7.7-13.6-14.4-13.1c-7.5,0.6-13.8,8.7-11.7,17.6
				c2.4,9.9,4.9,19.9,7.3,29.8c-6.6-6.8-13.3-13.6-19.9-20.4c-1.9-1.3-4-2-6.3-2.2c-11-0.8-21.9-1.6-32.8-2.4
				c-7.2,1.2-11.1,7.9-9.6,12.8c1.1,3.5,5,6.2,9.6,6.4c7.3,1.1,14.6,2.1,21.9,3.2l-24,14.9c-2.6,1.7-3.9,4.8-3.2,7.7
				c0.7,3.2,3.5,5.5,6.8,5.6c-6,4-3.5,13.4,3.7,13.7c-5.8,5.5-3,14,4.4,16.1c7.8,2,15.6,3.9,23.5,5.9l14.4,33.6L521.7,309.4
				L521.7,309.4z"/>
			<path class="st4" d="M461.5,247.1c-0.6,0,0.4,0.9-11.8-13.6h-9c-0.5,0-0.9-0.4-0.9-0.9s0.4-0.9,0.9-0.9h9.5
				c0.6,0-0.3-0.9,12,13.9C462.7,246.1,462.3,247.1,461.5,247.1L461.5,247.1z"/>
			<rect x="777.1" y="621.8" class="st3" width="278.1" height="217.3"/>
			<g>
				<path class="st1" d="M1038.6,655.1h-81.7c-3.8,0-7-3.1-7-7c0-4.5,3.3-7.3,7-7.3h81.7c3.8,0,7,3.1,7,7
					C1045.5,652.4,1042.2,655.1,1038.6,655.1z"/>
				<path class="st1" d="M1038.6,683.4h-81.7c-3.8,0-7-3.1-7-7c0-4.5,3.3-7.3,7-7.3h81.7c3.8,0,7,3.1,7,7
					C1045.5,680.6,1042.2,683.4,1038.6,683.4z"/>
				<path class="st1" d="M1038.6,711.6h-81.7c-3.8,0-7-3.1-7-7c0-4.5,3.3-7.3,7-7.3h81.7c3.8,0,7,3.1,7,7
					C1045.5,708.9,1042.2,711.6,1038.6,711.6z"/>
				<path class="st1" d="M1038.6,739.9h-81.7c-3.8,0-7-3.1-7-7c0-4.5,3.3-7.3,7-7.3h81.7c3.8,0,7,3.1,7,7
					C1045.5,737.1,1042.2,739.9,1038.6,739.9z"/>
				<path class="st1" d="M1038.6,768.2h-81.7c-3.8,0-7-3.1-7-7c0-4.5,3.3-7.3,7-7.3h81.7c3.8,0,7,3.1,7,7
					C1045.5,765.4,1042.2,768.2,1038.6,768.2z"/>
				<path class="st1" d="M1038.6,796.4h-81.7c-3.8,0-7-3.1-7-7c0-4.5,3.3-7.3,7-7.3h81.7c3.8,0,7,3.1,7,7
					C1045.5,793.6,1042.2,796.4,1038.6,796.4z"/>
				<path class="st1" d="M1038.6,824.7h-81.7c-3.8,0-7-3.1-7-7c0-4.5,3.3-7.3,7-7.3h81.7c3.8,0,7,3.1,7,7
					C1045.5,821.9,1042.2,824.7,1038.6,824.7z"/>
			</g>
			<rect x="678.5" y="148.6" class="st1" width="32.4" height="61.6"/>
			<path class="st1" d="M694.1,89.1c-24.3-1.7-43.7,20.1-39.1,44.1l4.1,28.7c1.5,10.5,9.7,19.1,19.2,20.5c2.1,0.3,5,0.2,6.1,0.2
				c14.2-1.2,23.2-15.2,28.3-23.1c0.9-1.3,1.8-2.9,2.8-4.7c7.5-6.3,12.5-15.4,13.2-25.9C730.1,108.3,714.6,90.5,694.1,89.1
				L694.1,89.1z"/>
			<path class="st5" d="M681.6,159.5c-0.2,0-0.8,0-4.5-0.2c-1.6-0.1-2.7-1.7-2.3-3.2l3.5-12.1c0.1-0.5,0.7-0.8,1.2-0.6
				s0.8,0.7,0.6,1.2l-3.5,12.1c-0.1,0.4,0.2,0.8,0.6,0.8l4.5,0.2C682.9,157.7,682.8,159.5,681.6,159.5L681.6,159.5z"/>
			<g>
				<path class="st5" d="M668.3,138.8c-1.7-0.1-3.2,1.2-3.4,2.9c-0.1,1.7,1.2,3.2,2.9,3.4c1.7,0.1,3.2-1.2,3.4-2.9
					C671.3,140.4,670,138.9,668.3,138.8z"/>
				<path class="st5" d="M692.2,140.4c-1.7-0.1-3.2,1.2-3.4,2.9c-0.1,1.7,1.2,3.2,2.9,3.4c1.7,0.1,3.2-1.2,3.4-2.9
					C695.3,142.1,694,140.5,692.2,140.4z"/>
				<path class="st5" d="M700.7,132.8c-3.4-3.7-8.9-2.7-9.8-2.5c-0.8,0.1-3.5,0.6-3.7,1.9c-0.1,0.7,0.6,1.4,0.6,1.4
					c1.6,1.4,4-0.9,7.5-0.6c4,0.3,6.4,3.8,7,3.3C702.6,135.8,701.8,134,700.7,132.8z"/>
				<path class="st5" d="M670.9,128.7c-8.8-3-12.7,3.4-12.2,4.1c0.5,0.6,3.3-2.5,7.4-2.2c3.5,0.2,5.5,2.8,7.3,1.7
					c0,0,0.8-0.6,0.8-1.3C674.2,129.9,671.6,129,670.9,128.7L670.9,128.7z"/>
			</g>
			<path class="st4" d="M679,183.7c-1.2-0.1-1.1-2,0.2-1.9c7.4,0.8,14.7-2.2,19.4-7.9c0.3-0.4,0.9-0.5,1.3-0.1s0.5,0.9,0.1,1.3
				C694.9,181.3,687,184.5,679,183.7L679,183.7z"/>
			<path class="st5" d="M678.4,167.9c-0.5-0.3-0.6-0.9-0.3-1.3s0.8-0.6,1.3-0.3c0.1,0.1,2.6,1.5,5.2,0.3c1.8-0.9,3-2.6,3.1-4.7
				c0-0.5,0.5-0.9,1-0.9c0.5,0,0.9,0.5,0.9,1C689.3,167.6,683.2,170.7,678.4,167.9L678.4,167.9z"/>
			<path class="st2" d="M631.1,205.4c25.8-4.3,51.7-8.6,77.5-13l32.3,5.4c24.4,4.1,41.6,26,39.9,50.6c-4.7,65.7-9.3,131.4-14,197.2
				c-41.2,2.5-82.5,5-123.7,7.5C639.2,370.5,635.1,287.9,631.1,205.4L631.1,205.4z"/>
			<path class="st4" d="M758.3,412.6c3.8,17.7,7.6,35.4,11.5,53.1c8.2,38,1.5,77.8-18.6,111c-23.3,38.5-46.7,77.1-70,115.6
				c90.1-29.3,185.4-35.3,280.1-17.4c-6.9,13.9-13.9,27.7-20.8,41.6c-109.9,31-219.7,62-329.6,93c-40.3,11.4-75.2-30.3-56.7-68
				c38.8-79.3,77.6-158.5,116.4-237.8v-64.7C699.7,430.3,729,421.4,758.3,412.6L758.3,412.6z"/>
			<path class="st4" d="M654,418.6c-10.5,11.1-21,22.3-31.5,33.4c-59-16.5-118-33-177-49.5c-27.5-7.7-55.5,10.5-59.8,38.7
				c-15.6,104-31.1,208.1-46.7,312.1c28,8.5,20.2,6.2,48.2,14.7c38.6-82.3,64.2-170.1,75.7-260.3c62.5,35.6,131.8,58.9,204.7,67.7
				l43.2-71.4l-14-111.3L654,418.6L654,418.6z"/>
			<path class="st2" d="M915,669c32.9,0.5,65.8,1,98.7,1.5c-7.6,36.4-15.2,72.9-22.8,109.3c-7.2,34.5-37.6,59.2-72.9,59.2h-55.1
				c-1.6-1.3-10-8.4-10.4-19.7c-0.4-11.9,8.4-23.6,22-27.7c9.1-5,21.3-13.6,31.2-27.7C933.6,724,917.3,675.5,915,669L915,669z"/>
			<path class="st2" d="M390.2,759.4c0.3-0.6,13,79.5,13,79.5c-75.5,0.2-151.1,0.3-226.6,0.4c-8.1-18.5,2.8-39,23.5-40.8
				c54.5-8.1,104.8-31.6,145.9-67.7C360.8,740.3,375.5,749.9,390.2,759.4L390.2,759.4z"/>
			<path class="st4" d="M634.8,510.3l-216-36.6c-11-9.4-22.1-18.7-33.1-28.1c-25.8,99.8-51.6,199.5-77.4,299.3
				c35.4,14.3,70.7,28.6,106.1,42.9c17.7-84.4,35.4-168.7,53.1-253.1l183,42.8L634.8,510.3L634.8,510.3z"/>
			<path class="st4" d="M610.7,809.6l284.1-55.4l38.2-85.1h-70.6L807,701.2c0,0-59,27-60.9,27S610.7,809.6,610.7,809.6L610.7,809.6z
				"/>
			<path class="st2" d="M924.8,687.4l-20.1,44.8c9.3-2,18.5-4,27.8-6c5.8-12.9,11.6-25.8,17.3-38.7H924.8z"/>
			<path class="st4" d="M617.5,494.9c-22.6,86.4-45.1,172.8-67.7,259.2c0,0,67.5-17.9,69.8-21.9c2.3-4,75.2-197.3,75.2-197.3
				C669,521.5,643.3,508.2,617.5,494.9z"/>
			<path class="st1" d="M671.2,192.4c0,0,2.7,16,20.8,15c18.1-1,25.5-13.5,25.5-13.5l-22.3-3.8L671.2,192.4L671.2,192.4z"/>
			<path class="st4" d="M476.6,411.2c48.5,8.2,97.1,16.4,145.6,24.5l25.8-243.2h15.4c-1.4,19.7-2.9,39.4-4.3,59.2
				c2.2,9,10,15.6,19.2,16c8.7,0.4,16.8-4.9,20-13.1c8.7-19.9,17.5-39.7,26.2-59.6c5.3,0.9,10.7,1.8,16.1,2.7
				c-26.2,41.9-27.5,94.2,0.3,137.2c10.3,13.7,20.7,27.4,31,41c-1.5,38.6-2.9,77.3-4.4,115.9c-16.5,9-32.9,18-49.4,27
				C628.1,508,544.7,471.2,476.6,411.2L476.6,411.2z"/>
			<path class="st1" d="M735.3,226.3c-34.8,51.2-69.6,102.4-104.4,153.6c-49.2-30.3-98.4-60.6-147.6-90.9c-5.6,17-11.3,33.9-17,50.9
				c49.6,38.6,99.3,77.3,148.9,115.9c14.5,11.3,35.3,9.2,47.2-4.8l91.3-107.2C775.6,300.9,777.8,247.4,735.3,226.3L735.3,226.3z"/>
			<path class="st2" d="M741.9,212.8c-28,42.6-56,85.2-84,127.7c19.3,19.1,38.5,38.3,57.8,57.4c17-23.2,34-46.5,51-69.7
				c1.2-5.1,2.9-13,4.4-22.8C777.7,263.2,784.4,209.2,741.9,212.8L741.9,212.8z"/>
			<path class="st4" d="M706.8,127.7c0,0-5.1,0.5-11.4-5.9c-6.3-6.4-5-21.2-5-21.2s-7.7-1.5-10.5,10s-29.4,12.7-29.4,12.7
				s-10.6-23.7,8.1-39.3c18.7-15.6,39.8-2.3,39.8-2.3c18.6-0.2,26.2,7.2,28.4,9.6c13.8,15.2,8.9,50.3-20,81.3
				C707.1,143.5,707.1,153.7,706.8,127.7L706.8,127.7z"/>
			<path class="st1" d="M718.2,139.7c-3.9-2.4-9.4-0.6-12.2,3.9c-2.8,4.6-1.9,10.3,2,12.7c3.9,2.4,9.4,0.6,12.2-3.9
				C723,147.8,722.2,142.1,718.2,139.7z"/>
			<path class="st5" d="M710.5,152.2c2.7-0.7,3-4.4,0.4-5.4c-1-0.4-0.6-1.9,0.4-1.8l6.2,0.4c1.2,0.1,1.1,1.9-0.1,1.9l-3.5-0.2
				c1.6,2.7,0.2,6.2-2.9,7C709.8,154.3,709.3,152.5,710.5,152.2L710.5,152.2z"/>
			<path class="st3" d="M692.7,124.5h45.1c1,0,1.8,0.8,1.8,1.8v8.2c0,1-0.8,1.8-1.8,1.8h-45.1c-1,0-1.8-0.8-1.8-1.8v-8.2
				C690.8,125.3,691.7,124.5,692.7,124.5z"/>
			<path class="st3" d="M703.2,185.7c0,3.9-1.9,7.4-5.2,9.5c-19.8,12.5-45.5,12.9-66.1,0c-3.3-2.1-5.3-5.7-5.3-9.5v-80.5
				c0-4.6,2.8-8.7,7-10.4c19.6-7.9,42.1-8.2,62.5-0.1c4.3,1.7,7.1,5.9,7.1,10.5L703.2,185.7L703.2,185.7z"/>
			<path class="st4" d="M634.6,117.8h51.1c1.9,0,3.5,1.6,3.5,3.5v15.6c0,1.9-1.6,3.5-3.5,3.5h-51.1c-1.9,0-3.5-1.6-3.5-3.5v-15.6
				C631.1,119.4,632.7,117.8,634.6,117.8z"/>
			<path class="st4" d="M610.6,368.2c-0.4,0,3.2,2.1-52.1-32c-0.4-0.3-0.6-0.9-0.3-1.3c0.3-0.5,0.9-0.6,1.3-0.3l51.6,31.8
				C611.9,367,611.5,368.2,610.6,368.2L610.6,368.2z"/>
			<path class="st4" d="M580.7,429.7c-0.5,0,4.6,3.8-72.3-56c-0.4-0.3-0.5-0.9-0.2-1.3c0.3-0.4,0.9-0.5,1.3-0.2l71.7,55.8
				C582,428.5,581.6,429.7,580.7,429.7L580.7,429.7z"/>
			<path class="st4" d="M638.6,440.9c-0.5,0-0.9-0.4-0.9-0.8l-7.7-60.1c-0.1-0.5,0.3-1,0.8-1.1c0.5-0.1,1,0.3,1.1,0.8l7.7,60.1
				C639.6,440.4,639.2,440.9,638.6,440.9z"/>
			<path class="st4" d="M749.8,352.3c-0.8,0-1.2-0.9-0.8-1.5l16.9-23.1c0.3-0.4,0.9-0.5,1.3-0.2s0.5,0.9,0.2,1.3
				C749.2,353.8,750.5,352.3,749.8,352.3z"/>
			<path class="st4" d="M261.8,813.3l-18.3-16.3c-0.4-0.3-0.4-1-0.1-1.3c0.4-0.4,0.9-0.4,1.3-0.1l18.3,16.3c0.5,0.4,1.2,0.1,1.2-0.5
				v-17.8c0-2,2.1-3.2,3.8-2.3l18.2,9.3c0.5,0.3,1.2-0.2,1.1-0.8l-2.8-16.3c-0.4-2.1,1.8-3.7,3.7-2.8l17.4,7.8
				c0.6,0.3,1.2-0.3,1-0.9l-3.7-12.3c-0.6-2,1.3-3.9,3.3-3.3l15.7,4.9c0.6,0.2,1.2-0.4,0.9-1l-8-17c-0.2-0.5,0-1,0.5-1.3
				c0.5-0.2,1,0,1.3,0.5l8,17c1,2.1-1,4.3-3.2,3.6l-15.7-4.9c-0.6-0.2-1.1,0.4-0.9,0.9l3.7,12.3c0.7,2.2-1.5,4.1-3.6,3.2l-17.4-7.8
				c-0.5-0.2-1.1,0.2-1,0.8l2.8,16.3c0.4,2.1-1.9,3.8-3.8,2.8l-18.2-9.3c-0.5-0.2-1.1,0.1-1.1,0.7v17.8
				C266.2,813.6,263.5,814.8,261.8,813.3L261.8,813.3z"/>
			<path class="st4" d="M923.3,783.9h-26.1c-0.5,0-0.9-0.4-0.9-0.9s0.4-0.9,0.9-0.9h26.1c0.5,0,0.8-0.7,0.3-1l-14.1-10.5
				c-1.8-1.3-1-4.2,1.2-4.4l22.5-2.5c0.6-0.1,0.7-0.9,0.2-1.1l-14-5.6c-2.1-0.8-2.1-3.8,0-4.6l17.8-6.9c0.6-0.2,0.4-1.1-0.2-1.1
				h-11.6c-2.4,0-3.4-3.1-1.4-4.5l18.9-12.8c0.5-0.3,0.2-1.1-0.4-1l-22,2.7c-1.2,0.2-1.5-1.7-0.2-1.9l22-2.7c2.6-0.3,3.8,3,1.7,4.5
				L925,741.5c-0.5,0.3-0.2,1,0.3,1H937c2.7,0,3.4,3.8,0.9,4.8c-19.4,7.5-18.1,6.9-18.1,7.4c0,0.6-0.9,0,14.4,6.1
				c2.4,0.9,1.9,4.5-0.6,4.7c-24.7,2.7-22.9,2.3-23,2.9c-0.1,0.5-1-0.3,14.3,11.1C926.6,780.9,925.6,783.9,923.3,783.9L923.3,783.9z
				"/>
			<path class="st2" d="M886.4,621.7c-2-26-8.5-70.2-29.2-74.6c-16.3-3.5-32.9,18.9-36.1,23.4c-8,11.4-17.7,30.1-28.6,51.4
				c-4.9,9.5-10.1,19.6-15.5,29.8c-3.6,6.7-7.2,13.5-11,20.2C738,722.1,705,768,671.3,757.6c-13.7-4.3-19.2-15.6-20.7-30.6
				c-0.1-0.8-0.2-1.7-0.2-2.6c-1.8-24.1,5.4-56.5,4.5-84c-0.7-22.2-6.7-41.1-26.9-49.7c-7.5-3.2-16.8-4.9-28.6-4.9
				c-1.9,0-3.7,0-5.5-0.1c-45.5-1.4-64.4-20.4-72-38.5c-0.8-2-1.5-4-2.1-6c-0.6-2-1.1-4.1-1.5-6.1c-1.9-10-1.3-20.2,0.8-28.8
				c5.8,7.4,12.2,12.6,19.2,14.4c15,4,20.9-0.1,23.2-4.2c2.7-4.9,1.5-12.2-2-19c-6.3-12.4-19.8-23.5-30.5-16.6c-3.1,2-6,5.5-8.4,10
				c-1.1,2.1-2.2,4.5-3.1,7c-1.7-2.6-3.3-5.4-4.9-8.4c-9.9-18.6-17.8-44-23.8-68c-0.6-2.5-1.2-5-1.8-7.4c-0.1-0.4-0.2-0.8-0.3-1.2
				c-5.5-23.4-9.1-44.6-10.9-56.1c-0.4-2.5-0.7-4.5-0.9-6c0-0.1,0-0.2,0-0.3c-0.2-1.5-0.3-2.4-0.4-2.5c-0.1-0.7-0.6-1.3-1.2-1.5
				c-0.3-0.1-0.6-0.1-0.9-0.1c-0.8,0.1-1.4,0.7-1.6,1.4c-0.1,0.2-0.1,0.5,0,0.7c0.1,0.9,0.6,4.2,1.4,9.5
				c1.8,11.4,5.2,31.7,10.4,54.2c0,0.2,0.1,0.5,0.2,0.7c0.3,1.5,0.7,2.9,1,4.4c5.9,24.6,14,51.3,24.3,71.5c2.5,5,5.2,9.5,8,13.6
				c-2.6,9.3-3.6,20.2-2,31c0.5,3,1.1,6,2,9c0.4,1.3,0.8,2.6,1.3,3.8c11.2,30.4,42.3,41.9,75.5,43.2c2.4,0.1,4.8,0.1,7.3,0.1
				c10.7,0,19.3,1.6,26.1,4.5c21.5,9.1,25.6,31,24.9,56.1c-0.8,26.1-6.8,55.6-4.3,78c0.1,0.8,0.2,1.7,0.3,2.5
				c2.1,14.7,8.4,25.9,23,30.5c6.4,2,12.8,2.2,19,0.8c10.6-2.3,21-9.1,31.1-18.7c18.1-17.4,35.2-44.3,50.6-72.1
				c2.1-3.8,4.2-7.6,6.2-11.4c7-13,13.5-25.9,19.7-37.9c10.5-20.4,19.7-38.2,27.5-49.2c8.1-11.5,21.4-24.2,32.2-21.8
				c18.9,4,24.6,50.9,26.2,71c0,0,0,0.1,0,0.2c0.1,1,1,1.8,2,1.7c1-0.1,1.7-0.9,1.7-1.9C886.5,621.8,886.5,621.7,886.4,621.7
				L886.4,621.7z M524.6,491.6c2-3.4,4.2-6,6.4-7.5c7.5-4.9,17.8,3.1,23.7,12.6c3.9,6.5,5.8,13.6,3.4,18c-3,5.4-12,4.3-18.9,2.4
				c-6.9-1.8-13.2-7.3-19-15.2C521.4,498,522.9,494.5,524.6,491.6L524.6,491.6z"/>
			<g>
				<polygon class="st3" points="369.9,839.1 346.1,839.1 346.1,181.1 168.3,181.1 168.3,839.1 144.5,839.1 144.5,148.4 
					369.9,148.4 				"/>
				<path class="st3" d="M366.2,372.7c-0.1-0.1-0.2-0.2-0.3-0.4c0,0-0.1-0.1-0.1-0.1l-19.7-21.5l-70.9-77.4l44.9-49.1l15.9-17.4
					l10-10.9l19.7-21.5c2.7-2.9,4-7,4-11.1c0-0.7,0-1.4-0.1-2.2c-0.3-2.7-1.2-5.4-2.8-7.6c-2.3-3.3-5.5-5-8.8-5.1H358
					c-2.5,0-4.9,0.9-7,2.9c-0.3,0.2-0.5,0.5-0.8,0.8l-6.8,7.4l-2.2,2.4l-2.2,2.4l-15.4,16.8l-17.1,18.7l-49.2,53.8l-43.3-47.3
					l-23-25.1l-26.6-29c-2.2-2.5-5-3.7-7.8-3.7c-3.3,0-6.6,1.7-8.9,5.1c-4.3,6.1-3.8,15.5,1.1,20.9l19.6,21.4l26.2,28.7l44.7,48.8
					l-70.9,77.5l-19.6,21.4c-0.2,0.2-0.3,0.4-0.5,0.6c-0.1,0.1-0.1,0.2-0.2,0.3c-2.6,3.2-3.6,7.2-3.4,11.1c0,0.2,0,0.3,0,0.5
					c0,0.2,0,0.5,0.1,0.7c0.3,2.6,1.1,5,2.4,7.1c0.1,0.1,0.1,0.2,0.2,0.3c0.6,0.9,1.2,1.7,1.9,2.4c1.9,1.9,4.4,3,7.2,3H358
					c2.9,0,5.3-1.2,7.2-3c0.7-0.7,1.4-1.5,1.9-2.4c0.1-0.2,0.3-0.4,0.4-0.6c1.2-2,1.9-4.4,2.2-6.8c0-0.2,0-0.5,0.1-0.7
					c0-0.2,0-0.3,0-0.5c0-0.1,0-0.2,0-0.4v-1c-0.1-3.5-1.1-6.9-3.4-9.7C366.4,372.9,366.3,372.8,366.2,372.7L366.2,372.7z
					 M188,368.5l21.9-23.9l47.3-51.7l69.2,75.6H188L188,368.5z"/>
				<path class="st3" d="M363.5,589.8L351.7,577l-5.6-6.1l-70.9-77.4l70.9-77.4l19.1-20.9l0.6-0.6c0.5-0.5,0.9-1.1,1.4-1.7
					c0.1-0.2,0.3-0.4,0.4-0.6c1.2-2,2-4.4,2.2-6.8c0-0.2,0-0.5,0.1-0.7c0-0.2,0-0.3,0-0.5c0-0.3,0-0.5,0-0.8c0-3.5-1-6.9-3-9.8
					c-0.1-0.2-0.3-0.4-0.5-0.6c-0.1-0.1-0.2-0.2-0.2-0.3c-0.1-0.1-0.2-0.2-0.3-0.4c-4.4-5-11.2-5.1-15.8-0.1l-4,4.4l-19.7,21.5
					l-69.2,75.6L201.6,413L188,398.2l-19.8-21.6l-4-4.3c-4.5-4.9-11.2-4.8-15.6-0.1c-0.2,0.2-0.3,0.4-0.5,0.6
					c-0.1,0.1-0.1,0.2-0.2,0.3c-0.2,0.2-0.3,0.4-0.4,0.6c-2.1,3-3.1,6.8-2.9,10.5c0,0.2,0,0.3,0,0.5c0,0.2,0,0.5,0.1,0.7
					c0.3,2.5,1.1,5,2.4,7.1c0.1,0.1,0.1,0.2,0.2,0.3c0.4,0.6,0.9,1.2,1.4,1.7l0.6,0.6l19,20.8l22.4,24.5l48.5,53l-70.9,77.5
					l-19.6,21.4c-8.2,9-3.1,25.9,7.8,25.9H358c0.4,0,0.8,0,1.2-0.1c6.4-0.8,10.5-7.4,10.7-14.3v-1c-0.1-3.8-1.4-7.5-4-10.5
					L363.5,589.8L363.5,589.8z M188,588.7l69.2-75.6l69.2,75.6H188L188,588.7z"/>
			</g>
			<g>
				<path class="st4" d="M450.2,273.6c-1.2,0-2.3-0.8-2.7-2l-37.7-115.8c-2.9-9-10.9-15.2-20.4-15.8l-27-1.7c-1.6-0.1-2.8-1.4-2.6-3
					s1.4-2.8,3-2.6l27,1.7c11.8,0.8,21.7,8.5,25.4,19.7l37.7,115.8C453.5,271.8,452.1,273.6,450.2,273.6L450.2,273.6z"/>
				<path class="st2" d="M430.8,239.4l17.7-5.5c2.2-0.7,4.5,0.5,5.2,2.7l34.7,112c0.7,2.2-0.5,4.5-2.7,5.2l-17.7,5.5
					c-2.2,0.7-4.5-0.5-5.2-2.7l-34.7-112C427.3,242.4,428.6,240,430.8,239.4z"/>
				<path class="st1" d="M361.4,131.7c-0.4-0.5-4.1-10.8-12.8-8.7s-13.5-3.5-13.4-2.9c0.2,0.6-2,7,3.6,11.6c0,0-3.5,2.6-9.1-0.1
					s-10.5-7.9-10.5-7.9s-2.2,5.1,1.8,10c4,4.9,8.4,7.9,8.4,7.9l-7.3-1.6c0,0,3.5,7.1,9.4,10.1c5.9,3,13.9-2.2,13.9-2.2l-1.4,4.1
					c0,0,10.9,0.7,15.6-4.8C364.4,141.5,361.4,131.7,361.4,131.7L361.4,131.7z"/>
				<path class="st2" d="M362.2,131l23.5,0.3c1.1,0,1.9,0.9,1.9,1.9l-0.1,8.5c0,1.1-0.9,1.9-1.9,1.9l-23.5-0.3
					c-1.1,0-1.9-0.9-1.9-1.9l0.1-8.5C360.2,131.8,361.1,131,362.2,131z"/>
			</g>
			<path class="st3" d="M536.3,318.6c-12.7-9.1-25.4-18.1-38.1-27.2c-6.4-9.4-12.3-18-18.7-27.5c-1.3-6.4-6.3-11.3-12.4-12.6
				c-12.7-2.7-29.4-2.9-40.9,4.1c-3.6,2.1-7.4,4.5-7.7,8.5c-0.4,4.7,5.2,8.5,6.1,9.1c-5.2,6.2-1.2,15.7,6.8,16.4
				c-9.5,4.8-3.9,15.1,5.6,19.6c-5.3,3.5-4.9,9.7-1.6,14.9c1.3,2,3.4,3.4,5.7,3.9c3.9,0.9,7.9,1.8,11.8,2.7
				c2.9,8.8,10.1,15.7,19.7,17.8c9.7,9.8,19.5,19.6,29.2,29.4C523.3,365.2,535.7,343.2,536.3,318.6L536.3,318.6z"/>
			<path class="st4" d="M521.7,310.4c-0.6,0,1.3,1.5-29.1-25.8l-23.8-29.7c-1.4-1.7-3.3-2.9-5.5-3.3l-5.2-1
				c-0.5-0.1-0.9-0.6-0.8-1.1c0.1-0.5,0.6-0.8,1.1-0.8l5.2,1c2.6,0.5,5,1.9,6.6,4l23.7,29.6l28.4,25.5
				C522.9,309.3,522.5,310.4,521.7,310.4L521.7,310.4z"/>
			<path class="st4" d="M417.8,262.4c-0.9,0-1.3-1.2-0.5-1.7l12.9-8.4c0.4-0.3,1-0.2,1.3,0.3s0.2,1-0.3,1.3
				C417.5,262.8,418.2,262.4,417.8,262.4L417.8,262.4z"/>
			<path class="st4" d="M421.5,276.1c-1.1,0-1.3-1.6-0.2-1.9l27.2-6.7c3.1-0.8,6.3-0.3,9.1,1.2l8.6,4.7c0.5,0.2,0.6,0.8,0.4,1.3
				c-0.2,0.5-0.8,0.6-1.3,0.4l-8.6-4.7c-2.4-1.3-5.1-1.6-7.7-1C420.5,276.4,421.7,276.1,421.5,276.1L421.5,276.1z"/>
			<path class="st4" d="M468.3,294c-0.3,0,0.2,0.1-9.2-3.9c-2.5-1.1-2.5-1-29,3c-0.5,0.1-1-0.3-1.1-0.8c-0.1-0.5,0.3-1,0.8-1.1
				c23.7-3.6,25.7-3.8,27-3.7c2.1,0.2,2.4,0.5,11.9,4.6C469.6,292.6,469.3,294,468.3,294L468.3,294z"/>
			<path class="st4" d="M466.4,318c-0.5,0-0.2,0.1-5.5-4.7c-2.2-2-5-3.1-7.9-3.1l-15.9-0.2c-1.3,0-1.2-2,0-1.9l15.9,0.2
				c3.4,0,6.6,1.3,9.1,3.6l4.9,4.5C467.7,316.9,467.3,318,466.4,318L466.4,318z"/>
			<path class="st4" d="M361.7,116.7c-0.1-0.2-6.4-15.2-20-15.3l1.7,4.9c0.2,0.7-0.4,1.4-1.1,1.2c-0.1,0-14.5-4.2-14.5-16.8
				c-2.2,1.8-5.8,5.5-5.1,9.6c0.1,0.7-0.6,1.3-1.3,1c-0.1,0-7.9-3.1-15.4,0.7c-0.5,0.2-1,0.1-1.3-0.4s-0.1-1,0.4-1.3
				c6.3-3.3,12.8-2.1,15.5-1.3c0.1-6.2,7.3-10.9,7.6-11.1c0.7-0.4,1.5,0.1,1.5,0.9c-1.1,10.1,7.5,14.7,11.3,16.3l-1.5-4.3
				c-0.2-0.6,0.2-1.2,0.8-1.2c15.8-0.9,23.1,16.3,23.1,16.5C363.9,117.1,362.2,117.9,361.7,116.7L361.7,116.7z"/>
			<path class="st4" d="M326.2,164.2c-0.3-0.1-0.5-0.2-0.6-0.5c-0.3-0.5-0.2-0.3,1.4-5.3c-3.7,1.9-11.6,5.1-19.8,2.7
				c-11.1-3.3-14.4-11.9-14.5-12.3c-0.2-0.5,0.1-1,0.6-1.2c0.5-0.2,1,0.1,1.2,0.6c0,0.1,3.1,8.1,13.2,11.1
				c10.2,3.1,20.3-3.6,20.4-3.7c0.8-0.5,1.7,0.2,1.4,1.1l-1.9,5.9c12,2.3,25.9-5.1,26-5.1c0.5-0.2,1-0.1,1.3,0.4s0.1,1-0.4,1.3
				C347,163.1,335.3,166.4,326.2,164.2L326.2,164.2z"/>
			<path class="st4" d="M296.9,136.9c-0.8,0-7.3-2.5-11.5-8.1c-3.2-4.2-4.3-8.5-4.6-11.4c-0.1-0.9,1-1.4,1.6-0.8
				c5.3,5.2,13.4,6.1,20.4,4.6c-3.5-2-5.1-0.8-5.7-1.9c-0.1-0.3-0.1-0.7,0.1-1c4.1-5,10.5-7.4,16.9-6.4c0.5,0.1,0.9,0.6,0.8,1.1
				c-0.1,0.5-0.6,0.9-1.1,0.8c-5-0.8-10.1,0.7-13.9,4.4c2,0.4,4,1.3,5.7,2.7c0.6,0.5,0.4,1.4-0.3,1.6c-6.5,2.1-15.9,1.8-22.2-2.8
				c1.8,7.4,7.3,13,14.1,15.3C298.2,135.4,297.9,136.9,296.9,136.9L296.9,136.9z"/>
			<path class="st6" d="M599.8,563.7c-0.6,0-1-0.5-0.9-1.1l18-85.4c0.1-0.5,0.6-0.8,1.1-0.7c0.5,0.1,0.8,0.6,0.7,1.1l-18,85.4
				C600.6,563.4,600.2,563.7,599.8,563.7L599.8,563.7z"/>
			<path class="st6" d="M734,536c-10.3-2.2-19-12.8-25.7-31.5c-4.9-13.7-6.9-27-6.9-27.1c-0.2-1.2,1.7-1.5,1.9-0.3
				c0.1,0.5,7.9,52,31.1,57C735.6,534.4,735.2,536.3,734,536L734,536z"/>
			<path class="st6" d="M624.3,755c-0.8,0-1.3-1-0.7-1.6l56.8-61.8c0.3-0.4,1-0.4,1.3-0.1c0.4,0.3,0.4,1,0.1,1.3
				C621.1,759,624.9,755,624.3,755L624.3,755z"/>
			<path class="st6" d="M467.5,535.5c-0.4,0-0.8-0.3-0.9-0.8l-15.7-81.5c-0.1-0.5,0.2-1,0.8-1.1c0.5-0.1,1,0.2,1.1,0.8l15.7,81.5
				C468.5,535,468.1,535.5,467.5,535.5L467.5,535.5z"/>
		</g>
		<path class="st0" d="M360.3,117.3c2.1-3.8,3.4-7.9,3.8-12.2c0.8-8.6,7-15.1,16.5-17.1c5.9-1.2,10.7-4.3,13.5-9.2
			c6.2-10.9-0.7-26.6-15.4-34.9c0,0,0,0-0.1,0c-4.4-2.5-7.9-6.3-9.5-10.4c-3.8-9.9-12-19.5-23.6-26c-21.5-12.1-46.1-9.1-55.2,6.9
			c-5.7,10-3.8,22.7,3.7,33.8c-11.6,1.6-21.3,7.2-26.6,16.5c-10.8,19,1.2,46.2,26.9,60.8C319.9,140,349.5,136.3,360.3,117.3
			L360.3,117.3z"/>
	</g>
</g>
</svg>
