<?xml version="1.0" encoding="UTF-8"?>
<svg id="Capa_2" data-name="Capa 2" xmlns="http://www.w3.org/2000/svg" viewBox="0 0 1425.7 840">
  <defs>
    <style>
      .cls-1 {
        fill: #230b1e;
      }

      .cls-1, .cls-2, .cls-3, .cls-4, .cls-5, .cls-6, .cls-7, .cls-8 {
        stroke-width: 0px;
      }

      .cls-2 {
        fill: #3055e9;
      }

      .cls-3 {
        fill: #4f06e1;
      }

      .cls-4 {
        fill: #e77700;
      }

      .cls-5 {
        fill: #68003c;
      }

      .cls-6 {
        fill: #2b0000;
        isolation: isolate;
        opacity: .14;
      }

      .cls-7 {
        fill: #f2ae28;
      }

      .cls-8 {
        fill: #f8d591;
      }
    </style>
  </defs>
  <g id="Capa_1-2" data-name="Capa 1">
    <g>
      <path class="cls-6" d="m1425.7,527.43c0,118.77-46.89,226.59-123.17,305.95-1.78,1.86-3.59,3.7-5.4,5.53-.37.37-.73.73-1.1,1.1H58.71C21.68,782.53.15,714.11,0,640.61c-.23-109.46,47.08-207.87,122.44-275.75,31.35-28.23,49.18-68.35,49.07-110.53v-.71c0-20.28,2.38-40.01,6.88-58.91,6.09-25.64,16.08-49.77,29.32-71.74,9.27-15.41,20.14-29.74,32.38-42.79,7.48-7.99,15.48-15.48,23.94-22.45,14.63-12.04,30.62-22.47,47.72-31.02,11.6-5.81,23.7-10.76,36.23-14.74,12.32-3.93,25.04-6.95,38.1-8.97,3.32-.51,6.65-.96,10.01-1.34,2.26-.26,4.52-.48,6.79-.68.84-.07,1.68-.14,2.52-.2,6.09-.47,12.24-.72,18.44-.75.43-.01.86-.01,1.28-.01,1.84,0,3.67.02,5.5.06,1.85.04,3.7.1,5.53.18,6.82.29,13.57.85,20.23,1.67.05,0,.11.01.16.02,6.44.8,12.8,1.84,19.09,3.11,12.6,2.54,24.86,6.02,36.7,10.36,2.83,1.03,5.64,2.12,8.42,3.25,20.35,8.29,39.37,19.14,56.67,32.17,3.73,2.79,7.36,5.7,10.92,8.69,8.71,7.33,17.81,14.04,27.24,20.11,29.95,19.3,63.17,32.15,97.64,38.24,4.17.74,8.35,1.38,12.55,1.92,18.63,2.4,37.54,2.83,56.43,1.27,3.12-.26,6.25-.57,9.37-.94,6.95-.82,13.9-1.92,20.82-3.29.68-.13,1.36-.27,2.05-.41,5.99-1.23,11.96-2.68,17.9-4.33,4.24-1.18,8.47-2.47,12.67-3.86,7.99-2.65,16.09-5.08,24.28-7.28,8.12-2.19,16.33-4.14,24.64-5.86,1-.21,2-.41,3-.61,1-.2,1.99-.4,2.99-.59,6.83-1.32,13.73-2.48,20.67-3.48,10.59-1.53,21.3-2.68,32.12-3.44,2.75-.19,5.5-.36,8.25-.5,7.5-.39,15.06-.59,22.66-.59,243.87-.26,442.06,197.7,442.06,441.58Z"/>
      <path class="cls-6" d="m1370.61,503.74c.06,33.98-14.63,64.54-38.02,85.61-9.74,8.76-15.27,21.21-15.23,34.32v.22c0,6.29-.74,12.41-2.14,18.29-1.89,7.96-4.99,15.44-9.1,22.26-2.88,4.79-6.26,9.23-10.06,13.29-2.33,2.47-4.8,4.8-7.42,6.97-4.54,3.74-9.52,6.98-14.83,9.63-3.6,1.81-7.35,3.34-11.25,4.58-3.82,1.23-7.77,2.17-11.82,2.78-1.04.16-2.07.3-3.12.42-.69.07-1.4.15-2.1.21-.26.02-.52.04-.78.06-1.89.15-3.8.22-5.73.24h-.4c-.57,0-1.14,0-1.71-.01-.57-.01-1.15-.04-1.72-.06-2.12-.09-4.21-.26-6.27-.52h-.05c-2-.25-3.98-.57-5.93-.96-3.91-.79-7.72-1.87-11.4-3.22-.88-.32-1.75-.66-2.61-1.01-6.32-2.57-12.23-5.94-17.6-9.99-1.15-.87-2.29-1.77-3.39-2.7-2.71-2.28-5.53-4.37-8.45-6.25-9.31-5.99-19.61-9.97-30.32-11.87-1.3-.24-2.6-.43-3.9-.59-5.78-.74-11.66-.88-17.52-.4-.97.07-1.93.17-2.91.3-2.15.25-4.31.59-6.46,1.01-.21.05-.42.09-.63.14-1.87.38-3.72.83-5.56,1.34-1.32.37-2.64.77-3.93,1.2-2.49.83-5,1.58-7.54,2.26-2.52.68-5.07,1.29-7.66,1.82l-.93.19-.93.19c-2.12.41-4.26.77-6.41,1.08-3.29.48-6.62.84-9.97,1.08-.85.05-1.71.11-2.56.15-2.34.12-4.68.19-7.04.19-75.71.09-137.24-61.38-137.24-137.09,0-20.28,4.41-39.54,12.31-56.85h-125.69c-11.5-17.84-18.18-39.08-18.22-61.9-.07-33.98,14.61-64.54,38-85.61,9.74-8.77,15.27-21.22,15.23-34.32v-.22c0-6.3.74-12.42,2.14-18.29,1.89-7.97,5-15.46,9.11-22.27,2.87-4.79,6.25-9.23,10.05-13.28,2.33-2.49,4.8-4.81,7.44-6.98,4.53-3.74,9.5-6.97,14.81-9.63,3.6-1.81,7.35-3.34,11.25-4.58,3.82-1.23,7.77-2.15,11.83-2.78,1.03-.16,2.05-.3,3.11-.41.69-.09,1.4-.16,2.1-.22.26-.01.52-.04.78-.06,1.89-.15,3.8-.22,5.73-.22.14-.01.26-.01.4-.01.57,0,1.14.01,1.71.02s1.15.02,1.72.05c2.12.1,4.21.27,6.29.52.01,0,.02.01.05.01,1.99.25,3.97.57,5.91.97,3.91.78,7.72,1.87,11.4,3.22.88.32,1.76.66,2.61,1,6.32,2.57,12.23,5.95,17.6,9.99,1.16.87,2.29,1.77,3.39,2.71,2.71,2.26,5.53,4.36,8.45,6.24,9.31,5.99,19.61,9.99,30.32,11.87,1.3.24,2.6.43,3.9.61,5.78.74,11.66.88,17.52.38.97-.07,1.94-.17,2.91-.28,2.15-.26,4.32-.59,6.46-1.03.21-.04.42-.09.64-.12,1.86-.38,3.71-.84,5.56-1.35,1.31-.37,2.62-.77,3.92-1.2,2.49-.82,5-1.57,7.55-2.26,2.51-.67,5.06-1.27,7.65-1.82l.93-.19.93-.19c2.12-.41,4.26-.77,6.42-1.08,3.28-.47,6.61-.83,9.96-1.06.85-.06,1.71-.11,2.57-.16,2.33-.12,4.67-.19,7.03-.19,75.71-.07,137.24,61.38,137.24,137.09,0,20.28-4.41,39.54-12.31,56.85h125.69c11.5,17.84,18.18,39.09,18.23,61.91Z"/>
      <path class="cls-6" d="m162.81,684.8c-25.6-22.35-38.9-53.53-39.34-85.01-.17-13.1-5.89-25.46-15.77-34.07l-.17-.15c-4.73-4.14-8.85-8.74-12.35-13.66-4.74-6.67-8.33-13.93-10.75-21.51-1.7-5.32-2.82-10.79-3.37-16.33-.33-3.38-.45-6.78-.35-10.18.18-5.88,1.02-11.76,2.53-17.5,1.01-3.9,2.33-7.73,3.97-11.48,1.6-3.68,3.49-7.27,5.69-10.72.56-.89,1.14-1.75,1.74-2.62.4-.57.81-1.15,1.23-1.72.15-.21.31-.42.47-.63,1.14-1.52,2.34-3,3.6-4.46l.26-.3c.38-.43.75-.86,1.13-1.28.38-.42.79-.84,1.18-1.25,1.46-1.53,2.97-2.99,4.53-4.38l.03-.04c1.51-1.34,3.05-2.62,4.63-3.82,3.17-2.42,6.49-4.58,9.93-6.45.82-.45,1.64-.88,2.48-1.3,6.1-3.06,12.53-5.28,19.11-6.65,1.41-.29,2.84-.56,4.26-.77,3.5-.54,6.93-1.28,10.27-2.24,10.64-3.05,20.43-8.18,28.91-14.98,1.03-.82,2.04-1.67,3.02-2.54,4.37-3.86,8.34-8.19,11.85-12.92.58-.78,1.14-1.57,1.69-2.38,1.23-1.78,2.39-3.63,3.49-5.53.1-.19.21-.37.31-.56.94-1.66,1.83-3.35,2.66-5.06.59-1.24,1.16-2.49,1.69-3.75,1.02-2.42,2.1-4.8,3.26-7.16,1.15-2.35,2.38-4.66,3.68-6.96l.47-.82c.16-.27.31-.55.47-.82,1.09-1.86,2.23-3.71,3.41-5.53,1.81-2.79,3.73-5.53,5.76-8.21.53-.67,1.04-1.36,1.58-2.02,1.45-1.84,2.94-3.64,4.5-5.42,49.83-57,136.6-62.78,193.55-12.88,15.26,13.37,26.84,29.37,34.65,46.73l82.83-94.54c21,3.11,41.37,12.08,58.56,27.09,25.61,22.34,38.91,53.52,39.35,85,.18,13.11,5.9,25.47,15.77,34.07l.17.15c4.74,4.15,8.86,8.75,12.35,13.66,4.75,6.68,8.33,13.95,10.75,21.53,1.71,5.32,2.83,10.78,3.37,16.31.34,3.39.46,6.78.35,10.19-.17,5.87-1.02,11.74-2.52,17.49-1.01,3.9-2.33,7.73-3.97,11.48-1.6,3.68-3.5,7.26-5.7,10.73-.56.88-1.13,1.74-1.74,2.61-.39.58-.8,1.16-1.22,1.73-.16.2-.31.42-.47.63-1.14,1.52-2.34,3-3.61,4.46-.08.11-.16.2-.25.31-.38.43-.76.85-1.14,1.27s-.78.85-1.17,1.26c-1.47,1.53-2.98,2.99-4.53,4.39,0,0-.03.01-.04.03-1.5,1.34-3.05,2.61-4.62,3.81-3.16,2.43-6.49,4.58-9.93,6.45-.82.45-1.65.89-2.47,1.3-6.1,3.06-12.53,5.27-19.11,6.65-1.42.3-2.84.56-4.27.76-3.49.55-6.92,1.29-10.26,2.25-10.64,3.05-20.44,8.17-28.91,14.98-1.03.82-2.04,1.67-3.02,2.53-4.37,3.86-8.34,8.19-11.84,12.93-.58.78-1.15,1.58-1.7,2.37-1.22,1.79-2.4,3.64-3.48,5.54-.11.18-.21.37-.33.57-.93,1.65-1.81,3.35-2.65,5.07-.59,1.23-1.15,2.48-1.68,3.74-1.02,2.41-2.11,4.8-3.27,7.17-1.15,2.33-2.38,4.65-3.67,6.95l-.47.82-.47.82c-1.09,1.86-2.23,3.71-3.42,5.54-1.81,2.78-3.73,5.52-5.76,8.19-.52.68-1.04,1.36-1.57,2.04-1.44,1.83-2.93,3.63-4.49,5.41-49.84,56.99-136.6,62.78-193.55,12.88-15.26-13.37-26.84-29.37-34.65-46.72l-82.83,94.54c-21-3.11-41.38-12.09-58.58-27.09Z"/>
      <g>
        <rect class="cls-8" x="342.94" y="98.77" width="759.43" height="418.52"/>
        <path class="cls-5" d="m1102.91,118.7H342.39c-8.61,0-15.6-6.98-15.6-15.6,0-8.59,6.96-15.6,15.6-15.6h760.52c8.61,0,15.6,6.98,15.6,15.6,0,8.59-6.96,15.6-15.6,15.6Z"/>
        <path class="cls-7" d="m342.94,426.49s61.87-106.21,217.31-70.81c0,0,217.58-259.51,379.85-124.14,0,0,106.83-80.52,162.27,4.54v281.21H342.94v-90.8Z"/>
        <g>
          <g>
            <rect class="cls-1" x="502.82" y="644.57" width="9.6" height="109.83"/>
            <rect class="cls-1" x="498.43" y="746.28" width="18.38" height="68.61" rx="3.01" ry="3.01"/>
            <g>
              <path class="cls-1" d="m560.27,836.61c-3.2,0-5.8-2.6-5.8-5.8v-3.73c0-4.88-3.97-8.85-8.85-8.85h-75.42c-4.88,0-8.85,3.97-8.85,8.85v3.73c0,3.2-2.6,5.8-5.8,5.8s-5.8-2.6-5.8-5.8v-3.73c0-11.28,9.17-20.45,20.45-20.45h75.42c11.28,0,20.45,9.17,20.45,20.45v3.73c0,3.2-2.6,5.8-5.8,5.8Z"/>
              <circle class="cls-1" cx="452.71" cy="829.04" r="10.96"/>
              <circle class="cls-1" cx="562.52" cy="829.04" r="10.96"/>
            </g>
            <path class="cls-1" d="m542.83,687.74l-55.15-27.57c-1.72-.86-2.42-2.95-1.56-4.67.86-1.72,2.95-2.41,4.67-1.56l55.15,27.57c1.72.86,2.42,2.95,1.56,4.67-.86,1.72-2.95,2.41-4.67,1.56Z"/>
            <circle class="cls-1" cx="507.62" cy="654.1" r="21.17"/>
            <path class="cls-1" d="m574.73,688.24h-33.81c-2.9,0-5.25-2.35-5.25-5.25,0-2.9,2.35-5.25,5.25-5.25h33.81c2.9,0,5.25,2.35,5.25,5.25,0,2.9-2.35,5.25-5.25,5.25Z"/>
            <path class="cls-2" d="m577.54,636.8h-139.85l7.26-153.82c.62-13.13,11.44-23.45,24.59-23.45h76.26c13.08,0,23.85,10.27,24.46,23.34l7.27,153.93Z"/>
            <g>
              <rect class="cls-1" x="415.62" y="595.4" width="30.04" height="14.15" rx="2.31" ry="2.31"/>
              <rect class="cls-1" x="426.02" y="602.47" width="9.23" height="35.76"/>
              <rect class="cls-1" x="569.58" y="595.4" width="30.04" height="14.15" rx="2.31" ry="2.31"/>
              <rect class="cls-1" x="579.98" y="602.47" width="9.23" height="35.76"/>
            </g>
            <path class="cls-3" d="m587.07,664.59h-158.9c-5.85,0-10.6-4.74-10.6-10.6v-12.47c0-5.22,3.79-9.64,8.94-10.47,53.74-8.67,108.5-8.68,162.28.01,5.12.83,8.86,5.27,8.86,10.46v12.46c0,5.85-4.74,10.6-10.6,10.6Z"/>
          </g>
          <g>
            <rect class="cls-1" x="704.88" y="644.57" width="9.6" height="109.83"/>
            <rect class="cls-1" x="700.49" y="746.28" width="18.38" height="68.61" rx="3.01" ry="3.01"/>
            <g>
              <path class="cls-1" d="m762.33,836.61c-3.2,0-5.8-2.6-5.8-5.8v-3.73c0-4.88-3.97-8.85-8.85-8.85h-75.42c-4.88,0-8.85,3.97-8.85,8.85v3.73c0,3.2-2.6,5.8-5.8,5.8s-5.8-2.6-5.8-5.8v-3.73c0-11.28,9.17-20.45,20.45-20.45h75.42c11.28,0,20.45,9.17,20.45,20.45v3.73c0,3.2-2.6,5.8-5.8,5.8Z"/>
              <circle class="cls-1" cx="654.77" cy="829.04" r="10.96"/>
              <circle class="cls-1" cx="764.58" cy="829.04" r="10.96"/>
            </g>
            <path class="cls-1" d="m744.89,687.74l-55.15-27.57c-1.72-.86-2.42-2.95-1.56-4.67.86-1.72,2.95-2.41,4.67-1.56l55.15,27.57c1.72.86,2.42,2.95,1.56,4.67-.86,1.72-2.95,2.41-4.67,1.56Z"/>
            <circle class="cls-1" cx="709.68" cy="654.1" r="21.17"/>
            <path class="cls-1" d="m776.79,688.24h-33.81c-2.9,0-5.25-2.35-5.25-5.25s2.35-5.25,5.25-5.25h33.81c2.9,0,5.25,2.35,5.25,5.25,0,2.9-2.35,5.25-5.25,5.25Z"/>
            <path class="cls-2" d="m779.6,636.8h-139.85l7.26-153.82c.62-13.13,11.44-23.45,24.59-23.45h76.26c13.08,0,23.85,10.27,24.46,23.34l7.27,153.93Z"/>
            <g>
              <rect class="cls-1" x="617.68" y="595.4" width="30.04" height="14.15" rx="2.31" ry="2.31"/>
              <rect class="cls-1" x="628.08" y="602.47" width="9.23" height="35.76"/>
              <rect class="cls-1" x="771.64" y="595.4" width="30.04" height="14.15" rx="2.31" ry="2.31"/>
              <rect class="cls-1" x="782.04" y="602.47" width="9.23" height="35.76"/>
            </g>
            <path class="cls-3" d="m789.13,664.59h-158.9c-5.85,0-10.6-4.74-10.6-10.6v-12.47c0-5.22,3.79-9.64,8.94-10.47,53.74-8.67,108.5-8.68,162.28.01,5.12.83,8.86,5.27,8.86,10.46v12.46c0,5.85-4.74,10.6-10.6,10.6Z"/>
          </g>
          <g>
            <rect class="cls-1" x="906.94" y="644.57" width="9.6" height="109.83"/>
            <rect class="cls-1" x="902.55" y="746.28" width="18.38" height="68.61" rx="3.01" ry="3.01"/>
            <g>
              <path class="cls-1" d="m964.39,836.61c-3.2,0-5.8-2.6-5.8-5.8v-3.73c0-4.88-3.97-8.85-8.85-8.85h-75.42c-4.88,0-8.85,3.97-8.85,8.85v3.73c0,3.2-2.6,5.8-5.8,5.8s-5.8-2.6-5.8-5.8v-3.73c0-11.28,9.17-20.45,20.45-20.45h75.42c11.28,0,20.45,9.17,20.45,20.45v3.73c0,3.2-2.6,5.8-5.8,5.8Z"/>
              <circle class="cls-1" cx="856.83" cy="829.04" r="10.96"/>
              <circle class="cls-1" cx="966.64" cy="829.04" r="10.96"/>
            </g>
            <path class="cls-1" d="m946.95,687.74l-55.15-27.57c-1.72-.86-2.42-2.95-1.56-4.67.86-1.72,2.96-2.41,4.67-1.56l55.15,27.57c1.72.86,2.42,2.95,1.56,4.67-.86,1.72-2.95,2.41-4.67,1.56Z"/>
            <circle class="cls-1" cx="911.74" cy="654.1" r="21.17"/>
            <path class="cls-1" d="m978.85,688.24h-33.81c-2.9,0-5.25-2.35-5.25-5.25,0-2.9,2.35-5.25,5.25-5.25h33.81c2.9,0,5.25,2.35,5.25,5.25,0,2.9-2.35,5.25-5.25,5.25Z"/>
            <path class="cls-2" d="m981.66,636.8h-139.85l7.26-153.82c.62-13.13,11.44-23.45,24.59-23.45h76.26c13.08,0,23.85,10.27,24.46,23.34l7.27,153.93Z"/>
            <g>
              <rect class="cls-1" x="819.74" y="595.4" width="30.04" height="14.15" rx="2.31" ry="2.31"/>
              <rect class="cls-1" x="830.14" y="602.47" width="9.23" height="35.76"/>
              <rect class="cls-1" x="973.7" y="595.4" width="30.04" height="14.15" rx="2.31" ry="2.31"/>
              <rect class="cls-1" x="984.1" y="602.47" width="9.23" height="35.76"/>
            </g>
            <path class="cls-3" d="m991.19,664.59h-158.9c-5.85,0-10.6-4.74-10.6-10.6v-12.47c0-5.22,3.79-9.64,8.94-10.47,53.74-8.67,108.5-8.68,162.28.01,5.12.83,8.86,5.27,8.86,10.46v12.46c0,5.85-4.74,10.6-10.6,10.6Z"/>
          </g>
          <g>
            <rect class="cls-1" x="1133.6" y="644.57" width="9.6" height="109.83"/>
            <rect class="cls-1" x="1129.21" y="746.28" width="18.38" height="68.61" rx="3.01" ry="3.01"/>
            <g>
              <path class="cls-1" d="m1191.05,836.61c-3.2,0-5.8-2.6-5.8-5.8v-3.73c0-4.88-3.97-8.85-8.85-8.85h-75.42c-4.88,0-8.85,3.97-8.85,8.85v3.73c0,3.2-2.6,5.8-5.8,5.8s-5.8-2.6-5.8-5.8v-3.73c0-11.28,9.17-20.45,20.45-20.45h75.42c11.28,0,20.45,9.17,20.45,20.45v3.73c0,3.2-2.6,5.8-5.8,5.8Z"/>
              <circle class="cls-1" cx="1083.5" cy="829.04" r="10.96"/>
              <circle class="cls-1" cx="1193.31" cy="829.04" r="10.96"/>
            </g>
            <path class="cls-1" d="m1089.29,686.18c-.86-1.72-.16-3.81,1.56-4.67l55.15-27.57c1.72-.86,3.81-.16,4.67,1.56.86,1.72.16,3.81-1.56,4.67l-55.15,27.57c-1.71.85-3.81.17-4.67-1.56Z"/>
            <circle class="cls-1" cx="1138.4" cy="654.1" r="21.17"/>
            <path class="cls-1" d="m1062.06,688.24h33.81c2.9,0,5.25-2.35,5.25-5.25,0-2.9-2.35-5.25-5.25-5.25h-33.81c-2.9,0-5.25,2.35-5.25,5.25s2.35,5.25,5.25,5.25Z"/>
            <path class="cls-2" d="m1226.09,638.07l-31.51-3.8c.99-49.55,6.58-99.19,16.86-148.28,3.18-15.16,17.41-26.07,33.99-24.14-13.56,57.75-20.05,116.91-19.34,176.22Z"/>
            <rect class="cls-1" x="1070.59" y="595.4" width="159.81" height="14.15" rx="2.31" ry="2.31"/>
            <rect class="cls-1" x="1205.13" y="602.47" width="14.87" height="35.76"/>
            <path class="cls-3" d="m1217.85,664.59h-158.9c-5.85,0-10.6-4.74-10.6-10.6v-12.47c0-5.22,3.79-9.64,8.94-10.47,53.74-8.67,108.5-8.68,162.28.01,5.12.83,8.86,5.27,8.86,10.46v12.46c0,5.85-4.74,10.6-10.6,10.6Z"/>
          </g>
          <g>
            <rect class="cls-1" x="282.5" y="644.57" width="9.6" height="109.83" transform="translate(574.59 1398.97) rotate(-180)"/>
            <rect class="cls-1" x="278.1" y="746.28" width="18.38" height="68.61" rx="3.01" ry="3.01" transform="translate(574.59 1561.16) rotate(180)"/>
            <g>
              <path class="cls-1" d="m339.37,836.61c-3.2,0-5.8-2.6-5.8-5.8v-3.73c0-4.88-3.97-8.85-8.85-8.85h-75.42c-4.88,0-8.85,3.97-8.85,8.85v3.73c0,3.2-2.6,5.8-5.8,5.8s-5.8-2.6-5.8-5.8v-3.73c0-11.28,9.17-20.45,20.45-20.45h75.42c11.28,0,20.45,9.17,20.45,20.45v3.73c0,3.2-2.6,5.8-5.8,5.8Z"/>
              <circle class="cls-1" cx="342.2" cy="829.04" r="10.96"/>
              <circle class="cls-1" cx="232.39" cy="829.04" r="10.96"/>
            </g>
            <path class="cls-1" d="m331.74,687.74l-55.15-27.57c-1.72-.86-2.42-2.95-1.56-4.67.86-1.72,2.95-2.41,4.67-1.56l55.15,27.57c1.72.86,2.42,2.95,1.56,4.67-.86,1.72-2.95,2.41-4.67,1.56Z"/>
            <circle class="cls-1" cx="287.3" cy="654.1" r="21.17"/>
            <path class="cls-1" d="m363.64,688.24h-33.81c-2.9,0-5.25-2.35-5.25-5.25,0-2.9,2.35-5.25,5.25-5.25h33.81c2.9,0,5.25,2.35,5.25,5.25,0,2.9-2.35,5.25-5.25,5.25Z"/>
            <path class="cls-2" d="m199.61,638.07l31.51-3.8c-.99-49.55-6.58-99.19-16.86-148.28-3.18-15.16-17.41-26.07-33.99-24.14,13.56,57.75,20.05,116.91,19.34,176.22Z"/>
            <rect class="cls-1" x="195.3" y="595.4" width="159.81" height="14.15" rx="2.31" ry="2.31" transform="translate(550.4 1204.95) rotate(180)"/>
            <rect class="cls-1" x="205.7" y="602.47" width="14.87" height="35.76" transform="translate(426.27 1240.7) rotate(-180)"/>
            <path class="cls-3" d="m207.85,664.59h158.9c5.85,0,10.6-4.74,10.6-10.6v-12.47c0-5.22-3.79-9.64-8.94-10.47-53.74-8.67-108.5-8.68-162.28.01-5.12.83-8.86,5.27-8.86,10.46v12.46c0,5.85,4.74,10.6,10.6,10.6Z"/>
          </g>
          <rect class="cls-4" x="390.84" y="585.92" width="16.82" height="254.08"/>
          <rect class="cls-5" x="473.9" y="585.41" width="16.82" height="254.08"/>
          <rect class="cls-4" x="1014.55" y="585.92" width="16.82" height="254.08"/>
          <rect class="cls-5" x="931.69" y="585.92" width="16.82" height="254.08"/>
          <rect class="cls-4" x="363.7" y="576.43" width="696.74" height="18.97"/>
          <rect class="cls-1" x="387.4" y="569.62" width="86.16" height="6.81" rx="1.11" ry="1.11"/>
          <rect class="cls-1" x="441.35" y="532.27" width="84.35" height="6.81" rx="1.11" ry="1.11" transform="translate(1139.85 235.7) rotate(107.51)"/>
        </g>
      </g>
    </g>
  </g>
</svg>