<?xml version="1.0" encoding="UTF-8"?>
<svg id="Capa_2" data-name="Capa 2" xmlns="http://www.w3.org/2000/svg" viewBox="0 0 1151.52 840">
  <defs>
    <style>
      .cls-1 {
        fill: #fcc400;
      }

      .cls-1, .cls-2, .cls-3, .cls-4, .cls-5, .cls-6, .cls-7 {
        stroke-width: 0px;
      }

      .cls-2 {
        fill: #2351fa;
      }

      .cls-3 {
        fill: #fff;
      }

      .cls-4 {
        fill: #e77700;
      }

      .cls-5 {
        fill: #714138;
      }

      .cls-6 {
        fill: #68003c;
      }

      .cls-7 {
        fill: #2b0000;
        isolation: isolate;
        opacity: .14;
      }
    </style>
  </defs>
  <g id="Capa_1-2" data-name="Capa 1">
    <g>
      <path class="cls-7" d="m1151.52,462.06c.12,55.58-28.22,105.55-73.33,140.02-18.79,14.33-29.46,34.69-29.39,56.13v.36c0,10.28-1.43,20.3-4.13,29.91-3.65,13.01-9.62,25.26-17.55,36.41-5.56,7.83-12.08,15.1-19.41,21.74-4.49,4.05-9.26,7.85-14.32,11.39-8.76,6.11-18.36,11.42-28.6,15.75-6.95,2.96-14.18,5.46-21.7,7.49-7.38,2-14.99,3.54-22.8,4.55-2.01.26-3.99.49-6.02.69-1.34.12-2.7.24-4.06.34-.5.04-1,.06-1.5.1-3.65.24-7.33.36-11.05.38h-.76c-1.1,0-2.2,0-3.29-.02-1.1-.02-2.22-.06-3.32-.1-4.08-.14-8.12-.43-12.1-.85h-.1c-3.87-.4-7.69-.93-11.43-1.58-7.54-1.3-14.9-3.06-21.99-5.26-1.69-.53-3.37-1.07-5.04-1.66-12.2-4.21-23.59-9.72-33.95-16.33-2.22-1.42-4.42-2.89-6.54-4.41-5.23-3.72-10.67-7.14-16.3-10.22-17.95-9.8-37.84-16.31-58.48-19.41-2.51-.38-5.01-.71-7.52-.97-11.15-1.21-22.49-1.44-33.8-.65-1.86.12-3.72.28-5.61.49-4.15.4-8.31.97-12.46,1.66-.41.08-.81.14-1.22.22-3.6.63-7.18,1.36-10.72,2.19-2.55.61-5.08,1.25-7.59,1.96-4.8,1.36-9.64,2.59-14.54,3.7-4.87,1.11-9.79,2.11-14.78,2.98l-1.79.3-1.79.3c-4.08.67-8.21,1.25-12.36,1.76-6.35.79-12.77,1.38-19.24,1.76-1.65.08-3.29.18-4.94.24-4.51.2-9.02.3-13.58.3-146.04.14-264.73-100.39-264.73-224.22,0-33.17,8.5-64.67,23.75-92.98H78.99c-22.18-29.19-35.07-63.92-35.14-101.24-.14-55.58,28.19-105.55,73.31-140.02,18.79-14.35,29.46-34.71,29.39-56.13v-.36c0-10.3,1.43-20.32,4.13-29.91,3.65-13.03,9.64-25.28,17.57-36.43,5.54-7.83,12.06-15.1,19.38-21.72,4.49-4.07,9.26-7.87,14.35-11.42,8.74-6.11,18.33-11.4,28.57-15.75,6.95-2.96,14.18-5.46,21.7-7.49,7.38-2,14.99-3.52,22.82-4.55,1.98-.26,3.96-.49,5.99-.67,1.34-.14,2.7-.26,4.06-.36.5-.02,1-.06,1.5-.1,3.65-.24,7.33-.36,11.05-.36.26-.02.5-.02.76-.02,1.1,0,2.2.02,3.29.04s2.22.04,3.32.08c4.08.16,8.12.45,12.13.85.02,0,.05.02.1.02,3.84.4,7.66.93,11.41,1.58,7.54,1.28,14.9,3.06,21.99,5.26,1.69.53,3.39,1.07,5.04,1.64,12.2,4.21,23.58,9.74,33.94,16.33,2.24,1.42,4.42,2.89,6.54,4.43,5.23,3.7,10.67,7.12,16.3,10.2,17.95,9.8,37.84,16.33,58.48,19.41,2.51.38,5.01.71,7.52.99,11.15,1.21,22.49,1.44,33.8.63,1.86-.12,3.75-.28,5.61-.47,4.15-.42,8.33-.97,12.46-1.68.41-.06.81-.14,1.24-.2,3.58-.63,7.16-1.38,10.72-2.21,2.53-.61,5.06-1.25,7.57-1.96,4.8-1.34,9.64-2.57,14.56-3.7,4.85-1.09,9.76-2.08,14.75-2.98l1.79-.3c.6-.1,1.19-.2,1.79-.3,4.08-.67,8.21-1.25,12.39-1.76,6.33-.77,12.75-1.36,19.22-1.74,1.65-.1,3.29-.18,4.96-.26,4.49-.2,9-.3,13.56-.3,146.04-.12,264.73,100.39,264.73,224.22,0,33.17-8.5,64.67-23.75,92.98h242.46c22.18,29.19,35.07,63.94,35.16,101.26Z"/>
      <path class="cls-7" d="m1149.18,334.52c.05,26.52-11.42,50.37-29.67,66.82-7.6,6.84-11.92,16.56-11.89,26.78v.17c0,4.91-.58,9.69-1.67,14.28-1.48,6.21-3.89,12.05-7.1,17.38-2.25,3.74-4.89,7.21-7.85,10.37-1.82,1.93-3.75,3.75-5.8,5.44-3.54,2.92-7.43,5.45-11.57,7.51-2.81,1.41-5.74,2.61-8.78,3.57-2.98.96-6.07,1.69-9.22,2.17-.81.13-1.61.23-2.43.33-.54.06-1.09.12-1.64.16-.2.02-.41.03-.61.05-1.48.12-2.97.17-4.47.18h-.31c-.44,0-.89,0-1.33,0-.44,0-.9-.03-1.34-.05-1.65-.07-3.28-.2-4.9-.41h-.04c-1.56-.19-3.11-.44-4.63-.75-3.05-.62-6.03-1.46-8.9-2.51-.69-.25-1.36-.51-2.04-.79-4.94-2.01-9.54-4.64-13.74-7.79-.9-.68-1.79-1.38-2.65-2.11-2.12-1.78-4.32-3.41-6.6-4.88-7.26-4.67-15.31-7.78-23.66-9.26-1.01-.18-2.03-.34-3.04-.46-4.51-.58-9.1-.69-13.68-.31-.75.06-1.51.14-2.27.23-1.68.19-3.36.46-5.04.79-.16.04-.33.07-.49.11-1.46.3-2.91.65-4.34,1.04-1.03.29-2.06.6-3.07.94-1.94.65-3.9,1.24-5.88,1.77-1.97.53-3.96,1-5.98,1.42l-.72.14-.72.15c-1.65.32-3.32.6-5,.84-2.57.38-5.17.66-7.79.84-.67.04-1.33.09-2,.12-1.83.1-3.65.15-5.5.15-59.09.07-107.12-47.91-107.12-107,0-15.83,3.44-30.86,9.61-44.37h-98.11c-8.97-13.93-14.19-30.5-14.22-48.31-.06-26.52,11.41-50.37,29.66-66.82,7.6-6.85,11.92-16.57,11.89-26.78v-.17c0-4.92.58-9.7,1.67-14.28,1.48-6.22,3.9-12.06,7.11-17.39,2.24-3.74,4.88-7.21,7.84-10.36,1.82-1.94,3.75-3.76,5.8-5.45,3.54-2.92,7.42-5.44,11.56-7.51,2.81-1.41,5.74-2.61,8.78-3.57,2.98-.96,6.07-1.68,9.23-2.17.8-.13,1.6-.23,2.42-.32.54-.07,1.09-.13,1.64-.17.2,0,.41-.03.61-.05,1.48-.12,2.97-.17,4.47-.17.11,0,.2,0,.31,0,.44,0,.89,0,1.33.02s.9.02,1.34.04c1.65.08,3.28.21,4.91.41,0,0,.02,0,.04,0,1.55.19,3.1.44,4.62.75,3.05.61,6.03,1.46,8.9,2.51.69.25,1.37.51,2.04.78,4.94,2.01,9.54,4.65,13.73,7.79.91.68,1.79,1.38,2.65,2.12,2.12,1.77,4.32,3.4,6.6,4.87,7.26,4.67,15.31,7.79,23.66,9.26,1.01.18,2.03.34,3.04.47,4.51.58,9.1.69,13.68.3.75-.06,1.52-.14,2.27-.22,1.68-.2,3.37-.46,5.04-.8.16-.03.33-.07.5-.1,1.45-.3,2.9-.66,4.34-1.05,1.02-.29,2.05-.6,3.06-.94,1.94-.64,3.9-1.23,5.89-1.77,1.96-.52,3.95-.99,5.97-1.42l.72-.14.72-.15c1.65-.32,3.32-.6,5.01-.84,2.56-.37,5.16-.65,7.78-.83.67-.05,1.33-.09,2.01-.13,1.82-.1,3.64-.15,5.49-.15,59.09-.06,107.12,47.91,107.12,107,0,15.83-3.44,30.86-9.61,44.37h98.11c8.97,13.93,14.19,30.51,14.23,48.32Z"/>
      <path class="cls-7" d="m448.2,639.07c.05,26.52-11.42,50.37-29.67,66.82-7.6,6.84-11.92,16.56-11.89,26.78v.17c0,4.91-.58,9.69-1.67,14.28-1.48,6.21-3.89,12.05-7.1,17.38-2.25,3.74-4.89,7.21-7.85,10.37-1.82,1.93-3.75,3.75-5.8,5.44-3.54,2.92-7.43,5.45-11.57,7.51-2.81,1.41-5.74,2.61-8.78,3.57-2.98.96-6.07,1.69-9.22,2.17-.81.13-1.61.23-2.43.33-.54.06-1.09.12-1.64.16-.2.02-.41.03-.61.05-1.48.12-2.97.17-4.47.18h-.31c-.44,0-.89,0-1.33,0-.44,0-.9-.03-1.34-.05-1.65-.07-3.28-.2-4.9-.41h-.04c-1.56-.19-3.11-.44-4.63-.75-3.05-.62-6.03-1.46-8.9-2.51-.69-.25-1.36-.51-2.04-.79-4.94-2.01-9.54-4.64-13.74-7.79-.9-.68-1.79-1.38-2.65-2.11-2.12-1.78-4.32-3.41-6.6-4.88-7.26-4.67-15.31-7.78-23.66-9.26-1.01-.18-2.03-.34-3.04-.46-4.51-.58-9.1-.69-13.68-.31-.75.06-1.51.14-2.27.23-1.68.19-3.36.46-5.04.79-.16.04-.33.07-.49.11-1.46.3-2.91.65-4.34,1.04-1.03.29-2.06.6-3.07.94-1.94.65-3.9,1.24-5.88,1.77-1.97.53-3.96,1-5.98,1.42l-.72.14-.72.15c-1.65.32-3.32.6-5,.84-2.57.38-5.17.66-7.79.84-.67.04-1.33.09-2,.12-1.83.1-3.65.15-5.5.15-59.09.07-107.12-47.91-107.12-107,0-15.83,3.44-30.86,9.61-44.37H14.22C5.25,608.19.03,591.62,0,573.81c-.06-26.52,11.41-50.37,29.66-66.82,7.6-6.85,11.92-16.57,11.89-26.78v-.17c0-4.92.58-9.7,1.67-14.28,1.48-6.22,3.9-12.06,7.11-17.39,2.24-3.74,4.88-7.21,7.84-10.36,1.82-1.94,3.75-3.76,5.8-5.45,3.54-2.92,7.42-5.44,11.56-7.51,2.81-1.41,5.74-2.61,8.78-3.57,2.98-.96,6.07-1.68,9.23-2.17.8-.13,1.6-.23,2.42-.32.54-.07,1.09-.13,1.64-.17.2,0,.41-.03.61-.05,1.48-.12,2.97-.17,4.47-.17.11,0,.2,0,.31,0,.44,0,.89,0,1.33.02.44,0,.9.02,1.34.04,1.65.08,3.28.21,4.91.41,0,0,.02,0,.04,0,1.55.19,3.1.44,4.62.75,3.05.61,6.03,1.46,8.9,2.51.69.25,1.37.51,2.04.78,4.94,2.01,9.54,4.65,13.73,7.79.91.68,1.79,1.38,2.65,2.12,2.12,1.77,4.32,3.4,6.6,4.87,7.26,4.67,15.31,7.79,23.66,9.26,1.01.18,2.03.34,3.04.47,4.51.58,9.1.69,13.68.3.75-.06,1.52-.14,2.27-.22,1.68-.2,3.37-.46,5.04-.8.16-.03.33-.07.5-.1,1.45-.3,2.9-.66,4.34-1.05,1.02-.29,2.05-.6,3.06-.94,1.94-.64,3.9-1.23,5.89-1.77,1.96-.52,3.95-.99,5.97-1.42l.72-.14.72-.15c1.65-.32,3.32-.6,5.01-.84,2.56-.37,5.16-.65,7.78-.83.67-.05,1.33-.09,2.01-.13,1.82-.1,3.64-.15,5.49-.15,59.09-.06,107.12,47.91,107.12,107,0,15.83-3.44,30.86-9.61,44.37h98.11c8.97,13.93,14.19,30.51,14.23,48.32Z"/>
      <g>
        <path class="cls-4" d="m831.6,251.64c0-1.57-.11-3.13-.17-4.7-.44.01-.89.02-1.34.04-1.07.7-2.27.46-3.43.46-21.63.01-43.27.01-64.9,0-1.15,0-2.36.25-3.42-.46-.34-.08-.68-.16-1.02-.25-.64.18-1.28.37-1.93.55,0,0-.13,0-.13,0-.66-.18-1.32-.35-1.97-.53-.33.08-.66.16-.99.23-.81.57-1.74.46-2.65.46-21.04,0-42.07,0-63.11-.02-.52,0-1.04-.08-1.56-.13-1.22-.04-2.44-.09-3.65-.13-.42-.03-.84-.06-1.26-.1h0c-.18.08-.37.15-.56.2,0,0,0,0,0,0-.38.1-.77.15-1.16.18-.71.04-1.43-.02-2.13-.01-19.28,0-38.57.01-57.85,0-1.28,0-2.62.3-3.82-.45-.44-.05-.88-.1-1.31-.15-1.2.16-2.4.33-3.61.49h0c-4.17.02-8.33.05-12.5.07-4.17.02-8.34.04-12.51.05-14.59.02-29.19,0-43.78-.01-.03,11.9-.07,23.8-.07,35.7,0,20.25,0,40.49-.02,60.73,0,4.08,0,8.16-.01,12.24,0,1.51.54,3.15-.64,4.51,0,1.14-.77,1.92-1.34,2.78-14.94,22.93-29.89,45.85-44.84,68.76-.36.55-.79,1.04-1.18,1.56-3.21,4.95-6.41,9.92-9.62,14.88-4.1,6.35-8.21,12.68-12.39,18.98-3.58,5.39-10.2,5.58-13.72.3-4.26-6.39-8.45-12.83-12.61-19.28-3.2-4.96-6.4-9.93-9.61-14.89-4.75-7.2-9.54-14.39-14.26-21.61-10.39-15.88-20.75-31.77-31.11-47.66-.77-1.19-1.86-2.23-1.93-3.79-1.21-1.36-.65-3-.65-4.51,0-4.09,0-8.17,0-12.26-.02-30.45-.02-60.89-.02-91.34,0-1.7-.05-3.4-.09-5.1-58.07,0-116.15.02-174.22.02-1.16,0-2.37.25-3.44-.46-.41-.04-.82-.07-1.22-.11-.05,1.43-.15,2.86-.15,4.3-.02,37.25-.02,74.51-.03,111.76,20.64.03,41.29.05,61.94.08.08-.91.09-1.83.25-2.72.53-3.06,2.44-4.99,5.58-5.05,7.06-.14,14.13-.14,21.18,0,3.19.06,4.99,1.97,5.45,5.1.13.9.23,1.8.35,2.71,6.28-.02,12.57-.13,18.85-.02,10.65.19,20.06,8.55,20.02,19.91-.11,29.19-.06,58.39-.07,87.58.04.92.13,1.83.13,2.74,0,36,0,72,0,108,0,.91-.08,1.83-.13,2.74.06,6.81.11,13.61.17,20.42,1.83-.02,3.67-.07,5.5-.07,138.92,0,277.84-.01,416.77-.02-.85-10.09-.42-20.22,1.34-30.1,1.95-11.03,5.05-21.86,10.16-31.96.11-.21.39-.32.6-.48.95-4.59,3.73-8.31,6.07-12.2,6.38-10.59,14.27-19.97,23.44-28.25,7.29-6.59,15.34-12.15,23.92-16.93.91-.51,1.9-.9,2.47-1.86,0-76.98,0-153.96,0-230.94Zm-365.82,245.21c.92,0,1.83.02,2.75.02,1.86,0,2.01,1.21,2.01,2.65,0,1.5-.31,2.59-2.13,2.5-.91-.05-1.83,0-2.75,0h-71.48c-.66,0-1.32-.06-1.96,0-1.85.2-2.6-.55-2.53-2.44.08-2.45.14-2.72,2.66-2.72,12.57-.04,25.13-.02,37.7-.02,11.91,0,23.83,0,35.74,0Zm-75.87-24.44c.15-.31.48-.65.8-.74.49-.15,1.03-.12,1.56-.12,13.58,0,27.17-.02,40.75.01,2.53,0,2.7.27,2.7,2.64-.01,2.35-.16,2.56-2.76,2.57-6.66.04-13.32.02-19.98.02s-13.58.02-20.38-.01c-2.57-.01-3.81-2.08-2.68-4.37Zm-.21,51.67c.09-1.39.75-1.81,1.99-1.78,1.05.02,2.09,0,3.14,0h70.69c.79,0,1.57-.02,2.36,0,2.62.1,2.9.46,2.78,2.98-.06,1.25-.43,2-1.82,1.96-.92-.03-1.83,0-2.75,0h-36.13c-12.44,0-24.88.02-37.31-.01-2.83,0-3.13-.48-2.96-3.16Zm80.95,26.8c-.14,1.15-.68,1.61-1.77,1.61-.92,0-1.83.02-2.75.02h-71.5c-.92,0-1.84-.07-2.75,0-2.16.18-2.15-1.2-2.2-2.76-.06-1.76.73-2.33,2.36-2.21.91.07,1.83,0,2.75,0h70.71c.79,0,1.57-.02,2.36,0,2.64.09,3.1.71,2.79,3.33Zm271.04-32.44c-5.63.19-11.26.07-16.89.09-.03,5.76-.04,11.52-.1,17.28-.09,8.51-5.5,14.07-14.01,14.07-40.46.05-80.92-.02-121.38.05-8.79.02-14.17-6.92-14.15-14.03.14-54.08.15-108.16,0-162.23-.02-8.3,6.73-14.38,14.13-13.98,5.74.31,11.52.14,17.28.18.05-6.01.36-12.03.11-18.03-.35-8.34,5.89-14.17,14.24-14.2,6.8-.02,13.6,0,20.4,0,17,0,34-.01,50.99.02,1.39,0,2.9-.47,4.13.64.28.17.55.34.83.51,2.89,2.83,5.8,5.62,8.67,8.48,15.61,15.58,31.21,31.17,46.8,46.78,1,1,2.27,1.79,2.73,3.25,1.03,1.1.67,2.48.67,3.75.02,37.59-.09,75.18.09,112.76.04,7.82-5.21,14.29-14.53,14.6Zm38.62-210.1c-.6.26-1.19.59-1.82.72-3.75.75-5.92,3.03-6.7,6.74-.13.63-.4,1.25-.72,1.82-1.56,2.8-4.59,2.84-6.15.06-.44-.79-.79-1.67-.99-2.55-.75-3.28-2.75-5.2-6.01-5.93-.88-.2-1.76-.56-2.53-1.02-2.49-1.47-2.63-5.08.06-5.87,5.13-1.51,8.09-4.43,9.61-9.59.88-2.96,5.06-2.88,5.91.14,1.43,5.08,4.35,8.03,9.37,9.26,1.43.35,1.99,1.6,1.69,3.1.3,1.52-.37,2.53-1.72,3.12Z"/>
        <path class="cls-2" d="m763.62,604.34c-.85-10.09-.42-20.22,1.34-30.1,1.95-11.02,5.05-21.86,10.16-31.96.1-.21.39-.32.6-.47,1.75.96,3.08,2.43,4.51,3.76,8.07,7.53,7.04,5.03,7.11,16.06.06,8.7-.7,6.87,5.37,12.94,5,5,10.02,9.98,15.06,14.93,2.16,2.12,3.41,4.57,1.71,7.35-1.76,2.87-1.92,5.89-1.86,9.06.06,3.01.22,6.04-.04,9.03-.36,4.23,1.13,7.13,4.74,9.51,6.11,4.03,11.87,8.6,17.93,12.71,3.13,2.12,4.62,4.62,4.45,8.48-.25,5.62.06,11.26-.11,16.88-.11,3.63.4,7,2.31,10.13,3.77,6.2,5.73,12.84,4.78,20.16-.03.26-.01.52,0,.78.19,3.81,1.99,5.82,5.76,6.11,2.34.18,4.71.11,7.07.05,4.9-.12,6.84-2.09,6.89-7.01.04-4.19.17-8.39-.04-12.57-.16-3.29.8-5.83,3.38-7.9,1.93-1.56,3.61-3.42,5.49-5.05,2.03-1.76,2.95-3.92,2.81-6.59-.06-1.17.11-2.37-.03-3.53-.41-3.49,1.01-5.91,3.76-8.04,6.22-4.79,12.22-9.87,18.39-14.73,2.25-1.77,3.32-3.84,3.22-6.73-.14-3.92-.01-7.85-.04-11.78-.04-5.38-1.88-7.19-7.38-7.25-3.67-.04-7.33.05-11-.03-4.6-.1-6.05-1.34-6.95-5.74-.83-4.04-2.58-5.54-6.74-5.63-3.01-.06-6.02.04-9.03-.03-4.24-.1-6.16-2.01-6.39-6.25-.06-1.18.03-2.36-.06-3.53-.31-4.03-2.21-5.9-6.23-6.03-2.48-.08-4.97,0-7.46-.02-11.37-.11-8.53,1.25-16.65-6.92-8.73-8.78-7.46-5.28-7.5-18.38-.02-5.54,2.02-7.42,7.71-7.46,4.19-.03,8.38-.03,12.57,0,1.74.01,3.35-.2,4.82-1.29,8.29-6.17,16.62-12.31,24.92-18.47,1.31-.97,2.24-2.27,2.33-3.93.11-2.09.19-4.2,0-6.28-.27-2.87-2.25-4.63-5.21-4.92-1.04-.1-2.09-.04-3.14-.06-5.16-.12-7.16-2.07-7.24-7.13-.04-2.75-.09-5.5.01-8.25.09-2.44-.81-4.29-2.71-5.77-2.48-1.93-4.87-3.98-7.38-5.86-1.86-1.4-3.2-3.06-3.54-5.42,6.76-3.4,13.74-6.18,21.21-7.59,2.02,5.24,5.1,9.67,9.77,12.9,1.29.89,2.65,1.84,3.2,3.36,1.58,4.37,5.31,5.43,9.24,6.18,3.48.66,5.14-.19,6.3-3.54.53-1.54,1.44-2.7,2.81-2.9,2.74-.4,3.78-2.22,4.25-4.45.8-3.81,2.69-7.04,4.87-10.16,1.12-1.61,2.14-3.28,2.77-5.15,8.87.49,17.53,2.13,25.95,5,3.63,1.24,7.25,2.52,10.87,3.78-1.78,4.59-1.64,9.22-.29,13.87.67,2.31,1.06,4.67.05,6.92-1,2.23-1.75,4.58-3.11,6.67-2.21,3.4-3.16,7.16-2.7,11.22.48,4.23-.54,7.91-3.24,11.34-2.76,3.5-2.28,7.01.82,10.23,1.96,2.03,4.33,3.4,7.09,3.95,1.92.38,3.89.74,5.83.74,6.19-.01,11.9,1.5,17.14,4.82.88.56,1.9.89,2.8,1.42,2.17,1.27,4.39,1.35,6.69.45,1.2-.47,2.38-.99,3.6-1.4,6.84-2.31,13.22-.13,15.49,5.94,1.16,3.09.92,6.16-.25,9.2-1.26,3.25-1.76,6.5-.26,9.84.76,1.69.16,3.05-1.29,4.08-1.61,1.14-3.38,1.99-5.24,2.63-3.8,1.3-7.63,2.52-11.43,3.86-4.69,1.65-8.51,4.45-11.13,8.77-4.53,7.51-3.51,15.06.26,22.35,3.67,7.1,6.62,14.32,7.15,22.39.29,4.44.84,9.01,2.49,13.04,4,9.74,10.36,17.8,19.43,23.47-.69,1.44-1.81,2.56-2.85,3.72-20.92,23.37-46.79,37.51-77.93,41.78-24.07,3.3-47.18-.12-69.3-10.17-10.54-4.79-20.21-10.94-29.06-18.39-.95-.8-1.68-2.09-3.23-1.94-2.48-3.76-5.78-6.72-9.3-9.45-.12-1.46-1.3-2.23-2.12-3.2-7.49-8.84-13.6-18.54-18.57-29.01-6.31-13.29-9.62-27.33-10.99-41.9-.05-.52-.17-1.03-.26-1.54Z"/>
        <path class="cls-1" d="m578.68,737.79v-72.28c0-3.54.05-7.07-.04-10.61-.22-8.97-5.93-16.34-14.52-18.85-2.56-.75-5.19-.57-7.8-.57-48.06-.01-96.12-.01-144.18,0-1.18,0-2.36,0-3.53.05-7.94.31-14.9,5.41-17.67,12.84-1.03,2.76-1.19,5.6-1.19,8.49.01,53.82,0,107.64.01,161.46,0,.92.04,1.83.04,2.75-.01,3.38,1.04,6.47,2.81,9.27,4.2,6.64,10.3,9.68,18.14,9.67,48.98-.04,97.95-.02,146.93-.02.39,0,.79,0,1.17,0,9.29-.17,16.88-6.09,19.29-15.01.63-2.31.53-4.67.53-7.02.01-26.71,0-53.43,0-80.14Zm-171.26,16.65c.08-3.47,1.36-4.79,4.74-4.82,7.2-.06,14.4-.07,21.59,0,3.49.03,4.71,1.25,4.75,4.76.07,7.2.07,14.4,0,21.6-.03,3.44-1.36,4.84-4.71,4.88-7.2.08-14.4.08-21.6,0-3.39-.04-4.7-1.4-4.77-4.82-.09-3.66-.02-7.33-.02-10.99s-.07-7.07.02-10.6Zm71.93,21.15c-.06,3.94-1.28,5.25-5.12,5.28-6.93.06-13.87.06-20.8,0-3.88-.03-5.16-1.32-5.19-5.21-.05-6.93-.05-13.87,0-20.8.03-3.96,1.25-5.21,5.12-5.24,6.93-.05,13.87-.05,20.8,0,3.91.02,5.12,1.25,5.19,5.17.05,3.4.01,6.8.01,10.2s.04,7.07-.01,10.6Zm9.74-21.46c.04-3.14,1.45-4.48,4.64-4.51,7.33-.07,14.66-.07,21.98,0,2.97.03,4.39,1.37,4.44,4.31.11,7.46.1,14.92,0,22.37-.04,3.15-1.45,4.47-4.64,4.55-3.66.09-7.33.02-10.99.02s-7.07.06-10.6-.02c-3.42-.08-4.81-1.39-4.84-4.75-.07-7.33-.08-14.66,0-21.98Zm71.91,21.91c-.04,3.42-1.39,4.79-4.77,4.82-7.2.08-14.4.08-21.59,0-3.36-.04-4.68-1.43-4.71-4.88-.07-7.2-.07-14.4,0-21.59.04-3.52,1.25-4.7,4.75-4.77,3.66-.07,7.33-.02,10.99-.02,3.4,0,6.81-.04,10.21,0,3.75.05,5.09,1.24,5.13,4.83.08,7.2.08,14.4,0,21.59Zm-112.68-62.98c.04-3.43,1.12-4.45,4.49-4.52,1.47-.03,2.93-.04,4.39-.04,2.2,0,4.39.02,6.59.02.83,0,1.66,0,2.49,0,2.12,0,4.24-.02,6.37,0,.71,0,1.41.02,2.12.03,3.36.07,4.49,1.12,4.53,4.49.09,7.32.08,14.64,0,21.96-.04,3.39-1.16,4.49-4.49,4.52-7.32.06-14.64.06-21.96,0-3.37-.03-4.48-1.08-4.52-4.49-.09-7.32-.09-14.64,0-21.96Zm40.82-.03c.04-3.38,1.15-4.42,4.52-4.49,3.79-.07,7.58-.02,11.37-.02,3.53,0,7.06-.06,10.59.02,3.36.07,4.46,1.11,4.5,4.51.08,7.32.08,14.64-.02,21.96-.05,3.42-1.14,4.46-4.51,4.49-7.32.06-14.64.06-21.96,0-3.34-.03-4.45-1.12-4.49-4.52-.08-7.32-.08-14.64,0-21.96Zm71.81,10.75c0,3.53.05,7.06-.01,10.59-.07,4.17-1,5.13-5.06,5.15-7.06.04-14.11.05-21.17,0-3.61-.03-4.72-1.08-4.75-4.65-.07-7.19-.07-14.38,0-21.56.03-3.65,1.09-4.73,4.65-4.76,7.19-.06,14.38-.06,21.56,0,3.66.03,4.64,1,4.73,4.66.09,3.53.02,7.06.02,10.59h.03Zm-153.45-64.89c.02-4.56.91-5.4,5.62-5.4,23.69-.02,47.38,0,71.07,0s46.33,0,69.49,0c1.05,0,2.1-.05,3.14.02,2.92.19,4.05,1.15,4.09,4.14.1,9.56.1,19.11-.02,28.66-.03,2.85-1.32,3.9-4.2,4.12-.91.07-1.83.02-2.75.02h-139.39c-.52,0-1.05,0-1.57,0-4.45-.08-5.47-1.07-5.49-5.65-.04-8.64-.04-17.27,0-25.91Zm-.18,54.61c.05-3.81,1.16-4.8,4.99-4.83,3.66-.04,7.32,0,10.98,0s7.32-.05,10.98.02c2.93.05,4.2,1.05,4.26,3.94.15,7.58.15,15.17,0,22.75-.06,3.02-1.36,4.03-4.55,4.05-7.32.04-14.64.04-21.96,0-3.5-.02-4.65-1.1-4.7-4.73-.09-7.06-.09-14.12,0-21.18Zm.1,82.48c.06-4,1.24-5.28,5.08-5.31,7.06-.06,14.13-.07,21.2,0,3.42.04,4.78,1.38,4.82,4.77.07,7.19.07,14.4,0,21.59-.04,3.69-1.25,4.84-5.04,4.86-7.06.05-14.13.06-21.2,0-3.48-.03-4.75-1.27-4.84-4.71-.09-3.79-.02-7.59-.02-11.38,0-3.27-.04-6.55,0-9.82Zm71.93,21.1c-.04,3.67-1.27,4.77-5.09,4.82-3.4.05-6.81.01-10.21.01-3.67,0-7.33.05-10.99-.02-3.45-.07-4.75-1.29-4.79-4.76-.08-7.19-.07-14.4,0-21.59.04-3.47,1.35-4.83,4.72-4.86,7.19-.08,14.39-.08,21.59,0,3.39.04,4.74,1.4,4.78,4.81.07,7.2.07,14.4,0,21.59Zm81.59-.41c-.04,4.26-1.07,5.23-5.41,5.24-10.2.02-20.4,0-30.6,0s-20.14.02-30.22,0c-4.6,0-5.56-.94-5.58-5.47-.04-6.8-.05-13.6,0-20.4.03-4.2,1.13-5.29,5.42-5.3,20.27-.03,40.54-.03,60.82,0,4.55,0,5.55,1.02,5.58,5.53.04,6.8.05,13.6,0,20.4Z"/>
        <path class="cls-6" d="m269.6,470.5c-50.26,0-100.52.02-150.78.02-.05,1.05-.16,2.09-.16,3.13,0,35.73,0,71.47,0,107.2,0,1.05.09,2.09.15,3.13,41.76.01,83.51.03,125.27.04,8.51,0,17.02,0,25.52,0,.06-1.04.16-2.09.16-3.13,0-35.75,0-71.51,0-107.26,0-1.05-.1-2.09-.16-3.13Zm-92.98,57.26c-5.09.7-7.43,3.85-8.39,8.56-.31,1.54-1.46,2.54-3.06,2.56-1.43.02-2.76-.32-3.39-1.99-.84-2.23-1.45-4.73-2.9-6.51-1.5-1.84-4.38-1.76-6.55-2.86-1.5-.76-1.83-1.92-1.85-3.06-.03-1.54.71-3.07,2.42-3.51.98-.25,1.97-.61,2.88-.93,2.28-.8,4.6-1.97,4.67-4.95.03-1.17,1.06-1.74,1.28-2.75.34-1.56,1.12-2.76,2.91-2.39,1.74.36,3.35.91,3.77,3.18.79,4.2,3.13,7.01,7.6,7.85,2.6.48,3.46,1.61,3.4,3.81,0,1.58-1.17,2.77-2.79,2.99Z"/>
        <path class="cls-1" d="m269.6,470.5c-50.26,0-100.52.02-150.78.02-.04-.52-.12-1.04-.12-1.56,0-28.5-.02-57,.02-85.5.01-8.84,4.66-15.69,12.67-18.94,2.82-1.14,5.77-1.52,8.82-1.51,20.92.03,41.83.02,62.75.01,1.57,0,3.14-.06,4.7-.09,20.65.03,41.29.05,61.94.08.06,1.04.17,2.08.17,3.12,0,33.74,0,67.49,0,101.23,0,1.04-.1,2.09-.16,3.13Z"/>
        <path class="cls-1" d="m118.8,583.98c41.76.01,83.51.03,125.27.04,8.51,0,17.02,0,25.53,0,.06,1.17.16,2.34.16,3.52,0,33.57,0,67.13,0,100.7,0,1.04-.11,2.08-.17,3.12-26.83,0-53.65,0-80.48.02-1.7,0-3.4.07-5.1.11-12.62,0-25.25,0-37.87,0-4.02-.39-8.08.27-12.09-.74-8.91-2.25-15.29-9.82-15.32-18.95-.07-29.14-.01-58.28,0-87.43,0-.13.04-.26.07-.39Z"/>
        <path class="cls-6" d="m795.56,679.99c3.52,2.74,6.81,5.7,9.3,9.45-3.33,3.32-6.66,6.64-9.99,9.95,46.96,45.57,134.33,54.24,193.25-3.04,60.14-58.47,52.69-146.79,6.27-195.82-.24.1-.53.14-.7.31-3.34,3.32-6.67,6.66-9.99,10-3.36-2.9-6.4-6.13-9.41-9.38,3.58-3.45,7.16-6.9,10.9-10.5-4.94-4.58-9.92-8.24-14.9-11.9-.84-.62-1.74-1.17-2.56-1.82-2.92-2.31-3.59-6.8-1.49-9.66,1.68-2.29,6.09-3.02,8.95-1.21,4.82,3.05,9.34,6.53,13.72,10.18,7.14,5.93,13.68,12.45,19.62,19.58,6.19,7.43,11.6,15.36,16.36,23.78,5.08,8.98,8.86,18.47,11.97,28.27,1.92,6.04,3.28,12.19,4.64,18.38,2.26,10.28,3.17,20.62,2.91,31.08-.21,8.74-1.25,17.37-2.83,26.03-1.96,10.75-5.35,20.98-9.19,31.07-3.55,9.33-8.57,17.99-14.13,26.28-6.92,10.31-14.94,19.72-24.15,28.06-8.65,7.83-17.98,14.76-28.17,20.45-5.23,2.92-10.71,5.4-16.49,8.29,9.46,2.82,17.33,7.86,22.17,16.35,4.63,8.12,7.49,16.86,5.2,26.43-1.37.57-2.7.32-3.99.32-55.4.01-110.8.02-166.2,0-4.51,0-4.04.58-4.41-4.25-.71-9.13,1.67-17.37,7.14-24.76,4.8-6.47,10.96-10.95,18.59-13.47.33-.11.56-.5,1.1-1.01-10.82-4.45-20.6-10.43-29.97-17.01-7.66-5.38-14.55-11.75-21.08-18.5-6.41-6.62-11.97-13.9-17.29-21.39-1.65-2.32-.92-6.83,1.37-8.67,3.06-2.46,6.94-2.23,9.44.82,2.14,2.61,3.96,5.48,5.98,8.2,1.78,2.39,3.59,4.76,5.48,7.06.64.77,1.56,1.31,2.83,2.34,3.29-3.48,6.53-6.89,9.76-10.3Z"/>
        <path class="cls-4" d="m387.01,163.17c-.28-12.29-.71-24.56,2.69-36.62,8.3-29.49,33.48-51.24,63.88-55.3,34.27-4.58,66.87,14.2,80.51,44.98,4.13,9.33,6.31,19.11,6.52,29.3.12,5.88-.06,11.77-.1,17.66-.39-.03-.78-.07-1.17-.1-1.19-.79-2.54-.47-3.82-.47-47.83-.02-95.65-.02-143.48,0-1.28,0-2.63-.31-3.82.47-.4.03-.81.06-1.21.09Z"/>
        <path class="cls-2" d="m269.59,691.36c.06-1.04.17-2.08.17-3.12,0-33.57,0-67.13,0-100.7,0-1.17-.1-2.34-.16-3.52.05-1.04.16-2.09.16-3.13,0-35.76,0-71.51,0-107.27,0-1.04-.1-2.09-.16-3.13.06-1.04.16-2.09.16-3.13,0-33.74,0-67.49,0-101.23,0-1.04-.11-2.08-.17-3.12.08-.91.09-1.83.25-2.73.53-3.06,2.44-4.99,5.58-5.05,7.06-.14,14.12-.14,21.18,0,3.19.06,5,1.97,5.45,5.09.13.9.23,1.8.35,2.71-.09,1.17-.25,2.33-.25,3.5-.01,33.48-.01,66.96,0,100.45,0,1.17.15,2.34.23,3.51-.43,1.27-.26,2.59-.26,3.89,0,35.26,0,70.51,0,105.77,0,1.3-.17,2.62.27,3.89-.08,1.3-.24,2.6-.24,3.89-.01,33.18-.01,66.36,0,99.54,0,1.3-.19,2.62.26,3.89-.09.64-.2,1.28-.27,1.93-.45,4.07-2.24,5.86-6.32,5.91-6.54.08-13.09.08-19.63,0-4.06-.05-5.95-1.89-6.41-5.89-.07-.65-.12-1.3-.18-1.95Z"/>
        <path class="cls-1" d="m960.26,321.44c.73,1.32,2.03,2.01,3.15,2.9,18.01,14.26,26.43,32.95,24.31,55.73-2.61,28.02-23.33,48.78-48.21,54.48-33.68,7.71-67.54-12.73-75.1-46.43-5.8-25.87,2.39-47.44,23.19-64.06,1.02-.81,2.22-1.41,2.92-2.58,2.11-.46,3.65-2,5.52-2.92,10.73-5.24,21.9-7.96,33.97-6.83,6.03.57,11.8,1.77,17.49,3.77,4.46,1.57,8.36,4.29,12.77,5.93Zm-53.56,41.58c-2.48,0-4.97.05-7.45-.02-1.74-.04-3.27.64-3.92,2.08-.73,1.6.85,2.54,1.91,3.46.59.51,1.26.93,1.89,1.39,3.29,2.37,6.6,4.7,9.85,7.13,2.34,1.75,2.34,2.04,1.41,4.9-1.5,4.58-2.96,9.17-4.44,13.75-.62,1.93-.1,3.36,1.54,4.05,1.54.65,2.77-.03,3.98-.91,3.6-2.61,7.2-5.22,10.82-7.78,2.9-2.05,3.25-2.05,6.22.06,3.73,2.65,7.44,5.33,11.14,8.02,1.28.93,2.64,1.31,3.97.32,1.36-1.01,1.05-2.22.59-3.79-1.35-4.63-3.33-9.04-4.33-13.79-.48-2.28.08-3.69,1.95-4.97,3.77-2.59,7.42-5.35,11.15-8,1.37-.97,2.48-2.09,1.88-3.89-.6-1.8-2.16-2.04-3.83-2.02-4.31.03-8.63.02-12.94,0-3.98-.02-4.72-.45-5.89-4.2-1.32-4.24-3.1-8.34-4.02-12.71-.32-1.53-1.33-2.05-2.86-2.03-2.05.03-2.83,1.11-3.43,2.96-1.31,3.98-2.59,7.97-3.74,12-1.09,3.82-1.36,3.92-5.15,3.97-2.09.03-4.18,0-6.28,0Z"/>
        <path class="cls-1" d="m836.08,481.21c.34,2.36,1.67,4.02,3.54,5.42,2.51,1.89,4.9,3.93,7.38,5.86,1.9,1.48,2.8,3.33,2.71,5.77-.1,2.75-.05,5.5-.01,8.25.07,5.06,2.07,7.01,7.24,7.13,1.05.02,2.1-.04,3.14.06,2.97.29,4.94,2.05,5.21,4.92.2,2.07.11,4.19,0,6.28-.08,1.66-1.01,2.95-2.33,3.93-8.3,6.16-16.63,12.29-24.92,18.47-1.46,1.09-3.08,1.3-4.82,1.29-4.19-.03-8.38-.03-12.57,0-5.69.04-7.72,1.92-7.71,7.46.04,13.1-1.23,9.6,7.5,18.38,8.12,8.16,5.28,6.8,16.65,6.92,2.49.02,4.98-.05,7.46.02,4.02.13,5.93,2,6.23,6.03.09,1.17,0,2.36.06,3.53.23,4.25,2.15,6.16,6.39,6.25,3.01.07,6.02-.03,9.03.03,4.16.08,5.92,1.58,6.74,5.63.9,4.4,2.35,5.65,6.95,5.74,3.66.08,7.33-.01,11,.03,5.5.06,7.34,1.87,7.38,7.25.03,3.93-.1,7.86.04,11.78.11,2.89-.97,4.96-3.22,6.73-6.17,4.86-12.17,9.94-18.39,14.73-2.76,2.12-4.18,4.55-3.76,8.04.14,1.16-.03,2.36.03,3.53.14,2.67-.78,4.83-2.81,6.59-1.88,1.63-3.56,3.49-5.49,5.05-2.58,2.08-3.54,4.61-3.38,7.9.21,4.18.08,8.38.04,12.57-.05,4.91-1.99,6.88-6.89,7.01-2.35.06-4.72.13-7.07-.05-3.77-.28-5.57-2.29-5.76-6.11-.01-.26-.03-.53,0-.78.95-7.32-1.01-13.97-4.78-20.16-1.91-3.14-2.42-6.5-2.31-10.13.17-5.62-.14-11.27.11-16.88.17-3.86-1.32-6.36-4.45-8.48-6.06-4.11-11.82-8.68-17.93-12.71-3.61-2.38-5.1-5.27-4.74-9.51.26-2.99.1-6.02.04-9.03-.06-3.17.1-6.18,1.86-9.06,1.7-2.79.45-5.23-1.71-7.35-5.04-4.95-10.07-9.93-15.06-14.93-6.07-6.08-5.31-4.25-5.37-12.94-.08-11.03.96-8.53-7.11-16.06-1.43-1.33-2.76-2.8-4.51-3.76.95-4.59,3.73-8.31,6.07-12.2,6.38-10.59,14.27-19.97,23.44-28.25,7.29-6.58,15.34-12.14,23.92-16.92.91-.51,1.9-.9,2.47-1.86,1.66.11,2.94-1.02,4.47-1.37Z"/>
        <path class="cls-6" d="m209.05,246.98c-.41-.04-.82-.07-1.22-.11-.04-13.6-.21-27.21-.07-40.81.11-10.4,9.36-17.05,17.73-17.31,1.31-.04,2.62-.03,3.93-.03,51.03,0,102.07,0,153.1,0,1.44,0,2.87-.07,4.31-.11,0,0-.1-.12-.1-.12.04,13.53.1,27.06.11,40.59,0,5.85-.09,11.7-.14,17.55-1.83.01-3.66.04-5.49.04-55.7,0-111.4,0-167.1.01-1.69,0-3.4-.26-5.06.31Zm116.87-21.48c4.29,0,7.9-3.32,8.02-7.4.13-4.59-4.32-7.84-7.66-7.75-4.27.12-7.79,3.47-7.67,7.65.12,4.17,3.48,7.75,7.31,7.49Zm-76.4,0c4.1.37,8.23-3.85,8.14-7.65-.1-4-3.47-7.38-7.51-7.45-4.31-.07-7.84,3.33-7.83,7.55,0,3.97,3.38,7.5,7.21,7.56Zm31.05-7.45c-.03,3.96,3.34,7.46,7.18,7.45,4.6,0,7.99-3.27,7.93-7.62-.06-4.41-3.36-7.48-8.05-7.48-3.93,0-7.03,3.35-7.06,7.65Z"/>
        <path class="cls-1" d="m974.28,501.46c3.01,3.25,6.05,6.47,9.41,9.38.36,1.02,1.12,1.75,1.79,2.55,22.98,27.64,32.82,59.3,29.32,95.13-1.57,16.1-6.28,31.24-13.77,45.5-3.83,7.29-8.11,14.35-13.8,20.41-9.07-5.67-15.43-13.73-19.43-23.47-1.66-4.03-2.2-8.59-2.49-13.04-.53-8.07-3.48-15.29-7.15-22.39-3.77-7.29-4.8-14.84-.26-22.35,2.61-4.33,6.43-7.12,11.13-8.77,3.79-1.34,7.62-2.55,11.43-3.86,1.86-.64,3.63-1.49,5.24-2.63,1.45-1.03,2.05-2.39,1.29-4.08-1.5-3.34-1-6.59.26-9.84,1.17-3.04,1.41-6.11.25-9.2-2.27-6.07-8.65-8.25-15.49-5.94-1.22.41-2.4.93-3.6,1.4-2.3.9-4.52.82-6.69-.45-.9-.53-1.92-.86-2.8-1.42-5.24-3.32-10.95-4.83-17.14-4.82-1.94,0-3.91-.35-5.83-.74-2.76-.55-5.14-1.92-7.09-3.95-3.11-3.22-3.59-6.73-.82-10.23,2.7-3.43,3.72-7.11,3.24-11.34-.46-4.06.49-7.82,2.7-11.22,1.35-2.09,2.11-4.43,3.11-6.67,1.01-2.25.62-4.61-.05-6.92-1.34-4.65-1.49-9.28.29-13.87,12.49,4.84,23.64,11.9,33.88,20.48.99.83,1.85,1.83,3.09,2.34Z"/>
        <path class="cls-6" d="m758.34,246.98c-.34-.08-.68-.17-1.02-.25,0-18.06-.01-36.12-.02-54.18,0-.65.02-1.31,0-1.96-.03-1.26.46-1.97,1.84-1.87.65.05,1.31,0,1.96,0,17.01,0,34.02,0,51.04,0,6.27,0,11.44,2.33,15.55,7.11,2.56,2.98,3.74,6.63,3.79,10.3.19,13.6,0,27.21-.05,40.81-.45.01-.9.03-1.34.04-1.13-.45-2.32-.31-3.49-.31-21.59,0-43.18,0-64.76,0-1.17,0-2.36-.14-3.49.31Z"/>
        <path class="cls-4" d="m667.92,663.43c.95-1.15,1.62-1.94,2.26-2.74,10.06-12.71,30.01-9.97,36.54,5.64,3.05,7.3,2.9,14.52-.37,21.68-1.92,4.21-4.68,7.84-7.82,11.22-6.89,7.4-14.8,13.66-22.36,20.31-1.67,1.47-3.33,2.95-5.07,4.34-2.47,1.97-3.92,2.04-6.25,0-8.58-7.48-17.51-14.55-25.56-22.62-3.62-3.62-6.93-7.52-9.2-12.15-4.36-8.88-4.27-17.73.93-26.2,7.63-12.45,24.55-13.78,34.18-2.84.86.98,1.64,2.02,2.73,3.37Z"/>
        <path class="cls-1" d="m302.4,691.36c-.45-1.27-.26-2.59-.26-3.89-.01-33.18-.01-66.36,0-99.54,0-1.3.16-2.6.24-3.89,12.94-.01,25.87-.02,38.81-.04.05,6.81.11,13.62.16,20.42-.02,21.96-.07,43.92-.03,65.89,0,4.87-1.09,9.3-4.16,13.16-3.99,5-9.18,7.71-15.55,7.86-6.4.15-12.81.04-19.22.04Z"/>
        <path class="cls-6" d="m681.32,247.17c-.42-.03-.84-.06-1.26-.09-1.09-.63-2.29-.41-3.44-.41-19.54-.01-39.07-.01-58.61,0-1.16,0-2.35-.14-3.48.31-.44-.05-.87-.1-1.31-.15,0-18.18-.01-36.36-.02-54.54,0-.65.02-1.31,0-1.96-.04-1.17.57-1.63,1.67-1.61.78.02,1.57,0,2.35,0,20.01,0,40.02,0,60.03,0,.26,0,.52,0,.78,0,3.25.04,3.29.04,3.29,3.13,0,18.44-.02,36.88-.03,55.32Z"/>
        <path class="cls-6" d="m540.72,188.6c9.81.04,19.61.09,29.42.11,12.16.02,24.33.05,36.49-.04,2.06-.02,2.67.59,2.66,2.64-.1,18.44-.1,36.88-.14,55.32-22.78,0-45.55,0-68.33,0-.05-8.98-.15-17.95-.15-26.93,0-10.41.09-20.82.14-31.23,0,0-.09.12-.09.12Z"/>
        <path class="cls-6" d="m753.28,246.75c-.33.08-.66.15-.99.23-1.52-.54-3.1-.31-4.66-.31-20.74-.03-41.48-.04-62.22-.05-.03-18.44-.04-36.87-.14-55.31-.01-2.08.66-2.64,2.68-2.63,20.79.07,41.59.03,62.38.05,2.9,0,2.95.06,2.95,3.1.01,18.31,0,36.62,0,54.92Z"/>
        <path class="cls-6" d="m539.33,163.08c.39.04.78.07,1.17.1.07,8.47.14,16.95.21,25.42,0,0,.09-.12.09-.12-5.21-.01-10.41-.05-15.62-.03-9.5.04-19,.1-28.5.16-1.57-.05-3.13-.15-4.7-.15-18.17-.01-36.35-.01-54.52,0-2.22,0-4.44.1-6.66.16-14.7-.04-29.39-.09-44.09-.13,0,0,.1.12.1.12.06-8.47.12-16.95.18-25.43.4-.03.81-.06,1.21-.09,1.4.48,2.86.29,4.29.29,47.51.01,95.03.01,142.54,0,1.43,0,2.88.19,4.29-.29Z"/>
        <path class="cls-2" d="m890.53,301.89c-2.63-5.33-4.75-10.88-7.14-16.31-3.89-8.86-7.42-17.86-11.4-26.69-1.92-4.25-3.96-8.6-5.1-13.04.65-.87,1.34-.69,1.95-.69,20.16-.01,40.32-.01,60.48,0,.52,0,1.04.08,1.56.13.53,1.47,1.01,2.96,1.61,4.4,7.23,17.31,14.49,34.61,21.73,51.92-1.56.08-3.11.22-4.67.22-19.67.03-39.35.05-59.02.07Z"/>
        <path class="cls-6" d="m954.22,301.6c-7.25-17.3-14.5-34.61-21.73-51.92-.6-1.44-1.07-2.93-1.61-4.4,10.94-.04,21.88-.11,32.81-.13,6.51,0,13.02.06,19.53.1.06.5.12,1.01.19,1.51-3.18,7.53-6.39,15.05-9.54,22.6-1.71,4.08-3.35,8.2-4.96,12.32-.93,2.38-2.16,4.61-3.06,7.02-1.66,4.45-3.69,8.77-5.56,13.14-2.03-.08-4.05-.16-6.08-.24Z"/>
        <path class="cls-6" d="m146.14,691.48c12.62,0,25.25,0,37.87,0,0,10.07,0,20.13,0,30.15-1.15.83-1.76-.2-2.43-.64-4.71-3.07-9.46-6.07-14.01-9.37-1.98-1.44-3.31-1.19-5.14.11-4.52,3.18-9.17,6.16-13.79,9.19-.62.4-1.36.61-2.5,1.12v-30.56Z"/>
        <path class="cls-4" d="m954.22,301.6c2.03.08,4.05.16,6.08.24-.01,6.54-.03,13.07-.04,19.61-4.41-1.65-8.31-4.37-12.77-5.93-5.69-2-11.47-3.2-17.49-3.77-12.07-1.13-23.24,1.59-33.97,6.83-1.87.91-3.41,2.46-5.52,2.92-.25-6.53-.28-13.06.02-19.59,19.68-.02,39.35-.03,59.02-.07,1.56,0,3.11-.15,4.67-.22Z"/>
        <path class="cls-1" d="m900.5,469.86c-.63,1.87-1.65,3.54-2.77,5.15-2.18,3.12-4.07,6.35-4.87,10.16-.47,2.23-1.51,4.06-4.25,4.45-1.36.2-2.28,1.36-2.81,2.9-1.16,3.35-2.82,4.2-6.3,3.54-3.93-.75-7.66-1.81-9.24-6.18-.55-1.52-1.91-2.46-3.2-3.36-4.67-3.23-7.75-7.67-9.77-12.9,8.08-2.75,16.49-3.7,24.93-4.31,4.8-.35,9.65-.1,14.47-.06,1.28.01,2.63-.11,3.81.61Z"/>
        <path class="cls-5" d="m540.83,246.64c22.78,0,45.55,0,68.33,0,.15.23.31.46.46.69-8.34.04-16.67.11-25.01.12-14.59.02-29.19,0-43.78-.01,0-.26,0-.53,0-.79Z"/>
        <path class="cls-5" d="m685.42,246.62c20.74.01,41.48.02,62.22.05,1.55,0,3.13-.23,4.66.31-.81.57-1.74.46-2.65.46-21.04,0-42.08,0-63.11-.02-.52,0-1.04-.08-1.56-.12.15-.23.3-.46.45-.68Z"/>
        <path class="cls-5" d="m983.42,246.76c-.06-.5-.13-1.01-.19-1.51,1.02.3,1.05.53.19,1.51Z"/>
        <path class="cls-5" d="m755.39,247.28s-.14,0-.14,0c0,0,.14,0,.14,0Z"/>
        <path class="cls-1" d="m755.46,387.32c1.03,1.1.67,2.48.67,3.75.02,37.59-.09,75.18.09,112.76.04,7.82-5.21,14.29-14.53,14.6-5.63.19-11.26.07-16.89.09,0,0-.21-.24-.21-.24-1.32-.87-2.8-.46-4.2-.47-32.64-.03-65.27-.02-97.91-.01-1.17,0-2.34.08-3.51.12-5.89-.56-10.32-4-11.89-9.25-.61-2.04-.44-4.16-.44-6.24,0-39.54,0-79.07-.01-118.61,0-7.99-.04-15.97-.06-23.96.06-6.01.36-12.03.11-18.03-.35-8.34,5.89-14.17,14.25-14.19,6.8-.02,13.6,0,20.4,0,17,0,33.99-.01,50.99.02,1.39,0,2.9-.47,4.13.64.05.31.09.61.14.92-.02,18.44-.04,36.88-.04,55.32,0,2.77.07,2.85,2.81,2.85,18.7,0,37.4-.04,56.1-.07Zm-74.01,25.84c1.44,0,2.88,0,4.32,0,15.7,0,31.4,0,47.1,0,3.17,0,3.21-.16,3.28-2.84.05-1.88-.63-2.67-2.51-2.45-.65.08-1.31.01-1.96.01-33.5,0-66.99,0-100.49,0-1.05,0-2.09,0-3.14.02-.54.01-1.02.18-1.3.68-1.14,2.04.2,4.5,2.5,4.57.78.03,1.57,0,2.35,0,16.62,0,33.23,0,49.85,0Zm-.02,20.5c-16.75,0-33.5,0-50.24,0-.92,0-1.83.04-2.75,0-1.32-.06-1.81.51-1.88,1.85-.17,3,.02,3.27,3.17,3.34.39,0,.79,0,1.18,0,32.97,0,65.94,0,98.92,0,1.31,0,2.62-.11,3.92-.03,2,.12,2.34-.97,2.36-2.67.02-1.81-.53-2.71-2.47-2.5-.91.1-1.83.02-2.75.02-16.49,0-32.97,0-49.46,0Zm-.25,56.58c16.76,0,33.52,0,50.27,0,1.05,0,2.09-.01,3.14-.04.54-.01.99-.19,1.27-.71,1.16-2.11-.17-4.4-2.63-4.5-.52-.02-1.05,0-1.57,0-33.65,0-67.29-.02-100.94-.02-.92,0-1.83,0-2.75.04-.53.02-.98.22-1.25.75-1.09,2.18.2,4.41,2.6,4.48.78.02,1.57,0,2.36,0,16.5,0,32.99,0,49.49,0Zm.67-30.83c-16.87,0-33.74,0-50.61,0-1.05,0-2.09-.01-3.14.03-.66.03-1.21.23-1.46,1-.8,2.48.18,3.93,2.77,4.01.52.01,1.05,0,1.57,0,33.48,0,66.95,0,100.43,0,.78,0,1.58-.08,2.35.01,2.05.24,2.3-.9,2.34-2.58.04-1.86-.58-2.68-2.48-2.48-.91.09-1.83.01-2.74.01-16.35,0-32.69,0-49.04,0Zm-30.26-72.03c6.93,0,13.87,0,20.8,0,.78,0,1.57-.03,2.35,0,1.29.05,1.83-.47,1.89-1.83.13-2.88-.06-3.19-2.85-3.29-.65-.02-1.31,0-1.96,0-13.48,0-26.95,0-40.43,0q-4.78,0-4.82,2.48-.04,2.64,4.99,2.65c6.67,0,13.34,0,20.02,0Z"/>
        <path class="cls-2" d="m606.57,359.88c.02,7.99.06,15.97.06,23.96,0,39.54,0,79.07.01,118.61,0,2.09-.17,4.2.44,6.24,1.57,5.25,6,8.68,11.88,9.24,1.35.69,2.81.34,4.22.34,33.8.02,67.6.02,101.4.02,0,0,.21.24.21.24-.03,5.76-.04,11.52-.1,17.28-.09,8.51-5.5,14.07-14.01,14.08-40.46.05-80.92-.02-121.38.05-8.79.02-14.17-6.92-14.15-14.03.14-54.08.14-108.16,0-162.24-.02-8.3,6.73-14.38,14.13-13.98,5.75.31,11.52.14,17.28.18Z"/>
        <path class="cls-1" d="m540.08,360.6c-13.18,0-26.36,0-39.54,0-1.3,0-2.6-.09-3.91-.15.02-.65.05-1.3.05-1.96v-14.64c0-51.75,0-103.49.01-155.24,9.5-.05,19-.12,28.5-.16,5.17-.02,10.35.02,15.52.02h.09v.12c-.05,10.37-.14,20.74-.14,31.11,0,8.97.09,17.95.15,26.93,0,.26,0,.53,0,.79-.03,11.9-.07,23.8-.07,35.7,0,20.25,0,40.49-.02,60.73,0,4.08,0,8.16-.01,12.24,0,1.51.54,3.15-.64,4.51Z"/>
        <path class="cls-1" d="m430.91,360.48c-8.74.05-17.47.13-26.21.16-5.74.02-11.48-.01-17.22-.02-1.21-1.36-.65-3-.65-4.51,0-4.09,0-8.17,0-12.26-.02-30.45-.02-60.89-.02-91.34,0-1.7-.05-3.4-.09-5.1,0-.27,0-.53-.01-.8.05-5.85.15-11.7.14-17.55,0-13.49-.07-26.98-.11-40.47v-.12h.09c14.66.04,29.33.09,43.99.13,0,51.75,0,103.49.02,155.24v14.27c0,.79.05,1.57.07,2.35Z"/>
        <path class="cls-6" d="m341.2,584c-12.94.01-25.87.02-38.81.04-.44-1.27-.27-2.59-.27-3.89,0-35.26,0-70.51,0-105.77,0-1.3-.16-2.62.26-3.89,12.94,0,25.88.02,38.82.02.04.91.13,1.83.13,2.74,0,36,0,72,0,108,0,.91-.08,1.83-.12,2.74Z"/>
        <path class="cls-1" d="m341.2,470.52c-12.94,0-25.88-.02-38.82-.02-.08-1.17-.23-2.34-.23-3.51-.01-33.48-.01-66.96,0-100.45,0-1.17.16-2.33.25-3.5,6.28-.01,12.57-.13,18.85-.02,10.65.19,20.06,8.55,20.02,19.91-.11,29.2-.06,58.39-.07,87.59Z"/>
        <path class="cls-6" d="m755.46,387.32c-18.7.03-37.4.07-56.1.07-2.75,0-2.81-.07-2.81-2.85,0-18.44.02-36.88.04-55.32.23-.14.46-.27.68-.41,2.89,2.83,5.81,5.62,8.67,8.48,15.61,15.58,31.21,31.17,46.8,46.78,1,1,2.27,1.79,2.73,3.25Z"/>
        <path class="cls-6" d="m492.72,433.71c-3.21,4.95-6.41,9.92-9.62,14.88-4.1,6.35-8.21,12.68-12.39,18.98-3.58,5.39-10.2,5.58-13.72.3-4.26-6.39-8.45-12.83-12.61-19.28-3.2-4.96-6.4-9.93-9.61-14.89,12.27-.04,24.54-.12,36.81-.13,7.04,0,14.09.09,21.14.14Z"/>
        <path class="cls-5" d="m386.7,246.62c0,.27,0,.53.01.8-58.07,0-116.15.02-174.22.02-1.16,0-2.37.25-3.44-.46,1.66-.56,3.37-.31,5.06-.31,55.7-.01,111.4-.01,167.1-.01,1.83,0,3.66-.02,5.49-.04Z"/>
        <path class="cls-5" d="m758.34,246.98c1.13-.45,2.32-.31,3.49-.31,21.59,0,43.18,0,64.76,0,1.17,0,2.36-.14,3.49.31-1.07.7-2.27.46-3.42.46-21.63.01-43.27.01-64.9,0-1.15,0-2.36.25-3.42-.46Z"/>
        <path class="cls-5" d="m614.54,246.98c1.13-.45,2.31-.31,3.48-.31,19.54,0,39.07,0,58.61,0,1.16,0,2.35-.22,3.44.41-1.25.54-2.57.36-3.86.36-19.28.01-38.57.01-57.85,0-1.28,0-2.62.3-3.81-.45Z"/>
        <path class="cls-5" d="m697.27,328.82c-.23.14-.46.28-.68.41-.05-.31-.09-.61-.14-.92.28.17.55.34.83.5Z"/>
        <path class="cls-2" d="m484.18,653.48c23.17,0,46.33,0,69.5,0,1.05,0,2.1-.05,3.14.02,2.92.19,4.06,1.15,4.09,4.14.1,9.55.1,19.11-.01,28.66-.03,2.85-1.32,3.9-4.2,4.12-.91.07-1.83.02-2.75.02-46.46,0-92.92,0-139.39,0-.52,0-1.05,0-1.57,0-4.45-.08-5.47-1.07-5.49-5.64-.04-8.64-.04-17.28,0-25.91.02-4.56.91-5.4,5.62-5.4,23.69-.02,47.38,0,71.07,0Zm15.05,18.31c0,2.48.02,4.95,0,7.43-.01,1.2.29,2.02,1.71,2,2.48-.03,4.95-.02,7.43,0,1.13,0,1.66-.52,1.66-1.64,0-5.08-.02-10.17.01-15.25,0-1.36-.63-1.84-1.91-1.82-2.35.03-4.69.04-7.04,0-1.32-.02-1.89.55-1.87,1.86.04,2.48.01,4.95,0,7.43Zm50.94.25c0-.52.05-1.05,0-1.56-.27-2.55,1.21-5.9-.68-7.45-1.94-1.6-5.26-.34-7.97-.52-1.42-.09-2.18.39-2.17,1.97.05,4.95.04,9.91,0,14.86,0,1.3.49,1.92,1.83,1.9,2.35-.03,4.69-.06,7.04.01,1.58.05,2-.75,1.97-2.16-.06-2.35-.02-4.69-.01-7.04Zm-20.18-.16c0-2.21-.08-4.43.02-6.64.09-1.9-.37-2.97-2.58-2.77-1.81.17-3.65.12-5.47.01-1.76-.1-2.63.38-2.58,2.36.1,4.69.07,9.38.01,14.06-.02,1.57.38,2.44,2.17,2.35,2.08-.11,4.17-.11,6.25,0,1.77.09,2.24-.75,2.19-2.34-.07-2.34-.02-4.69-.02-7.03Z"/>
        <path class="cls-6" d="m524.91,821.91c-10.07,0-20.14.01-30.21,0-4.6,0-5.56-.94-5.58-5.47-.04-6.8-.05-13.6,0-20.4.03-4.2,1.13-5.29,5.42-5.3,20.27-.03,40.55-.03,60.82,0,4.55,0,5.55,1.01,5.58,5.53.04,6.8.05,13.6,0,20.4-.04,4.26-1.07,5.23-5.41,5.24-10.2.02-20.4,0-30.61,0Z"/>
        <path class="cls-4" d="m423.28,708.66c3.66,0,7.32-.05,10.98.02,2.92.05,4.2,1.05,4.25,3.94.15,7.58.15,15.17,0,22.75-.05,3.02-1.36,4.03-4.55,4.05-7.32.04-14.64.04-21.96,0-3.51-.02-4.65-1.11-4.69-4.73-.09-7.06-.09-14.12,0-21.18.05-3.81,1.16-4.8,4.99-4.83,3.66-.03,7.32,0,10.98,0Z"/>
        <path class="cls-6" d="m463.79,708.52c3.66,0,7.32-.06,10.98.02,3.36.07,4.48,1.12,4.52,4.49.09,7.32.08,14.64,0,21.96-.04,3.39-1.16,4.49-4.49,4.52-7.32.06-14.64.06-21.96,0-3.37-.03-4.47-1.08-4.52-4.49-.1-7.32-.09-14.64,0-21.96.04-3.43,1.12-4.45,4.49-4.52,3.66-.08,7.32-.02,10.98-.02Z"/>
        <path class="cls-6" d="m505.03,708.52c3.53,0,7.06-.06,10.59.02,3.36.07,4.46,1.11,4.5,4.52.08,7.32.08,14.64-.02,21.96-.05,3.42-1.14,4.46-4.51,4.49-7.32.06-14.64.06-21.96,0-3.33-.03-4.45-1.12-4.49-4.52-.08-7.32-.09-14.64,0-21.96.04-3.38,1.15-4.42,4.52-4.49,3.79-.07,7.58-.02,11.37-.02Z"/>
        <path class="cls-6" d="m560.95,723.78c0,3.53.05,7.06-.01,10.59-.07,4.17-1,5.13-5.06,5.15-7.06.04-14.11.05-21.17,0-3.61-.03-4.72-1.08-4.75-4.65-.07-7.19-.07-14.38,0-21.56.03-3.65,1.09-4.73,4.65-4.76,7.19-.06,14.38-.06,21.56,0,3.66.03,4.64,1,4.73,4.66.09,3.53.02,7.06.02,10.59h.04Z"/>
        <path class="cls-5" d="m539.33,163.08c-1.4.48-2.85.29-4.29.29-47.51.01-95.03.01-142.54,0-1.43,0-2.88.19-4.29-.29,1.19-.79,2.54-.47,3.82-.48,47.83-.02,95.65-.02,143.48,0,1.28,0,2.63-.31,3.82.47Z"/>
        <path class="cls-6" d="m906.71,363.02c2.09,0,4.18.02,6.28,0,3.79-.05,4.06-.15,5.15-3.97,1.15-4.03,2.43-8.02,3.74-12,.61-1.85,1.38-2.93,3.43-2.96,1.53-.03,2.54.49,2.86,2.03.91,4.37,2.7,8.47,4.02,12.71,1.17,3.75,1.91,4.19,5.89,4.2,4.31.02,8.63.03,12.94,0,1.67-.01,3.23.22,3.83,2.02.6,1.8-.51,2.92-1.88,3.89-3.73,2.65-7.38,5.41-11.15,8-1.87,1.28-2.43,2.69-1.95,4.97,1,4.74,2.98,9.16,4.33,13.79.46,1.57.77,2.78-.59,3.79-1.33.99-2.69.61-3.97-.32-3.7-2.69-7.41-5.37-11.14-8.02-2.97-2.11-3.32-2.12-6.22-.06-3.63,2.57-7.23,5.17-10.82,7.78-1.21.88-2.44,1.56-3.98.91-1.63-.69-2.16-2.12-1.54-4.05,1.48-4.58,2.94-9.17,4.44-13.75.94-2.87.94-3.15-1.41-4.9-3.24-2.43-6.56-4.76-9.85-7.13-.64-.46-1.3-.88-1.89-1.39-1.06-.93-2.64-1.86-1.91-3.46.66-1.44,2.18-2.12,3.92-2.08,2.48.06,4.97.02,7.45.01Z"/>
        <path class="cls-2" d="m496.7,188.61c0,51.75,0,103.49-.01,155.24v14.64c0,.66-.04,1.31-.05,1.96-15,.04-30,.08-44.99.1-6.91,0-13.82-.05-20.73-.07-.02-.79-.07-1.57-.07-2.35v-14.27c0-51.75-.01-103.49-.02-155.24,2.22-.05,4.44-.15,6.66-.15,18.17-.02,36.35-.01,54.52,0,1.56,0,3.13.1,4.7.15Z"/>
        <path class="cls-6" d="m681.46,413.16c-16.62,0-33.23,0-49.85,0-.79,0-1.57.02-2.35,0-2.3-.07-3.64-2.53-2.5-4.57.28-.51.76-.67,1.3-.68,1.05-.02,2.09-.02,3.14-.02,33.5,0,66.99,0,100.49,0,.65,0,1.32.07,1.96-.01,1.88-.22,2.56.57,2.51,2.45-.07,2.67-.11,2.84-3.28,2.84-15.7.01-31.4,0-47.1,0-1.44,0-2.88,0-4.32,0Z"/>
        <path class="cls-6" d="m681.44,433.66c16.49,0,32.97,0,49.46,0,.92,0,1.84.08,2.75-.02,1.93-.21,2.49.69,2.47,2.5-.02,1.7-.36,2.79-2.36,2.67-1.3-.08-2.62.03-3.92.03-32.97,0-65.94,0-98.92,0-.39,0-.79,0-1.18,0-3.15-.07-3.33-.33-3.17-3.34.07-1.34.57-1.9,1.88-1.85.91.04,1.83,0,2.75,0,16.75,0,33.5,0,50.24,0Z"/>
        <path class="cls-6" d="m681.19,490.24c-16.5,0-32.99,0-49.49,0-.79,0-1.57.02-2.36,0-2.41-.07-3.69-2.3-2.6-4.48.27-.54.72-.73,1.25-.75.91-.04,1.83-.04,2.75-.04,33.65,0,67.29.02,100.94.02.52,0,1.05-.01,1.57,0,2.45.09,3.78,2.38,2.63,4.5-.28.52-.73.7-1.27.71-1.05.02-2.09.04-3.14.04-16.76,0-33.52,0-50.27,0Z"/>
        <path class="cls-6" d="m681.85,459.41c16.35,0,32.69,0,49.04,0,.92,0,1.84.08,2.74-.01,1.9-.2,2.52.62,2.48,2.48-.04,1.69-.29,2.83-2.34,2.58-.77-.09-1.57-.01-2.35-.01-33.48,0-66.95,0-100.43,0-.52,0-1.05.01-1.57,0-2.59-.07-3.57-1.53-2.77-4.01.25-.77.8-.97,1.46-1,1.04-.04,2.09-.03,3.14-.03,16.87,0,33.74,0,50.61,0Z"/>
        <path class="cls-6" d="m651.6,387.38c-6.67,0-13.34,0-20.02,0q-5.03,0-4.99-2.65.04-2.48,4.82-2.48c13.48,0,26.95,0,40.43,0,.65,0,1.31-.02,1.96,0,2.79.09,2.98.41,2.85,3.29-.06,1.36-.6,1.88-1.89,1.83-.78-.03-1.57,0-2.35,0-6.93,0-13.87,0-20.8,0Z"/>
        <path class="cls-4" d="m724.6,518.29c-33.8,0-67.6,0-101.4-.02-1.41,0-2.87.35-4.22-.34,1.18-.04,2.35-.12,3.52-.12,32.64,0,65.27-.01,97.91.01,1.4,0,2.88-.41,4.2.47Z"/>
        <path class="cls-3" d="m540.08,360.6c0,1.14-.77,1.92-1.34,2.78-14.94,22.93-29.89,45.85-44.84,68.76-.36.55-.79,1.04-1.18,1.56-7.04-.05-14.09-.15-21.14-.14-12.27,0-24.54.08-36.81.13-4.75-7.2-9.54-14.39-14.26-21.61-10.39-15.88-20.75-31.77-31.11-47.66-.77-1.19-1.86-2.23-1.93-3.79,5.74,0,11.48.04,17.22.02,8.74-.04,17.47-.11,26.21-.16,6.91.03,13.82.08,20.73.07,14.99-.02,29.99-.06,44.99-.1,1.3.05,2.61.14,3.91.15,13.18,0,26.36,0,39.54,0Z"/>
        <path class="cls-3" d="m179.41,524.77c0,1.58-1.17,2.77-2.79,2.99-5.09.7-7.43,3.85-8.39,8.56-.31,1.54-1.46,2.54-3.06,2.56-1.43.02-2.76-.32-3.39-1.99-.84-2.23-1.45-4.73-2.9-6.51-1.5-1.84-4.38-1.76-6.55-2.86-1.5-.76-1.83-1.92-1.85-3.06-.03-1.54.71-3.07,2.42-3.51.98-.25,1.97-.61,2.88-.93,2.28-.8,4.6-1.97,4.67-4.95.03-1.17,1.06-1.74,1.28-2.75.34-1.56,1.12-2.76,2.91-2.39,1.74.36,3.35.91,3.77,3.18.79,4.2,3.13,7.01,7.6,7.85,2.6.48,3.46,1.61,3.4,3.81Z"/>
        <path class="cls-3" d="m438.51,775.98c-.03,3.44-1.36,4.84-4.71,4.88-7.2.08-14.4.08-21.6,0-3.39-.04-4.7-1.4-4.77-4.82-.09-3.66-.02-7.33-.02-10.99s-.07-7.07.02-10.6c.08-3.47,1.36-4.79,4.74-4.82,7.2-.06,14.4-.07,21.59,0,3.49.03,4.71,1.25,4.75,4.76.07,7.2.07,14.4,0,21.6Z"/>
        <path class="cls-3" d="m561,776.03c-.04,3.42-1.39,4.79-4.77,4.82-7.2.08-14.4.08-21.59,0-3.36-.04-4.68-1.43-4.71-4.88-.07-7.2-.07-14.4,0-21.59.04-3.52,1.25-4.7,4.75-4.77,3.66-.07,7.33-.02,10.99-.02,3.4,0,6.81-.04,10.21,0,3.75.05,5.09,1.24,5.13,4.83.08,7.2.08,14.4,0,21.59Z"/>
        <path class="cls-3" d="m520.16,776.31c-.04,3.15-1.45,4.47-4.64,4.55-3.66.09-7.33.02-10.99.02s-7.07.06-10.6-.02c-3.42-.08-4.81-1.39-4.84-4.75-.07-7.33-.08-14.66,0-21.98.04-3.14,1.45-4.48,4.64-4.51,7.33-.07,14.66-.07,21.98,0,2.97.03,4.39,1.37,4.44,4.31.11,7.46.1,14.92,0,22.37Z"/>
        <path class="cls-3" d="m479.37,764.99c0,3.53.04,7.07-.01,10.6-.06,3.94-1.28,5.25-5.12,5.28-6.93.06-13.87.06-20.8,0-3.88-.03-5.16-1.32-5.19-5.21-.05-6.93-.05-13.87,0-20.8.03-3.96,1.25-5.21,5.12-5.24,6.93-.05,13.87-.05,20.8,0,3.91.02,5.12,1.25,5.19,5.17.05,3.4.01,6.8.01,10.2Z"/>
        <path class="cls-3" d="m479.34,817.07c-.04,3.67-1.27,4.77-5.09,4.82-3.4.05-6.81.01-10.21.01-3.67,0-7.33.05-10.99-.02-3.45-.07-4.75-1.29-4.79-4.76-.08-7.19-.07-14.4,0-21.59.04-3.47,1.35-4.83,4.72-4.86,7.19-.08,14.39-.08,21.59,0,3.39.04,4.74,1.4,4.78,4.81.07,7.2.07,14.4,0,21.59Z"/>
        <path class="cls-3" d="m438.51,817.03c-.04,3.69-1.25,4.84-5.04,4.86-7.06.05-14.13.06-21.2,0-3.48-.03-4.75-1.27-4.84-4.71-.09-3.79-.02-7.59-.02-11.38,0-3.27-.04-6.55,0-9.82.06-4,1.24-5.28,5.08-5.31,7.06-.06,14.13-.07,21.2,0,3.42.04,4.78,1.38,4.82,4.77.07,7.19.07,14.4,0,21.59Z"/>
      </g>
    </g>
  </g>
</svg>