<?xml version="1.0" encoding="utf-8"?>
<!-- Generator: Adobe Illustrator 27.8.0, SVG Export Plug-In . SVG Version: 6.00 Build 0)  -->
<svg version="1.1" id="Capa_2_00000078728412424228461070000005212967905364734626_"
	 xmlns="http://www.w3.org/2000/svg" xmlns:xlink="http://www.w3.org/1999/xlink" x="0px" y="0px" viewBox="0 0 848.5 840"
	 style="enable-background:new 0 0 848.5 840;" xml:space="preserve">
<style type="text/css">
	.st0{fill:#EEF6F9;}
	.st1{clip-path:url(#SVGID_00000090285863310948124670000013759191007568915085_);}
	.st2{fill:#ABCEF4;}
	.st3{fill:#D2E5F6;}
	.st4{fill:#D4E7F8;}
	.st5{opacity:0.14;fill:#FFFFFF;enable-background:new    ;}
	.st6{fill:#FFFFFF;}
	.st7{opacity:0.5;fill:#FFFFFF;enable-background:new    ;}
	.st8{fill:#6179C4;}
	.st9{fill:#ADD0F6;}
	.st10{fill:#6179C2;}
	.st11{fill:#420042;}
	.st12{fill:#D40A4A;}
	.st13{fill:#0930A9;}
	.st14{fill:#4C68FA;}
	.st15{fill:#301E79;}
	.st16{fill:#4F06E2;}
	.st17{fill:#889BC6;}
	.st18{clip-path:url(#SVGID_00000114041490721747194550000001042914917453667229_);}
	.st19{opacity:0.6;fill:#FFFFFF;enable-background:new    ;}
	.st20{fill:#FFB923;}
</style>
<g id="Capa_1-2">
	<g id="Layer_2">
		<g id="Layer_1-2">
			<path class="st0" d="M732.8,317.3c-94.3-28.6-175.5-69.1-267.6-181.3S125.6,58.3,53.6,226.6c-71.9,168.3-20.2,323.8,66.2,352.5
				c86.3,28.8,123.4,57,171.1,167.4c38.3,88.6,250.8,131.3,316.7,45.8C728.1,636.1,731.4,697.1,789,580.6
				C846.5,464,829.6,346.6,732.8,317.3L732.8,317.3z"/>
			<path class="st0" d="M674.7,155.6c-64-72.4-88.3-94-159.1-78.7C444.8,92.1,559.9,215,677.2,275.2
				C794.4,335.5,753.2,244.2,674.7,155.6L674.7,155.6z"/>
			<g>
				<defs>
					<path id="SVGID_1_" d="M732.8,317.3c-94.3-28.6-175.5-69.1-267.6-181.3S125.6,58.3,53.6,226.6
						c-71.9,168.3-20.2,323.8,66.2,352.5c86.3,28.8,123.4,57,171.1,167.4c38.3,88.6,250.8,131.3,316.7,45.8
						C728.1,636.1,731.4,697.1,789,580.6C846.5,464,829.6,346.6,732.8,317.3L732.8,317.3z"/>
				</defs>
				<clipPath id="SVGID_00000044155963973490785420000003076519191018910851_">
					<use xlink:href="#SVGID_1_"  style="overflow:visible;"/>
				</clipPath>
				<g style="clip-path:url(#SVGID_00000044155963973490785420000003076519191018910851_);">
					<g>
						<polygon class="st0" points="75.5,264.1 75.5,235.1 123.5,235.1 123.5,96.7 136.7,96.7 136.7,235.1 188.5,235.1 188.5,264.1 
							216.2,264.1 216.2,844.3 16.3,844.3 16.3,264.1 						"/>
						<rect x="16.3" y="264.1" class="st2" width="27.7" height="521.9"/>
						<rect x="116.2" y="402.3" class="st0" width="199.8" height="442"/>
						<rect x="116.2" y="402.3" class="st2" width="27.7" height="442"/>
						<rect x="259.5" y="421.1" class="st3" width="28.7" height="11.9"/>
						<rect x="211.2" y="421.1" class="st3" width="28.7" height="11.9"/>
						<rect x="259.5" y="464.4" class="st3" width="28.7" height="11.9"/>
						<rect x="211.2" y="464.4" class="st3" width="28.7" height="11.9"/>
						<rect x="163" y="464.4" class="st3" width="28.7" height="11.9"/>
						<rect x="259.5" y="507.8" class="st3" width="28.7" height="11.9"/>
						<rect x="163" y="507.8" class="st3" width="28.7" height="11.9"/>
						<rect x="211.2" y="529.4" class="st3" width="28.7" height="11.9"/>
						<rect x="259.5" y="551.1" class="st3" width="28.7" height="11.9"/>
						<rect x="211.2" y="572.8" class="st3" width="28.7" height="11.9"/>
						<rect x="259.5" y="594.4" class="st3" width="28.7" height="11.9"/>
						<rect x="163" y="594.4" class="st3" width="28.7" height="11.9"/>
						<rect x="259.5" y="634.5" class="st3" width="28.7" height="11.9"/>
						<rect x="211.2" y="634.5" class="st3" width="28.7" height="11.9"/>
						<rect x="259.5" y="677.8" class="st3" width="28.7" height="11.9"/>
						<rect x="211.2" y="677.8" class="st3" width="28.7" height="11.9"/>
						<rect x="163" y="677.8" class="st3" width="28.7" height="11.9"/>
						<rect x="259.5" y="721.1" class="st3" width="28.7" height="11.9"/>
						<rect x="163" y="721.1" class="st3" width="28.7" height="11.9"/>
						<rect x="211.2" y="742.8" class="st3" width="28.7" height="11.9"/>
						<rect x="163" y="742.8" class="st3" width="28.7" height="11.9"/>
						<rect x="259.5" y="764.5" class="st3" width="28.7" height="11.9"/>
						<rect x="211.2" y="786.1" class="st3" width="28.7" height="11.9"/>
						<rect x="259.5" y="807.8" class="st3" width="28.7" height="11.9"/>
						<rect x="163" y="807.8" class="st3" width="28.7" height="11.9"/>
						<rect x="594.3" y="402.3" class="st4" width="199.8" height="442"/>
						<rect x="594.3" y="402.3" class="st2" width="27.7" height="442"/>
						<rect x="310.5" y="192.1" class="st4" width="268.1" height="652.2"/>
						<rect x="310.5" y="192.1" class="st2" width="27.7" height="652.2"/>
						<rect x="508.5" y="223.3" class="st0" width="41.9" height="17.4"/>
						<rect x="438" y="223.3" class="st0" width="41.9" height="17.4"/>
						<rect x="508.5" y="286.6" class="st0" width="41.9" height="17.4"/>
						<rect x="438" y="286.6" class="st0" width="41.9" height="17.4"/>
						<rect x="367.5" y="286.6" class="st0" width="41.9" height="17.4"/>
						<rect x="508.5" y="349.8" class="st0" width="41.9" height="17.4"/>
						<rect x="367.5" y="349.8" class="st0" width="41.9" height="17.4"/>
						<rect x="438" y="381.5" class="st0" width="41.9" height="17.4"/>
						<rect x="508.5" y="413.1" class="st0" width="41.9" height="17.4"/>
						<rect x="438" y="444.7" class="st0" width="41.9" height="17.4"/>
						<rect x="508.5" y="476.4" class="st0" width="41.9" height="17.4"/>
						<rect x="367.5" y="476.4" class="st0" width="41.9" height="17.4"/>
						<rect x="508.5" y="534.8" class="st0" width="41.9" height="17.4"/>
						<rect x="438" y="534.8" class="st0" width="41.9" height="17.4"/>
						<rect x="508.5" y="598.1" class="st0" width="41.9" height="17.4"/>
						<rect x="438" y="598.1" class="st0" width="41.9" height="17.4"/>
						<rect x="367.5" y="598.1" class="st0" width="41.9" height="17.4"/>
						<rect x="508.5" y="661.4" class="st0" width="41.9" height="17.4"/>
						<rect x="367.5" y="661.4" class="st0" width="41.9" height="17.4"/>
						<rect x="438" y="693" class="st0" width="41.9" height="17.4"/>
						<rect x="367.5" y="693" class="st0" width="41.9" height="17.4"/>
						<rect x="508.5" y="724.7" class="st0" width="41.9" height="17.4"/>
						<rect x="438" y="756.3" class="st0" width="41.9" height="17.4"/>
						<rect x="508.5" y="787.9" class="st0" width="41.9" height="17.4"/>
						<rect x="367.5" y="787.9" class="st0" width="41.9" height="17.4"/>
						<rect x="732" y="240.7" class="st0" width="262.8" height="603.6"/>
						<rect x="732" y="240.7" class="st2" width="27.2" height="603.6"/>
						<rect x="787.9" y="328.1" class="st3" width="41" height="16.1"/>
						<rect x="787.9" y="386.7" class="st3" width="41" height="16.1"/>
						<rect x="787.9" y="503.8" class="st3" width="41" height="16.1"/>
						<rect x="787.9" y="616.5" class="st3" width="41" height="16.1"/>
						<rect x="787.9" y="675" class="st3" width="41" height="16.1"/>
						<rect x="787.9" y="704.3" class="st3" width="41" height="16.1"/>
						<rect x="787.9" y="792.1" class="st3" width="41" height="16.1"/>
						<rect x="-117.2" y="432.6" class="st0" width="169.2" height="411.7"/>
						<rect x="7.8" y="452.3" class="st3" width="26.4" height="11"/>
						<rect x="7.8" y="492.2" class="st3" width="26.4" height="11"/>
						<rect x="7.8" y="532.2" class="st3" width="26.4" height="11"/>
						<rect x="7.8" y="572.1" class="st3" width="26.4" height="11"/>
						<rect x="7.8" y="612" class="st3" width="26.4" height="11"/>
						<rect x="7.8" y="649" class="st3" width="26.4" height="11"/>
						<rect x="7.8" y="688.9" class="st3" width="26.4" height="11"/>
						<rect x="7.8" y="728.8" class="st3" width="26.4" height="11"/>
						<rect x="7.8" y="768.8" class="st3" width="26.4" height="11"/>
						<rect x="7.8" y="808.7" class="st3" width="26.4" height="11"/>
						<rect x="-223.2" y="33.4" class="st5" width="717.2" height="817.7"/>
						<rect x="486.1" y="24" class="st6" width="15.7" height="837.6"/>
						<polygon class="st7" points="23.7,836.3 -32,836.3 266.4,42.7 322.1,42.7 						"/>
						<polygon class="st7" points="-74.6,836.3 -102.4,836.3 196,42.7 223.8,42.7 						"/>
						<polygon class="st7" points="257.7,836.3 229.9,836.3 485.7,127.9 485.7,185 						"/>
						<rect x="247.1" y="28.2" class="st6" width="15.7" height="829.2"/>
						<rect x="-215.3" y="836.3" class="st6" width="701.3" height="6.6"/>
						<rect x="-231.1" y="24" class="st6" width="732.9" height="18.7"/>
						<rect x="-215.4" y="42.7" class="st6" width="701.6" height="6.6"/>
						<rect x="497.8" y="17.2" class="st5" width="717.2" height="817.7"/>
						<rect x="486.2" y="24" class="st6" width="15.7" height="837.6"/>
						<polygon class="st7" points="616.4,836.3 560.7,836.3 859.1,42.7 914.8,42.7 						"/>
						<polygon class="st7" points="518.1,836.3 490.2,836.3 788.6,42.7 816.5,42.7 						"/>
						<rect x="725.3" y="28.2" class="st6" width="15.7" height="829.2"/>
						<rect x="502" y="836.3" class="st6" width="701.3" height="6.6"/>
						<rect x="486.2" y="24" class="st6" width="732.9" height="18.7"/>
						<rect x="501.8" y="42.7" class="st6" width="701.6" height="6.6"/>
						<rect x="-231.1" y="171.5" class="st6" width="1475.9" height="9.4"/>
						<rect x="-231.1" y="421" class="st6" width="1475.9" height="9.4"/>
						<rect x="-231.1" y="670.5" class="st6" width="1475.9" height="9.4"/>
					</g>
				</g>
			</g>
			<path class="st6" d="M314.4,688.1l-30.7,51.6c0,0,26.6,30.1,56.2,38.5c0,0,40.9-38,46.5-47C386.3,731.2,330.4,712.8,314.4,688.1
				L314.4,688.1z"/>
			<path class="st8" d="M340,779l-0.4-0.1c-29.4-8.4-56.3-38.4-56.6-38.7l-0.4-0.4l31.6-53.1l0.6,1c15.7,24.2,71,42.6,71.6,42.8
				l0.9,0.3l-0.5,0.8c-5.6,9-45,45.6-46.6,47.1L340,779L340,779z M284.5,739.6c3.3,3.6,28,29.9,55.1,37.8
				c3.6-3.4,38.8-36.2,45.5-45.7c-7.5-2.5-55-19.4-70.8-42.1L284.5,739.6L284.5,739.6z"/>
			<path class="st9" d="M296.2,735.9l-1.8-0.9c5.8-10.9,12.3-21.3,19.4-31.4l1.6,1.2C308.4,714.7,302,725.1,296.2,735.9L296.2,735.9
				z"/>
			<path class="st9" d="M302.8,741.1l-1.8-0.9c5.8-10.8,12.3-21.3,19.4-31.3l1.6,1.2C315,720,308.6,730.4,302.8,741.1L302.8,741.1z"
				/>
			<path class="st9" d="M319,753.2l-1.8-0.9c5.8-10.8,12.3-21.3,19.4-31.3l1.6,1.2C331.2,732.1,324.7,742.5,319,753.2L319,753.2z"/>
			<path class="st9" d="M325.6,758.5l-1.7-1.1c0.1-0.2,10.9-17.1,22-30.7l1.5,1.3C336.5,741.6,325.7,758.4,325.6,758.5z"/>
			<path class="st9" d="M334.9,762.3l-1.6-1.2c0.1-0.2,12.5-15.8,25.1-26.6l1.3,1.5C347.3,746.7,335.1,762.1,334.9,762.3
				L334.9,762.3z"/>
			<path class="st6" d="M312.4,776.6c0,0,10.6,42.4,10.6,62.6c0,0,85.3-1.5,118.6,0c0,0-2.2-41.5-3.4-66.8
				C438.1,772.4,344.2,778.2,312.4,776.6L312.4,776.6z"/>
			<path class="st8" d="M442.3,840h-0.8c-32.9-1.5-117.7,0-118.5,0h-0.8v-0.8c0-19.9-10.5-62-10.6-62.4l-0.2-1h1
				c31.4,1.5,124.8-4.2,125.7-4.2h0.7v0.7c1.2,25.1,3.4,66.4,3.4,66.8L442.3,840L442.3,840z M313.3,777.4c1.5,6.3,10.1,42.4,10.3,61
				c8.4-0.1,85.2-1.4,117,0c-0.3-5.9-2.2-42.1-3.3-65.2C428.6,773.7,344.2,778.7,313.3,777.4L313.3,777.4z"/>
			<path class="st6" d="M312.4,776.6c-5.1-0.2-10.2-1.4-14.8-3.8c0,0,8.7,54.1,7.7,65.2l17.7,1.1C323,839.2,322.6,801,312.4,776.6
				L312.4,776.6z"/>
			<path class="st8" d="M323.7,840l-19.2-1.2V838c1-10.9-7.6-64.5-7.7-65l-0.2-1.4l1.3,0.6c4.5,2.3,9.4,3.5,14.5,3.7h0.5l0.2,0.5
				c10.2,24.2,10.7,62.5,10.7,62.8L323.7,840L323.7,840z M306,837.4l16.2,1c-0.1-5.6-1.3-39-10.3-61c-4.6-0.2-9.2-1.3-13.4-3.3
				C299.9,782.5,306.6,825.9,306,837.4L306,837.4L306,837.4z"/>
			<path class="st9" d="M440,807.8c0,0-9.4,1.5-27.9,2.6c9.3,1.1,18.7,1.4,28,1.1L440,807.8L440,807.8z"/>
			<path class="st9" d="M438.1,784.6c-16.7,6.1-34.2,9.7-52,10.7c0,0,29,0.8,53.1,0L438.1,784.6L438.1,784.6z"/>
			<path class="st9" d="M322,821.6c0,0,29.8-1,39.2-2.9l-39.9-3.7L322,821.6L322,821.6z"/>
			<path class="st9" d="M300.6,792c0,0,3.6,3.6,13.2,6.6l-12.5-0.5L300.6,792L300.6,792z"/>
			<path class="st9" d="M309.2,827.5l13.4,4.4l-0.4-5.2C322.2,826.7,313.9,829,309.2,827.5z"/>
			<path class="st9" d="M297.6,772.9c0,0,63.6,0.5,121.5-4.5c0,0,5.2,1.5,19.1,4.1c0,0-84.5,5.9-125.8,4.2
				C312.4,776.6,309.2,777.8,297.6,772.9L297.6,772.9z"/>
			<path class="st3" d="M674.1,655.5c-4.2-0.1-8.3-1.4-11.7-3.8c-0.2,7.2,0.4,14.4,1.7,21.4c4.6,7.4,17.3,21,16.5,20.9
				c-3.5-0.4-6.9-1.2-10.2-2.4c2.2,4.5,4.8,8.7,7.8,12.7c6.2,8.2,14.9,14.8,18.3,24.8c0,0.2,0.2,0.4,0.4,0.4c0,0.6,0.7,1,1.2,0.5
				c16.6-15.7,19.6-39.7,22-61.3c0.1-1,0.2-2,0.3-3.1c-4.5,4.7-9.6,8.7-15.3,11.9c-0.8,0.4,10.3-17.5,15.9-25.7
				c-0.1-5.2-1.1-10.4-2.8-15.3c-3.9-10.4-10.6-20.1-17-29.1c-0.2-0.4-0.6-0.7-0.8-1.1c-1.7,4.6-4.1,9-7.1,12.9
				c-0.5,0.7,1.2-13.1,2.2-19.4c-1.6-2-3.2-4-4.9-5.9c-2.2-2.6-4.9-7-8.9-6.5c-3.9,0.6-12.6,16.3-13.8,20.8
				c-0.5,1.9-0.9,3.9-1.3,5.9c-0.2,0.8-0.3,1.7-0.5,2.6c-1.4,8-2.4,16-3,24c0.3,0.4,0.5,0.9,0.9,1.3
				C667.1,646.6,674.9,655.5,674.1,655.5L674.1,655.5z"/>
			<path class="st10" d="M697.6,730.8c-0.1,0-0.3,0-0.4-0.1c-0.4-0.1-0.7-0.5-0.8-0.8c-0.2-0.2-0.4-0.4-0.4-0.6
				c-2.2-6.7-7-11.9-11.6-17c-2.2-2.5-4.6-5-6.6-7.7c-3-4-5.7-8.3-7.8-12.8l-0.5-1.1l1.2,0.4c3,1.1,6,1.8,9.1,2.3
				c-0.7-0.9-2.2-2.6-3.7-4.4c-4.4-5-8.5-10.2-12.2-15.6v-0.2c-1.4-7.1-1.9-14.3-1.7-21.5v-0.9l0.8,0.5c3.1,2.2,6.8,3.5,10.6,3.7
				c-0.8-1.2-3-3.7-4.6-5.9c-2-2.4-4-4.8-5.3-6.6c-0.3-0.4-0.6-0.8-0.9-1.3l-0.1-0.2v-0.2c0.6-8.1,1.6-16.1,3-24.1
				c0.2-0.9,0.3-1.8,0.5-2.6c0.4-2.2,0.9-4.1,1.3-5.9c1.1-4.6,10.1-20.7,14.2-21.2c3.7-0.5,6.3,2.7,8.4,5.3c0.3,0.5,0.7,0.9,1,1.3
				c1.7,2,3.3,4,4.9,6l0.2,0.2v0.2c-0.9,5.3-2,14.5-2.3,17.9c2.6-3.6,4.7-7.5,6.2-11.7l0.3-0.9l0.6,0.8c0.1,0.2,0.2,0.3,0.4,0.5
				l0.4,0.6c6.2,8.6,13.1,18.6,17.1,29.2c1.8,5,2.7,10.3,2.7,15.6v0.2l-0.1,0.1c-4.6,6.9-12.9,20.1-15.2,24.3
				c5.1-3.1,9.7-6.8,13.8-11.1l1-1l-0.1,1.4c-0.1,1-0.2,2-0.3,3.1c-2.3,20.2-5.1,45.4-22.1,61.6
				C698.2,730.7,697.9,730.8,697.6,730.8L697.6,730.8z M671.4,692.4c2,4.1,4.5,7.9,7.2,11.5c2,2.7,4.3,5.2,6.5,7.6
				c4.7,5.2,9.6,10.5,11.8,17.4v0.1l0.3,0.1v0.3c0,0.1,0.1,0.2,0.2,0.3h0.2c16.8-15.9,19.6-40.9,21.8-61c0-0.6,0.1-1.1,0.2-1.7
				c-4.3,4.3-9.1,8.1-14.4,11l-0.3,0.2l-0.3-0.3c-0.3-0.4-0.5-0.5,5.8-10.6c3.4-5.5,7.4-11.8,10-15.6c-0.1-5.1-1.1-10.2-2.8-15
				c-3.9-10.5-10.8-20.5-16.9-29l-0.3-0.3c-1.7,4.4-4,8.5-6.9,12.2l-0.2,0.3l-0.4-0.1c-0.4-0.2-0.6-0.3,0.3-8
				c0.5-4.1,1.2-8.8,1.6-11.7c-1.5-1.9-3.1-3.9-4.8-5.8c-0.3-0.4-0.7-0.8-1.1-1.3c-2-2.6-4.3-5.4-7.4-5
				c-3.5,0.5-12.2,15.9-13.3,20.5c-0.4,1.8-0.9,3.7-1.3,5.9c-0.2,0.8-0.3,1.7-0.5,2.5c-1.4,7.9-2.4,15.9-3,23.9
				c0.2,0.4,0.5,0.7,0.8,1.1c1.3,1.8,3.3,4.2,5.2,6.6c5,6.2,5.4,6.7,5.1,7.2l-0.1,0.3H674c-4,0-7.8-1.2-11.2-3.4
				c-0.1,6.8,0.4,13.6,1.7,20.3c3.7,5.4,7.8,10.5,12.1,15.4c4.6,5.4,4.5,5.4,4.3,5.9l-0.2,0.3h-0.4
				C677.4,694.2,674.3,693.5,671.4,692.4L671.4,692.4z"/>
			<path class="st2" d="M689.2,647.6c-8.2-1.2-14.4-6.4-20.4-11.8c-0.9-0.8,0.2-2.3,1.1-1.5c5.6,5,11.5,10,19.2,11.3
				c-1.7-12.2-3.8-24.3-6.2-36.4c-0.2-1.2,1.6-1.5,1.9-0.3c3.2,16,5.8,32.1,7.8,48.3c4.7-6.7,8.4-14,10.8-21.8
				c0.4-1.1,2.1-0.4,1.7,0.7c-2.6,8.2-6.6,16-11.6,23c-0.2,0.2-0.4,0.4-0.7,0.4c0.4,3.5,0.8,7.1,1.2,10.6c3.4-4.2,6.1-9,8-14.1
				c0.4-1.1,2.2-0.4,1.7,0.7c-2.1,5.7-5.2,11-9.2,15.6c-0.1,0.1-0.2,0.2-0.4,0.3c1.2,11.7,2.1,23.4,2.7,35.1
				c0.1,0.1,0.1,0.3,0.1,0.4c0.2,4.3,0.4,8.6,0.4,12.9c0.1,2.8,0.2,5.6,0.2,8.4c0,0.2-0.1,0.5-0.3,0.6c-0.5,26.4-4.4,52.5-10,78.4
				l-1.8-0.4c6.3-29.2,10.4-58.8,9.9-88.7c-0.1-3.2-0.2-6.3-0.4-9.5c-0.3,0.1-0.6,0.1-0.8-0.1c-3.4-2.3-6.3-5.3-8.6-8.8
				c-0.7-1,0.8-2.2,1.5-1.2c2.1,3.2,4.7,6,7.9,8.2c-1-20.2-3-40.3-5.8-60.3L689.2,647.6L689.2,647.6z"/>
			<path class="st10" d="M687.9,808.9l-0.5-0.1l-1.2-0.3l-1.1-0.3l0.1-0.5c7.2-33.7,10.3-61.8,9.9-88.6c-0.1-3-0.2-5.9-0.4-8.9
				c-0.2,0-0.4-0.1-0.6-0.2c-3.5-2.4-6.4-5.4-8.7-8.9c-0.3-0.4-0.3-1-0.1-1.5s0.7-0.8,1.2-0.9c0.5,0,0.9,0.2,1.1,0.6
				c1.9,2.8,4.2,5.3,6.9,7.4c-1-19.5-3-39.3-5.7-58.8c-8-1.3-14.3-6.3-20.4-11.8c-0.4-0.3-0.6-0.9-0.5-1.4c0.1-0.5,0.5-1,1-1.2
				c0.5-0.2,0.9,0,1.3,0.3c4.8,4.3,10.7,9.5,18.2,11.1c-1.8-12.4-3.8-24.4-6.1-35.7c-0.1-0.5,0-1,0.4-1.3c0.4-0.3,1-0.5,1.5-0.3
				c0.5,0.2,0.8,0.6,0.9,1.1c3,15.3,5.6,31.1,7.6,47.1c4.3-6.3,7.7-13.3,10-20.6c0.1-0.5,0.5-0.8,1-0.9c0.5-0.1,1.1,0.1,1.5,0.5
				c0.4,0.4,0.5,1,0.3,1.5c-2.7,8.3-6.6,16-11.7,23c-0.1,0.2-0.3,0.4-0.5,0.5c0.3,3,0.7,6,1,9c3-3.9,5.5-8.3,7.2-13
				c0.2-0.5,0.5-0.8,1-0.9c0.5-0.1,1.1,0.1,1.5,0.5c0.3,0.4,0.4,0.9,0.2,1.4c-2.2,5.8-5.3,11.1-9.3,15.8c-0.1,0.1-0.1,0.2-0.2,0.2
				c1.2,11.6,2.1,23.2,2.7,34.7c0.1,0.2,0.1,0.3,0.1,0.5c0.2,4.2,0.4,8.5,0.4,12.9c0.1,2.8,0.2,5.6,0.2,8.4c0,0.3-0.1,0.6-0.3,0.9
				c-0.5,23.6-3.7,49.2-10,78.2L687.9,808.9L687.9,808.9z M686.3,807.4h0.2l0.7,0.2c6.2-28.9,9.4-54.3,9.8-77.8v-0.2l0.2-0.2
				c0-0.1,0-0.2,0-0.2c0-2.8-0.1-5.6-0.2-8.4c0-4.3-0.2-8.6-0.4-12.8c0-0.1,0-0.1,0-0.2v-0.2c-0.6-11.6-1.5-23.4-2.7-35.1v-0.4
				l0.3-0.1c0.1,0,0.1-0.1,0.2-0.1c3.9-4.6,7-9.8,9.1-15.4c0.1-0.1,0.1-0.3,0-0.4c-0.1-0.2-0.3-0.2-0.5-0.2c-0.1,0-0.2,0.1-0.3,0.2
				c-1.9,5.1-4.7,9.9-8.1,14.2l-0.8,0.9l-0.1-1.2c-0.4-3.5-0.8-7.1-1.2-10.6l-0.1-0.6h0.6c0.1,0,0.2-0.1,0.3-0.2
				c5-7,8.9-14.7,11.6-22.9c0.1-0.2,0-0.3-0.1-0.4c-0.1-0.1-0.3-0.2-0.5-0.2c0,0-0.2,0-0.2,0.2c-2.5,7.8-6.2,15.2-10.9,21.9
				l-0.8,1.1l-0.2-1.3c-2.1-16.4-4.7-32.6-7.8-48.3c0-0.2-0.1-0.3-0.3-0.3c-0.2-0.1-0.4,0-0.5,0.1c-0.1,0.1-0.1,0.2-0.1,0.3
				c2.3,11.6,4.4,23.8,6.2,36.5l0.1,0.7h-0.9c-8.1-1.4-14.3-6.9-19.4-11.4c-0.1-0.1-0.2-0.1-0.3-0.1c-0.2,0.1-0.3,0.2-0.3,0.4
				c0,0.2,0,0.3,0.2,0.4c6.1,5.4,12.3,10.4,20.1,11.6h0.5v0.4c2.8,20,4.8,40.3,5.8,60.4v1l-0.9-0.6c-3.2-2.2-5.9-5.1-8-8.3
				c-0.1-0.2-0.2-0.2-0.2-0.2c-0.2,0-0.3,0.2-0.4,0.3c-0.1,0.2-0.1,0.3,0,0.5c2.2,3.4,5.1,6.3,8.4,8.6c0.1,0.1,0.2,0.1,0.4,0
				l0.7-0.2v0.7c0.2,3.2,0.3,6.3,0.4,9.5C696.6,745.9,693.5,774,686.3,807.4L686.3,807.4L686.3,807.4z"/>
			<path class="st2" d="M754.3,701.8c3.5,1.3,7.3,1.7,11,0.9c-1.9,5.5-4.5,10.7-7.7,15.5c-6,4.1-20.8,10.1-20,10.3
				c3.1,0.9,6.2,1.4,9.4,1.6c-3.2,2.7-6.7,5-10.3,7c-7.6,4.1-17,6.2-22.8,12.6c-0.1,0.2-0.3,0.2-0.5,0.2c-0.2,0.3-0.6,0.4-0.9,0.2
				c-0.1-0.1-0.2-0.2-0.2-0.2c-9.5-17.3-5.1-36.2-0.9-53.3c0.2-0.8,0.4-1.6,0.6-2.4c2.5,5.1,5.7,9.8,9.5,14c0.6,0.6-3.8-16.5-6-24.6
				c1.6-3.9,4-7.5,6.9-10.6c6.3-6.6,14.8-11.7,22.9-16.2l1-0.6c0.1,4.1,0.9,8.2,2.3,12.1c0.2,0.7,2.8-10.2,3.8-15.3
				c2-1,3.9-2,5.9-2.9c2.6-1.2,6.2-3.6,9.4-1.9c3.2,1.7,6,16.4,5.6,20.2c-0.2,1.6-0.3,3.2-0.6,4.8c-0.1,0.7-0.2,1.4-0.3,2.1
				c-1.1,6.4-2.6,12.8-4.4,19c-0.4,0.2-0.7,0.5-1.1,0.7C762.8,697.4,753.6,701.5,754.3,701.8L754.3,701.8z"/>
			<path class="st10" d="M712.8,750.8c-0.4,0-0.8-0.2-1-0.6c-9.8-17.7-4.9-37.6-0.9-53.6c0.2-0.8,0.4-1.6,0.6-2.4l0.3-1.2l0.6,1.2
				c2.3,4.6,5.1,8.8,8.4,12.7c-0.9-4.2-4-16.4-5.8-22.9v-0.3c1.7-4,4-7.6,7-10.7c6.5-6.7,15.3-12,23-16.4c0.2-0.1,0.3-0.2,0.5-0.3
				l0.5-0.3l0.7-0.4v0.8c0.1,3.6,0.7,7.2,1.8,10.7c0.8-2.8,2.4-9.8,3.2-14v-0.2l0.2-0.1c2-1,3.9-2,5.9-3c0.4-0.2,0.8-0.4,1.2-0.6
				c2.6-1.3,5.7-3,8.7-1.3c3.4,1.8,6.3,16.7,5.9,20.7c-0.2,1.5-0.3,3.1-0.6,4.9c-0.1,0.7-0.2,1.4-0.3,2.1
				c-1.1,6.5-2.6,12.9-4.4,19.2v0.2l-0.2,0.1c-0.4,0.3-0.7,0.5-1.1,0.7c-1.6,0.9-4,2.1-6.4,3.2c-2,1-4.3,2.1-5.4,2.8
				c3.2,1,6.6,1.3,10,0.6l0.9-0.2l-0.3,0.8c-1.9,5.5-4.5,10.8-7.7,15.6l-0.2,0.1c-4.8,2.9-9.8,5.5-15,7.7c-1.6,0.8-3.2,1.5-4.2,2
				c2.7,0.7,5.5,1.1,8.2,1.2l1.2,0.1l-0.9,0.8c-3.2,2.7-6.7,5.1-10.3,7.1c-2.5,1.4-5.2,2.5-7.8,3.6c-5.4,2.3-11,4.7-14.8,8.9
				c-0.1,0.2-0.3,0.3-0.6,0.3c-0.2,0.2-0.5,0.4-0.9,0.4L712.8,750.8L712.8,750.8z M712.1,695.7c-0.1,0.4-0.2,0.8-0.3,1.1
				c-3.9,15.8-8.8,35.5,0.8,52.9c0,0,0.1,0.1,0.1,0.1l0,0c0.1,0,0.1,0,0.2-0.1l0.2-0.3h0.3c4-4.4,9.7-6.9,15.2-9.2
				c2.6-1.1,5.3-2.2,7.7-3.6c3.3-1.8,6.4-3.8,9.3-6.2c-2.8-0.2-5.6-0.7-8.2-1.5l-0.3-0.1v-0.4c0-0.5,0-0.5,5.4-3.1
				c5.1-2.2,10-4.8,14.8-7.6c3-4.5,5.4-9.4,7.3-14.5c-3.5,0.5-7.1,0.2-10.4-1.1l0,0l-0.4-0.1v-0.4c0-0.5,0.2-0.7,6.5-3.8
				c2.3-1.2,4.8-2.3,6.4-3.2c0.3-0.2,0.6-0.3,0.9-0.5c1.8-6.2,3.3-12.4,4.4-18.8c0.1-0.7,0.2-1.4,0.3-2.1c0.3-1.8,0.5-3.4,0.6-4.8
				c0.4-3.8-2.6-18.2-5.4-19.7c-2.5-1.4-5.3,0-7.7,1.3c-0.4,0.2-0.9,0.4-1.3,0.6c-1.9,0.9-3.8,1.8-5.7,2.8c-0.4,2-3,15.4-4.1,15.5
				h-0.4l-0.2-0.4c-1.3-3.7-2.1-7.5-2.3-11.4l-0.3,0.2c-7.7,4.4-16.4,9.6-22.8,16.2c-2.8,3-5.1,6.5-6.7,10.3c1.1,3.8,2.6,9.8,3.9,15
				c2.4,9.7,2.3,9.7,1.8,10l-0.3,0.2l-0.3-0.3C717.6,704.8,714.5,700.5,712.1,695.7L712.1,695.7z"/>
			<path class="st3" d="M698.5,812.2c2.8-21.3,7.1-42.2,14.3-62.2c-0.1-0.2-0.1-0.4,0-0.6c0.9-2.1,1.7-4.2,2.6-6.2
				c1.3-3.2,2.7-6.4,4.1-9.5c0.1-0.1,0.1-0.2,0.2-0.3c3.9-8.6,8.1-17.1,12.5-25.5c-0.1-0.1-0.2-0.2-0.2-0.3c-2-4.7-3.1-9.7-3.2-14.8
				c0-1,1.7-0.9,1.7,0c0.1,4.6,1.1,9,2.7,13.3c1.3-2.6,2.7-5.1,4.1-7.6c-0.2-0.1-0.4-0.3-0.5-0.5c-2.2-6.8-3.3-13.9-3.2-21.1
				c0-1,1.7-0.9,1.7,0c-0.1,6.8,0.8,13.5,2.9,19.9c6.4-11.5,13.3-22.8,20.7-33.8c0.5-0.8,2,0,1.5,0.8c-5.6,8.3-10.8,16.7-15.8,25.3
				c6.9,1.5,13.3-0.3,19.5-2.2c0.4-0.1,0.8,0.2,0.9,0.7c0,0.3-0.1,0.6-0.4,0.8c-6.7,2-13.5,3.9-20.8,2.1h-0.1
				c-8.2,14.1-15.7,28.6-22.4,43.4c3.2-0.6,6.3-1.8,9-3.5c0.9-0.5,1.8,0.8,0.9,1.4c-3,1.9-6.3,3.2-9.8,3.8c-0.3,0-0.5,0-0.7-0.2
				c-1,2.3-2.1,4.7-3.1,7c-9.2,22.3-14.2,45.9-17.4,69.9L698.5,812.2L698.5,812.2z"/>
			<path class="st10" d="M700.7,813.1l-2.7-0.4v-0.5c3.1-23.9,7.8-44.3,14.3-62.1c-0.1-0.2-0.1-0.5,0-0.8c0.9-2.1,1.7-4.2,2.6-6.2
				c1.3-3.2,2.7-6.5,4.1-9.5c0.1-0.1,0.2-0.2,0.3-0.4c3.8-8.4,8-16.9,12.3-25.1c0-0.1-0.1-0.1-0.1-0.2c-2-4.7-3.1-9.8-3.3-14.9
				c0-0.4,0.2-0.8,0.6-1c0.5-0.3,1-0.3,1.5,0c0.4,0.2,0.7,0.6,0.7,1.1c0.1,4.1,0.9,8.2,2.3,12c1.1-2.1,2.3-4.2,3.4-6.2
				c-0.1-0.1-0.2-0.3-0.3-0.5c-2.2-6.9-3.3-14.1-3.2-21.3c0-0.7,0.7-1.2,1.4-1.2c0.7,0,1.3,0.5,1.3,1.2c0,0,0,0,0,0
				c-0.1,6.3,0.7,12.6,2.5,18.6c6.3-11.3,13.1-22.3,20.1-32.8c0.3-0.4,0.7-0.6,1.2-0.5c0.5,0,1,0.3,1.2,0.8c0.2,0.4,0.2,0.8-0.1,1.2
				c-5.2,7.7-10.3,16.1-15.4,24.7c6.8,1.3,13.3-0.7,18.6-2.3c0.7-0.2,1.4,0.2,1.6,0.8c0,0,0,0,0,0.1c0.2,0.6-0.1,1.3-0.8,1.6
				c0,0,0,0-0.1,0c-6.8,2.1-13.6,3.8-20.8,2.2c-8,13.7-15.3,27.9-21.8,42.1c2.8-0.6,5.5-1.7,7.9-3.3c0.4-0.2,0.9-0.2,1.2,0
				c0.4,0.2,0.7,0.7,0.8,1.2c0,0.4-0.2,0.8-0.6,1.1c-3.1,1.9-6.5,3.2-10,3.9c-0.2,0-0.4,0-0.6,0c-1,2.2-1.9,4.4-2.9,6.5
				c-8.2,19.9-13.7,42.1-17.3,69.8L700.7,813.1L700.7,813.1z M699.1,811.8l0.6,0.1h0.1c3.6-27.5,9.2-49.6,17.3-69.5
				c1-2.3,2-4.7,3.1-7l0.2-0.5l0,0l0.4-0.9c6.7-14.8,14.3-29.3,22.5-43.5l0.2-0.3l0.5,0.2c7,1.7,13.6,0,20.4-2.1
				c0.2,0,0.2-0.2,0.2-0.3c0-0.2-0.2-0.3-0.3-0.2c0,0,0,0,0,0c-5.6,1.7-12.5,3.8-19.8,2.2l-0.7-0.2l0.3-0.6
				c5.2-8.9,10.5-17.4,15.8-25.4v-0.1c-0.1-0.2-0.2-0.2-0.4-0.2c-0.1,0-0.2,0-0.2,0.1c-7.2,10.7-14.1,22.1-20.7,33.7l-0.6,1
				l-0.3-1.1c-2.1-6.5-3.1-13.3-3-20.1c0-0.2-0.3-0.2-0.3-0.2s-0.3,0-0.3,0.2c-0.1,7.1,0.9,14.2,3.2,21c0,0.1,0.1,0.2,0.2,0.2
				l0.5,0.2l-0.3,0.5c-1.4,2.5-2.8,5-4.1,7.6l-0.5,1l-0.4-1c-1.7-4.3-2.6-8.8-2.8-13.4c0-0.1,0-0.2-0.1-0.2c-0.2-0.1-0.3-0.1-0.5,0
				c0,0-0.1,0,0,0.2c0.2,5,1.2,9.9,3.2,14.5c0,0,0.1,0.1,0.1,0.1l0.3,0.3l-0.2,0.3c-4.4,8.4-8.6,16.9-12.5,25.5l-0.2,0.2
				c-1.5,3.1-2.9,6.3-4.2,9.6c-0.9,2.1-1.8,4.1-2.6,6.2l0.1,0.2l-0.1,0.3C706.9,767.9,702.2,788.1,699.1,811.8L699.1,811.8
				L699.1,811.8z M720.6,734.9l0.4,0.3c0.1,0.1,0.2,0.1,0.3,0.1c3.4-0.6,6.7-1.8,9.6-3.7c0.1,0,0.1-0.1,0.1-0.2
				c0-0.1-0.1-0.3-0.2-0.3c-0.1-0.1-0.2-0.1-0.2,0c-2.8,1.8-5.9,3-9.2,3.6L720.6,734.9L720.6,734.9z"/>
			<path class="st3" d="M758.2,679.1c5.2-1,10.1-2.9,14.6-5.7c-0.1,0.7-0.2,1.4-0.3,2.1c-4.3,2.5-8.9,4.2-13.7,5.1
				C757.6,680.7,757.1,679.3,758.2,679.1L758.2,679.1z"/>
			<path class="st10" d="M758.5,681.1c-0.7,0-1.2-0.5-1.4-1.1c-0.1-0.6,0.2-1.2,0.9-1.4c0,0,0.1,0,0.1,0l0,0c5.1-1,10-2.9,14.4-5.6
				l0.9-0.6l-0.1,1.1c-0.1,0.7-0.2,1.5-0.3,2.1v0.2l-0.2,0.2c-4.3,2.5-9,4.2-13.9,5.2C758.7,681.1,758.6,681.1,758.5,681.1
				L758.5,681.1z M772.1,674.4c-4.3,2.5-9,4.3-13.9,5.2l0,0c-0.2,0-0.2,0.1-0.2,0.2c0,0.2,0.3,0.4,0.5,0.3c4.7-0.9,9.2-2.6,13.4-4.9
				C772,674.9,772.1,674.6,772.1,674.4L772.1,674.4z"/>
			<path class="st2" d="M599.9,693.1c0.1,6.8,15.7,10,20.7,11.8c11,4.1,21.7,8.2,29.8,17c9.6,10.4,17.8,22.4,26.1,33.9
				c0.4,0.6,1.2,1,2,0.8c0.9-1.6,1.7-3.2,2.3-4.9c2.8-7,7.2-19.8,6.1-27.1c-0.8-5.1-2.5-10-5-14.6c-0.5,2.3-1.5,4.4-3.1,6.2
				c-0.4,0.4-1.2-9.2-1.8-13.6c-0.7-0.9-1.5-1.7-2.2-2.6c-1.8-1.9-3.7-3.7-5.8-5.3c-0.4-0.3-0.9-0.7-1.3-1c-1.7-1.2-3.5-2.4-5.3-3.5
				l-1.5-0.8c-1.7-0.9-3.5-1.8-5.3-2.6c-0.5,3.3-1.5,6.6-3,9.6c-0.3,0.7-1.1-7.6-1.2-11.2c-1.7-0.7-3.4-1.2-5.2-1.7
				c-0.5,2.2-1.2,4.2-2.2,6.2c-0.2,0.5-2.6-5.1-3.4-7.6c-5.5-1.1-11.1-1.6-16.7-1.3c-0.5,0-1,0-1.5,0.1c-1.5,0.1-3,0.3-4.4,0.5
				c-5.4,0.8-18.1,4.3-18.3,11.5L599.9,693.1L599.9,693.1z"/>
			<path class="st10" d="M678,757.2c-0.8,0-1.5-0.4-2-1.1l-3.4-4.7c-7-10.2-14.5-19.9-22.6-29.2c-8.2-8.9-19.1-13-29.6-16.9
				c-0.9-0.3-2.1-0.7-3.5-1.1c-6.9-2.1-17.4-5.3-17.5-11.2l0,0c0-0.1,0-0.2,0-0.3c0.2-7.1,11.9-10.9,18.7-11.9
				c1.5-0.2,3-0.4,4.4-0.5c0.5,0,0.9,0,1.5-0.1c5.7-0.2,11.3,0.2,16.9,1.3h0.3l0.1,0.3c0.8,2.3,1.8,4.6,2.8,6.8
				c0.8-1.7,1.4-3.5,1.8-5.4l0.1-0.5l0.5,0.2c1.5,0.4,3.4,1,5.2,1.7l0.3,0.1v0.3c0.1,2.8,0.5,7.4,0.8,9.7c1.1-2.6,1.8-5.4,2.3-8.2
				l0.1-0.6l0.6,0.3c1.8,0.8,3.6,1.7,5.3,2.6l1.5,0.8c1.8,1.1,3.6,2.2,5.3,3.5c0.5,0.3,0.9,0.7,1.3,1c2.1,1.6,4,3.4,5.8,5.4
				c0.7,0.8,1.5,1.6,2.2,2.6l0.1,0.1v0.2c0.2,1.4,0.4,3.2,0.6,5.1c0.3,2.6,0.7,6.1,0.9,7.5c1.2-1.6,2-3.4,2.5-5.3l0.3-1.3l0.6,1.2
				c2.5,4.6,4.2,9.6,5,14.8c1.2,8.3-4.4,23.1-6.2,27.4c-2.1,5.2-2.4,5.2-2.7,5.3L678,757.2L678,757.2z M627.2,681.2
				c-1,0-2.1,0-3.1,0.1c-0.5,0-0.9,0-1.4,0.1c-1.5,0.1-3,0.3-4.4,0.5c-6.1,0.9-17.7,4.4-17.9,11v0.2l0,0c0,5.2,10.5,8.3,16.7,10.2
				c1.5,0.4,2.7,0.8,3.6,1.2c10.1,3.8,21.6,8,30,17.1c8.2,9.3,15.8,19,22.8,29.2l3.4,4.7c0.3,0.4,0.8,0.7,1.3,0.7
				c0.3-0.5,1-2,2.1-4.7c1.7-4.3,7.3-18.8,6.1-26.9c-0.7-4.6-2.2-9.1-4.3-13.3c-0.6,1.9-1.6,3.7-3,5.2l-0.2,0.2l-0.3-0.1
				c-0.5-0.2-0.6-0.2-1.5-8.9c-0.2-1.8-0.4-3.6-0.6-5c-0.7-0.9-1.5-1.7-2.1-2.4c-1.8-1.9-3.7-3.7-5.7-5.3c-0.4-0.3-0.9-0.7-1.3-1
				c-1.7-1.2-3.4-2.4-5.2-3.5l-1.5-0.8c-1.5-0.8-3-1.6-4.6-2.3c-0.5,3.2-1.5,6.2-2.8,9.1L653,697h-0.4c-1-0.2-1.5-9.5-1.5-11.4
				c-1.5-0.6-3.1-1-4.3-1.5c-0.5,2-1.2,4-2.1,5.8l-0.2,0.3h-0.4c-0.9-0.1-3.2-6.3-3.7-7.7C636.1,681.7,631.6,681.2,627.2,681.2
				L627.2,681.2L627.2,681.2z"/>
			<path class="st3" d="M660,710.9c13.3,13.1,17.4,37.1,18.2,44c1.4,2.8,2.3,5.8,2.7,8.9c1.6,10.8,1.1,22.1,0.8,33
				c-0.1,3.6-0.2,7.2-0.4,10.7l-1.8-0.3c0.1-2.3,0.2-4.5,0.3-6.8c0.3-9.7,0.3-19.5-0.1-29.2c0-5-0.9-10-2.7-14.8
				c-0.2-0.2-0.4-0.3-0.6-0.5c-8.3-11.5-16.5-23.5-26.1-33.9c-8.1-8.9-18.8-12.9-29.8-17c-5-1.8-20.6-5.1-20.7-11.8
				C620.7,695.5,644.7,695.8,660,710.9L660,710.9z"/>
			<path class="st10" d="M681.8,808.1l-2.9-0.5v-0.4c0.1-2.3,0.2-4.4,0.3-6.8c0.3-10.1,0.3-19.9-0.1-29.2c0-4.9-0.8-9.8-2.5-14.5
				c-0.2-0.2-0.4-0.3-0.6-0.6l-3.4-4.7c-7.1-9.9-14.4-20.2-22.7-29.2c-8.2-9-19.1-13-29.6-16.9c-0.9-0.3-2.1-0.7-3.5-1.1
				c-6.9-2.1-17.4-5.3-17.5-11.2v-0.6l0.6,0.1c2.9,0.3,5.8,0.6,8.7,0.9c18.9,1.9,38.4,3.8,51.6,17l0,0c13.9,13.7,17.7,39,18.4,44.2
				c1.4,2.8,2.3,5.9,2.7,9c1.5,9.9,1.2,20.4,0.9,30.4l-0.1,2.7c0,3.2-0.2,6.6-0.4,10.7V808.1L681.8,808.1z M680,806.7l0.8,0.2
				c0.2-3.8,0.3-7.1,0.4-10.1V794c0.3-10,0.5-20.4-0.9-30.3c-0.4-3-1.4-6-2.7-8.7v-0.2c-0.6-4.9-4.4-30.1-18.1-43.7l0,0
				c-13-12.9-32.4-14.8-51-16.7c-2.7-0.3-5.5-0.5-8.1-0.9c0.8,4.8,10.7,7.8,16.7,9.7c1.5,0.4,2.7,0.8,3.6,1.2
				c10.1,3.8,21.6,8,30,17.1c8.4,9.1,15.7,19.3,22.8,29.2l3.4,4.7c0.1,0.2,0.3,0.3,0.5,0.4l0.1,0.1v0.2c1.8,4.8,2.7,9.8,2.7,14.9
				c0.4,9.3,0.5,19.2,0.1,29.3C680.3,802.4,680.2,804.6,680,806.7L680,806.7z"/>
			<path class="st3" d="M660.6,704.4c1-5,1.1-10.1,0.3-15.1l1.5,0.8c0.7,4.8,0.5,9.7-0.4,14.5C661.7,705.6,660.4,705.3,660.6,704.4
				L660.6,704.4z"/>
			<path class="st10" d="M661.3,705.8H661c-0.7-0.1-1.1-0.7-1-1.4c0,0,0,0,0,0l0,0c1-4.9,1.1-9.9,0.3-14.9l-0.2-1l0.9,0.5l1.5,0.8
				l0.2,0.1v0.2c0.7,4.9,0.5,9.8-0.4,14.7C662.3,705.4,661.8,705.7,661.3,705.8L661.3,705.8z M661,704.5c0,0.2,0.1,0.2,0.2,0.2
				s0.2,0,0.2-0.1c0.9-4.7,1-9.4,0.4-14.1l-0.3-0.2C662.1,695,662,699.8,661,704.5L661,704.5z"/>
			<path class="st3" d="M665.6,707.1c1.2-4.4,1.8-8.9,1.9-13.4c0.4,0.3,0.9,0.7,1.3,1c-0.2,4.3-0.8,8.6-1.9,12.7
				C666.8,708.3,665.4,708,665.6,707.1L665.6,707.1z"/>
			<path class="st10" d="M666.3,708.4H666c-0.6-0.1-1-0.7-0.8-1.3c0,0,0-0.1,0-0.1l0,0c1.2-4.3,1.8-8.8,1.9-13.3v-0.9l0.8,0.5
				c0.5,0.3,0.9,0.7,1.3,1l0.2,0.2v0.2c-0.2,4.3-0.8,8.6-2,12.8C667.3,708.1,666.8,708.5,666.3,708.4L666.3,708.4z M666.1,707.3
				c0,0,0,0.1,0.1,0.2c0.1,0,0.2,0,0.2-0.1c0,0,0,0,0,0c1.1-4,1.7-8.2,1.9-12.4l-0.3-0.3C667.9,698.9,667.2,703.1,666.1,707.3
				L666.1,707.3z"/>
			<path class="st11" d="M643.4,797.3c0,3.4,0.4,6.9,1.1,10.2c2.5,11.8,9.3,22.2,19.1,29.2h57.1c9.7-7.1,16.5-17.5,19.1-29.2
				c0.7-3.4,1.1-6.8,1.1-10.2c0-3.6-0.4-7.1-1.2-10.6c-0.6-2.9-1.5-5.7-2.7-8.4h-89.7c-1.2,2.7-2.1,5.5-2.7,8.4
				C643.8,790.2,643.4,793.7,643.4,797.3L643.4,797.3z"/>
			<path class="st12" d="M643.4,797.3c0,3.4,0.4,6.9,1.1,10.2c2.5,11.8,9.3,22.2,19.1,29.2h57.1c-74.6,3.7-73.4-58.4-73.4-58.4
				c-1.2,2.7-2.1,5.5-2.7,8.4C643.8,790.2,643.4,793.7,643.4,797.3z"/>
			<path class="st12" d="M719.2,778.3H737c1.2,2.7,2.1,5.5,2.7,8.4c0.8,3.5,1.2,7.1,1.2,10.6c0,3.4-0.4,6.9-1.1,10.2
				c-2.5,11.8-9.3,22.2-19.1,29.2h-7.9C722.3,829.8,726.8,798.1,719.2,778.3L719.2,778.3z"/>
			<path class="st6" d="M779.5,81.3v482.3c0,6.9-5.6,12.4-12.5,12.4H283.2c-6.9,0-12.4-5.6-12.4-12.4V81.3c0-8.8,7.1-15.9,15.9-15.9
				h477C772.4,65.5,779.5,72.5,779.5,81.3L779.5,81.3L779.5,81.3z"/>
			<path class="st8" d="M767.1,576.8H283.2c-7.3,0-13.2-5.9-13.2-13.2V81.3c0-9.2,7.4-16.6,16.6-16.6h477c9.2,0,16.7,7.4,16.7,16.6
				c0,0,0,0,0,0v482.3C780.3,570.9,774.4,576.8,767.1,576.8C767.1,576.7,767.1,576.7,767.1,576.8L767.1,576.8z M286.7,66.2
				c-8.4,0-15.1,6.8-15.1,15.2v482.2c0,6.5,5.2,11.7,11.7,11.7h483.8c6.5,0,11.7-5.2,11.7-11.7V81.3c0-8.4-6.8-15.1-15.2-15.1H286.7
				L286.7,66.2z"/>
			<path class="st4" d="M779.5,120.2H270.8V81.3c0-8.8,7.1-15.9,15.9-15.9h476.9c8.8,0,15.9,7.1,15.9,15.8
				C779.5,81.3,779.5,120.2,779.5,120.2z"/>
			<path class="st8" d="M780.2,121H270.1V81.3c0-9.2,7.5-16.6,16.6-16.6h476.9c9.2,0,16.6,7.4,16.6,16.6
				C780.2,81.3,780.2,121,780.2,121z M271.5,119.5h507.2V81.3c0-8.4-6.8-15.1-15.1-15.1H286.7c-8.4,0-15.1,6.8-15.2,15.1
				L271.5,119.5L271.5,119.5z"/>
			<path class="st6" d="M358.3,92.8c0-4.6,3.8-8.4,8.4-8.4c4.6,0,8.4,3.8,8.4,8.4c0,4.6-3.8,8.4-8.4,8.4
				C362.1,101.2,358.3,97.4,358.3,92.8z"/>
			<path class="st6" d="M326,92.8c0-4.6,3.8-8.4,8.4-8.4c4.6,0,8.4,3.8,8.4,8.4c0,4.6-3.8,8.4-8.4,8.4c0,0,0,0,0,0
				C329.8,101.2,326,97.4,326,92.8z"/>
			<path class="st6" d="M293.7,92.8c0-4.6,3.8-8.4,8.4-8.4s8.4,3.8,8.4,8.4c0,4.6-3.8,8.4-8.4,8.4c0,0,0,0,0,0
				C297.4,101.2,293.7,97.4,293.7,92.8z"/>
			<polygon class="st6" points="739.5,86.7 743.6,82.5 749.6,88.4 755.5,82.5 759.7,86.7 753.7,92.6 759.7,98.5 755.5,102.7 
				749.6,96.8 743.6,102.7 739.5,98.5 745.4,92.6 			"/>
			<rect x="436.1" y="341.6" class="st11" width="63.9" height="100.1"/>
			<rect x="344.1" y="411.9" class="st13" width="63.9" height="29.8"/>
			<rect x="523.6" y="304.4" class="st14" width="63.9" height="137.3"/>
			<rect x="611.2" y="267.9" class="st12" width="63.9" height="173.8"/>
			<path class="st12" d="M648.3,182.5l-3.3,2.6l-5.5,4.2l-1.1,0.8l0,0l-47.8,36.5l-14.3,11l0,0l-10.2,7.8l-0.4-0.3l-1.2-1l-10.3-8.2
				L531,217.6l-4.7-3.7l-0.9-0.7l-7.8-6.2l-5.3,9.1l-31.5,53.5l-6.4,10.9l-4.3,1.3l-7.7,2.3l0,0l-38,11.4l0,0l-7.2,2.2l-5,5.2
				L411,304l-3.2,3.3l0,0L362,354.9l0,0l-11.3,11.8l-0.3-0.3l0,0l-10.7-11.1c0.6-1.8,1.6-3.5,3-4.8c0.4-0.4,0.8-0.8,1.3-1.1l2.2,2.3
				l4.5,4.7l0.1,0.1l7-7.3l1.5-1.6l43.2-45l0,0l10.5-10.9l0.3-0.4l8.2-2.5l7.2-2.2l31.5-9.4l0,0l9.4-2.8l5-8.5l32.6-55.3l8.4-14.3
				l14,11.1l29.4,23.2l7.2,5.7l6.1-4.7l0,0l2.4-1.8l9.4-7.2l49.9-38.2l6.6-5.1l3.4-2.6L648.3,182.5L648.3,182.5z"/>
			<polygon class="st12" points="662.3,221.4 695.3,142.1 610.1,153.1 			"/>
			<path class="st14" d="M362.5,359.6c-0.4,6.5-6.1,11.4-12.6,11l0,0l0,0c-6.5-0.4-11.4-6.1-11-12.6c0,0,0,0,0,0
				c0.1-0.9,0.2-1.8,0.5-2.7c0.6-1.8,1.6-3.5,3-4.8c0.4-0.4,0.8-0.8,1.3-1.1c2.3-1.7,5.1-2.5,7.9-2.3h0.2c2.1,0.2,4,0.9,5.7,2.1
				c2.1,1.4,3.6,3.5,4.4,5.8C362.6,356.5,362.7,358.1,362.5,359.6L362.5,359.6z"/>
			<path class="st14" d="M424.2,297.4c-0.4,6.5-6.1,11.4-12.6,11c-6.5-0.4-11.4-6.1-11-12.6c0.4-6.5,6.1-11.4,12.6-11
				C419.7,285.3,424.7,290.9,424.2,297.4L424.2,297.4L424.2,297.4z"/>
			<path class="st14" d="M483.7,278.3c-0.4,6.5-6.1,11.4-12.6,11s-11.4-6.1-11-12.6s6.1-11.4,12.6-11l0,0
				C479.2,266.1,484.1,271.8,483.7,278.3L483.7,278.3z"/>
			<path class="st14" d="M576.6,241.5c-0.4,6.5-6.1,11.4-12.6,11c-6.5-0.4-11.4-6.1-11-12.6c0.4-6.5,6.1-11.4,12.6-11l0,0
				C572.1,229.4,577.1,235,576.6,241.5L576.6,241.5z"/>
			<path class="st14" d="M529.6,206.5c-0.4,6.5-6.1,11.4-12.6,11c-6.5-0.4-11.4-6.1-11-12.6c0.4-6.5,6.1-11.4,12.6-11
				C525.1,194.4,530,200,529.6,206.5L529.6,206.5L529.6,206.5z"/>
			<polygon class="st14" points="349.6,491.3 349.6,498.2 506.7,498.2 506.9,491.3 			"/>
			<polygon class="st14" points="349.6,512 349.6,518.8 683,518.8 683.2,512 			"/>
			<polygon class="st14" points="349.6,532.6 349.6,539.5 683.1,539.5 683.3,532.6 			"/>
			<polygon class="st14" points="523.2,498.2 683.1,498.2 683.3,491.3 523.3,491.3 			"/>
			<path class="st6" d="M343.2,368.1c-4.3-0.6-8.6-1.4-12.9-2.5c-3.1-1.1-5.8-16.5-5.2-17.8c0.6-1.4,9.2-6.4,9.2-6.4
				s5.6,6.5,5.9,7.1l4.6,8.3l0.2,6.5L343.2,368.1L343.2,368.1z"/>
			<path class="st10" d="M343.7,368.9l-0.6-0.1c-4.4-0.6-8.7-1.5-13-2.5c-0.9-0.3-1.8-1.4-2.6-3.3c-2-4.6-3.7-14.1-3.1-15.6
				c0.7-1.5,6.9-5.2,9.5-6.8l0.5-0.3l0.4,0.5c1.3,1.5,5.7,6.6,6,7.2l4.7,8.4l0.2,6.9L343.7,368.9L343.7,368.9z M334.3,342.4
				c-3.9,2.3-8,5.1-8.4,5.8c-0.4,1.5,2.3,16,4.8,16.8c4,1,8.1,1.8,12.2,2.4l1.7-4.2l-0.2-6.2l-4.5-8.1
				C339.4,348.4,336.7,345.2,334.3,342.4L334.3,342.4L334.3,342.4z"/>
			<path class="st6" d="M348.9,335.8c-2.8-0.1-5.5,0.2-8.1,1.1c-1.6,0.7-2.8,2-3.3,3.6c-1.2,3.4-2.2,7-3,10.5
				c-0.1,0.2-0.1,0.3,0,0.5c-0.1,0.2,0,0.4,0.1,0.6c3.3,3,7.1-0.1,8.5-3.4c0.5-1.1,0.6-2.3,1-3.4c1.5-3.9,3.3-3,5.8-4.3
				c1.3-0.6,2.1-1.9,2.1-3.3C351.8,336.1,350.3,335.8,348.9,335.8L348.9,335.8z"/>
			<path class="st10" d="M337.4,354.1c-1.2,0-2.4-0.5-3.3-1.4c-0.3-0.3-0.5-0.6-0.4-1c-0.1-0.3-0.1-0.6,0-0.8
				c0.3-1.1,0.6-2.2,0.9-3.3c0.6-2.5,1.3-5,2.2-7.4c0.6-1.8,2-3.3,3.7-4c2.7-0.9,5.6-1.3,8.4-1.2l0,0c0.9,0,3.6,0,3.9,2.6
				c0.1,1.7-0.9,3.4-2.5,4.1c-0.7,0.4-1.4,0.6-2.2,0.8c-1.6,0.3-2.9,1.5-3.3,3.1c-0.2,0.5-0.3,1-0.4,1.5c-0.2,0.7-0.4,1.3-0.6,2
				c-0.9,2.3-2.9,4.1-5.3,4.9C338.1,354,337.8,354.1,337.4,354.1L337.4,354.1z M335.2,351.7c0.8,0.7,1.9,1,3,0.8
				c1.9-0.6,3.5-2.1,4.3-4c0.2-0.6,0.4-1.1,0.5-1.7c0.1-0.5,0.3-1.1,0.5-1.6c0.5-2.1,2.2-3.6,4.2-4c0.7-0.2,1.3-0.4,1.9-0.7
				c1-0.5,1.7-1.5,1.7-2.6c-0.1-0.8-0.6-1.3-2.4-1.3c-2.7-0.1-5.3,0.2-7.8,1c-1.4,0.6-2.5,1.8-3,3.3c-0.9,2.3-1.6,4.7-2.1,7.1
				c-0.3,1.1-0.6,2.2-0.9,3.3l0.1,0.1L335.2,351.7L335.2,351.7z"/>
			<path class="st6" d="M233.5,792.3c-2.2-2.2-22.7,2.4-22.7,3.6c-0.2,3.9,0.7,18.6,2.9,20.3c2.2,1.7,22.8-1,22.8-4.7
				C236.3,808.3,235.6,794.4,233.5,792.3L233.5,792.3z"/>
			<path class="st10" d="M217.2,817.5c-1.4,0.1-2.8-0.1-4-0.7c-2.8-2.1-3.3-18.4-3.2-20.9c0-0.6,0.6-1,1.6-1.4
				c3.5-1.4,19.9-5.2,22.4-2.8c2.7,2.6,3.1,19.6,3.1,19.7c0,1-0.8,1.8-2.3,2.6C231.1,816,222.4,817.5,217.2,817.5L217.2,817.5z
				 M211.5,796.2c-0.2,5,0.9,18.1,2.6,19.4c1.2,0.9,14.8-0.1,20.1-2.8c1.1-0.6,1.5-1,1.5-1.3c0-4.6-0.9-17-2.7-18.7l0,0
				C231.4,791.3,213.9,794.6,211.5,796.2L211.5,796.2L211.5,796.2z"/>
			<path class="st13" d="M211.6,812c0,0-7.9,14.8,0.3,24.8c0,0,50.2-3.8,64.9-8c0,0-1.9-18.4-14.9-18.4c-8.7,0.1-17.3,0.8-25.9,2
				C235.9,812.4,222.2,820.9,211.6,812L211.6,812z"/>
			<path class="st6" d="M67.3,782c-0.5-3-19.7-11.4-20.5-10.3c-2.4,3-10.3,15.4-9.6,18.1c0.7,2.7,19,12.6,21.2,9.5
				C60.2,796.5,67.9,784.9,67.3,782z"/>
			<path class="st10" d="M56.8,800.6c-0.4,0-0.8,0-1.3-0.1c-5.6-0.9-18.3-7.9-19.1-10.5c-1-3.4,8.1-16.8,9.7-18.8
				c0.4-0.5,1.1-0.4,2.1-0.2c3.7,0.9,19.2,7.5,19.8,10.9l0,0c0.7,3.8-9,17.7-9,17.8C58.4,800.3,57.6,800.6,56.8,800.6z M47.2,772.3
				c-3.1,4-9.9,15.2-9.3,17.2c0.4,1.5,12,8.5,17.9,9.5c1.3,0.2,1.9,0,2-0.2c2.7-3.8,9.2-14.3,8.9-16.7C66.2,780,50,772.3,47.2,772.3
				L47.2,772.3z"/>
			<path class="st13" d="M38.1,785.1c0,0-15.1,7.4-14.3,20.2c0,0,42.8,26.3,57.2,31.6c0,0,9.3-16-1.3-23.6
				c-7.1-5-14.5-9.6-22.1-13.6C57.5,799.7,41.3,798.6,38.1,785.1L38.1,785.1z"/>
			<path class="st14" d="M205.4,349.6c-0.7,5-0.8,10-0.4,14.9c1.5,20.8,12.2,56.8,67.3,64.1c60.5,8,70.8-60.2,70.8-60.2
				c0.5-5.7-15.2-9.6-15.2-9.6c-7.2-0.2-44.3,24.2-50.9,19.9c-6.6-4.3-41.6-83.4-66.4-97.1C195.6,273.3,205.4,349.6,205.4,349.6
				L205.4,349.6z"/>
			<path class="st12" d="M162.3,533.6c1.3,3.5,2.8,7.3,4.3,11.1c10.2,26.2,22.7,56.8,24,72.7c2.4,29.5,16.2,101.5,16,136.4
				c-0.2,28.6,7.9,47.9,7.3,54.4c0,0.1,25.9-5,25.9-5c10-40.9,20.2-140.1,20.2-185c0-44.9-3.9-119.6-20.4-155.1
				c-15.7-33.7-78.3,27.6-85.6,35.9C151.2,502,155.6,516,162.3,533.6L162.3,533.6z"/>
			<path class="st11" d="M162.3,533.6c1.3,3.5,2.8,7.3,4.3,11.1c10.2,26.2,22.7,56.8,24,72.7c2.4,29.5,14.3,181,16.7,190.6
				c4.7,2.6,13.7,0.5,20-2.4c2-25.1-9.7-48.8-12.6-73.5c-5.5-47,10.8-96.6-9.3-141.6c-5.6-12.6-14.8-25.6-13.8-40
				c0.4-7.1,5.1-15.3,1-22.1c-7.2-12.3-20.9-4-27.2,4.4c-0.7-0.3-1.6-0.3-2.3,0.2C162.7,533.3,162.4,533.4,162.3,533.6z"/>
			<path class="st12" d="M172.6,486.1c0,0,0,1.6-0.1,4.4c-0.4,18.2-2.5,89-10.3,158.2c-5.1,44.7-61.7,117.8-99.2,146.3L42.3,784
				l-4.6-2.5c0,0,23.1-41.8,34.3-59.1c29.2-44.9,23-71,23.1-100.6c0.4-61-15.5-90.8,1.1-136.1c0.8-2.1,1.6-4.2,2.5-6.3
				c3.6-8.4,7.7-16.5,12.4-24.3c0.8-1.3,2.1-2.2,3.5-2.6c2.2-0.6,4.5-0.8,6.8-0.4c11.6,1.4,30.1,11.2,46.2,28.3
				C169.3,482.2,171,484.1,172.6,486.1L172.6,486.1z"/>
			<path class="st6" d="M248.5,462.6c-0.7,2.2-58.1,20.8-75.9,23.5c-19.2,3-42.4-1.2-58.9-1.9c-12.7-0.6-21.8-2.2-23-4.8
				c-2.5-5.4,2.6-52.7,1.5-87.6c-0.2-5.6-0.3-11.3-0.3-16.9c-0.3-36.3,2-71.1,10.2-77.4c1.8-1.5,3.9-2.9,6.2-4.4
				c3.9-2.6,7.9-5,12-7.2c7.8-4.1,16.1-7.4,24.7-9.5c16.1-4.3,33.1-4.5,49.3-0.8l0,0c4.6,1,9.2,2.4,13.6,4.1
				c1.1,0.4,2.2,0.8,3.3,1.2c15.5,6.2,13.3,40,10.8,68.3c-1.1,13.1-2.3,25.1-1.9,32.6c0.2,2.5,0.5,5,0.9,7.5
				C224.7,410.1,245.9,447.4,248.5,462.6L248.5,462.6z"/>
			<path class="st10" d="M157.1,487.9c-9.3,0-18.9-0.9-27.7-1.7c-5.7-0.5-11-1-15.8-1.3c-9.9-0.5-22-1.8-23.6-5.2
				c-1.3-2.7-0.8-13.8,0.2-33.1c0.8-16.6,1.9-37.4,1.3-54.8c-0.2-5-0.3-10.3-0.3-16.9c-0.3-31.7,1.3-70.9,10.5-78
				c1.7-1.3,3.6-2.7,6.2-4.4c3.9-2.6,7.9-5.1,12.1-7.2c7.9-4.2,16.2-7.4,24.9-9.6c16.3-4.3,33.3-4.6,49.7-0.8l0.6,0.2
				c4.5,1,8.9,2.4,13.2,4l2.3,0.9l1,0.4c15.5,6.2,14,37.5,11.2,69l-0.4,4.1c-1,11.6-1.9,21.7-1.5,28.3c0.2,2.5,0.5,4.9,0.9,7.4
				c1.9,11.2,9.1,27.6,15.5,42.1c5.5,12.5,10.7,24.3,11.9,31.3v0.3c-1,3.2-62.3,21.8-76.5,24C167.6,487.6,162.4,488,157.1,487.9
				L157.1,487.9z M171.2,273.7c-8.8,0-17.5,1.1-26,3.4c-8.5,2.2-16.8,5.4-24.6,9.5c-4.1,2.1-8.1,4.5-11.9,7.1
				c-2.6,1.7-4.5,3.1-6.2,4.4c-6.7,5.2-10.3,33.2-9.9,76.8c0,6.6,0.2,11.9,0.3,16.9c0.5,17.5-0.5,38.2-1.3,54.9
				c-0.8,16-1.5,29.9-0.3,32.5c0.8,1.6,7.1,3.6,22.4,4.4c4.8,0.2,10.2,0.7,15.8,1.2c13.8,1.3,29.4,2.8,42.9,0.7
				c17.2-2.6,71.2-20.1,75.2-23c-1.3-6.9-6.4-18.4-11.7-30.6c-6.4-14.5-13.7-31-15.6-42.4c-0.5-2.5-0.8-5-0.9-7.5
				c-0.4-6.7,0.5-16.8,1.5-28.5l0.4-4.1c2.7-31,4.2-61.7-10.3-67.5l-1-0.4c-0.8-0.3-1.5-0.6-2.3-0.9c-4.4-1.6-8.9-3-13.5-4h-0.6
				v-0.2C186.3,274.6,178.8,273.7,171.2,273.7L171.2,273.7L171.2,273.7z"/>
			<path class="st2" d="M161.5,273.4l-2.3,0.3l7.4,17.5l14.1-10.6l13,8l-9-14.8c0,0-5.9-1.6-8.4-0.5c-2.5,1.1-1.2,5.5-1.2,5.5
				L161.5,273.4L161.5,273.4z"/>
			<path class="st6" d="M180.7,258.3v15.2c0,0,3.6,6.6,0,7.3c-7.9,1.6-19.2-7.3-19.2-7.3v-23.1L180.7,258.3L180.7,258.3z"/>
			<path class="st10" d="M178.7,281.6c-7.8,0-17.3-7.3-17.7-7.6l-0.3-0.2v-24.6l20.7,8.6v15.5c0.5,0.9,2.3,4.7,1.3,6.8
				c-0.3,0.8-1,1.3-1.9,1.5C180.1,281.6,179.4,281.6,178.7,281.6L178.7,281.6z M162.3,273c1.8,1.3,11.6,8.3,18.4,6.9
				c0.4,0,0.7-0.3,0.8-0.6c0.6-1.2-0.5-4.1-1.3-5.6l-0.1-0.2v-14.9l-17.7-7.4L162.3,273L162.3,273z"/>
			<path class="st2" d="M161.5,265.6v-7.7c0,0,8.3,6.9,17.7,7.4C179.2,265.3,170.1,271.8,161.5,265.6z"/>
			<path class="st6" d="M189.3,225.9c0,0,3.5,15.6,2.1,29.1c-1,9.5-20.9,17.6-31.5,1.3c-10.6-16.3-2-35.3-2-35.3L189.3,225.9
				L189.3,225.9z"/>
			<path class="st10" d="M175.9,266.3c-6.5,0-12.5-3.4-16.6-9.7c-10.7-16.5-2.1-35.8-2-36l0.2-0.5l32.5,5.1l0.1,0.5
				c0,0.2,3.5,15.9,2.1,29.3c-0.5,4.8-5.3,9.3-11.7,10.8C178.9,266.1,177.4,266.3,175.9,266.3L175.9,266.3z M158.4,221.7
				c-1.3,3.1-7.2,19.8,2.1,34.1c4.7,7.2,12,10.3,19.6,8.5c5.7-1.4,10.1-5.4,10.6-9.5c1.3-11.8-1.4-25.6-2-28.3L158.4,221.7
				L158.4,221.7z"/>
			<path class="st15" d="M187.5,208.7c-2.7,0.2-4.6,1.3-7,2.2c-4.1,1.6-7.6,1.6-12,1.7c-5.3,0.1-10.3,0.5-14.4,4.3
				c-6.4,6-8.4,20.3-4.4,28.9c0,1.8,1,3.4,2.6,4.3c2.8,1.6,6.3,0.6,7.9-2.2c0,0,0,0,0-0.1c2.5-4.2,1-10.2,1.2-14.8
				c0-1.1,0.2-2.4,0.2-3.7c12.2,2.1,28.6,4.3,36.7-4.4C206.6,216,197.5,208,187.5,208.7L187.5,208.7z"/>
			<path class="st2" d="M159.3,273.7l2.3-3.2c1.7,2.5,3.7,4.8,6,6.8c1.9,1.4,3.1,3.4,3.5,5.7L159.3,273.7z"/>
			<polygon class="st12" points="180.7,280.7 174.6,285.3 179.9,291.3 185.4,290.9 187.5,284.8 			"/>
			<path class="st14" d="M145,276.4c0,0-8.6,199.6,8.9,222.5c0,0-52.4-0.8-69-8.6c0,0,11.3-189.9,23.3-197.1
				C120.3,285.9,134.3,277.6,145,276.4L145,276.4z"/>
			<path class="st12" d="M185.4,290.9c0,0,14.6,34.1,10.3,71.6l-10.3,10.9l-7.8-9.2c0,0,7.7-48.7,2.4-73L185.4,290.9z"/>
			<path class="st16" d="M210.1,298.8c13.3,9.3,20.9,24.6,20.4,40.7c-1.6,58.2,8.4,71.1,8.4,71.1l-22.1-11.8l-6.8-49.3L210.1,298.8
				L210.1,298.8z"/>
			<path class="st14" d="M198.7,276.8c0,0,9.9,67.4,9.1,91.5c-0.8,24,24,111,24,111l20.9-8.3c0,0-17.3-61-23.2-78.2
				c-5.9-17.2,0-97.7-12.6-107.6C204.3,275.3,198.7,276.7,198.7,276.8L198.7,276.8z"/>
			<path class="st11" d="M110.5,578.6c-5.7-29.4-8.9-56.9-0.2-86.2c0.3-0.8,0-1.8-0.8-2.2c-0.2-0.4-0.6-0.7-1.1-0.9
				c-3.3-1-7.6-2.6-12.1-3.6c-16.6,45.3-0.8,75.1-1.1,136.1c-0.2,29.6,6.1,55.7-23.1,100.6c-11.2,17.3-34.3,59.1-34.3,59.1l4.6,2.5
				c16.8-15.3,33.9-30.9,44-51.5c11.2-23.3,18.6-50.1,24-75.2C116.2,630.5,115.6,605.4,110.5,578.6L110.5,578.6z"/>
			<path class="st16" d="M114.6,309.9c-9.9,12.8-11.5,45.9-19.8,59.7c-1,1.7-2,3.5-2.8,5.3c0,5.6,0.1,11.3,0.3,16.9
				c1.1,34.9-9.8,93-7.3,98.4c1.2,2.6,16.8,5.6,29.5,6.2c2.3-4.1,0.6-21,0.2-25.4c-0.7-8.6-1.5-17.2-2.3-25.8
				c-1.6-18.5-3.4-36.4,0.4-54.8c3.9-18.9,12.6-33.7,16.4-52.5c4.7-22.8-7.6-35.7-7.9-36.1C122.7,299.5,116.4,307.6,114.6,309.9
				L114.6,309.9z"/>
			<path class="st17" d="M78,497.1L78,497.1c8.4,14.6,27.1,19.6,41.7,11.2l193.8-111.8c14.6-8.4,19.6-27.1,11.2-41.7l0,0
				c-8.4-14.6-27.1-19.6-41.7-11.2c0,0,0,0,0,0L89.3,455.5C74.7,463.9,69.7,482.5,78,497.1L78,497.1z"/>
			<path class="st9" d="M414.1,151.3c-57.1,33-81,103.2-55.9,164.2l-283,163.2l25.8,12.6l268.2-154.7c39.4,61,120.8,78.6,181.8,39.2
				s78.6-120.8,39.2-181.8C552.2,135.2,474.8,116.4,414.1,151.3L414.1,151.3z M577.2,209.2c31,53.9,12.5,122.6-41.4,153.6
				c-53.9,31-122.6,12.5-153.6-41.4c-31-53.9-12.5-122.6,41.4-153.6C477.4,136.9,546.2,155.4,577.2,209.2L577.2,209.2z"/>
			<path class="st8" d="M101,492.1l-27.4-13.4l1.2-0.7l282.5-162.9c-24.8-61.2-0.7-131.4,56.5-164.5l0.4,0.6l-0.4-0.6
				c63.3-36.5,144.2-14.7,180.7,48.6s14.7,144.2-48.6,180.7C485,415,407.3,396.4,369,337.6L101,492.1z M76.7,478.7l24.3,11.8
				l268.5-154.9l0.4,0.6c39.1,60.8,120.2,78.4,181,39.3s78.4-120.2,39.3-181s-120.2-78.4-181-39.3c-53.2,34.2-74.3,101.6-50.2,160
				l0.2,0.6l-0.5,0.3L76.7,478.7L76.7,478.7z M480,378.6c-10.1,0-20.1-1.3-29.8-3.9c-60-16.3-95.4-78.2-79.1-138.2
				c16.3-60,78.2-95.4,138.2-79.1s95.4,78.2,79.1,138.2C575.2,344.6,530.7,378.6,480,378.6L480,378.6L480,378.6z M479.4,153.5
				c-62,0-112.3,50.2-112.4,112.3c0,62,50.2,112.3,112.3,112.4c62,0,112.3-50.2,112.4-112.3c0-50.7-34-95.2-82.9-108.5
				C499.2,154.9,489.3,153.6,479.4,153.5z"/>
			<polygon class="st17" points="81.3,498.2 74.1,479.3 75.6,464.1 91.1,467.7 99.9,488.5 104.2,498.5 			"/>
			<path class="st0" d="M417.1,141.8c-57.5,33.2-81.3,103.9-55.6,165.1L78,470.4L89.8,491l282.9-163.1
				c39.8,60.8,121.3,77.8,182.1,38c60.8-39.8,77.8-121.3,38-182.1C554.5,125.4,477.5,107.1,417.1,141.8L417.1,141.8z M580.2,199.7
				c31,53.8,12.5,122.6-41.3,153.7c-53.8,31-122.6,12.5-153.7-41.3c-31-53.8-12.5-122.6,41.3-153.7c0,0,0,0,0,0
				C480.4,127.5,549.2,146,580.2,199.7L580.2,199.7z"/>
			<path class="st8" d="M89.6,491.9L77,470.1l283.6-163.5c-27.9-67.5,4.2-144.7,71.6-172.6c67.5-27.9,144.7,4.2,172.6,71.6
				c27.9,67.5-4.2,144.7-71.6,172.6c-58.5,24.2-126,3.5-160.8-49.4L89.6,491.9z M79,470.5l11.2,19.4l282.8-163l0.4,0.6
				c39.6,60.4,120.7,77.3,181.1,37.7s77.3-120.7,37.7-181.1c-38-57.9-114.5-76.2-174.5-41.7l-0.4-0.6l0.4,0.6
				c-57.2,33-80.9,103.3-55.3,164.2l0.2,0.6l-0.5,0.3L79,470.5z M482.9,369c-62.4,0-113-50.7-113-113.1c0-62.4,50.7-113,113.1-113
				c62.4,0.1,113,50.7,113,113.1c0,40.5-21.7,77.9-56.9,98C522,363.8,502.6,369,482.9,369L482.9,369L482.9,369z M482.4,144
				c-62,0-112.3,50.3-112.4,112.3c0,62,50.3,112.3,112.3,112.4c62,0,112.3-50.3,112.4-112.3c0-50.7-34-95.2-83-108.5
				C502.1,145.4,492.3,144,482.4,144L482.4,144z"/>
			<path class="st9" d="M79.4,483.3L79.4,483.3c8.4,14.6,27.1,19.6,41.7,11.2l192.1-111.4c14.6-8.4,19.7-27.1,11.3-41.7l0,0l0,0
				c-8.4-14.6-27.1-19.6-41.7-11.2L90.7,441.6C76,450,71,468.7,79.4,483.3L79.4,483.3z"/>
			<path class="st8" d="M105.9,499.3c-17.3,0-31.3-14-31.3-31.2c0-11.2,6-21.5,15.7-27.1l192.1-111.4c15-8.6,34.1-3.5,42.7,11.5
				c8.6,15,3.5,34.1-11.5,42.7l0,0L121.5,495.1C116.7,497.9,111.4,499.3,105.9,499.3L105.9,499.3z M298,326.8
				c-5.2,0-10.3,1.4-14.8,4L91,442.2c-14.3,8.2-19.2,26.4-11,40.7c8.2,14.3,26.4,19.2,40.7,11l0,0l192.1-111.4
				c14.3-8.2,19.1-26.5,10.9-40.7C318.4,332.5,308.6,326.8,298,326.8L298,326.8z"/>
			<circle class="st6" cx="482.7" cy="255.8" r="112.5"/>
			<g>
				<defs>
					<circle id="SVGID_00000050641966052716089210000004486597577666373295_" cx="482.7" cy="255.8" r="112.5"/>
				</defs>
				<clipPath id="SVGID_00000067928739587025121320000018423751153107587258_">
					<use xlink:href="#SVGID_00000050641966052716089210000004486597577666373295_"  style="overflow:visible;"/>
				</clipPath>
				<g style="clip-path:url(#SVGID_00000067928739587025121320000018423751153107587258_);">
					<g>
						<rect x="418.6" y="347.1" class="st11" width="108.1" height="169.2"/>
						<rect x="263.1" y="466" class="st13" width="108.1" height="50.4"/>
						<rect x="566.6" y="284.2" class="st14" width="108.1" height="232.2"/>
						<rect x="714.6" y="222.4" class="st12" width="108.1" height="293.9"/>
						<path class="st12" d="M777.4,78l-5.7,4.3l-9.3,7.1l-1.9,1.5l0,0l-80.8,61.7l-24.2,18.5l0,0l-17.3,13.2l-0.7-0.5l-2.1-1.6
							l-17.4-13.8l-39.1-31l-7.9-6.2l-1.6-1.2l-13.3-10.5l-9,15.3L494,225.3l-10.8,18.4l-7.4,2.2l-13.1,4l0,0l-64.2,19.3l0,0
							l-12.2,3.7l-8.4,8.7l-2,2.1l-5.4,5.6l0,0l-77.3,80.4l0,0L274,389.6l-0.6-0.6l0,0l-18.3-18.8c0.9-3.1,2.6-5.9,4.9-8.2
							c0.7-0.7,1.4-1.3,2.2-1.9l3.8,3.9l7.7,7.9l0.2,0.2l11.8-12.3l2.6-2.7l73.1-76l0,0l17.7-18.4l0.6-0.6l13.9-4.2l12.2-3.7
							l53.3-16l0,0l15.9-4.8l8.5-14.3l55.1-93.6l14.2-24.2l23.6,18.7l49.8,39.2l12.2,9.7l10.3-8l0,0l4-3.1l15.9-12.2l84.5-64.5
							l11.2-8.6l5.7-4.4L777.4,78L777.4,78z"/>
						<polygon class="st12" points="801,143.9 856.9,9.8 712.8,28.4 						"/>
						<path class="st14" d="M294.2,377.5c-0.7,11-10.2,19.3-21.2,18.6c0,0,0,0,0,0l0,0c-11-0.8-19.3-10.3-18.5-21.3c0,0,0,0,0,0
							c0.1-1.5,0.4-3.1,0.9-4.5c0.9-3.1,2.6-5.9,4.9-8.2c0.7-0.7,1.4-1.3,2.2-1.9c3.8-2.9,8.5-4.3,13.3-4h0.4
							c3.5,0.3,6.8,1.5,9.7,3.6c3.5,2.4,6,5.9,7.4,9.9C294,372.2,294.4,374.9,294.2,377.5L294.2,377.5z"/>
						<path class="st14" d="M398.5,272.4c-0.7,11-10.3,19.3-21.3,18.6c-11-0.7-19.3-10.3-18.6-21.3c0.7-11,10.3-19.3,21.3-18.6
							C390.9,251.8,399.2,261.4,398.5,272.4L398.5,272.4L398.5,272.4z"/>
						<path class="st14" d="M499,240c-0.7,11-10.3,19.3-21.3,18.6c-11-0.7-19.3-10.3-18.6-21.3c0.7-11,10.3-19.3,21.3-18.6
							c0,0,0,0,0,0C491.4,219.5,499.7,229,499,240C499,240,499,240,499,240L499,240z"/>
						<path class="st14" d="M656.2,177.9c-0.7,11-10.3,19.3-21.3,18.6c-11-0.7-19.3-10.3-18.6-21.3s10.3-19.3,21.3-18.6
							C648.6,157.4,656.9,166.9,656.2,177.9L656.2,177.9z"/>
						<path class="st14" d="M576.7,118.7c-0.7,11-10.3,19.3-21.3,18.6S536.1,127,536.9,116c0.7-11,10.3-19.3,21.3-18.6c0,0,0,0,0,0
							C569.1,98.2,577.4,107.7,576.7,118.7L576.7,118.7z"/>
					</g>
				</g>
			</g>
			<circle class="st19" cx="482.7" cy="255.8" r="112.5"/>
			<path class="st6" d="M192,444.9c-9.3-5.8-3.9-4.7,2.1-0.5c3.1,2.2,5.4,0.8,3.3-2.8c-3.3-5.5-10.6-8.1-17.2-8.6l0,0
				c1.5-0.4,2.9-1.2,4-2.4c1.6-1.9-0.6-2.7-2.3-2.6c-3.1,0.1-9,4.4-11.4,6.3l0,0c-4.7,2.4-11.6,8.2-9.9,13.1c1,2.9,3.4,1.9,5.8,3
				c3,1.2,9.2,9.6,12.9,9c5-0.8-4.2-6.1-1.4-7.5c1-0.5,13,9.3,11,2c-0.4-1.6-6.7-7.1-3.7-6.9c3,1.8,9.1,6.9,11,3.9
				C197.2,449.4,193.9,446,192,444.9L192,444.9z"/>
			<path class="st10" d="M179,460.1c-2.6,0-5.8-3-8.6-5.6c-1.3-1.3-2.7-2.5-4.2-3.4c-0.7-0.3-1.4-0.5-2.1-0.5
				c-1.8,0-3.4-1.1-4.1-2.9c-1.9-5.4,5-11.3,10.1-14c5.7-4.2,9.5-6.3,11.8-6.4c1.3-0.2,2.6,0.4,3.4,1.4c0.4,0.9,0.1,1.8-0.6,2.5
				c-0.5,0.6-1.2,1.1-1.9,1.5c4.6,0.8,11.7,2.9,15.1,8.7c1.6,2.7,0.7,4,0.3,4.4c-1,0.9-2.8,0.7-4.6-0.6c-1.1-0.7-2.2-1.4-3.3-2.1
				c0.6,0.4,1.2,0.8,2,1.3l0,0c1.8,1.1,5.8,4.9,4.5,6.9c-0.4,0.6-1,1.1-1.7,1.2c-2.3,0.5-5.8-1.8-8.5-3.7l-1.2-0.8
				c0.6,0.9,1.3,1.8,2,2.6c0.9,0.9,1.7,2,2.2,3.1c0.2,0.6,0.7,2.4-0.5,3.3c-1.5,1.1-4.4-0.5-8.5-3c-0.8-0.5-1.7-1-2.6-1.5
				c-0.1,0.4,1,1.7,1.5,2.4c1.2,1.4,2.2,2.7,1.8,3.9c-0.4,1.2-1.6,1.2-2,1.2L179,460.1L179,460.1z M171.1,434.7L171.1,434.7
				l-0.2,0.2c-4.5,2.4-11.1,7.8-9.5,12.2c0.5,1.5,1.5,1.7,3,1.9c0.9,0.1,1.7,0.3,2.5,0.6c1.7,1,3.3,2.3,4.6,3.7
				c2.6,2.5,5.9,5.5,7.9,5.2c0.8-0.1,0.9-0.3,0.9-0.3c0.1-0.4-1-1.8-1.6-2.4c-1.1-1.3-2.1-2.5-1.8-3.6c0.1-0.5,0.4-0.9,0.9-1.1
				c0.6-0.3,1.4,0.1,3.9,1.6c1.8,1.1,6,3.6,6.8,3c0.1-0.1,0.2-0.6,0-1.7c-0.5-0.9-1.2-1.8-1.9-2.6c-1.9-2.3-3-3.6-2.5-4.6
				c0.2-0.3,0.6-0.7,1.5-0.7h0.2l0.2,0.1c0.5,0.3,1.1,0.7,1.8,1.2c2.3,1.5,5.7,3.8,7.4,3.5c0.3-0.1,0.6-0.3,0.8-0.5
				c0.4-0.6-1.8-3.5-4.1-4.9c-5.4-3.4-5.4-4-5.4-4.5v-0.4l0.5-0.3c1.3-0.6,6.2,2.4,7.8,3.6c1.3,0.9,2.4,1.1,2.8,0.8
				c0.4-0.3,0.2-1.2-0.6-2.6c-3.9-6.5-12.9-8-16.7-8.3l-3.9-0.3l3.7-1.1c1.4-0.4,2.7-1.1,3.7-2.1c0.3-0.4,0.4-0.7,0.4-0.8
				s-1-0.6-2-0.6C180,428.8,176.4,430.8,171.1,434.7L171.1,434.7z"/>
			<path class="st14" d="M3.6,432.9c12.3,39.4,162.9,17.5,162.9,17.5l1-14.2c-1.3-0.7-108.7-14.2-106-25.2
				c1.2-4.8,59.9-56.3,71.3-77.8c5.8-10.8,5.4-21.9,4.6-30.4c-1.1-11.8-4.7-19.9-16.2-17.1c-23.2,5.7-68,30.3-90.1,55.1
				C6.8,368.1-7,398.8,3.6,432.9L3.6,432.9z"/>
			<path class="st6" d="M344.2,365.3c0-0.2-0.1-0.5-0.3-0.7c1.1,0.1,2.2-0.2,3-1c0.8-1.1,0.3-2.5-0.1-3.6c0,0,0-0.1-0.1-0.1
				c2.5,0.3,5,0,5.9-2.1c0.9-2.1-0.4-3.5-2.2-4.7c0.9,0,1.8,0,2.6-0.2c3.2-0.6,3-4.2,1.1-6.2c-1.2-1.3-5.2-2.6-7.5-3
				c-1.6-0.3-3.9-0.9-5.6-0.4c-3,1-1,4.1,0.5,5.9c-2.2-0.9-4.5-1.1-5.2,1.8c-0.5,1.8,0,3.6,1.2,4.9c-1.1-0.3-2.2-0.3-3.3,0
				c-2.6,0.8-1.5,3.9-0.2,5.4c0.6,0.7,1.3,1.3,2.1,1.8c-0.2,0-0.4,0.1-0.5,0.3c-1.3,1.1-0.2,3.4,0.7,4.3c1.6,1.9,4.4,2.1,6.2,0.6
				C343.5,367.5,344,366.4,344.2,365.3L344.2,365.3z"/>
			<path class="st10" d="M339.9,370c-1.6,0-3-0.7-4.1-1.9c-0.9-1-1.5-2.3-1.5-3.7c0-0.5,0.2-1.1,0.5-1.5c-0.5-0.4-1-0.8-1.4-1.3
				c-1.2-1.3-1.7-3-1.5-4.7c0.3-0.9,1-1.6,2-1.8c0.7-0.2,1.4-0.3,2-0.2c-0.7-1.3-0.9-2.8-0.5-4.2c0.2-1.1,0.9-2,1.8-2.5
				c0.7-0.3,1.5-0.4,2.3-0.3c-0.7-1-1-2.2-0.8-3.5c0.3-0.9,1-1.6,1.9-1.8c1.8-0.4,3.6-0.3,5.3,0.2l0.6,0.1c1.7,0.3,6.4,1.6,7.9,3.3
				c1.3,1.4,1.8,3.3,1.3,5.1c-0.4,1.3-1.5,2.2-2.9,2.3c-0.3,0-0.5,0.1-0.8,0.1c1.2,1.1,1.6,2.9,0.9,4.4c-0.6,1.3-2,2.7-5.5,2.6
				c0.5,1.1,0.4,2.3-0.3,3.3c-0.7,0.7-1.6,1.2-2.5,1.2l0,0C344.6,367.9,342.5,369.9,339.9,370L339.9,370L339.9,370z M335.9,356.4
				c-0.5,0-1,0.1-1.4,0.2c-0.5,0.1-0.8,0.4-1,0.8c-0.1,1.2,0.3,2.4,1.2,3.4c0.5,0.6,1.2,1.2,1.9,1.6l1.5,0.9l-1.6,0.5
				c-0.1,0-0.2,0.1-0.2,0.1c-0.2,0.2-0.3,0.4-0.3,0.7c0,1,0.4,1.9,1.1,2.6c1,1.2,2.6,1.6,4.1,1.2c1.4-0.5,2.3-1.7,2.4-3.1
				c0,0,0-0.1-0.1-0.1l-1.1-1.2h1.7c0.9,0.1,1.7-0.2,2.4-0.7c0.5-0.7,0.2-1.6-0.2-2.8l-0.7-1.2h1.3c1.9,0.2,4.3,0.1,5.1-1.7
				c0.4-0.8,0.6-2.1-1.9-3.8l-2.1-1.5l2.6,0.1c0.8,0,1.6,0,2.4-0.2c0.8-0.1,1.5-0.6,1.7-1.4c0.3-1.3-0.1-2.7-1-3.7
				c-0.9-1.1-4.4-2.3-7.1-2.8l-0.6-0.1c-1.5-0.5-3-0.5-4.5-0.3c-0.8,0.3-0.9,0.7-1,0.9c-0.2,0.8,0.5,2.2,1.8,3.9l1.9,2.2l-2.7-1.1
				c-1-0.5-2.1-0.7-3.2-0.3c-0.6,0.4-1,0.9-1,1.6c-0.4,1.5,0,3.1,1.1,4.3l1.3,1.6l-2-0.4C337,356.4,336.4,356.4,335.9,356.4
				L335.9,356.4z"/>
			<path class="st20" d="M457.8,716.1c18.1-10,27.9-34.4,22.7-60.1c-5.3-25.6-23.7-43.9-44.1-46.2l-0.4-1.8l-11.3,2.3
				c-24.6,5.1-39.5,33.7-33.2,64c6.2,30.3,31.2,50.7,55.8,45.7l11-2L457.8,716.1L457.8,716.1z"/>
			<path class="st12" d="M439.7,721.6c-22.3,0-43.3-19.5-49-47.1c-3.1-14.2-1.3-29,5.1-41.9c6.4-12.3,16.6-20.4,28.7-22.9l12.1-2.5
				l0.4,2c20.9,2.6,39.1,21.7,44.3,46.8c5.2,25.2-4.1,50.1-22.6,60.6l0.4,2.2l-11.7,2.1C444.8,721.3,442.3,721.6,439.7,721.6
				L439.7,721.6z M435.4,608.9l-10.6,2.2c-11.7,2.4-21.5,10.3-27.7,22.1c-6.3,12.7-8.1,27.1-5,41c6.1,29.9,30.7,50.1,54.8,45.1
				l10.3-1.8l-0.4-1.7l0.5-0.3c18.2-10.1,27.4-34.4,22.3-59.3c-5.1-24.6-22.9-43.4-43.4-45.6h-0.5L435.4,608.9L435.4,608.9z"/>
			<path class="st6" d="M491.8,653.8c6.2,30.3-9,59.3-33.6,64.3c-24.6,5.1-49.2-15.8-55.4-46.1s8.7-59,33.3-64
				C460.5,603.1,485.5,623.5,491.8,653.8L491.8,653.8z"/>
			<path class="st8" d="M450.8,719.5c-22.1,0-43-19.7-48.7-47.3c-6.3-30.6,8.9-59.6,33.7-64.7c12.1-2.5,24.6,1,35.3,9.7
				c22.4,19.6,28.9,51.7,15.9,78.5c-6.5,12.4-16.7,20.5-28.8,23C455.8,719.2,453.3,719.5,450.8,719.5L450.8,719.5z M443.5,607.9
				c-2.5,0-5,0.3-7.5,0.8c-24.2,5-38.9,33.3-32.8,63.2c6.1,29.9,30.7,50.5,54.7,45.6c11.7-2.4,21.6-10.3,27.9-22.4
				c6.4-12.8,8.3-27.4,5.2-41.3l0,0c-2.7-13.9-10-26.6-20.8-35.7C462.9,611.7,453.4,608.1,443.5,607.9L443.5,607.9z"/>
			<path class="st20" d="M483.8,655.4c5.1,24.9-7.4,48.7-27.6,52.9c-20.2,4.2-40.4-13-45.5-37.8s7.1-48.4,27.3-52.6
				C458.2,613.7,478.7,630.5,483.8,655.4L483.8,655.4z"/>
			<path class="st12" d="M450.1,709.6c-8.4-0.2-16.5-3.3-22.8-8.9c-9-7.8-15.1-18.5-17.4-30.2c-5.2-25.2,7.4-49.2,27.9-53.4
				c10-2,20.3,0.8,29.2,8c18.5,16.2,23.9,42.7,13.1,64.8c-5.3,10.2-13.8,17-23.8,19C454.3,709.4,452.2,709.6,450.1,709.6
				L450.1,709.6z M444.2,618c-2,0-4.1,0.2-6.1,0.6c-19.8,4.1-31.7,27.2-26.7,51.6c2.2,11.4,8.1,21.8,16.9,29.4
				c8.4,7,18.3,9.8,27.8,7.9c9.5-2,17.6-8.5,22.8-18.3c5.2-10.4,6.7-22.3,4.2-33.7l0,0c-2.2-11.4-8.1-21.7-16.9-29.2
				C460,621.1,452.3,618.2,444.2,618L444.2,618L444.2,618z"/>
			<path class="st6" d="M445.7,640c1.4-0.1,2.8-0.1,4.1,0.1c1.3,0.2,2.6,0.7,3.8,1.3c1.2,0.7,2.3,1.5,3.3,2.6c1,1.2,1.9,2.6,2.5,4
				l-4.9,1.1c-0.8-1.4-2-2.6-3.3-3.4c-1.4-0.8-2.9-1.1-4.4-1l3.2,13.7c1.1,0.2,2.2,0.4,3.3,0.6c1.1,0.2,2.1,0.5,3.1,0.8
				c1,0.3,1.9,0.7,2.9,1.1c0.9,0.4,1.7,0.9,2.5,1.6c0.7,0.6,1.4,1.4,1.9,2.2c0.6,0.9,1,1.9,1.2,3c0.4,1.7,0.4,3.4,0,5.1
				c-0.4,1.5-1,2.9-2,4.1c-0.9,1.2-2.1,2.3-3.4,3.1c-1.3,0.8-2.7,1.5-4.1,2l1.6,6.9l-5,1.1l-1.6-7c-1.5,0-3.1-0.2-4.5-0.7
				c-1.5-0.5-2.9-1.2-4.1-2.2c-1.3-1-2.5-2.1-3.5-3.4c-1.1-1.4-1.9-2.9-2.5-4.5l5.2-1.2c0.4,1,0.9,1.9,1.5,2.7
				c0.6,0.8,1.2,1.5,1.9,2.2c0.7,0.6,1.5,1.1,2.3,1.5c0.8,0.4,1.7,0.6,2.6,0.7l-3.4-14.9c-1.5-0.3-3-0.6-4.4-1
				c-1.4-0.4-2.7-0.9-4-1.6c-1.2-0.6-2.2-1.5-3.1-2.5c-1.8-2.3-2.4-5.2-1.9-8c0.3-1.3,0.8-2.6,1.6-3.7c0.8-1.2,1.8-2.2,3-3
				c1.2-0.9,2.5-1.6,3.9-2.2l-1-4.4l5-1.2L445.7,640L445.7,640z M437.5,652.7c0.1,0.7,0.5,1.3,0.9,1.9c0.4,0.5,0.9,1,1.5,1.4
				c0.7,0.4,1.4,0.8,2.1,1c0.8,0.3,1.7,0.5,2.5,0.7l-2.7-11.8c-1.5,0.6-2.8,1.6-3.7,3C437.4,650.1,437.2,651.4,437.5,652.7
				L437.5,652.7z M459.5,669c-0.2-0.7-0.5-1.4-1-1.9c-0.6-0.6-1.2-1-1.9-1.4c-0.8-0.4-1.7-0.8-2.5-1c-0.9-0.3-1.9-0.5-2.9-0.7
				l3.1,13.3c1-0.3,1.9-0.8,2.7-1.5c0.7-0.6,1.3-1.2,1.8-2c0.5-0.7,0.8-1.5,0.9-2.3C459.7,670.6,459.7,669.8,459.5,669L459.5,669
				L459.5,669z"/>
			<path class="st8" d="M451.5,690.8l-1.6-7.1c-1.4,0-2.9-0.3-4.2-0.8c-1.5-0.5-3-1.3-4.3-2.3c-1.4-1-2.6-2.2-3.6-3.5
				c-1.1-1.4-2-3-2.6-4.7l-0.3-0.7l6.4-1.5l0.2,0.5c0.4,0.9,0.9,1.8,1.5,2.6c0.5,0.8,1.1,1.5,1.8,2.1c0.6,0.6,1.4,1,2.1,1.4
				c0.5,0.2,1,0.4,1.5,0.5l-3.1-13.7c-1.5-0.3-2.8-0.6-4.1-0.9c-1.4-0.4-2.8-0.9-4.1-1.6c-1.2-0.7-2.4-1.6-3.3-2.7
				c-1-1.2-1.7-2.6-2-4.2c-0.3-1.4-0.3-2.9,0-4.3c0.3-1.4,0.9-2.7,1.7-3.9c0.8-1.2,1.8-2.3,3-3.2c1.1-0.8,2.3-1.5,3.5-2.1l-1-4.5
				l6.2-1.5l1.1,4.4c1.2-0.1,2.5,0,3.8,0.2c1.4,0.2,2.8,0.7,4,1.3c1.3,0.7,2.5,1.6,3.5,2.7c1.1,1.2,2,2.7,2.6,4.2l0.3,0.7l-6.1,1.4
				l-0.2-0.4c-0.8-1.3-1.8-2.4-3.1-3.2c-1-0.6-2.1-0.9-3.3-0.9l3,12.6l2.9,0.5c1.1,0.2,2.1,0.5,3.2,0.8c1,0.3,2,0.7,3,1.1
				c0.9,0.4,1.8,1,2.6,1.7c0.8,0.7,1.5,1.5,2,2.3c0.6,1,1,2,1.2,3.1c0.5,1.8,0.5,3.6,0.1,5.4c-0.4,1.6-1.1,3-2.1,4.3
				c-1,1.3-2.2,2.4-3.5,3.3c-1.2,0.8-2.4,1.4-3.7,1.9l1.6,7L451.5,690.8L451.5,690.8z M450.8,682.4l1.6,6.9l3.8-0.9l-1.6-6.8
				l0.5-0.2c1.4-0.5,2.7-1.2,4-2c1.2-0.8,2.3-1.8,3.2-3c0.9-1.2,1.5-2.5,1.8-3.9c0.4-1.6,0.3-3.2-0.1-4.8c-0.2-1-0.6-1.9-1.1-2.7
				c-0.5-0.8-1.1-1.5-1.8-2c-0.7-0.6-1.5-1.1-2.3-1.5c-0.9-0.4-1.8-0.8-2.8-1.1c-1-0.3-2-0.5-3.1-0.8l-3.3-0.6l-0.4-0.1l-3.4-14.9
				h0.7c1.6-0.1,3.3,0.2,4.7,1c1.3,0.8,2.5,1.9,3.3,3.3l3.8-0.9c-0.5-1.2-1.2-2.2-2.1-3.2c-0.9-1-1.9-1.8-3.1-2.5
				c-1.1-0.6-2.4-1-3.6-1.2c-1.3-0.2-2.6-0.3-4-0.2h-0.5l-1-4.3l-3.8,0.9l1,4.3l-0.5,0.2c-1.3,0.5-2.6,1.2-3.7,2.1
				c-1.1,0.8-2,1.8-2.7,3c-0.7,1-1.2,2.2-1.5,3.5c-0.3,1.3-0.3,2.6,0,3.8c0.3,1.3,0.9,2.6,1.7,3.6c0.8,1,1.8,1.8,3,2.4
				c1.2,0.6,2.5,1.1,3.8,1.5c1.4,0.4,2.8,0.7,4.4,1l0.4,0.1l3.6,16.2l-0.8-0.1c-1-0.1-1.9-0.3-2.8-0.7c-0.9-0.4-1.7-0.9-2.5-1.6
				c-0.8-0.7-1.5-1.4-2-2.3c-0.5-0.8-1-1.5-1.4-2.4l-4,0.9c0.6,1.3,1.3,2.6,2.2,3.7c1,1.3,2.1,2.4,3.4,3.3c1.2,0.9,2.6,1.6,4,2.1
				c1.4,0.5,2.9,0.7,4.3,0.7L450.8,682.4L450.8,682.4z M453.8,678.1l-3.4-14.9l0.9,0.2c1,0.2,2,0.5,3,0.7c0.9,0.3,1.8,0.6,2.6,1.1
				c0.8,0.4,1.5,0.9,2.1,1.5c0.6,0.6,1,1.4,1.2,2.2l0,0c0.2,0.9,0.2,1.8,0.1,2.7s-0.5,1.8-1,2.5c-0.5,0.8-1.2,1.5-2,2.1
				c-0.9,0.7-1.8,1.2-2.8,1.6L453.8,678.1L453.8,678.1z M452,664.8l2.7,11.6c0.6-0.3,1.3-0.7,1.8-1.1c0.7-0.5,1.2-1.1,1.7-1.8
				c0.4-0.6,0.7-1.3,0.8-2.1c0.1-0.7,0.1-1.5-0.1-2.2c-0.1-0.6-0.4-1.2-0.9-1.6c-0.5-0.5-1.1-1-1.8-1.3c-0.8-0.4-1.6-0.7-2.4-1
				C453.3,665.1,452.7,664.9,452,664.8L452,664.8L452,664.8z M445.3,658.6l-1-0.2c-0.9-0.2-1.7-0.4-2.6-0.7
				c-0.8-0.3-1.5-0.6-2.2-1.1c-0.6-0.4-1.2-0.9-1.7-1.5c-0.5-0.6-0.8-1.4-1-2.1c-0.4-1.5-0.1-3,0.7-4.3c0.9-1.5,2.3-2.6,4-3.2
				l0.7-0.3L445.3,658.6L445.3,658.6z M441.4,646.9c-1.1,0.5-2.1,1.3-2.7,2.3c-0.6,1-0.8,2.2-0.5,3.4l0,0c0.1,0.6,0.4,1.2,0.8,1.7
				c0.4,0.5,0.9,0.9,1.4,1.2c0.6,0.4,1.3,0.7,2,0.9c0.5,0.2,1,0.3,1.5,0.5L441.4,646.9L441.4,646.9z"/>
			<path class="st20" d="M622.9,126.3c21.5-9.9,34.7-37,30.9-66.7c-3.9-29.7-23.4-52.2-46.5-56.4L607,1.1l-13.1,1.7
				C565.4,6.5,546,38,550.6,73s31.4,60.5,59.8,56.8l12.7-1.3L622.9,126.3L622.9,126.3z"/>
			<path class="st12" d="M604.9,130.9c-26.7,0-50.7-24.7-55.1-57.8c-2.2-17.1,1.1-33.9,9.4-47.4S579.8,3.9,593.8,2l13.9-1.8l0.3,2.3
				c23.6,4.7,42.8,28,46.5,57c3.8,29.3-8.9,56.8-30.8,67.2l0.3,2.5l-13.4,1.5C608.7,130.9,606.8,131,604.9,130.9L604.9,130.9z
				 M606.4,1.9L594,3.5c-13.6,1.8-25.5,9.9-33.5,23c-8,13.1-11.3,29.6-9.2,46.4c4.5,34.6,31,59.8,59,56.2l12-1.2l-0.3-2.1l0.5-0.2
				c21.7-10,34.2-37.1,30.5-65.9c-3.8-28.6-22.6-51.5-45.9-55.8l-0.5-0.1L606.4,1.9L606.4,1.9z"/>
			<path class="st6" d="M666.9,57.9c4.6,35.1-15.2,66.9-43.7,70.6c-28.5,3.7-54.8-22.1-59.4-57.2C559.2,36.3,578.5,4.8,607,1.1
				C635.5-2.6,662.3,22.8,666.9,57.9L666.9,57.9z"/>
			<path class="st8" d="M617.8,129.6c-26.5,0-50.4-24.9-54.7-58.2C558.4,36,578.1,4.1,606.9,0.4c14-1.8,28,3.2,39.5,14
				c11.4,10.9,18.9,26.2,21.2,43.4c2.4,16.5-1,33.3-9.6,47.6c-8.4,13.6-20.8,22.1-34.8,23.9C621.4,129.5,619.6,129.6,617.8,129.6
				L617.8,129.6z M612.6,1.5c-1.8,0-3.7,0.1-5.5,0.4c-28,3.7-47.2,34.8-42.7,69.5c4.2,32.6,27.6,56.9,53.3,56.9
				c1.8,0,3.5-0.1,5.3-0.3c13.6-1.8,25.6-10,33.7-23.2c8.4-14,11.7-30.5,9.4-46.6l0,0c-2.2-16.8-9.6-31.9-20.8-42.5
				C635.8,6.3,624.3,1.5,612.6,1.5L612.6,1.5z"/>
			<path class="st20" d="M657.7,59.1c3.8,28.8-12.5,55-35.9,58c-23.4,3-45-18.1-48.8-47s12.2-54.7,35.6-57.7
				C631.9,9.4,653.9,30.3,657.7,59.1L657.7,59.1z"/>
			<path class="st12" d="M617.3,118.2c-9.9,0-19.7-4.2-27.8-12c-9.6-9.7-15.7-22.3-17.3-35.9c-3.8-29.2,12.4-55.5,36.2-58.6
				c11.5-1.5,23.1,2.6,32.5,11.6c9.7,9.6,15.9,22.2,17.5,35.7c1.9,13.6-0.8,27.4-7.9,39.2c-6.9,11.2-17.1,18.2-28.7,19.7
				C620.3,118,618.8,118.1,617.3,118.2L617.3,118.2z M613.1,12.9c-1.5,0-3,0.1-4.4,0.3c-23,3-38.7,28.5-35,56.9
				c1.5,13.2,7.4,25.6,16.8,35c9,8.8,20.1,12.8,31.2,11.3s20.9-8.2,27.6-19c6.9-11.5,9.6-25,7.7-38.2c-1.5-13.2-7.5-25.5-17-34.8
				C632.1,16.9,622.7,12.9,613.1,12.9L613.1,12.9z"/>
			<path class="st6" d="M615.4,38.3c1.6,0,3.2,0.1,4.7,0.5c1.5,0.4,3,1,4.3,1.8c1.4,0.9,2.6,2,3.5,3.2c1.1,1.5,2,3.1,2.5,4.8
				l-5.7,0.9c-0.8-1.7-2-3.1-3.5-4.2c-1.5-1-3.2-1.5-4.9-1.5l2.5,16c1.2,0.3,2.5,0.6,3.7,1c1.2,0.3,2.4,0.7,3.5,1.1
				c1.1,0.4,2.2,0.9,3.2,1.5c1,0.6,1.9,1.2,2.7,2c0.8,0.8,1.5,1.7,2,2.7c0.5,1.1,0.9,2.3,1.1,3.5c0.3,1.9,0.2,3.9-0.3,5.8
				c-0.5,1.7-1.4,3.2-2.6,4.5c-1.2,1.3-2.6,2.4-4.1,3.3c-1.5,0.8-3.2,1.5-4.9,2l1.2,8l-5.8,0.9l-1.2-8.1c-1.8-0.1-3.5-0.5-5.1-1.2
				c-1.6-0.7-3.2-1.7-4.5-2.8c-1.4-1.2-2.7-2.6-3.7-4.2c-1.1-1.7-2-3.5-2.5-5.4l6.1-0.9c0.4,1.1,0.9,2.2,1.5,3.3
				c0.6,1,1.2,1.8,2,2.6c0.7,0.8,1.6,1.4,2.5,1.9c0.9,0.5,1.9,0.8,2.9,1l-2.6-17.4c-1.7-0.5-3.4-1-5-1.5c-1.6-0.5-3-1.2-4.4-2.1
				c-1.3-0.8-2.4-1.9-3.4-3.1c-1.8-2.7-2.4-6.1-1.5-9.3c0.4-1.5,1.2-2.9,2.1-4.1c1-1.3,2.2-2.4,3.5-3.3c1.4-0.9,3-1.7,4.6-2.2
				l-0.8-5.1l5.8-0.9L615.4,38.3L615.4,38.3z M605.1,52.2c0.1,0.8,0.4,1.6,0.8,2.2c0.4,0.7,1,1.3,1.6,1.7c0.7,0.5,1.5,1,2.3,1.3
				c0.9,0.4,1.9,0.7,2.8,1l-2.1-13.7c-1.8,0.5-3.3,1.5-4.4,3C605.2,49.1,604.8,50.7,605.1,52.2L605.1,52.2L605.1,52.2z M628.9,72.6
				c-0.1-0.8-0.5-1.6-1-2.2c-0.6-0.7-1.3-1.3-2.1-1.8c-0.9-0.6-1.8-1-2.8-1.4c-1-0.4-2.1-0.8-3.2-1.1l2.4,15.4
				c1.1-0.3,2.2-0.8,3.2-1.5c0.9-0.6,1.6-1.3,2.2-2.1c0.6-0.8,1-1.6,1.2-2.6C629,74.5,629,73.5,628.9,72.6L628.9,72.6L628.9,72.6z"
				/>
			<path class="st8" d="M617.8,96.8l-1.2-8.3c-1.7-0.2-3.3-0.6-4.8-1.2c-1.7-0.7-3.3-1.7-4.7-3c-1.5-1.3-2.8-2.7-3.8-4.3
				c-1.1-1.7-2-3.6-2.6-5.5l-0.3-0.7l7.5-1.2l0.2,0.6c0.4,1.1,0.9,2.1,1.5,3.1c0.5,0.9,1.2,1.8,1.9,2.5c0.7,0.7,1.4,1.2,2.2,1.7
				c0.5,0.3,1.1,0.5,1.7,0.7l-2.5-15.9c-1.6-0.5-3.2-0.9-4.6-1.5c-1.6-0.6-3.1-1.3-4.5-2.2c-1.4-0.9-2.6-2-3.5-3.3
				c-1-1.5-1.7-3.2-1.9-4.9c-0.3-1.7-0.2-3.4,0.3-5c0.5-1.5,1.3-2.9,2.3-4.2c1-1.3,2.3-2.5,3.7-3.4c1.3-0.9,2.7-1.6,4.2-2.1
				l-0.8-5.2l7.2-1.1l0.8,5.2c1.4,0,2.9,0.2,4.3,0.5c1.6,0.4,3.1,1,4.4,1.9c1.4,0.9,2.7,2.1,3.7,3.4c1.2,1.5,2,3.2,2.6,5l0.3,0.8
				l-7,1.1l-0.2-0.4c-0.8-1.6-1.9-2.9-3.3-3.9c-1.1-0.7-2.4-1.2-3.7-1.3l2.3,14.6l3.2,0.9c1.2,0.3,2.4,0.7,3.6,1.2
				c1.1,0.4,2.2,0.9,3.3,1.5c1,0.6,2,1.3,2.9,2.1c0.8,0.8,1.5,1.8,2,2.9c0.6,1.2,1,2.4,1.2,3.7c0.4,2.1,0.2,4.2-0.4,6.2
				c-0.6,1.8-1.5,3.4-2.7,4.8c-1.2,1.4-2.7,2.5-4.3,3.4c-1.4,0.8-2.9,1.4-4.4,1.9l1.2,8.1L617.8,96.8L617.8,96.8z M602.2,74.8
				c0.6,1.6,1.3,3,2.2,4.4c1,1.5,2.2,2.9,3.5,4.1c1.3,1.1,2.8,2,4.4,2.7c1.6,0.7,3.2,1.1,4.9,1.2h0.6l1.2,8l4.4-0.7l-1.2-7.9
				l0.6-0.2c1.6-0.5,3.2-1.1,4.7-1.9c1.5-0.8,2.7-1.9,3.8-3.1c1.1-1.2,1.9-2.7,2.4-4.3c0.5-1.8,0.7-3.7,0.3-5.5
				c-0.2-1.1-0.5-2.2-1-3.2c-0.5-0.9-1.1-1.8-1.9-2.5c-0.8-0.7-1.6-1.4-2.5-1.9c-1-0.6-2-1.1-3.1-1.5c-1.1-0.4-2.3-0.8-3.4-1.1
				s-2.4-0.7-3.6-1l-0.5,0l-2.7-17.2h0.8c1.9,0,3.7,0.6,5.3,1.6c1.5,1.1,2.6,2.4,3.5,4l4.4-0.7c-0.5-1.4-1.2-2.7-2.1-3.9
				c-0.9-1.2-2.1-2.2-3.4-3c-1.2-0.8-2.6-1.4-4.1-1.7c-1.5-0.4-3-0.5-4.5-0.5h-0.6l-0.8-5l-4.4,0.7l0.8,5l-0.6,0.2
				c-1.6,0.5-3.1,1.2-4.4,2.1c-1.3,0.8-2.4,1.9-3.4,3.1c-0.9,1.1-1.6,2.4-2,3.8c-0.8,3-0.3,6.1,1.4,8.6c0.9,1.2,1.9,2.2,3.2,3
				c1.3,0.9,2.7,1.5,4.2,2.1c1.5,0.5,3.2,1.1,4.9,1.5l0.4,0.1l3,18.7l-1-0.2c-1.1-0.2-2.1-0.5-3.1-1.1c-1-0.5-1.9-1.2-2.7-2
				c-0.8-0.9-1.5-1.8-2.1-2.8c-0.5-0.9-1-1.9-1.4-2.8L602.2,74.8L602.2,74.8z M621.5,82.5l-2.7-17.3l1.1,0.3
				c1.1,0.3,2.2,0.7,3.3,1.1c1,0.4,2,0.9,3,1.5c0.8,0.5,1.6,1.1,2.3,1.9c0.6,0.7,1,1.6,1.2,2.6l0,0c0.2,1,0.1,2.1-0.1,3.1
				c-0.3,1-0.7,2-1.4,2.8c-0.7,0.9-1.5,1.7-2.4,2.3c-1,0.7-2.2,1.2-3.4,1.6L621.5,82.5L621.5,82.5z M620.6,67.2l2.1,13.5
				c0.8-0.3,1.5-0.7,2.2-1.1c0.8-0.5,1.5-1.2,2.1-2c0.5-0.7,0.9-1.5,1.1-2.3c0.2-0.8,0.2-1.7,0.1-2.5c-0.1-0.7-0.4-1.4-0.9-1.9
				c-0.5-0.6-1.1-1.2-1.8-1.6c-0.9-0.5-1.8-1-2.7-1.3C622,67.6,621.3,67.4,620.6,67.2L620.6,67.2z M613.5,59.5l-1.1-0.3
				c-1-0.3-2-0.7-3-1.1c-0.9-0.4-1.7-0.8-2.4-1.4c-0.7-0.5-1.3-1.2-1.8-1.9c-0.5-0.8-0.8-1.6-0.9-2.5c-0.3-1.7,0.1-3.5,1.2-4.9
				c1.2-1.6,2.9-2.7,4.8-3.2l0.8-0.3C611.1,44,613.5,59.5,613.5,59.5z M610,45.8c-1.3,0.5-2.4,1.3-3.3,2.5c-0.8,1.1-1.1,2.5-0.9,3.8
				l0,0c0.1,0.7,0.3,1.4,0.7,2c0.4,0.6,0.9,1.1,1.5,1.6c0.7,0.5,1.4,0.9,2.1,1.2c0.5,0.2,1.1,0.4,1.7,0.7L610,45.8L610,45.8z"/>
			<path class="st20" d="M625.8,605.6c22.8,10.5,53.9,2.6,75.2-21.1c21.4-23.6,26-54.9,13.6-76.5l1.5-1.6l-10.4-9.4
				c-22.7-20.5-61.5-14.4-86.7,13.5c-25.2,27.9-27.3,67.2-4.6,87.6l9.8,9.4L625.8,605.6L625.8,605.6z"/>
			<path class="st12" d="M647.5,611c-7.4,0.1-14.7-1.5-21.5-4.4l-1.8,2l-10.3-9.9c-22.9-20.7-20.9-60.5,4.6-88.6
				c12.3-13.6,28.2-22.6,44.7-25.1c16.6-2.5,31.9,1.5,43,11.6l11,9.9l-1.6,1.8c12.6,22.3,6.9,53.9-13.9,76.9
				C686.5,601.8,666.4,611,647.5,611L647.5,611z M625.6,604.8l0.5,0.2c23,10.7,53.6,2.1,74.4-20.9c20.7-22.9,26.1-53.9,13.5-75.7
				l-0.3-0.5l1.4-1.5l-9.9-8.9c-10.8-9.7-25.6-13.7-41.8-11.2s-31.8,11.3-43.9,24.7c-24.9,27.6-27,66.4-4.7,86.6l9.3,8.9
				L625.6,604.8L625.6,604.8z"/>
			<path class="st6" d="M711.5,594c-25.2,27.9-64.6,33.9-87.3,13.4c-22.7-20.5-20-59.6,5.2-87.5c25.2-27.9,64-33.9,86.7-13.5
				C738.8,526.9,736.7,566.1,711.5,594z"/>
			<path class="st8" d="M657.6,620.4c-12.5,0.2-24.6-4.2-33.9-12.4c-22.7-20.5-20.4-60.3,5.2-88.5c25.6-28.3,64.8-34.3,87.7-13.6
				c11.1,10.1,16.8,24.8,15.9,41.6s-8.1,33.4-20.4,47.1l0,0C696.7,611.5,676.4,620.4,657.6,620.4L657.6,620.4z M683.1,495
				c-18.3,0-38.2,8.9-53.1,25.4c-25.1,27.7-27.4,66.5-5.3,86.5c22.5,20.3,61.2,14.4,86.3-13.4l0,0c12.1-13.4,19.2-29.8,20.1-46.1
				s-4.6-30.7-15.4-40.4C706.7,499.1,695,494.8,683.1,495L683.1,495L683.1,495z"/>
			<path class="st20" d="M704.1,587.4c-20.7,22.9-53.1,27.8-71.7,11c-18.6-16.8-16.4-49,4.3-71.9c20.7-22.9,52.6-27.9,71.2-11.1
				C726.6,532.3,724.9,564.5,704.1,587.4z"/>
			<path class="st12" d="M659.7,609.2c-10.2,0.2-20.1-3.4-27.8-10.2c-9.2-8.3-13.7-20.4-12.9-34.2c0.9-13.8,6.9-27.4,17.1-38.7
				c21-23.2,53.4-28.2,72.3-11.1c9.2,8.3,13.8,20.5,13.1,34.3c-2.5,29.7-24.6,54-53.9,59.4C665,609,662.4,609.2,659.7,609.2
				L659.7,609.2z M680.8,506.3c-15,0-31.3,7.2-43.5,20.8c-9.9,11-15.9,24.4-16.7,37.8c-0.8,13.4,3.5,25.1,12.4,33.1
				c8.8,8,21.1,11.3,34.4,9.2c14-2.4,26.8-9.5,36.2-20.2l0,0c9.7-10.4,15.5-23.7,16.5-37.8c0.7-13.4-3.8-25.1-12.6-33.1
				C700.1,509.5,690.6,506.1,680.8,506.3L680.8,506.3L680.8,506.3z"/>
			<path class="st6" d="M691.8,538.9c1.1,1.3,2.1,2.7,2.8,4.2c0.7,1.5,1.2,3,1.5,4.7c0.2,1.7,0.2,3.4-0.2,5.1
				c-0.4,1.9-1.1,3.7-2.2,5.3l-4.7-4c0.8-1.8,1.1-3.8,0.9-5.7c-0.2-1.8-1-3.6-2.2-5l-11.2,13c0.6,1.2,1.2,2.4,1.7,3.6
				c0.6,1.2,1.1,2.4,1.5,3.6c0.4,1.2,0.8,2.4,1,3.6c0.2,1.2,0.3,2.4,0.2,3.5c-0.2,2.5-1.2,4.8-2.8,6.7c-1.3,1.6-3,2.9-4.9,3.7
				c-1.7,0.7-3.6,1.1-5.4,1c-1.9,0-3.7-0.4-5.5-1.1c-1.8-0.7-3.4-1.5-5-2.6l-5.6,6.5l-4.7-4l5.7-6.6c-1.1-1.5-2-3.2-2.6-5
				c-0.6-1.8-0.8-3.7-0.8-5.6c0-2,0.3-4,0.9-5.9c0.6-2,1.5-4,2.6-5.7l4.9,4.3c-0.7,1.1-1.2,2.3-1.6,3.5c-0.4,1.1-0.6,2.3-0.7,3.5
				c-0.1,1.1,0,2.2,0.2,3.3c0.2,1,0.6,2,1.2,3l12.2-14.1c-0.8-1.7-1.5-3.4-2.2-5.1c-0.6-1.6-1.1-3.3-1.3-5c-0.2-1.6-0.2-3.3,0.2-4.9
				c1-3.3,3.3-6.1,6.5-7.6c1.5-0.7,3.1-1,4.8-1.1c1.7-0.1,3.4,0.2,5.1,0.6c1.7,0.5,3.4,1.2,4.9,2.2l3.6-4.2l4.7,4.1L691.8,538.9
				L691.8,538.9z M673.5,540.1c-0.6,0.6-1,1.4-1.2,2.2c-0.2,0.8-0.3,1.7-0.3,2.5c0.1,0.9,0.2,1.9,0.5,2.8c0.3,1,0.7,2,1.1,3
				l9.6-11.1c-1.6-1.1-3.5-1.6-5.5-1.5C676,538.1,674.5,538.9,673.5,540.1L673.5,540.1L673.5,540.1z M673.4,573.5
				c0.6-0.7,1-1.5,1.1-2.4c0.2-1,0.2-2,0-3c-0.2-1.1-0.4-2.2-0.8-3.2c-0.4-1.1-0.9-2.2-1.4-3.3l-10.8,12.5c1,0.7,2.2,1.2,3.4,1.6
				c1.1,0.3,2.2,0.4,3.2,0.3c1-0.1,2-0.3,3-0.8C671.9,574.8,672.7,574.2,673.4,573.5L673.4,573.5L673.4,573.5z"/>
			<path class="st8" d="M652,586.3l-5.9-5l5.8-6.7c-1-1.5-1.8-3-2.3-4.7c-0.6-1.9-0.9-3.9-0.9-5.9c0-2.1,0.3-4.1,0.9-6.1
				c0.6-2.1,1.5-4.1,2.7-5.9l0.5-0.7l6.1,5.3l-0.3,0.5c-0.6,1-1.1,2.2-1.5,3.3c-0.4,1.1-0.6,2.2-0.7,3.3c-0.1,1,0,2.1,0.2,3.1
				c0.1,0.6,0.3,1.2,0.6,1.8l11.1-12.9c-0.8-1.6-1.5-3.2-2-4.7c-0.7-1.7-1.1-3.4-1.4-5.2c-0.2-1.7-0.2-3.5,0.2-5.2
				c0.5-1.8,1.4-3.5,2.7-4.9c1.2-1.4,2.6-2.4,4.2-3.2c1.6-0.7,3.3-1.1,5-1.2c1.8-0.1,3.6,0.2,5.3,0.7c1.6,0.5,3.1,1.1,4.6,2l3.7-4.3
				l5.9,5l-3.7,4.3c1,1.2,1.8,2.5,2.5,3.8c0.8,1.5,1.3,3.2,1.6,4.9c0.3,1.8,0.2,3.6-0.2,5.4c-0.4,2-1.2,3.9-2.3,5.6l-0.5,0.8
				l-5.8-4.9l0.2-0.5c0.7-1.7,1-3.5,0.9-5.4c-0.2-1.4-0.7-2.7-1.5-3.9l-10.3,11.9c0.5,1.1,1,2.1,1.5,3.2c0.5,1.1,1.1,2.5,1.5,3.7
				c0.4,1.2,0.8,2.4,1,3.7c0.2,1.2,0.3,2.5,0.2,3.7c-0.1,1.3-0.4,2.5-0.8,3.7c-0.5,1.3-1.3,2.5-2.2,3.5c-1.4,1.7-3.2,3.1-5.2,3.9
				c-1.8,0.7-3.8,1.1-5.7,1.1c-2,0-3.9-0.4-5.7-1.1c-1.6-0.6-3.1-1.4-4.5-2.3L652,586.3L652,586.3z M648.3,581l3.6,3.1l5.6-6.4
				l0.6,0.4c1.5,1,3.1,1.8,4.8,2.5c1.7,0.6,3.4,1,5.2,1c1.8,0,3.5-0.3,5.1-1c1.8-0.8,3.4-2,4.7-3.5c1.5-1.7,2.5-3.9,2.6-6.3
				c0.1-1.1,0-2.3-0.2-3.4c-0.2-1.2-0.6-2.3-1-3.5c-0.4-1.2-0.9-2.4-1.5-3.6c-0.6-1.2-1.1-2.4-1.7-3.6l-0.2-0.4l12.1-14.1l0.6,0.7
				c1.3,1.5,2.1,3.4,2.4,5.4c0.2,1.9-0.1,3.8-0.8,5.6l3.6,3.1c0.8-1.4,1.3-2.8,1.6-4.3c0.3-1.6,0.4-3.2,0.2-4.8
				c-0.3-1.5-0.8-3-1.5-4.4c-0.7-1.4-1.7-2.8-2.7-4l-0.4-0.5l3.5-4.1l-3.6-3.1l-3.5,4.1l-0.6-0.3c-1.5-0.9-3.1-1.6-4.7-2.1
				c-1.6-0.5-3.2-0.7-4.8-0.6c-1.5,0.1-3,0.4-4.4,1c-1.4,0.6-2.7,1.6-3.7,2.8c-1.1,1.2-1.9,2.7-2.4,4.3c-0.4,1.5-0.4,3.1-0.2,4.6
				c0.2,1.7,0.7,3.3,1.3,4.9c0.6,1.6,1.4,3.3,2.2,5l0.2,0.4l-13.1,15.3l-0.5-0.9c-0.6-1-1-2.1-1.3-3.2c-0.2-1.2-0.3-2.3-0.2-3.5
				c0.1-1.2,0.4-2.5,0.8-3.6c0.4-1.1,0.8-2.1,1.4-3.1l-3.8-3.3c-0.9,1.5-1.6,3.1-2.1,4.8c-0.5,1.8-0.8,3.8-0.8,5.7
				c0,1.8,0.3,3.7,0.8,5.4c0.5,1.7,1.4,3.3,2.4,4.8l0.3,0.5L648.3,581L648.3,581z M667.5,576.8c-1,0-2-0.1-3-0.4
				c-1.3-0.4-2.5-0.9-3.6-1.6l-0.7-0.5l12.1-14.1l0.5,1.1c0.5,1.1,1,2.3,1.4,3.4c0.4,1.1,0.7,2.2,0.9,3.4c0.2,1,0.2,2.1,0,3.1
				c-0.2,1-0.6,2-1.3,2.7l0,0c-1.4,1.7-3.5,2.8-5.8,3L667.5,576.8L667.5,576.8z M662.6,574c0.8,0.4,1.6,0.8,2.4,1c1,0.3,2,0.4,3,0.3
				c0.9-0.1,1.8-0.3,2.6-0.7c0.8-0.4,1.5-1,2.1-1.7c0.5-0.6,0.8-1.3,0.9-2c0.1-0.9,0.1-1.8,0-2.7c-0.2-1-0.4-2.1-0.8-3.1
				c-0.3-0.7-0.6-1.5-0.9-2.2L662.6,574L662.6,574z M673.3,552l-0.5-1.1c-0.5-1-0.8-2-1.1-3.1c-0.3-1-0.5-2-0.5-3
				c-0.1-0.9,0-1.9,0.3-2.8c0.3-0.9,0.8-1.8,1.4-2.5l0,0c1.2-1.4,2.9-2.3,4.7-2.4c2.1-0.1,4.2,0.4,5.9,1.6l0.8,0.5L673.3,552
				L673.3,552z M678.3,538.7h-0.6c-1.4,0.1-2.8,0.8-3.7,1.9l0,0c-0.5,0.5-0.9,1.2-1.1,1.9c-0.2,0.7-0.3,1.5-0.2,2.2
				c0.1,0.9,0.2,1.8,0.5,2.6c0.2,0.6,0.4,1.2,0.6,1.8l8.2-9.5C680.8,539.1,679.6,538.7,678.3,538.7L678.3,538.7L678.3,538.7z"/>
			<path class="st20" d="M792.9,357c26.8-13,42.9-47.5,37.2-84.8c-5.6-37.1-30.8-65.2-60-70l-0.4-2.6l-16.5,2.5
				c-35.8,5.4-59.4,45.6-52.8,89.7c6.7,44.1,41.1,75.5,76.9,70.1l16-2L792.9,357L792.9,357z"/>
			<path class="st12" d="M769.3,363.2c-33.1,0-63.4-30.2-69.6-71.3c-3.2-21.5,0.5-42.8,10.6-59.8c10.1-17.1,25.3-28,42.8-30.7
				l17.2-2.6l0.4,2.8c29.9,5.2,54.6,34.1,60.1,70.5c5.5,36.7-9.7,71.8-37.2,85.4l0.4,3.1l-16.7,2.1C774.7,363,772,363.2,769.3,363.2
				L769.3,363.2z M769.1,200.4l-15.8,2.4c-17.1,2.6-31.9,13.3-41.8,30c-9.9,16.7-13.6,37.7-10.3,58.9c6.6,43.7,40.7,74.8,76.1,69.5
				l15.2-1.9l-0.4-2.6l0.5-0.2c27.2-13.2,42.3-47.7,36.9-84.1c-5.4-36-29.9-64.5-59.4-69.3l-0.5-0.1L769.1,200.4L769.1,200.4z"/>
			<path class="st6" d="M846.7,269.7c6.7,44.1-17.5,84.8-53.3,90.2c-35.8,5.4-69.8-26.5-76.4-70.6c-6.7-44.1,17-84.3,52.8-89.7
				C805.6,194.2,840,225.5,846.7,269.7z"/>
			<path class="st8" d="M785.5,361.2c-32.9,0-63-30.5-69.3-71.8c-6.7-44.4,17.3-85.1,53.4-90.5c17.5-2.6,35.3,3.3,50,16.7
				c14.7,13.4,24.5,32.6,27.8,54.1l0,0c6.8,44.7-17.5,85.6-53.9,91C790.8,361,788.2,361.2,785.5,361.2L785.5,361.2z M777.9,199.7
				c-2.7,0-5.3,0.2-8,0.6c-35.4,5.3-58.8,45.2-52.2,88.8c6.1,40.6,35.7,70.6,67.9,70.6c2.6,0,5.2-0.2,7.7-0.6
				c35.7-5.4,59.3-45.5,52.7-89.3l0,0c-3.2-21.2-12.9-40.1-27.3-53.2C806.5,205.5,792.3,199.7,777.9,199.7L777.9,199.7z"/>
			<path class="st20" d="M835.1,271.4c5.5,36.2-14.4,69.6-43.8,74.1c-29.4,4.4-57.3-21.8-62.7-58s14-69.2,43.4-73.6
				C801.3,209.4,829.6,235.2,835.1,271.4L835.1,271.4z"/>
			<path class="st12" d="M784.8,346.7c-12.2,0-24.2-5-34.3-14.4c-11.9-11.1-19.9-26.9-22.6-44.7c-5.5-36.6,14.2-70,44-74.5
				c14.5-2.2,29.1,2.7,41.2,13.7s20.1,26.9,22.8,44.6l0,0c2.7,17.7-0.5,35.2-8.9,49.4c-8.4,14.2-21,23.3-35.5,25.5
				C789.2,346.6,787,346.7,784.8,346.7L784.8,346.7z M778.6,214.1c-2.2,0-4.4,0.2-6.6,0.5c-29,4.4-48.1,37-42.8,72.8
				c2.6,17.4,10.5,33,22.1,43.8s25.8,15.7,39.7,13.5c14-2.1,26.2-10.9,34.4-24.7c8.4-14.7,11.5-31.8,8.7-48.5l0,0
				c-2.6-17.4-10.6-32.9-22.4-43.6C802.1,218.9,790.4,214.1,778.6,214.1L778.6,214.1L778.6,214.1z"/>
			<path class="st6" d="M781.3,246.3c2-0.1,4,0.1,5.9,0.5c1.9,0.4,3.8,1.1,5.4,2.1c1.7,1.1,3.3,2.4,4.5,4c1.4,1.8,2.5,3.8,3.3,6
				l-7.2,1.3c-1.1-2.1-2.6-3.8-4.5-5.2c-1.9-1.2-4-1.8-6.2-1.7l3.5,20.1c1.6,0.4,3.1,0.7,4.7,1.1c1.5,0.4,3,0.8,4.4,1.3
				c1.4,0.5,2.7,1.1,4,1.8c1.2,0.7,2.4,1.5,3.4,2.4c2.2,2,3.6,4.7,4,7.6c0.5,2.5,0.4,5-0.3,7.4c-0.6,2.1-1.7,4.1-3.1,5.8
				c-1.4,1.7-3.2,3.1-5.1,4.2c-1.9,1.1-4,2-6.1,2.6l1.8,10l-7.3,1.3l-1.7-10.3c-2.2-0.1-4.4-0.6-6.5-1.5c-2.1-0.8-4.1-2-5.8-3.4
				c-1.8-1.5-3.4-3.3-4.8-5.2c-1.4-2.1-2.5-4.3-3.3-6.7l7.6-1.3c0.5,1.4,1.2,2.8,2,4.1c0.7,1.2,1.6,2.3,2.6,3.3
				c0.9,0.9,2,1.7,3.2,2.3c1.1,0.6,2.4,1,3.6,1.1l-3.8-21.8c-2.2-0.5-4.3-1.1-6.3-1.8c-2-0.6-3.9-1.5-5.6-2.6
				c-1.7-1-3.1-2.3-4.3-3.9c-2.4-3.4-3.1-7.6-2.1-11.6c0.5-1.9,1.4-3.6,2.6-5.2c1.2-1.6,2.7-3,4.4-4.2c1.8-1.2,3.7-2.2,5.7-2.9
				l-1.1-6.4l7.3-1.3L781.3,246.3L781.3,246.3z M768.5,264c0.2,1,0.5,2,1.1,2.8c0.6,0.8,1.3,1.5,2.1,2.1c0.9,0.7,1.9,1.2,3,1.6
				c1.2,0.5,2.4,0.9,3.6,1.2l-3-17.2c-2.2,0.7-4.1,2-5.5,3.9C768.7,260.1,768.2,262.1,768.5,264L768.5,264z M799,289.1
				c-0.2-1-0.6-2-1.3-2.8c-0.8-0.9-1.7-1.6-2.7-2.2c-1.1-0.7-2.3-1.2-3.6-1.7c-1.3-0.5-2.7-0.9-4.1-1.2l3.4,19.3
				c1.4-0.4,2.7-1.1,3.9-1.9c1.1-0.8,2-1.7,2.8-2.7c0.7-1,1.2-2.1,1.5-3.3C799.2,291.5,799.3,290.4,799,289.1L799,289.1L799,289.1z"
				/>
			<path class="st8" d="M785.8,319.9l-1.8-10.3c-2.1-0.2-4.1-0.7-6.1-1.5c-2.2-0.9-4.2-2.1-6-3.6c-1.9-1.5-3.5-3.4-4.9-5.4
				c-1.5-2.1-2.6-4.5-3.4-6.9l-0.3-1l9.4-1.6l0.2,0.7c0.5,1.4,1.1,2.7,1.9,3.9c0.7,1.1,1.5,2.2,2.5,3.1c0.9,0.9,1.9,1.6,3,2.1
				c0.7,0.4,1.4,0.6,2.2,0.8l-3.5-20c-2-0.5-4-1.1-5.8-1.7c-2-0.6-4-1.5-5.8-2.6c-1.8-1.1-3.3-2.5-4.5-4.1
				c-2.5-3.6-3.4-8.2-2.3-12.4c0.5-2,1.5-3.8,2.7-5.5c1.3-1.7,2.8-3.2,4.6-4.4c1.6-1.1,3.4-2,5.2-2.7l-1.2-6.6l9-1.6l1.2,6.6
				c1.8,0,3.6,0.1,5.4,0.6c2,0.4,3.9,1.2,5.7,2.2c1.8,1.1,3.4,2.5,4.8,4.2c1.5,1.9,2.6,4,3.4,6.3l0.3,1l-8.9,1.5l-0.3-0.6
				c-1-1.9-2.5-3.6-4.3-4.9c-1.4-0.9-3-1.4-4.7-1.5l3.2,18.4l4.1,1c1.5,0.4,3,0.8,4.5,1.4c1.4,0.5,2.8,1.1,4.2,1.8
				c1.3,0.7,2.5,1.6,3.6,2.6c1.1,1,2,2.2,2.7,3.5c0.8,1.4,1.3,3,1.6,4.6c0.5,2.6,0.4,5.2-0.3,7.8c-0.7,2.2-1.8,4.3-3.3,6.1
				c-1.5,1.8-3.3,3.3-5.3,4.4c-1.7,1-3.6,1.8-5.5,2.5l1.8,10.1L785.8,319.9L785.8,319.9z M765.6,292.7c0.7,1.9,1.7,3.8,2.9,5.5
				c1.3,1.9,2.8,3.6,4.6,5c1.7,1.4,3.5,2.5,5.6,3.3c2,0.8,4.1,1.3,6.2,1.3h0.7l1.8,10l5.5-1L791,307l0.8-0.2c2.1-0.6,4-1.5,5.9-2.5
				c1.8-1,3.5-2.4,4.8-4c1.3-1.6,2.3-3.5,3-5.5c0.6-2.3,0.7-4.6,0.3-6.9c-0.2-1.4-0.7-2.8-1.4-4c-0.6-1.2-1.5-2.2-2.4-3.1
				c-1-0.9-2.1-1.7-3.2-2.3c-1.3-0.7-2.6-1.3-3.9-1.7c-1.4-0.5-2.9-1-4.4-1.3c-1.5-0.4-3.1-0.8-4.6-1.1l-0.6-0.1l-3.8-21.7h1.1
				c2.4,0,4.7,0.6,6.6,1.9c1.8,1.3,3.4,3,4.5,4.9l5.5-1c-0.7-1.7-1.6-3.3-2.7-4.8c-1.2-1.5-2.7-2.8-4.3-3.8c-1.6-0.9-3.3-1.6-5.2-2
				c-1.9-0.4-3.8-0.6-5.7-0.5h-0.8l-1.1-6.3l-5.5,1l1.1,6.3l-0.7,0.2c-2,0.7-3.8,1.6-5.5,2.7c-1.6,1.1-3,2.4-4.2,4
				c-1.1,1.5-1.9,3.1-2.4,4.9c-0.9,3.7-0.2,7.7,2,10.9c1.1,1.5,2.5,2.7,4,3.6c1.7,1,3.5,1.9,5.4,2.5c2,0.6,4,1.2,6.3,1.8l0.6,0.1
				l4.1,23.6l-1.2-0.1c-1.4-0.2-2.7-0.6-3.9-1.2c-1.2-0.6-2.4-1.5-3.4-2.5c-1-1-2-2.2-2.8-3.5c-0.7-1.1-1.3-2.3-1.8-3.5L765.6,292.7
				L765.6,292.7z M790.1,301.8l-3.8-21.7l1.3,0.4c1.5,0.4,2.8,0.8,4.2,1.3c1.3,0.5,2.6,1,3.7,1.7c1.1,0.6,2.1,1.4,3,2.3
				c0.8,0.9,1.3,2.1,1.5,3.3l0,0c0.2,1.3,0.2,2.6-0.1,3.9c-0.3,1.3-0.9,2.5-1.6,3.6c-0.8,1.1-1.8,2.1-3,3c-1.3,0.9-2.7,1.6-4.2,2.1
				L790.1,301.8L790.1,301.8z M788.6,282.5l3,16.9c1-0.4,1.9-0.9,2.7-1.5c1-0.7,1.8-1.6,2.6-2.5c0.6-0.9,1.1-1.9,1.3-3
				c0.2-1.1,0.2-2.1,0-3.2c-0.2-0.9-0.5-1.7-1.1-2.4c-0.7-0.8-1.5-1.5-2.5-2c-1.1-0.6-2.2-1.2-3.4-1.6
				C790.3,283.1,789.5,282.8,788.6,282.5L788.6,282.5L788.6,282.5z M779.4,273.1l-1.4-0.4c-1.3-0.4-2.5-0.8-3.7-1.3
				c-1.1-0.5-2.1-1-3.1-1.7c-0.9-0.7-1.7-1.4-2.3-2.4c-0.6-1-1.1-2-1.2-3.2c-0.4-2.1,0.1-4.4,1.3-6.1c1.5-2,3.5-3.5,5.9-4.3l1-0.4
				L779.4,273.1L779.4,273.1z M774.6,255.9c-1.6,0.7-3,1.8-4.1,3.2c-1,1.4-1.4,3.2-1,4.9l0,0c0.1,0.9,0.5,1.7,1,2.4
				c0.5,0.7,1.1,1.4,1.9,1.9c0.8,0.6,1.8,1.1,2.7,1.5c0.7,0.3,1.4,0.5,2.1,0.8L774.6,255.9L774.6,255.9z"/>
		</g>
	</g>
</g>
</svg>
